
<svg xmlns="http://www.w3.org/2000/svg" version="1.1" xmlns:xlink="http://www.w3.org/1999/xlink" preserveAspectRatio="none" x="0px" y="0px" width="400px" height="400px" viewBox="0 0 400 400">
<defs>
<g id="Symbol_1_1_Layer0_0_FILL">
<path fill="#DE4034" stroke="none" d="
M 811.15 170.95
Q 810.9 170.75 810.6 170.55 810.35 170.3 810.05 170.1 809.8 169.9 809.5 169.75 809.25 169.55 808.95 169.35 808.65 169.15 808.4 168.95 808.1 168.75 807.8 168.6 807.5 168.45 807.25 168.25 806.95 168.05 806.65 167.9 806.35 167.7 806.05 167.55 805.75 167.35 805.45 167.15 805.15 167 804.9 166.85 804.6 166.65 804.3 166.45 804 166.3 803.7 166.1 803.4 165.95 803.1 165.8 802.8 165.65 802.5 165.5 802.15 165.3 801.85 165.15 801.55 165 801.2 164.85 800.9 164.7 800.55 164.55 800.25 164.4 799.9 164.25 799.6 164.15 799.25 164 798.95 163.85 798.65 163.7 798.3 163.55 798 163.4 797.65 163.25 797.3 163.1 796.95 163 796.6 162.85 796.25 162.7 795.9 162.55 795.55 162.4 795.2 162.25 794.85 162.1 794.5 161.95 794.15 161.8 793.8 161.65 793.45 161.55 793.1 161.4 792.75 161.25 792.4 161.1 792.05 160.95 791.7 160.8 791.35 160.65 791.05 160.45 790.7 160.3 790.35 160.2 790 160.05 789.65 159.9 789.3 159.7 788.95 159.55 788.65 159.4 788.3 159.25 787.95 159.1 787.6 158.95 787.25 158.85 786.9 158.7 786.55 158.55 786.2 158.4 785.9 158.25 785.55 158.05 785.2 157.95 784.9 157.8 784.6 157.65 784.3 157.5 783.95 157.45 783.65 157.3 783.35 157.15 783 157.05 782.7 156.9 782.35 156.75 782.05 156.65 781.75 156.5 781.4 156.4 781.1 156.25 781 156.2 780.95 156.2 780.9 156.15 780.85 156.15
L 780.8 156.15
Q 780.75 156.15 780.7 156.15 780.65 156.1 780.6 156.1
L 780.5 156.1
Q 780.45 156.05 780.4 156.05 780.1 155.9 779.75 155.75 779.4 155.6 779.1 155.5 778.75 155.35 778.4 155.2 778.05 155.05 777.75 154.95 777.4 154.8 777.05 154.7 776.7 154.6 776.4 154.45 776.05 154.3 775.7 154.2 775.35 154.05 775 153.95 774.7 153.8 774.35 153.65 774 153.55 773.65 153.45 773.3 153.35 772.95 153.25 772.6 153.1 772.3 153 771.95 152.9 771.6 152.8 771.25 152.65 770.9 152.55 770.55 152.45 770.2 152.35 769.85 152.25 769.5 152.15 769.15 152 768.85 151.95 768.5 151.85 768.15 151.75 767.8 151.65 767.45 151.55 767.1 151.45 766.75 151.35 766.4 151.25 766.05 151.15 765.7 151.05 765.35 150.95 765 150.85 764.65 150.75 764.3 150.65 763.95 150.6 763.6 150.5 763.25 150.45 762.9 150.35 762.55 150.25 762.2 150.15 761.85 150.05 761.5 150 761.15 149.9 760.75 149.8 760.4 149.75 760.05 149.65 759.7 149.6 759.35 149.5 759 149.45 758.65 149.35 758.25 149.3 757.9 149.25 757.55 149.2 757.2 149.15 756.8 149.1 756.45 149.05 756.1 149 755.75 148.95 755.4 148.9 755 148.85 754.65 148.85 754.3 148.8 753.9 148.75 753.55 148.75 753.2 148.7 752.8 148.7 752.45 148.65 752.1 148.65 751.7 148.65 751.35 148.6 751 148.6 750.6 148.6 750.25 148.55 749.9 148.55 749.5 148.55 749.15 148.5 748.75 148.5 748.4 148.5 748.05 148.45 747.65 148.45 747.3 148.45 746.95 148.4 746.55 148.4 746.2 148.35 745.85 148.35 745.45 148.3 745.1 148.3 744.8 148.25 744.5 148.2 744.2 148.15 743.9 148.1 743.6 148 743.3 147.95 743 147.9 742.7 147.85 742.45 147.8 742.15 147.7 741.95 147.6 741.8 147.5
L 741.75 147.45
Q 741.75 147.35 741.7 147.3 741.646875 147.246875 741.6 147.2 741.6 147.10625 741.55 147.05 741.6029296875 147.1060546875 741.65 147.2 741.65 147.246875 741.7 147.3 741.65 147.05 741.55 146.8 741.45 146.5 741.35 146.15 741.25 145.85 741.2 145.5 741.1 145.15 741 144.9 740.95 144.55 740.9 144.2 740.8 143.85 740.75 143.6 740.7 143.25 740.65 142.9 740.6 142.5 740.55 142.2 740.5 141.8 740.45 141.45 740.45 141.05 740.4 140.7 740.35 140.35 740.35 139.95 740.35 139.6 740.35 139.25 740.35 138.85 740.35 138.5 740.35 138.15 740.4 137.75 740.45 137.4 740.55 137.05 740.65 136.75 740.7 136.4 740.8 136.05 740.95 135.7 741.05 135.4 741.15 135.05 741.3 134.7 741.4 134.35 741.55 134.05 741.7 133.7 741.85 133.35 742 133 742.15 132.7 742.3 132.35 742.45 132 742.6 131.65 742.75 131.35 742.85 131 742.95 130.8 743 130.65
L 743.05 130.55
Q 743.1 130.45 743.15 130.35 743.25 130 743.4 129.7 743.55 129.35 743.65 129.05 743.8 128.7 743.95 128.4 744.05 128.05 744.2 127.7 744.3 127.4 744.45 127.1 744.55 126.75 744.65 126.4 744.8 126.05 744.9 125.8 745 125.45 745.1 125.1 745.2 124.75 745.3 124.45 745.4 124.1 745.5 123.75 745.6 123.4 745.7 123.1 745.8 122.75 745.85 122.4 745.95 122.05 746 121.7 746.1 121.4 746.15 121.05 746.2 120.75 746.25 120.4 746.3 120.1 746.4 119.8 746.45 119.45 746.5 119.1 746.5 118.8 746.55 118.5 746.6 118.15 746.65 117.8 746.7 117.55 746.7 117.2 746.75 116.85 746.75 116.5 746.8 116.2 746.8 115.8 746.8 115.4 746.85 115.05 746.85 114.7 746.85 114.3 746.85 113.95 746.85 113.55 746.85 113.2 746.85 112.85 746.8 112.45 746.8 112.05 746.8 111.75 746.8 111.4 746.8 111.05 746.8 110.7 746.75 110.35 746.75 110 746.75 109.65 746.75 109.3 746.7 108.95 746.7 108.6 746.7 108.25 746.65 107.95 746.65 107.6 746.65 107.2 746.6 106.85 746.6 106.55 746.55 106.2 746.5 105.85 746.5 105.5 746.45 105.15 746.4 104.8 746.35 104.45 746.3 104.1 746.25 103.8 746.2 103.45 746.15 103.1 746.1 102.7 746.05 102.4 746 102.1 745.9 101.75 745.85 101.45 745.75 101.15 745.65 100.85 745.55 100.55 745.45 100.25 745.35 99.95 745.2 99.65 745.1 99.35 744.95 99.05 744.8 98.75 744.65 98.5 744.5 98.25 744.35 97.95 744.2 97.65 744 97.35 743.8 97.05 743.6 96.8 743.4 96.5 743.2 96.2 742.95 95.9 742.75 95.6 742.55 95.35 742.35 95.05 742.1 94.75 741.9 94.45 741.65 94.15 741.4 93.95 741.2 93.65 740.95 93.4 740.75 93.1 740.5 92.85 740.25 92.65 740 92.4 739.75 92.15 739.5 91.85 739.2 91.6 738.95 91.4 738.7 91.2 738.45 90.95 738.15 90.7 737.9 90.45 737.6 90.25 737.35 90.05 737.05 89.85 736.8 89.65 736.55 89.45 736.3 89.25 736.05 89.05 735.75 88.85 735.5 88.7 735.25 88.55 734.95 88.4 734.7 88.2 734.4 88.05 734.1 87.9 733.85 87.75 733.55 87.6 733.25 87.45 732.95 87.35 732.65 87.25 732.35 87.1 732.05 87 731.75 86.9 731.45 86.75 731.15 86.65 730.85 86.55 730.55 86.5 730.2 86.4 729.9 86.3 729.55 86.25 729.2 86.2 728.9 86.15 728.55 86.1 728.2 86.05 727.9 86.05 727.55 86 727.25 85.95 726.95 85.95 726.65 85.9 726.35 85.9 726.05 85.9 725.75 85.9 725.45 85.9 725.15 85.9 724.8 85.9 724.4 85.9 724.05 85.9 723.7 85.9 723.3 85.9 722.95 85.9 722.6 85.9 722.25 85.9 721.85 85.9 721.5 85.9 721.15 85.9 720.8 85.9 720.4 85.9 720.05 85.9 719.7 85.9 719.35 85.9 719 85.9 718.65 85.9 718.3 85.95 717.95 85.95 717.6 85.95 717.25 85.95 716.85 85.95 716.5 86 716.15 86 715.8 86 715.45 86.05 715.1 86.05 714.75 86.1 714.4 86.1 714.05 86.15 713.65 86.15 713.25 86.2 712.9 86.25 712.5 86.3 712.15 86.3 711.75 86.35 711.4 86.4 711 86.45 710.65 86.5 710.25 86.55 709.9 86.6 709.5 86.7 709.15 86.75 708.75 86.8 708.35 86.85 708 86.9 707.6 86.95 707.2 86.95 706.85 87 706.45 87.05 706.05 87.1 705.7 87.1 705.3 87.15 704.95 87.2 704.55 87.25 704.15 87.25 703.8 87.3 703.4 87.3 703.05 87.3 702.7 87.35 702.3 87.4 701.95 87.45 701.6 87.5 701.25 87.55 700.85 87.6 700.5 87.65 700.15 87.75 699.75 87.8 699.4 87.9 699.05 87.95 698.7 88.05 698.35 88.15 698 88.25 697.65 88.35 697.3 88.45 697 88.55 696.65 88.65 696.35 88.7 696 88.85 695.65 88.95 695.35 89.05 695 89.2 694.7 89.3 694.4 89.45 694.1 89.6 693.8 89.7 693.55 89.85 693.25 90.05 693 90.15 692.7 90.35 692.45 90.55 692.2 90.75 692 90.95 691.75 91.2 691.55 91.4 691.35 91.65 691.15 91.85 690.95 92.1 690.75 92.35 690.55 92.65 690.35 92.85 690.15 93.15 689.95 93.4 689.75 93.7 689.55 94 689.4 94.2 689.2 94.5 689 94.8 688.85 95.1 688.7 95.4 688.5 95.7 688.35 96 688.15 96.3 688 96.65 687.85 96.9 687.7 97.25 687.55 97.55 687.4 97.9 687.25 98.2 687.1 98.5 686.95 98.85 686.85 99.15 686.7 99.5 686.55 99.8 686.45 100.1 686.3 100.45 686.2 100.8 686.1 101.1 685.95 101.45 685.85 101.75 685.75 102.1 685.65 102.45 685.55 102.75 685.45 103.1 685.35 103.45 685.25 103.8 685.15 104.1 685.1 104.45 685 104.8 684.95 105.15 684.85 105.45 684.8 105.8 684.7 106.15 684.65 106.5 684.6 106.8 684.55 107.15 684.5 107.5 684.45 107.85 684.4 108.15 684.35 108.55 684.3 108.9 684.3 109.25 684.25 109.55 684.25 109.95 684.2 110.3 684.2 110.7 684.15 111 684.15 111.4 684.15 111.75 684.15 112.1 684.15 112.45 684.15 112.85 684.15 113.2 684.2 113.5 684.2 113.9 684.25 114.25 684.3 114.6 684.3 114.9 684.35 115.3 684.4 115.65 684.45 116 684.5 116.35 684.55 116.7 684.6 117.05 684.65 117.45 684.7 117.75 684.75 118.1 684.8 118.5 684.85 118.85 684.95 119.15 685.05 119.45 685.1 119.8 685.2 120.1 685.3 120.4 685.4 120.7 685.55 121.05 685.65 121.35 685.8 121.65 685.9 121.9 686.05 122.25 686.2 122.55 686.35 122.85 686.45 123.1 686.6 123.35 686.75 123.65 686.95 123.95 687.1 124.25 687.25 124.45 687.45 124.75 687.6 125 687.8 125.3 687.95 125.55 688.15 125.8 688.3 126.05 688.5 126.3 688.7 126.55 688.9 126.85 689.1 127.1 689.3 127.35 689.5 127.6 689.7 127.9 689.95 128.2 690.15 128.45 690.35 128.7 690.6 128.95 690.8 129.2 691 129.45 691.2 129.7 691.4 129.95 691.6 130.1 691.8 130.35 692 130.6 692.2 130.85 692.4 131.1 692.6 131.35 692.75 131.65 692.95 131.9 693.1 132.2 693.3 132.5 693.35 132.75 693.45 132.95 693.5 133.2 693.55 133.45 693.55 133.8 693.6 134.1 693.5 134.4 693.45 134.7 693.4 135 693.3 135.3 693.2 135.55 693.15 135.8 693.05 136.1 692.95 136.4 692.85 136.7 692.75 136.9 692.6 137.25 692.45 137.65 692.3 138 692.15 138.3 691.95 138.65 691.8 139 691.65 139.35 691.5 139.65 691.4 139.95 691.25 140.3 691.1 140.6 691 140.95 690.85 141.2 690.75 141.5 690.6 141.85 690.5 142.15 690.35 142.45 690.25 142.75 690.1 143.1 690 143.4 689.85 143.75 689.7 144.05 689.55 144.35 689.45 144.7 689.3 145 689.15 145.3 688.95 145.6 688.8 145.95 688.65 146.25 688.5 146.5 688.3 146.8 688.15 147.15 687.95 147.45 687.75 147.75 687.6 147.9 687.4 148.1 687.25 148.25 687.05 148.45 686.75 148.65 686.45 148.8 686.15 149 685.85 149.15 685.55 149.3 685.25 149.45 684.95 149.6 684.65 149.75 684.35 149.9 684 150.05 683.7 150.2 683.4 150.35 683.05 150.5 682.7 150.65 682.35 150.75 682 150.95 681.65 151.1 681.3 151.25 680.95 151.4 680.65 151.6 680.3 151.75 679.95 151.9 679.75 152 679.55 152.05
L 679.55 152 679.5 152.05
Q 679.4 152.05 679.3 152.1 679 152.25 678.7 152.4 678.35 152.55 678.05 152.65 677.75 152.8 677.45 152.95 677.1 153.1 676.8 153.25 676.5 153.4 676.2 153.45 675.85 153.6 675.55 153.75 675.25 153.9 674.95 154.05 674.65 154.15 674.35 154.3 674.1 154.4 673.8 154.55 673.45 154.7 673.1 154.8 672.75 154.9 672.4 155.05 672.05 155.2 671.7 155.35 671.35 155.5 671 155.65 670.7 155.8 670.35 155.95 670 156.1 669.65 156.2 669.3 156.4 668.95 156.55 668.6 156.7 668.3 156.85 667.95 157 667.6 157.2 667.25 157.35 666.9 157.5 666.55 157.65 666.25 157.8 665.9 157.95 665.55 158.15 665.2 158.3 664.85 158.45 664.5 158.65 664.2 158.8 663.85 158.95 663.5 159.1 663.15 159.3 662.85 159.45 662.5 159.65 662.2 159.8 661.85 160 661.55 160.15 661.25 160.3 660.9 160.45 660.6 160.65 660.3 160.85 659.95 161 659.65 161.2 659.35 161.4 659 161.6 658.7 161.75 658.4 161.9 658.1 162.1 657.8 162.3 657.45 162.5 657.15 162.7 656.85 162.9 656.55 163.05 656.25 163.25 655.95 163.45 655.6 163.65 655.3 163.85 655 164.05 654.7 164.25 654.4 164.4 654.1 164.6 653.75 164.8 653.45 164.95 653.15 165.15 652.85 165.35 652.55 165.55 652.2 165.75 651.9 165.9 651.6 166.1 651.3 166.3 651 166.45 650.65 166.65 650.35 166.85 650.05 167.05 649.75 167.2 649.45 167.4 649.1 167.6 648.8 167.8 648.5 167.95 648.2 168.15 647.9 168.35 647.6 168.55 647.25 168.7 646.95 168.9 646.65 169.1 646.35 169.3 646.05 169.55 645.75 169.75 645.45 169.9 645.15 170.1 644.85 170.3 644.55 170.55 644.3 170.75 644 170.95 643.7 171.15 643.4 171.3 643.1 171.55 642.8 171.75 642.5 171.95 642.2 172.1 641.95 172.3 641.65 172.5 641.35 172.65 641.05 172.85 640.75 173.05 640.5 173.25 640.2 173.45 639.9 173.65 639.6 173.85 639.35 174.05 639.05 174.15 638.75 174.35 638.45 174.55 638.2 174.75 637.9 174.95 637.6 175.15 637.3 175.35 637 175.5 636.7 175.7 636.4 175.9 636.1 176.05 635.8 176.25 635.5 176.45 635.2 176.65 634.9 176.8 634.65 177 634.35 177.2 634.05 177.4 633.75 177.6 633.45 177.8 633.15 178 632.85 178.15 632.55 178.35 632.25 178.55 631.95 178.8 631.65 179 631.35 179.2 631 179.45 630.7 179.6 630.4 179.8 630.1 180.05 629.8 180.25 629.5 180.5 629.2 180.7 628.9 180.9 628.6 181.1 628.3 181.3 628 181.5 627.7 181.75 627.45 181.95 627.15 182.2 626.85 182.35 626.55 182.55 626.25 182.8 626 183 625.7 183.25 625.4 183.45 625.1 183.65 624.8 183.85 624.55 184.05 624.25 184.3 623.95 184.5 623.65 184.7 623.4 184.9 623.1 185.05 622.85 185.25 622.55 185.45 622.3 185.65 622 185.85 621.75 186.05 621.45 186.25 621.2 186.45 620.9 186.6 620.65 186.8 620.35 187 620.1 187.2 619.85 187.4 619.55 187.6 619.3 187.8 619 188 618.75 188.2 618.45 188.4 618.2 188.6 617.9 188.8 617.65 189 617.35 189.2 617.05 189.4 616.8 189.6 616.5 189.8 616.25 190.05 616 190.25 615.7 190.45 615.45 190.65 615.15 190.85 614.9 191.1 614.65 191.3 614.35 191.55 614.1 191.75 613.85 191.95 613.6 192.15 613.35 192.4 613.1 192.65 612.85 192.85 612.6 193.1 612.35 193.3 612.1 193.55 611.85 193.75 611.6 194 611.4 194.25 611.15 194.5 610.9 194.7 610.65 194.95 610.45 195.2 610.2 195.45 609.95 195.7 609.75 195.95 609.5 196.15 609.3 196.4 609.05 196.65 608.85 196.9 608.65 197.15 608.45 197.45 608.2 197.65 608 197.9 607.8 198.15 607.6 198.45 607.4 198.7 607.2 198.95 607 199.2 606.8 199.5 606.6 199.75 606.4 200.05 606.2 200.25 606 200.55 605.85 200.8 605.6 201.1 605.4 201.4 605.2 201.65 605 201.95 604.8 202.25 604.6 202.55 604.35 202.85 604.15 203.1 603.95 203.4 603.75 203.7 603.55 204 603.35 204.3 603.15 204.55 602.95 204.85 602.75 205.15 602.55 205.45 602.35 205.7 602.15 206 601.95 206.3 601.75 206.6 601.5 206.9 601.3 207.15 601.1 207.45 600.9 207.75 600.7 208.05 600.5 208.35 600.3 208.55 600.1 208.85 599.85 209.15 599.65 209.45 599.4 209.75 599.2 210 598.95 210.3 598.7 210.6 598.5 210.9 598.25 211.2 598 211.45 597.75 211.75 597.55 212.05 597.3 212.35 597.05 212.6 596.8 212.9 596.6 213.2 596.35 213.5 596.1 213.8 595.85 214.05 595.6 214.35 595.4 214.65 595.15 214.95 594.9 215.25 594.65 215.5 594.45 215.85 594.2 216.1 594 216.4 593.75 216.65 593.55 216.9 593.3 217.2 593.1 217.45 592.85 217.75 592.65 218 592.4 218.25 592.2 218.5 591.95 218.8 591.75 219.05 591.5 219.35 591.3 219.55 591.05 219.85 590.8 220.15 590.6 220.4 590.35 220.7 590.15 220.9 589.9 221.2 589.7 221.45 589.45 221.75 589.25 222 589 222.25 588.8 222.55 588.55 222.8 588.35 223.1 588.1 223.35 587.9 223.6 587.65 223.9 587.45 224.15 587.2 224.45 587 224.75 586.8 225 586.55 225.25 586.35 225.55 586.1 225.8 585.9 226.1 585.7 226.35 585.45 226.6 585.25 226.9 585 227.2 584.8 227.5 584.6 227.75 584.35 228 584.15 228.3 583.95 228.6 583.75 228.85 583.5 229.15 583.3 229.4 583.1 229.7 582.9 230 582.7 230.3 582.45 230.5 582.25 230.8 582.05 231.1 581.85 231.4 581.65 231.7 581.45 231.95 581.25 232.25 581.05 232.55 580.9 232.85 580.7 233.15 580.5 233.45 580.3 233.75 580.15 234.05 579.95 234.35 579.75 234.65 579.6 234.9 579.4 235.25 579.25 235.55 579.05 235.85 578.9 236.1 578.7 236.4 578.55 236.7 578.35 237.05 578.2 237.35 578 237.6 577.85 237.9 577.7 238.25 577.5 238.55 577.35 238.8 577.15 239.1 577 239.45 576.8 239.75 576.65 240.05 576.5 240.35 576.3 240.65 576.15 240.95 575.95 241.3 575.8 241.55 575.6 241.9 575.45 242.2 575.3 242.45 575.15 242.75 575 243 574.85 243.3 574.7 243.6 574.55 243.9 574.4 244.2 574.25 244.45 574.1 244.8 574 245.1 573.85 245.45 573.7 245.7 573.55 246 573.45 246.35 573.3 246.65 573.15 247 573 247.25 572.9 247.6 572.75 247.9 572.65 248.2 572.5 248.5 572.35 248.8 572.25 249.15 572.1 249.45 572 249.8 571.9 250.1 571.75 250.4 571.65 250.75 571.5 251.1 571.4 251.4 571.25 251.75 571.15 252.1 571.05 252.45 570.9 252.75 570.8 253.1 570.65 253.45 570.55 253.8 570.4 254.1 570.3 254.45 570.15 254.8 570.05 255.15 569.9 255.45 569.75 255.75 569.65 256.05 569.5 256.35 569.35 256.6 569.2 256.85 569.05 257.1 568.9 257.35 568.75 257.6 568.55 257.9 568.4 258.1 568.25 258.35 568.05 258.6 567.9 258.85 567.7 259.1 567.5 259.35 567.3 259.6 567.1 259.85 566.85 260.15 566.65 260.45 566.45 260.7 566.25 260.95 566 261.2 565.8 261.5 565.55 261.75 565.35 262.05 565.1 262.25 564.9 262.55 564.65 262.8 564.45 263.05 564.2 263.3 564 263.55 563.8 263.8 563.55 264.05 563.35 264.3 563.1 264.55 562.9 264.85 562.65 265.05 562.45 265.3 562.25 265.55 562 265.85 561.8 266.1 561.55 266.3 561.35 266.6 561.1 266.85 560.9 267.1 560.65 267.4 560.45 267.65 560.2 267.85 559.95 268.1 559.75 268.4 559.5 268.65 559.3 268.9 559.05 269.1 558.8 269.35 558.6 269.65 558.35 269.9 558.1 270.15 557.9 270.4 557.65 270.65 557.45 270.9 557.2 271.15 556.95 271.4 556.75 271.7 556.5 271.9 556.3 272.15 556.05 272.45 555.8 272.75 555.6 273 555.35 273.25 555.1 273.5 554.85 273.8 554.6 274.05 554.4 274.35 554.15 274.6 553.9 274.85 553.65 275.15 553.4 275.4 553.15 275.65 552.9 275.95 552.65 276.15 552.45 276.45 552.2 276.7 551.95 277 551.7 277.25 551.45 277.45 551.2 277.75 550.95 278 550.65 278.25 550.4 278.55 550.15 278.75 549.9 279 549.65 279.3 549.4 279.55 549.15 279.8 548.9 280.05 548.65 280.3 548.35 280.55 548.1 280.8 547.85 281.05 547.6 281.3 547.3 281.5 547.05 281.8 546.8 282.05 546.55 282.3 546.25 282.55 546 282.8 545.75 283 545.45 283.25 545.2 283.5 544.9 283.75 544.65 284 544.4 284.2 544.1 284.45 543.85 284.7 543.55 284.95 543.3 285.2 543 285.45 542.75 285.65 542.45 285.95 542.2 286.2 541.95 286.45 541.65 286.7 541.4 286.95 541.15 287.2 540.85 287.45 540.6 287.7 540.35 288 540.1 288.25 539.9 288.45 539.65 288.7 539.45 288.9 539.2 289.2 539 289.45 538.8 289.7 538.55 289.9 538.35 290.15 538.1 290.4 537.9 290.65 537.7 290.9 537.5 291.15 537.25 291.4 537.05 291.65 536.85 291.9 536.65 292.2 536.45 292.45 536.2 292.7 536 293 535.8 293.25 535.6 293.55 535.4 293.8 535.2 294.05 534.95 294.35 534.75 294.65 534.55 294.9 534.35 295.2 534.15 295.45 534 295.75 533.8 296 533.6 296.3 533.4 296.6 533.2 296.85 533.05 297.15 532.85 297.45 532.65 297.75 532.5 298 532.3 298.3 532.15 298.6 531.95 298.9 531.8 299.2 531.6 299.5 531.45 299.8 531.3 300.1 531.15 300.4 531 300.7 530.85 301 530.65 301.3 530.5 301.6 530.35 301.95 530.2 302.2 530.05 302.55 529.9 302.85 529.75 303.2 529.55 303.5 529.4 303.8 529.25 304.1 529.15 304.45 529 304.75 528.85 305.05 528.7 305.4 528.6 305.7 528.45 306.05 528.35 306.35 528.25 306.7 528.15 307 528.05 307.35 527.95 307.65 527.9 307.95 527.8 308.3 527.75 308.65 527.7 309 527.65 309.3 527.6 309.65 527.55 310 527.55 310.35 527.55 310.65 527.55 311 527.55 311.3 527.55 311.65 527.6 311.95 527.65 312.3 527.7 312.65 527.75 313 527.85 313.3 527.95 313.6 528.05 313.9 528.15 314.2 528.25 314.5 528.35 314.75 528.5 315.05 528.65 315.35 528.75 315.6 528.9 315.9 529.05 316.15 529.2 316.4 529.4 316.7 529.55 316.95 529.75 317.2 529.9 317.45 530.1 317.7 530.3 317.95 530.5 318.2 530.7 318.4 530.9 318.65 531.1 318.8 531.3 319.05 531.55 319.25 531.75 319.45 532 319.65 532.2 319.85 532.45 320 532.7 320.2 532.9 320.4 533.15 320.55 533.4 320.75 533.65 320.9 533.95 321.1 534.2 321.3 534.5 321.4 534.8 321.6 535.1 321.75 535.35 321.95 535.65 322.1 535.95 322.25 536.3 322.4 536.6 322.55 536.9 322.7 537.25 322.8 537.55 322.95 537.9 323.1 538.2 323.25 538.55 323.4 538.85 323.5 539.2 323.65 539.5 323.8 539.85 323.9 540.15 324.05 540.5 324.15 540.85 324.25 541.15 324.4 541.5 324.55 541.85 324.7 542.2 324.85 542.55 324.95 542.9 325.1 543.25 325.25 543.6 325.4 543.95 325.5 544.3 325.6 544.65 325.75 545 325.85 545.35 326 545.7 326.15 546.05 326.25 546.4 326.4 546.75 326.5 547.1 326.6 547.45 326.75 547.8 326.85 548.2 326.9 548.55 327 548.9 327.15 549.25 327.25 549.6 327.35 550 327.45 550.35 327.55 550.7 327.65 551.05 327.75 551.45 327.85 551.8 327.95 552.15 328 552.55 328.1 552.9 328.2 553.25 328.25 553.65 328.3 554 328.35 554.35 328.4 554.75 328.5 555.1 328.55 555.45 328.6 555.85 328.65 556.2 328.7 556.6 328.75 556.95 328.8 557.3 328.85 557.7 328.85 558.05 328.9 558.45 328.9 558.8 328.95 559.2 328.95 559.55 329 559.95 329 560.3 329 560.7 329 561.05 329 561.45 329 561.8 329 562.2 329 562.55 329 562.95 329 563.35 329 563.7 329 564.1 329 564.45 329 564.85 329 565.25 329 565.6 329 566 329 566.35 329 566.75 329 567.15 329 567.5 329 567.9 329 568.3 329 568.65 329 569.05 329 569.45 329 569.85 329 570.25 329 570.6 329 571 329 571.4 329 571.8 329 572.2 329.05 572.55 329.05 572.95 329.05 573.35 329.05 573.75 329.05 574.15 329.05 574.5 329.05 574.9 329.05 575.3 329.05 575.7 329.05 576.1 329.05 576.45 329.05 576.85 329.05 577.25 329.05 577.65 329.05 578.05 329.05 578.4 329.05 578.8 329.05 579.2 329.05 579.6 329 579.95 329 580.35 329 580.75 329 581.1 329 581.5 329 581.9 329 582.25 329 582.65 329 583 329 583.4 329 583.8 329 584.15 329 584.55 329 584.95 329 585.3 329 585.7 328.95 586.05 328.95 586.45 328.95 586.85 328.95 587.2 328.95 587.6 328.95 588 328.9 588.35 328.9 588.75 328.9 589.1 328.85 589.5 328.85 589.9 328.85 590.25 328.8 590.65 328.8 591 328.75 591.4 328.75 591.75 328.7 592.15 328.7 592.5 328.65 592.9 328.6 593.25 328.6 593.6 328.55 594 328.5 594.35 328.45 594.7 328.4 595.1 328.35 595.45 328.3 595.8 328.3 596.2 328.25 596.55 328.2 596.9 328.15 597.3 328.1 597.65 328 598 327.95 598.35 327.9 598.75 327.8 599.1 327.75 599.45 327.65 599.8 327.55 600.15 327.5 600.55 327.4 600.9 327.3 601.25 327.2 601.6 327.1 601.95 327 602.3 326.9 602.65 326.85 603 326.75 603.4 326.65 603.75 326.5 604.05 326.4 604.4 326.3 604.75 326.15 605.1 326.05 605.4 325.9 605.75 325.75 606.1 325.6 606.4 325.5 606.75 325.35 607.1 325.2 607.4 325.05 607.75 324.9 608.05 324.7 608.4 324.55 608.7 324.35 609 324.2 609.3 324.05 609.6 323.85 609.9 323.65 610.2 323.45 610.5 323.25 610.8 323.05 611.1 322.8 611.4 322.65 611.7 322.45 612 322.2 612.25 322 612.55 321.8 612.85 321.55 613.1 321.35 613.4 321.15 613.65 320.9 613.95 320.65 614.2 320.45 614.5 320.2 614.75 320 615 319.8 615.25 319.55 615.5 319.35 615.75 319.15 616 318.9 616.25 318.7 616.5 318.5 616.75 318.3 616.95 318.1 617.2 317.85 617.45 317.65 617.7 317.4 617.9 317.2 618.15 317 618.35 316.75 618.6 316.5 618.8 316.25 619 316 619.25 315.8 619.45 315.5 619.65 315.25 619.9 314.95 620.1 314.7 620.35 314.45 620.55 314.15 620.75 313.9 620.95 313.6 621.15 313.3 621.35 313.05 621.55 312.8 621.75 312.5 621.95 312.2 622.15 311.9 622.35 311.65 622.5 311.35 622.7 311.05 622.85 310.75 623 310.45 623.2 310.2 623.35 309.85 623.5 309.55 623.65 309.25 623.85 309 624 308.7 624.15 308.4 624.3 308.1 624.45 307.75 624.6 307.5 624.75 307.2 624.9 306.9 625 306.55 625.15 306.25 625.3 306 625.4 305.65 625.55 305.35 625.65 305.1 625.75 304.85 625.85 304.55 625.95 304.25 626.05 303.95 626.15 303.7 626.25 303.45 626.35 303.15 626.45 302.85 626.5 302.55 626.6 302.25 626.65 302.05 626.7 301.75 626.8 301.4 626.85 301.05 626.9 300.75 626.95 300.4 627 300.05 627.05 299.75 627.1 299.4 627.1 299.1 627.1 298.75 627.1 298.4 627.1 298 627.1 297.7 627.05 297.35 627.05 297 627 296.6 626.95 296.3 626.9 295.95 626.85 295.6 626.8 295.25 626.7 294.9 626.65 294.55 626.55 294.2 626.45 293.85 626.4 293.55 626.3 293.2 626.2 292.85 626.1 292.5 625.95 292.2 625.85 291.85 625.75 291.55 625.65 291.25 625.5 290.95 625.4 290.65 625.25 290.35 625.15 290.05 625 289.75 624.9 289.5 624.75 289.15 624.6 288.85 624.5 288.55 624.35 288.3 624.2 288 624.05 287.7 623.9 287.4 623.75 287.15 623.6 286.9 623.45 286.6 623.25 286.3 623.05 286 622.9 285.7 622.7 285.45 622.5 285.15 622.3 284.9 622.1 284.6 621.85 284.3 621.65 284.1 621.45 283.8 621.2 283.55 621 283.3 620.75 283 620.55 282.8 620.3 282.5 620.1 282.25 619.85 282 619.7 281.75 619.5 281.5 619.3 281.35 619.1 281.1 618.9 280.9 618.7 280.65 618.5 280.45 618.3 280.2 618.05 280.05 617.85 279.85 617.6 279.6 617.4 279.35 617.15 279.15 616.9 278.9 616.7 278.7 616.45 278.5 616.2 278.25 616 278 615.9 277.9 615.85 277.75 615.95 277.45 616.05 277.2 616.15 276.9 616.3 276.6 616.4 276.3 616.5 276 616.65 275.75 616.75 275.45 616.85 275.15 617 274.9 617.1 274.6 617.25 274.35 617.35 274.05 617.45 273.75 617.6 273.45 617.75 273.15 617.85 272.85 618 272.5 618.15 272.2 618.3 271.85 618.45 271.6 618.6 271.3 618.7 270.95 618.85 270.65 619 270.4 619.15 270.05 619.3 269.75 619.45 269.45 619.6 269.1 619.75 268.85 619.95 268.55 620.1 268.2 620.25 267.9 620.4 267.65 620.55 267.35 620.75 267.05 620.9 266.7 621.1 266.4 621.25 266.1 621.45 265.8 621.6 265.45 621.8 265.15 621.95 264.85 622.15 264.55 622.3 264.25 622.5 263.9 622.65 263.65 622.8 263.4 623 263.1 623.15 262.85 623.3 262.55 623.45 262.25 623.65 262 623.8 261.75 623.95 261.45 624.15 261.15 624.3 260.9 624.45 260.65 624.65 260.4 624.85 260.1 625 259.85 625.2 259.55 625.35 259.35 625.55 259.1 625.75 258.8 625.9 258.55 626.1 258.25 626.3 258.05 626.45 257.75 626.65 257.5 626.85 257.25 627 256.95 627.2 256.7 627.35 256.45 627.5 256.2 627.7 255.9 627.85 255.65 628 255.35 628.2 255.15 628.35 254.85 628.5 254.55 628.7 254.3 628.85 254 629.05 253.75 629.25 253.45 629.45 253.2 629.6 252.9 629.8 252.6 630 252.35 630.2 252.05 630.4 251.8 630.55 251.5 630.75 251.2 630.95 250.95 631.15 250.7 631.3 250.4 631.5 250.15 631.65 249.85 631.85 249.65 632.05 249.35 632.2 249.1 632.4 248.8 632.6 248.55 632.75 248.3 633 248.05 633.2 247.75 633.45 247.45 633.65 247.2 633.9 246.95 634.1 246.7 634.35 246.4 634.55 246.15 634.8 245.85 635.05 245.65 635.25 245.35 635.5 245.1 635.75 244.85 636 244.55 636.25 244.3 636.45 244.1 636.7 243.85 636.95 243.55 637.2 243.3 637.45 243.05 637.75 242.85 638 242.6 638.25 242.35 638.5 242.1 638.8 241.85 639.05 241.6 639.3 241.4 639.6 241.15 639.85 240.9 640.1 240.65 640.4 240.4 640.65 240.15 640.95 240 641.2 239.75 641.5 239.5 641.75 239.25 642 239 642.3 238.75 642.55 238.55 642.85 238.35 643.1 238.1 643.4 237.85 643.65 237.6 643.9 237.4 644.15 237.15 644.45 236.95 644.7 236.7 644.95 236.45 645.2 236.2 645.45 236 645.7 235.75 645.95 235.5 646.2 235.25 646.45 235 646.7 234.75 646.95 234.55 647.2 234.3 647.5 234.05 647.75 233.8 648 233.6 648.25 233.35 648.5 233.15 648.75 232.9 649.05 232.65 649.3 232.45 649.55 232.2 649.8 231.95 650.05 231.8 650.35 231.55 650.6 231.3 650.85 231.1 651.1 230.85 651.35 230.6 651.65 230.45 651.9 230.2 652.15 230 652.4 229.75 652.7 229.55 652.95 229.3 653.2 229.1 653.5 228.9 653.75 228.65 654 228.45 654.3 228.2 654.55 228 654.8 227.8 655.05 227.65 655.3 227.45 655.55 227.25 655.8 227.05 656.05 226.9 656.3 226.7 656.55 226.5 656.8 226.35 657.05 226.2 657.3 226 657.5 225.85 657.75 225.7 658 225.5 658.2 225.35 658.45 225.2 658.65 225 658.65 225.35 658.6 225.7 658.6 226.05 658.6 226.35 658.55 226.65 658.55 227 658.5 227.35 658.5 227.7 658.5 227.95 658.45 228.3 658.45 228.65 658.4 229 658.4 229.3 658.35 229.6 658.35 229.95 658.3 230.3 658.25 230.6 658.25 230.95 658.2 231.25 658.15 231.6 658.1 231.9 658.05 232.25 658.05 232.6 658 232.95 657.95 233.25 657.9 233.6 657.85 233.95 657.8 234.25 657.75 234.6 657.7 234.9 657.65 235.25 657.6 235.6 657.55 235.95 657.55 236.25 657.5 236.6 657.45 236.95 657.45 237.3 657.4 237.65 657.4 238 657.35 238.4 657.3 238.75 657.3 239.1 657.25 239.45 657.25 239.85 657.2 240.15 657.15 240.55 657.15 240.9 657.1 241.3 657.1 241.6 657.05 242 657 242.35 657 242.7 656.95 243 656.95 243.4 656.95 243.75 656.9 244.1 656.9 244.4 656.85 244.8 656.85 245.15 656.85 245.5 656.85 245.8 656.8 246.2 656.8 246.55 656.8 246.9 656.8 247.2 656.8 247.6 656.8 247.95 656.8 248.35 656.8 248.7 656.8 249.1 656.8 249.45 656.8 249.8 656.8 250.2 656.8 250.6 656.8 250.95 656.8 251.3 656.8 251.7 656.8 252.1 656.8 252.5 656.8 252.8 656.8 253.2 656.8 253.6 656.8 253.95 656.8 254.3 656.8 254.7 656.8 255.1 656.8 255.45 656.8 255.85 656.8 256.2 656.8 256.6 656.8 256.95 656.8 257.35 656.8 257.75 656.8 258.05 656.8 258.45 656.8 258.85 656.8 259.25 656.8 259.6 656.8 259.95 656.8 260.35 656.8 260.75 656.8 261.1 656.8 261.5 656.8 261.85 656.8 262.2 656.8 262.6 656.8 263 656.8 263.4 656.8 263.7 656.8 264.1 656.75 264.5 656.75 264.9 656.75 265.25 656.75 265.6 656.75 266 656.75 266.3 656.75 266.7 656.75 267.05 656.75 267.4 656.75 267.75 656.75 268.1 656.75 268.5 656.75 268.85 656.75 269.2 656.75 269.55 656.75 269.9 656.75 270.3 656.75 270.6 656.75 271 656.75 271.35 656.75 271.7 656.75 272.05 656.75 272.4 656.75 272.8 656.75 273.15 656.75 273.5 656.75 273.85 656.75 274.2 656.75 274.6 656.75 274.9 656.75 275.3 656.75 275.65 656.7 276 656.7 276.35 656.7 276.7 656.7 277.1 656.7 277.4 656.7 277.8 656.7 278.2 656.7 278.55 656.7 278.9 656.7 279.3 656.7 279.65 656.7 280.05 656.7 280.4 656.7 280.75 656.7 281.15 656.7 281.5 656.7 281.9 656.7 282.25 656.7 282.65 656.65 283 656.65 283.35 656.65 283.75 656.65 284.15 656.65 284.45 656.6 284.85 656.6 285.25 656.6 285.6 656.55 285.95 656.55 286.35 656.5 286.7 656.5 287.05 656.45 287.45 656.45 287.8 656.4 288.2 656.35 288.45 656.3 288.8 656.15 289.05 656 289.35 655.9 289.65 655.8 289.85 655.8 290.2 655.75 290.5 655.8 290.75 655.8 291.05 655.9 291.25 655.95 291.5 656.05 291.7 656.2 291.95 656.35 292.15 656.5 292.35 656.7 292.5 656.85 292.65 657.1 292.8 657.3 292.95 657.4 293 657.6 293.1
L 657.55 293.1
Q 657.4 293.35 657.25 293.6 657.1 293.85 656.95 294.05 656.8 294.3 656.7 294.55 656.55 294.8 656.4 295.05 656.25 295.25 656.1 295.5 655.95 295.75 655.8 296 655.7 296.25 655.55 296.5 655.4 296.7 655.25 296.95 655.1 297.2 655 297.45 654.85 297.7 654.7 297.95 654.55 298.15 654.4 298.4 654.3 298.65 654.15 298.9 654 299.15 653.9 299.35 653.75 299.6 653.6 299.85 653.5 300.1 653.35 300.35 653.25 300.6 653.1 300.85 652.95 301.1 652.85 301.35 652.7 301.65 652.55 301.9 652.45 302.1 652.3 302.4 652.15 302.65 652.05 302.9 651.9 303.15 651.8 303.45 651.65 303.65 651.5 303.9 651.4 304.2 651.25 304.45 651.15 304.7 651 304.95 650.85 305.2 650.75 305.45 650.6 305.75 650.5 306 650.35 306.25 650.25 306.5 650.1 306.75 649.95 307 649.85 307.25 649.7 307.55 649.55 307.75 649.45 308 649.3 308.3 649.2 308.55 649.05 308.8 648.9 309 648.8 309.3 648.65 309.55 648.5 309.8 648.4 310.1 648.25 310.35 648.1 310.55 648 310.8 647.85 311.1 647.7 311.35 647.55 311.6 647.45 311.8 647.3 312.1 647.15 312.35 647.05 312.6 646.9 312.9 646.75 313.15 646.6 313.35 646.5 313.6 646.35 313.9 646.2 314.15 646.1 314.4 645.95 314.6 645.8 314.9 645.7 315.15 645.55 315.4 645.4 315.65 645.3 315.9 645.15 316.15 645 316.4 644.9 316.7 644.75 316.95 644.65 317.2 644.5 317.4 644.4 317.65 644.25 317.9 644.15 318.15 644 318.45 643.9 318.65 643.8 318.9 643.65 319.15 643.55 319.4 643.45 319.65 643.3 319.95 643.2 320.15 643.1 320.4 643 320.65 642.85 320.95 642.75 321.2 642.65 321.4 642.55 321.65 642.4 321.95 642.3 322.2 642.2 322.45 642.1 322.7 642 322.95 641.9 323.2 641.75 323.45 641.65 323.7 641.55 324 641.45 324.2 641.35 324.45 641.25 324.75 641.15 325 641.05 325.25 640.95 325.5 640.8 325.75 640.7 326 640.6 326.25 640.5 326.5 640.4 326.8 640.25 327 640.15 327.25 640.05 327.5 639.9 327.75 639.8 328 639.7 328.3 639.55 328.5 639.45 328.75 639.3 329 639.2 329.25 639.05 329.5 638.95 329.75 638.8 330 638.7 330.25 638.55 330.5 638.45 330.8 638.3 331.05 638.2 331.25 638.1 331.5 637.95 331.8 637.85 332.05 637.75 332.3 637.65 332.55 637.5 332.8 637.4 333.05 637.3 333.3 637.2 333.55 637.1 333.8 636.95 334 636.85 334.25 636.75 334.5 636.65 334.8 636.55 335.05 636.45 335.25 636.3 335.5 636.2 335.75 636.1 336 636 336.25 635.9 336.5 635.8 336.7 635.7 336.95 635.6 337.2 635.5 337.45 635.4 337.7 635.3 337.95 635.2 338.15 635.1 338.35 635 338.6 634.9 338.85 634.85 339.1 634.75 339.3 634.65 339.55 634.55 339.8 634.45 340.05 634.35 340.3 634.25 340.55 634.15 340.8 634.05 341.05 633.95 341.3 633.85 341.6 633.7 341.85 633.6 342.1 633.5 342.35 633.4 342.65 633.25 342.9 633.15 343.15 633.05 343.45 632.95 343.65 632.85 343.95 632.7 344.2 632.6 344.5 632.5 344.75 632.4 344.95 632.3 345.25 632.15 345.5 632.05 345.8 631.95 346.05 631.85 346.3 631.75 346.55 631.6 346.8 631.5 347.1 631.4 347.35 631.3 347.6 631.2 347.85 631.1 348.15 630.95 348.4 630.85 348.7 630.75 348.95 630.65 349.2 630.55 349.45 630.45 349.7 630.35 350 630.25 350.25 630.1 350.5 630 350.75 629.9 351.05 629.8 351.3 629.7 351.6 629.6 351.8 629.5 352.1 629.4 352.35 629.25 352.6 629.15 352.9 629.05 353.1 628.95 353.4 628.85 353.65 628.75 353.95 628.65 354.2 628.5 354.45 628.4 354.7 628.3 354.95 628.2 355.25 628.1 355.5 628 355.8 627.9 356 627.75 356.3 627.65 356.55 627.55 356.85 627.45 357.1 627.35 357.35 627.25 357.6 627.15 357.85 627 358.15 626.9 358.4 626.8 358.6 626.7 358.85 626.55 359.1 626.45 359.35 626.35 359.6 626.25 359.85 626.1 360.05 626 360.3 625.9 360.55 625.75 360.85 625.65 361.1 625.55 361.35 625.45 361.55 625.3 361.8 625.2 362.05 625.05 362.3 624.95 362.55 624.85 362.75 624.7 363 624.6 363.25 624.5 363.5 624.35 363.75 624.25 364 624.15 364.2 624 364.45 623.9 364.7 623.75 365 623.65 365.25 623.5 365.45 623.4 365.7 623.3 365.95 623.15 366.25 623.05 366.5 622.9 366.75 622.8 367 622.65 367.25 622.55 367.5 622.45 367.75 622.3 368.05 622.2 368.25 622.05 368.5 621.95 368.75 621.85 369.05 621.7 369.3 621.6 369.55 621.45 369.75 621.35 370 621.2 370.3 621.1 370.55 620.95 370.8 620.85 371 620.7 371.25 620.6 371.55 620.45 371.8 620.35 372.05 620.2 372.3 620.1 372.5 619.95 372.75 619.85 373 619.7 373.3 619.6 373.55 619.45 373.75 619.35 374 619.25 374.25 619.1 374.5 619 374.8 618.85 375.05 618.75 375.25 618.6 375.5 618.5 375.75 618.35 376 618.2 376.25 618.1 376.5 617.95 376.75 617.85 377 617.7 377.25 617.55 377.5 617.45 377.75 617.3 377.95 617.15 378.2 617 378.45 616.9 378.7 616.75 378.95 616.6 379.2 616.45 379.35 616.3 379.6 616.2 379.85 616.05 380.1 615.9 380.35 615.75 380.6 615.6 380.8 615.5 381.05 615.35 381.3 615.2 381.5 615.05 381.75 614.9 382 614.75 382.2 614.6 382.45 614.45 382.7 614.3 382.9 614.15 383.15 614 383.35 613.85 383.6 613.7 383.8 613.55 384.05 613.4 384.3 613.2 384.5 613 384.75 612.85 384.9 612.65 385.15 612.45 385.35 612.3 385.6 612.1 385.8 611.9 386 611.7 386.2 611.55 386.4 611.35 386.65 611.15 386.85 610.95 387.05 610.8 387.25 610.6 387.45 610.4 387.55 610.2 387.75 610 387.95 609.8 388.15 609.6 388.3 609.4 388.5 609.2 388.7 609.05 388.85 608.85 389 608.65 389.2 608.45 389.4 608.25 389.6 608.05 389.8 607.85 390 607.65 390.2 607.45 390.35 607.25 390.55 607.05 390.75 606.85 390.95 606.7 391.15 606.5 391.35 606.3 391.55 606.1 391.7 605.9 391.9 605.7 392.1 605.5 392.3 605.35 392.5 605.15 392.7 604.95 392.9 604.75 393.05 604.55 393.25 604.35 393.45 604.15 393.7 604 393.9 603.8 394.1 603.6 394.3 603.4 394.45 603.2 394.65 603 394.85 602.8 395.05 602.65 395.25 602.45 395.4 602.25 395.6 602.05 395.75 601.85 395.95 601.7 396.15 601.5 396.3 601.3 396.5 601.1 396.7 600.9 396.9 600.7 397.05 600.5 397.2 600.3 397.4 600.1 397.55 599.9 397.75 599.7 397.9 599.5 398.1 599.3 398.3 599.1 398.45 598.9 398.6 598.7 398.75 598.5 398.95 598.3 399.1 598.1 399.3 597.9 399.45 597.65 399.65 597.45 399.8 597.25 399.95 597.05 400.1 596.85 400.3 596.6 400.45 596.4 400.65 596.2 400.85 596 401 595.75 401.2 595.55 401.3 595.35 401.5 595.15 401.65 594.9 401.85 594.7 402 594.5 402.2 594.3 402.4 594.1 402.55 593.85 402.7 593.65 402.85 593.45 403.05 593.25 403.2 593 403.4 592.8 403.55 592.6 403.75 592.4 403.9 592.15 404.05 591.95 404.2 591.7 404.4 591.5 404.55 591.25 404.75 591.05 404.9 590.8 405.1 590.6 405.25 590.35 405.4 590.1 405.55 589.9 405.7 589.65 405.9 589.45 406.05 589.2 406.2 588.95 406.4 588.75 406.55 588.5 406.7 588.25 406.85 588.05 407 587.8 407.15 587.55 407.35 587.35 407.5 587.1 407.65 586.85 407.85 586.6 408 586.4 408.15 586.15 408.25 585.9 408.45 585.7 408.6 585.45 408.75 585.2 408.95 585 409.1 584.75 409.25 584.5 409.4 584.3 409.55 584.05 409.7 583.8 409.85 583.6 410.05 583.35 410.2 583.15 410.35 582.9 410.5 582.7 410.65 582.45 410.85 582.25 410.95 582 411.1 581.8 411.25 581.55 411.45 581.35 411.6 581.15 411.75 580.9 411.95 580.7 412.1 580.45 412.25 580.25 412.4 580.05 412.55 579.8 412.7 579.6 412.9 579.35 413.05 579.15 413.2 578.95 413.4 578.75 413.55 578.55 413.65 578.35 413.8 578.15 413.95 577.95 414.15 577.75 414.3 577.55 414.45 577.35 414.6 577.15 414.8 576.95 414.95 576.75 415.05 576.55 415.25 576.4 415.4 576.2 415.6 576 415.75 575.8 415.95 575.65 416.1 575.45 416.3 575.25 416.45 575.1 416.6 574.95 416.8 574.75 417 574.6 417.2 574.4 417.4 574.25 417.6 574.05 417.8 573.9 417.95 573.7 418.15 573.55 418.35 573.4 418.55 573.2 418.75 573.05 418.95 572.9 419.15 572.75 419.35 572.55 419.55 572.4 419.75 572.25 419.95 572.1 420.2 571.95 420.4 571.8 420.55 571.65 420.8 571.55 421 571.4 421.2 571.25 421.4 571.15 421.6 571 421.8 570.9 421.95 570.75 422.15 570.65 422.35 570.55 422.55 570.4 422.75 570.3 423 570.2 423.25 570.05 423.45 569.95 423.7 569.85 423.95 569.75 424.15 569.65 424.4 569.55 424.65 569.45 424.85 569.35 425.1 569.25 425.35 569.15 425.6 569.05 425.85 568.95 426.05 568.85 426.3 568.75 426.5 568.7 426.75 568.6 427 568.5 427.25 568.4 427.45 568.35 427.7 568.25 427.95 568.2 428.2 568.1 428.45 568.05 428.7 567.95 428.9 567.9 429.15 567.85 429.45 567.75 429.7 567.7 429.95 567.65 430.2 567.55 430.45 567.5 430.75 567.4 431 567.35 431.3 567.3 431.55 567.2 431.75 567.15 432.05 567.1 432.3 567 432.6 566.95 432.85 566.9 433.1 566.85 433.35 566.75 433.65 566.7 433.9 566.65 434.2 566.6 434.4 566.55 434.7 566.5 435 566.45 435.25 566.4 435.55 566.35 435.8 566.3 436.05 566.3 436.35 566.25 436.65 566.2 436.9 566.15 437.15 566.15 437.45 566.1 437.7 566.1 438 566.05 438.3 566.05 438.5 566 438.8 566 439.1 565.95 439.35 565.95 439.65 565.95 439.9 565.95 440.15 565.95 440.45 565.95 440.75 565.95 441 565.95 441.25 565.95 441.55 565.95 441.8 565.95 442.1 565.95 442.4 566 442.65 566 442.9 566 443.15 566.05 443.4 566.05 443.65 566.1 443.9 566.15 444.05 566.15 444.3 566.2 444.55 566.25 444.8 566.3 445.05 566.35 445.3 566.4 445.5 566.5 445.75 566.55 446 566.6 446.2 566.7 446.45 566.75 446.7 566.85 446.9 566.9 447.1 567 447.35 567.1 447.6 567.2 447.8 567.3 448.05 567.4 448.2 567.5 448.45 567.6 448.65 567.7 448.85 567.8 449.1 567.95 449.3 568.05 449.5 568.2 449.7 568.3 449.9 568.45 450.1 568.55 450.3 568.7 450.55 568.85 450.75 569 450.9 569.1 451.1 569.25 451.3 569.4 451.5 569.55 451.7 569.7 451.9 569.85 452.1 570 452.25 570.15 452.45 570.3 452.65 570.45 452.85 570.6 453 570.8 453.2 570.95 453.4 571.1 453.6 571.3 453.75 571.45 453.9 571.65 454.1 571.8 454.3 572 454.45 572.15 454.65 572.35 454.8 572.5 455 572.7 455.1 572.9 455.3 573.1 455.45 573.25 455.6 573.45 455.75 573.65 455.95 573.85 456.1 574.05 456.25 574.25 456.35 574.45 456.5 574.7 456.65 574.9 456.8 575.1 456.95 575.3 457.1 575.5 457.25 575.7 457.35 575.95 457.5 576.15 457.65 576.35 457.75 576.6 457.85 576.8 458 577 458.1 577.25 458.25 577.45 458.35 577.7 458.5 577.9 458.6 578.15 458.75 578.4 458.85 578.65 458.95 578.9 459.1 579.1 459.15 579.35 459.3 579.6 459.4 579.85 459.5 580.1 459.65 580.35 459.75 580.6 459.85 580.85 459.95 581.1 460.05 581.35 460.15 581.6 460.25 581.85 460.35 582.1 460.45 582.35 460.5 582.6 460.6 582.85 460.65 583.1 460.75 583.35 460.8 583.65 460.9 583.9 461 584.15 461.05 584.4 461.15 584.7 461.25 584.95 461.3 585.2 461.4 585.45 461.5 585.75 461.55 586 461.65 586.25 461.7 586.5 461.75 586.8 461.85 587.05 461.85 587.35 461.9 587.6 462 587.9 462.05 588.15 462.1 588.45 462.15 588.75 462.2 589 462.25 589.3 462.3 589.6 462.35 589.85 462.45 590.15 462.5 590.45 462.55 590.7 462.6 591 462.65 591.25 462.7 591.55 462.75 591.8 462.8 592.05 462.85 592.35 462.9 592.6 462.95 592.85 463 593.1 463.05 593.35 463.1 593.65 463.15 593.9 463.2 594.15 463.2 594.4 463.25 594.65 463.25 594.95 463.3 595.2 463.35 595.45 463.35 595.7 463.4 596 463.45 596.25 463.45 596.5 463.5 596.8 463.55 597.05 463.6 597.35 463.65 597.6 463.7 597.9 463.75 598.2 463.8 598.45 463.85 598.75 463.9 599 463.95 599.3 464 599.55 464.05 599.85 464.1 600.1 464.15 600.4 464.2 600.65 464.25 600.95 464.3 601.25 464.3 601.5 464.35 601.8 464.4 602.1 464.45 602.35 464.5 602.65 464.55 602.95 464.6 603.2 464.65 603.5 464.65 603.8 464.7 604.05 464.8 604.35 464.85 604.65 464.9 604.9 464.95 605.2 465 605.5 465 605.75 465.05 606 465.1 606.3 465.15 606.55 465.2 606.8 465.25 607.1 465.3 607.35 465.35 607.65 465.4 607.9 465.4 608.15 465.45 608.45 465.5 608.7 465.55 608.95 465.6 609.25 465.65 609.5 465.7 609.8 465.75 610.05 465.8 610.3 465.85 610.6 465.9 610.85 465.95 611.15 466 611.4 466 611.7 466.05 611.95 466.1 612.25 466.1 612.5 466.15 612.8 466.2 613.05 466.25 613.3 466.3 613.6 466.3 613.85 466.35 614.15 466.4 614.45 466.45 614.7 466.45 615 466.5 615.3 466.5 615.55 466.55 615.85 466.6 616.15 466.6 616.4 466.65 616.7 466.65 617 466.7 617.25 466.7 617.55 466.75 617.85 466.75 618.1 466.8 618.4 466.8 618.7 466.8 619 466.85 619.25 466.85 619.55 466.85 619.85 466.9 620.1 466.9 620.4 466.9 620.7 466.95 620.95 466.95 621.25 466.95 621.55 466.95 621.8 467 622.1 467 622.4 467 622.7 467 622.95 467 623.25 467.05 623.55 467.05 623.85 467.05 624.15 467.05 624.45 467.05 624.75 467.05 625.05 467.05 625.35 467.05 625.65 467.05 625.95 467.1 626.25 467.1 626.55 467.1 626.85 467.1 627.15 467.1 627.45 467.1 627.75 467.1 628.05 467.1 628.35 467.1 628.65 467.1 628.9 467.1 629.2 467.1 629.5 467.1 629.8 467.1 630.1 467.1 630.4 467.1 630.7 467.1 631 467.1 631.3 467.1 631.6 467.1 631.9 467.1 632.2 467.1 632.5 467.1 632.75 467.1 633.05 467.1 633.3 467.1 633.6 467.1 633.9 467.1 634.15 467.1 634.45 467.1 634.75 467.1 635 467.1 635.3 467.1 635.55 467.1 635.85 467.1 636.15 467.1 636.4 467.1 636.7 467.1 636.95 467.1 637.25 467.1 637.55 467.1 637.8 467.1 638.1 467.1 638.4 467.1 638.65 467.1 638.95 467.1 639.2 467.05 639.5 467.05 639.8 467.05 640.05 467 640.35 467 640.6 467 640.9 466.95 641.2 466.95 641.45 466.9 641.75 466.9 642.05 466.85 642.3 466.85 642.6 466.8 642.9 466.75 643.2 466.75 643.45 466.7 643.75 466.65 644.05 466.65 644.3 466.6 644.6 466.55 644.9 466.5 645.15 466.5 645.45 466.45 645.75 466.4 646 466.35 646.3 466.35 646.6 466.3 646.85 466.25 647.15 466.2 647.45 466.15 647.7 466.15 648 466.1 648.3 466.05 648.55 466 648.85 466 649.15 466 649.4 465.95 649.7 465.9 650 465.9 650.25 465.85 650.55 465.8 650.8 465.75 651.1 465.75 651.35 465.7 651.6 465.65 651.9 465.6 652.15 465.6 652.45 465.55 652.7 465.5 653 465.45 653.25 465.4 653.55 465.35 653.8 465.3 654.05 465.25 654.35 465.2 654.6 465.15 654.85 465.05 655.1 465 655.4 464.95 655.6 464.85 655.85 464.8 656.1 464.7 656.35 464.65 656.6 464.6 656.85 464.55 657.1 464.45 657.35 464.35 657.6 464.25 657.85 464.2 658.05 464.1 658.3 464 658.55 463.9 658.8 463.8 659.05 463.7 659.3 463.6 659.55 463.5 659.8 463.4 660.05 463.3 660.3 463.25 660.55 463.1 660.85 463 661.1 462.9 661.35 462.8 661.6 462.7 661.85 462.55 662.1 462.45 662.4 462.35 662.65 462.25 662.9 462.1 663.15 462 663.4 461.85 663.65 461.8 663.9 461.7 664.15 461.55 664.4 461.45 664.65 461.3 664.9 461.2 665.15 461.05 665.4 460.95 665.65 460.8 665.9 460.7 666.15 460.55 666.4 460.45 666.65 460.35 666.9 460.2 667.15 460.05 667.4 459.9 667.65 459.75 667.9 459.65 668.1 459.5 668.35 459.35 668.6 459.2 668.8 459.1 669.05 459 669.25 458.85 669.5 458.7 669.7 458.55 669.95 458.4 670.15 458.25 670.4 458.1 670.6 457.95 670.85 457.8 671.05 457.7 671.3 457.55 671.5 457.4 671.7 457.25 671.95 457.1 672.15 456.95 672.35 456.8 672.6 456.65 672.8 456.45 673 456.35 673.25 456.2 673.45 456.05 673.65 455.85 673.85 455.7 674.05 455.55 674.25 455.35 674.5 455.2 674.7 455 674.9 454.9 675.1 454.7 675.3 454.55 675.5 454.35 675.7 454.2 675.9 454 676.1 453.8 676.3 453.65 676.45 453.5 676.65 453.3 676.85 453.1 677 452.9 677.2 452.7 677.35 452.5 677.55 452.3 677.7 452.15 677.9 451.95 678.05 451.75 678.25 451.55 678.4 451.35 678.55 451.15 678.7 450.95 678.9 450.8 679.05 450.55 679.2 450.35 679.35 450.15 679.5 449.95 679.6 449.7 679.75 449.5 679.9 449.35 680 449.1 680.15 448.9 680.25 448.65 680.4 448.45 680.5 448.2 680.65 448.05 680.75 447.8 680.85 447.6 681 447.35 681.1 447.1 681.2 446.9 681.3 446.7 681.4 446.45 681.55 446.2 681.65 446 681.75 445.75 681.85 445.5 681.95 445.3 682.05 445.05 682.15 444.85 682.25 444.6 682.35 444.35 682.45 444.1 682.5 443.9 682.6 443.65 682.7 443.4 682.8 443.15 682.85 442.9 682.95 442.65 683 442.45 683.1 442.2 683.2 441.95 683.25 441.65 683.3 441.35 683.4 441.15 683.45 440.85 683.5 440.55 683.55 440.3 683.65 440 683.7 439.75 683.75 439.5 683.75 439.2 683.8 438.9 683.85 438.6 683.9 438.4 683.95 438.1 683.95 437.8 684 437.5 684.05 437.25 684.05 437 684.1 436.7 684.1 436.4 684.15 436.1 684.15 435.85 684.2 435.6 684.2 435.3 684.25 435 684.25 434.75 684.3 434.45 684.3 434.2 684.35 433.9 684.35 433.6 684.35 433.35 684.4 433.05 684.4 432.8 684.4 432.5 684.4 432.25 684.45 431.95 684.45 431.7 684.45 431.45 684.45 431.15 684.45 430.9 684.45 430.6 684.45 430.3 684.45 430.1 684.4 429.8 684.4 429.5 684.35 429.25 684.35 428.95 684.3 428.7 684.25 428.45 684.2 428.15 684.15 427.9 684.1 427.6 684.05 427.4 684 427.1 683.9 426.85 683.85 426.6 683.75 426.35 683.65 426.1 683.55 425.85 683.45 425.6 683.35 425.35 683.25 425.1 683.15 424.85 683 424.65 682.9 424.4 682.8 424.15 682.65 423.9 682.55 423.65 682.45 423.45 682.3 423.25 682.2 423 682.05 422.75 681.95 422.5 681.8 422.25 681.7 422 681.55 421.8 681.45 421.55 681.3 421.3 681.2 421.05 681.05 420.85 680.95 420.6 680.8 420.4 680.7 420.15 680.55 419.9 680.45 419.65 680.35 419.4 680.2 419.2 680.1 418.95 680 418.7 679.9 418.45 679.85 418.2 679.75 417.95 679.65 417.75 679.6 417.45 679.5 417.2 679.45 416.95 679.4 416.7 679.35 416.45 679.25 416.2 679.2 415.95 679.15 415.7 679.15 415.45 679.1 415.2 679.1 415 679.1 414.75 679.1 414.5 679.1 414.25 679.1 414 679.1 413.75 679.2 413.55 679.25 413.3 679.3 413.05 679.4 412.8 679.45 412.55 679.55 412.3 679.65 412.1 679.8 411.85 679.9 411.6 680 411.35 680.15 411.15 680.25 410.9 680.4 410.7 680.55 410.45 680.65 410.2 680.8 410 680.95 409.75 681.1 409.55 681.2 409.3 681.35 409.1 681.5 408.85 681.65 408.65 681.8 408.4 681.95 408.15 682.1 408 682.25 407.75 682.4 407.55 682.55 407.3 682.7 407.1 682.85 406.85 683.05 406.7 683.2 406.45 683.35 406.25 683.5 406 683.65 405.8 683.8 405.55 684 405.4 684.15 405.15 684.3 404.95 684.45 404.75 684.65 404.5 684.8 404.3 684.95 404.05 685.1 403.9 685.3 403.7 685.45 403.5 685.65 403.3 685.8 403.1 686 402.85 686.15 402.65 686.3 402.5 686.5 402.3 686.65 402.1 686.85 401.9 687 401.7 687.15 401.45 687.35 401.3 687.5 401.1 687.7 400.85 687.85 400.65 688.05 400.4 688.2 400.2 688.35 399.95 688.55 399.8 688.7 399.55 688.85 399.35 689.05 399.1 689.2 398.9 689.35 398.65 689.5 398.5 689.65 398.25 689.85 398 690 397.8 690.15 397.6 690.25 397.35 690.4 397.15 690.55 397 690.7 396.8 690.85 396.55 691 396.35 691.15 396.15 691.3 395.95 691.45 395.75 691.6 395.55 691.75 395.35 691.9 395.15 692.05 394.9 692.2 394.7 692.35 394.45 692.5 394.25 692.7 394.05 692.85 393.8 693 393.55 693.2 393.3 693.35 393.1 693.5 392.9 693.65 392.65 693.85 392.4 694 392.2 694.2 391.95 694.35 391.7 694.5 391.55 694.7 391.3 694.85 391.1 695 390.85 695.2 390.65 695.35 390.4 695.55 390.2 695.7 390 695.9 389.75 696.05 389.55 696.2 389.3 696.4 389.05 696.55 388.9 696.75 388.65 696.9 388.4 697.05 388.15 697.25 387.95 697.4 387.7 697.55 387.5 697.75 387.3 697.9 387.05 698.05 386.8 698.25 386.55 698.4 386.35 698.55 386.15 698.75 385.9 698.9 385.65 699.05 385.45 699.2 385.2 699.4 384.95 699.55 384.75 699.7 384.55 699.9 384.3 700.05 384.05 700.2 383.8 700.35 383.6 700.5 383.35 700.7 383.15 700.85 382.9 701 382.7 701.15 382.45 701.3 382.2 701.45 382 701.6 381.8 701.75 381.55 701.9 381.3 702.05 381.1 702.2 380.85 702.35 380.6 702.5 380.45 702.65 380.2 702.8 379.95 702.95 379.7 703.1 379.5 703.25 379.25 703.35 379.05 703.5 378.8 703.65 378.6 703.8 378.35 703.95 378.1 704.1 377.85 704.25 377.7 704.4 377.45 704.55 377.2 704.7 376.95 704.85 376.75 705 376.5 705.1 376.3 705.25 376.1 705.4 375.85 705.55 375.6 705.75 375.4 705.9 375.15 706.05 374.95 706.2 374.7 706.35 374.5 706.5 374.25 706.65 374 706.8 373.8 707 373.6 707.15 373.35 707.3 373.15 707.45 372.9 707.6 372.65 707.75 372.45 707.9 372.25 708.1 372 708.25 371.75 708.4 371.55 708.55 371.3 708.7 371.05 708.85 370.9 709 370.65 709.15 370.4 709.35 370.15 709.5 369.95 709.65 369.7 709.8 369.5 709.95 369.25 710.1 369.05 710.25 368.8 710.4 368.55 710.55 368.3 710.7 368.1 710.9 367.9 711.05 367.65 711.2 367.4 711.35 367.15 711.5 366.95 711.7 366.75 711.85 366.5 712 366.25 712.15 366 712.35 365.75 712.5 365.55 712.65 365.35 712.85 365.1 713 364.85 713.15 364.6 713.3 364.4 713.5 364.15 713.65 363.95 713.8 363.7 714 363.45 714.15 363.25 714.3 363 714.45 362.75 714.65 362.55 714.8 362.3 715 362.1 715.15 361.85 715.3 361.6 715.5 361.35 715.65 361.2 715.8 360.95 716 360.7 716.15 360.45 716.35 360.25 716.5 360 716.65 359.85 716.85 359.65 717 359.4 717.15 359.2 717.3 359 717.45 358.75 717.65 358.6 717.8 358.4 717.95 358.2 718.1 357.95 718.25 357.75 718.4 357.55 718.55 357.3 718.7 357.15 718.9 356.95 719.05 356.7 719.2 356.5 719.35 356.3 719.5 356.05 719.65 355.85 719.8 355.65 719.95 355.45 720.1 355.25 720.25 355 720.4 354.75 720.55 354.55 720.65 354.35 720.8 354.15 720.95 353.9 721.1 353.65 721.2 353.4 721.35 353.2 721.45 353 721.6 352.75 721.7 352.5 721.85 352.25 721.95 352.05 722.1 351.8 722.2 351.6 722.35 351.35 722.45 351.1 722.55 350.85 722.7 350.6 722.85 350.35 722.95 350.15 723.1 349.9 723.2 349.65 723.35 349.4 723.45 349.15 723.6 348.95 723.7 348.7 723.85 348.45 723.95 348.2 724.1 347.95 724.2 347.7 724.35 347.5 724.45 347.25 724.6 347 724.7 346.75 724.85 346.5 724.95 346.25 725.1 346.05 725.2 345.8 725.3 345.6 725.4 345.35 725.55 345.15 725.65 344.9 725.75 344.75 725.85 344.5 726 344.3 726.1 344.05 726.2 343.85 726.3 344.05 726.4 344.3 726.5 344.5 726.6 344.75 726.75 344.9 726.85 345.15 726.95 345.35 727.05 345.6 727.15 345.8 727.3 346.05 727.4 346.2 727.55 346.45 727.7 346.7 727.8 346.95 727.95 347.2 728.05 347.45 728.2 347.6 728.35 347.85 728.45 348.1 728.6 348.35 728.7 348.6 728.85 348.8 729 349 729.1 349.25 729.25 349.5 729.4 349.75 729.5 350 729.65 350.2 729.75 350.4 729.9 350.65 730.05 350.9 730.15 351.15 730.3 351.4 730.45 351.6 730.55 351.8 730.7 352.05 730.8 352.3 730.95 352.55 731.1 352.8 731.2 353.05 731.35 353.2 731.45 353.45 731.6 353.7 731.75 353.95 731.85 354.2 732 354.45 732.1 354.65 732.25 354.9 732.35 355.15 732.45 355.35 732.6 355.6 732.7 355.85 732.8 356.05 732.95 356.3 733.05 356.55 733.15 356.75 733.3 357 733.4 357.2 733.5 357.45 733.65 357.7 733.75 357.95 733.85 358.2 733.95 358.45 734.1 358.6 734.2 358.85 734.3 359.1 734.4 359.35 734.55 359.65 734.65 359.9 734.75 360.1 734.85 360.35 735 360.6 735.1 360.9 735.2 361.15 735.3 361.35 735.45 361.6 735.55 361.9 735.65 362.15 735.75 362.4 735.9 362.65 736 362.85 736.1 363.15 736.2 363.4 736.3 363.65 736.45 363.9 736.55 364.15 736.65 364.4 736.75 364.65 736.85 364.9 737 365.2 737.1 365.45 737.2 365.65 737.3 365.9 737.4 366.2 737.5 366.45 737.6 366.7 737.75 366.9 737.85 367.2 737.95 367.45 738.05 367.7 738.15 367.95 738.25 368.2 738.35 368.45 738.45 368.7 738.6 368.95 738.7 369.25 738.8 369.5 738.9 369.7 739 369.95 739.1 370.25 739.2 370.5 739.35 370.75 739.45 371 739.55 371.25 739.65 371.5 739.75 371.75 739.9 372 740 372.25 740.1 372.5 740.2 372.75 740.3 373 740.45 373.25 740.55 373.55 740.65 373.75 740.75 374 740.9 374.25 741 374.5 741.1 374.8 741.2 375.05 741.35 375.25 741.45 375.5 741.55 375.75 741.65 376.05 741.8 376.3 741.85 376.35 741.85 376.45
L 741.9 376.5
Q 741.95 376.65 742 376.75 742.1 377 742.25 377.25 742.35 377.5 742.45 377.75 742.55 377.95 742.65 378.2 742.8 378.5 742.9 378.75 743 379 743.1 379.25 743.2 379.45 743.35 379.7 743.45 379.95 743.55 380.2 743.65 380.45 743.75 380.7 743.85 380.95 743.95 381.2 744.05 381.45 744.2 381.7 744.3 381.95 744.4 382.15 744.5 382.45 744.6 382.7 744.7 382.95 744.8 383.2 744.95 383.45 745.05 383.7 745.15 384 745.25 384.25 745.35 384.5 745.5 384.75 745.6 385 745.7 385.25 745.8 385.55 745.95 385.8 746.05 386.05 746.15 386.3 746.25 386.55 746.4 386.8 746.5 387.1 746.6 387.35 746.7 387.55 746.8 387.85 746.95 388.1 747.05 388.35 747.15 388.65 747.25 388.9 747.4 389.15 747.5 389.4 747.6 389.65 747.7 389.9 747.8 390.15 747.9 390.35 748 390.55 748.1 390.8 748.2 391.05 748.3 391.3 748.4 391.55 748.5 391.75 748.65 392 748.75 392.25 748.85 392.5 748.95 392.75 749.05 393 749.15 393.2 749.25 393.45 749.35 393.65 749.45 393.9 749.55 394.15 749.6 394.4 749.7 394.6 749.8 394.85 749.9 395.1 750 395.35 750.05 395.65 750.15 395.85 750.25 396.1 750.3 396.35 750.4 396.6 750.45 396.85 750.55 397.1 750.6 397.35 750.7 397.6 750.75 397.85 750.85 398.1 750.9 398.4 750.95 398.6 751.05 398.85 751.1 399.1 751.15 399.4 751.25 399.65 751.3 399.9 751.35 400.15 751.4 400.4 751.5 400.65 751.55 400.9 751.6 401.2 751.65 401.4 751.7 401.65 751.75 401.95 751.8 402.2 751.85 402.45 751.9 402.7 751.95 402.95 752 403.25 752 403.55 752.05 403.8 752.05 404.05 752.1 404.3 752.15 404.6 752.15 404.9 752.2 405.15 752.2 405.4 752.25 405.7 752.25 405.95 752.25 406.25 752.3 406.55 752.3 406.8 752.35 407.05 752.35 407.35 752.35 407.6 752.35 407.9 752.4 408.15 752.4 408.4 752.4 408.7 752.4 408.95 752.45 409.25 752.45 409.55 752.45 409.75 752.45 410.05 752.45 410.35 752.45 410.65 752.45 410.9 752.45 411.15 752.45 411.45 752.45 411.75 752.45 412.05 752.4 412.3 752.4 412.6 752.4 412.9 752.35 413.2 752.35 413.5 752.3 413.75 752.3 414.05 752.3 414.3 752.25 414.6 752.25 414.9 752.2 415.15 752.2 415.45 752.15 415.75 752.15 416.05 752.1 416.35 752.1 416.6 752.05 416.9 752.05 417.2 752 417.5 752 417.8 751.95 418.05 751.9 418.3 751.85 418.6 751.8 418.9 751.8 419.2 751.75 419.4 751.7 419.7 751.65 420 751.6 420.3 751.55 420.55 751.5 420.8 751.45 421.1 751.4 421.4 751.35 421.65 751.3 421.95 751.25 422.2 751.2 422.45 751.15 422.75 751.1 423 751.05 423.3 750.95 423.5 750.9 423.75 750.85 424 750.75 424.25 750.7 424.55 750.65 424.75 750.55 425 750.5 425.25 750.4 425.5 750.3 425.75 750.25 426 750.15 426.2 750.05 426.45 750 426.7 749.9 426.95 749.8 427.2 749.65 427.45 749.55 427.65 749.45 427.9 749.3 428.15 749.2 428.4 749.05 428.65 748.95 428.85 748.8 429.1 748.65 429.3 748.55 429.55 748.4 429.8 748.25 430.05 748.1 430.2 747.95 430.45 747.8 430.65 747.65 430.9 747.5 431.15 747.35 431.35 747.2 431.55 747.05 431.75 746.85 432 746.7 432.25 746.5 432.45 746.3 432.7 746.15 432.95 745.95 433.1 745.8 433.35 745.6 433.6 745.4 433.8 745.25 434.05 745.05 434.25 744.85 434.45 744.7 434.7 744.5 434.9 744.3 435.15 744.15 435.35 743.95 435.6 743.75 435.8 743.6 436 743.4 436.25 743.2 436.45 743 436.7 742.85 436.9 742.65 437.1 742.5 437.25 742.3 437.5 742.15 437.7 741.95 437.9 741.8 438.15 741.6 438.35 741.45 438.5 741.25 438.7 741.1 438.95 740.9 439.15 740.75 439.35 740.55 439.6 740.4 439.8 740.2 439.95 740.05 440.2 739.9 440.4 739.7 440.6 739.55 440.85 739.4 441.05 739.2 441.25 739.05 441.45 738.9 441.7 738.7 441.9 738.55 442.15 738.4 442.35 738.25 442.55 738.15 442.7 738 442.95 737.85 443.15 737.7 443.35 737.6 443.6 737.45 443.8 737.35 443.95 737.25 444.2 737.1 444.4 737 444.65 736.9 444.9 736.8 445.1 736.7 445.35 736.6 445.55 736.5 445.75 736.4 446 736.3 446.25 736.25 446.5 736.15 446.7 736.1 446.95 736 447.2 735.95 447.45 735.85 447.7 735.8 447.95 735.75 448.15 735.7 448.4 735.65 448.65 735.6 448.9 735.55 449.15 735.5 449.4 735.45 449.65 735.4 449.9 735.35 450.15 735.3 450.4 735.3 450.65 735.25 450.85 735.2 451.15 735.2 451.4 735.15 451.65 735.1 451.9 735.1 452.2 735.05 452.4 735.05 452.65 735 452.95 735 453.2 735 453.45 734.95 453.7 734.95 453.95 734.95 454.2 734.95 454.5 734.95 454.75 734.95 455 734.95 455.25 734.95 455.5 734.95 455.75 734.95 456.05 734.95 456.3 735 456.5 735 456.8 735.05 457.05 735.05 457.3 735.1 457.6 735.15 457.8 735.15 458.05 735.2 458.35 735.25 458.6 735.35 458.85 735.4 459.1 735.45 459.3 735.5 459.55 735.6 459.85 735.7 460.1 735.75 460.35 735.85 460.55 735.95 460.8 736.05 461.05 736.15 461.3 736.25 461.55 736.4 461.85 736.5 462.05 736.6 462.3 736.75 462.55 736.85 462.8 737 463 737.1 463.25 737.25 463.4 737.35 463.6 737.5 463.8 737.65 464 737.8 464.25 737.95 464.4 738.1 464.6 738.25 464.75 738.45 464.95 738.6 465.1 738.8 465.3 738.95 465.45 739.15 465.6 739.35 465.75 739.55 465.9 739.75 466.05 739.95 466.2 740.15 466.35 740.35 466.5 740.6 466.65 740.8 466.8 741 466.9 741.2 467.05 741.45 467.2 741.65 467.35 741.85 467.45 742.1 467.55 742.3 467.7 742.5 467.8 742.7 467.9 742.9 468.05 743.1 468.15 743.3 468.3 743.5 468.4 743.7 468.5 743.9 468.6 744.15 468.7 744.4 468.75 744.65 468.85 744.9 468.95 745.15 469.05 745.4 469.15 745.65 469.25 745.9 469.35 746.15 469.45 746.4 469.55 746.65 469.65 746.9 469.7 747.15 469.8 747.4 469.9 747.7 470 747.95 470.05 748.2 470.15 748.45 470.2 748.7 470.25 749 470.35 749.25 470.45 749.5 470.5 749.8 470.6 750.05 470.7 750.35 470.75 750.6 470.85 750.85 470.9 751.15 470.95 751.4 471.05 751.7 471.1 751.95 471.15 752.25 471.2 752.55 471.25 752.8 471.3 753.1 471.3 753.35 471.35 753.65 471.4 753.95 471.4 754.25 471.45 754.55 471.45 754.8 471.5 755.1 471.5 755.4 471.5 755.7 471.55 755.95 471.55 756.25 471.55 756.55 471.6 756.85 471.6 757.1 471.65 757.4 471.65 757.7 471.7 758 471.7 758.3 471.7 758.55 471.75 758.85 471.75 759.15 471.75 759.45 471.75 759.7 471.8 760 471.8 760.3 471.8 760.6 471.8 760.9 471.85 761.15 471.85 761.45 471.85 761.75 471.85 762.05 471.85 762.35 471.85 762.6 471.9 762.9 471.9 763.2 471.9 763.5 471.9 763.8 471.9 764.1 471.9 764.4 471.9 764.7 471.95 765 471.95 765.3 471.95 765.6 471.95 765.9 471.95 766.2 471.95 766.5 471.95 766.8 471.95 767.1 472 767.4 472 767.7 472 768 472 768.3 472 768.6 472 768.9 472 769.2 472 769.5 472 769.8 472 770.1 472 770.35 472 770.6 472 770.9 472 771.15 472 771.45 472 771.7 472 772 472 772.25 472 772.55 472 772.8 472 773.1 471.95 773.35 471.95 773.6 471.95 773.9 471.95 774.15 471.9 774.45 471.9 774.7 471.9 775 471.9 775.25 471.85 775.55 471.85 775.8 471.85 776.1 471.8 776.35 471.8 776.65 471.75 776.9 471.75 777.15 471.7 777.45 471.7 777.75 471.7 778 471.65 778.3 471.65 778.55 471.6 778.85 471.6 779.15 471.6 779.4 471.55 779.7 471.55 779.95 471.5 780.25 471.5 780.55 471.5 780.8 471.5 781.1 471.45 781.35 471.45 781.65 471.4 781.95 471.4 782.2 471.35 782.5 471.35 782.8 471.3 783.05 471.25 783.35 471.25 783.65 471.2 783.9 471.15 784.2 471.15 784.5 471.1 784.75 471.05 785.05 471.05 785.35 471 785.6 470.95 785.9 470.9 786.15 470.9 786.45 470.85 786.75 470.8 787 470.75 787.3 470.75 787.6 470.7 787.85 470.65 788.15 470.6 788.45 470.55 788.7 470.55 789 470.5 789.3 470.45 789.55 470.4 789.85 470.35 790.1 470.3 790.4 470.25 790.7 470.25 790.85 470.25 791 470.2 791.1 470.15 791.25 470.15 791.4 470.15 791.55 470.15 791.7 470.15 791.8 470.1 792.1 470.05 792.4 470.05 792.7 470 792.95 469.95 793.25 469.9 793.55 469.9 793.85 469.85 794.15 469.8 794.4 469.75 794.7 469.75 795 469.7 795.3 469.65 795.55 469.6 795.85 469.55 796.15 469.5 796.4 469.45 796.7 469.45 797 469.4 797.25 469.35 797.55 469.3 797.85 469.25 798.1 469.2 798.4 469.15 798.7 469.1 799 469.05 799.25 469 799.55 468.95 799.85 468.9 800 468.85 800.2 468.85 800.25 468.85 800.35 468.85
L 800.4 468.85
Q 800.7 468.8 801 468.75 801.3 468.75 801.6 468.75 801.9 468.7 802.15 468.65 802.45 468.6 802.75 468.55 803.05 468.55 803.35 468.5 803.65 468.45 803.9 468.4 804.2 468.35 804.5 468.35 804.8 468.3 805.1 468.25 805.35 468.2 805.65 468.15 805.9 468.15 806.2 468.1 806.5 468.05 806.75 468.05 807.05 468 807.3 467.95 807.6 467.95 807.85 467.9 808.15 467.85 808.4 467.85 808.7 467.8 809 467.75 809.25 467.75 809.55 467.7 809.8 467.65 810.1 467.65 810.35 467.6 810.65 467.55 810.9 467.5 811.2 467.5 811.5 467.45 811.75 467.4 812.05 467.4 812.3 467.35 812.6 467.3 812.85 467.3 813.15 467.25 813.4 467.2 813.7 467.15 813.95 467.1 814.25 467.05 814.5 467 814.8 466.95 815.05 466.9 815.35 466.85 815.6 466.8 815.9 466.75 816.15 466.7 816.45 466.6 816.7 466.55 817 466.5 817.25 466.45 817.55 466.4 817.8 466.35 818.1 466.3 818.35 466.2 818.65 466.15 818.9 466.1 819.2 466.05 819.45 466 819.75 465.95 820 465.9 820.3 465.85 820.55 465.75 820.85 465.7 821.1 465.65 821.4 465.55 821.65 465.5 821.95 465.45 822.25 465.4 822.5 465.3 822.8 465.25 823.05 465.2 823.35 465.15 823.6 465.05 823.9 465 824.2 464.95 824.45 464.9 824.75 464.85 825 464.75 825.3 464.7 825.55 464.65 825.85 464.6 826.15 464.55 826.4 464.5 826.7 464.4 826.95 464.35 827.25 464.25 827.5 464.2 827.8 464.1 828.05 464.05 828.35 463.95 828.6 463.9 828.9 463.8 829.15 463.7 829.4 463.6 829.65 463.55 829.9 463.45 830.15 463.35 830.4 463.3 830.65 463.25 830.9 463.15 831.15 463.05 831.4 462.95 831.65 462.9 831.9 462.8 832.15 462.7 832.4 462.6 832.65 462.5 832.9 462.4 833.1 462.3 833.35 462.2 833.6 462.1 833.85 462 834.1 461.85 834.35 461.8 834.6 461.7 834.85 461.55 835.1 461.45 835.4 461.3 835.65 461.2 835.9 461.05 836.15 460.95 836.4 460.8 836.7 460.7 836.95 460.55 837.2 460.45 837.45 460.35 837.7 460.2 837.95 460.05 838.25 459.95 838.5 459.8 838.75 459.7 839 459.55 839.25 459.4 839.55 459.25 839.8 459.15 840.05 459.05 840.3 458.9 840.6 458.8 840.85 458.65 841.1 458.55 841.35 458.4 841.65 458.25 841.9 458.15 842.15 458 842.4 457.85 842.7 457.75 842.95 457.65 843.2 457.55 843.45 457.4 843.75 457.25 844 457.15 844.25 457 844.5 456.85 844.8 456.75 845.05 456.6 845.3 456.5 845.55 456.35 845.85 456.25 846.1 456.15 846.35 456 846.65 455.9 846.9 455.75 847.15 455.65 847.4 455.5 847.6 455.4 847.85 455.25 848.1 455.15 848.35 455 848.6 454.95 848.85 454.8 849.05 454.65 849.3 454.55 849.55 454.4 849.8 454.25 850 454.1 850.25 453.95 850.5 453.85 850.7 453.7 850.95 453.6 851.2 453.4 851.4 453.25 851.65 453.1 851.9 452.95 852.15 452.8 852.35 452.65 852.6 452.5 852.8 452.35 853.05 452.25 853.25 452.15 853.45 452 853.65 451.85 853.85 451.7 854.05 451.55 854.25 451.4 854.45 451.25 854.65 451.1 854.85 450.95 855.05 450.85 855.2 450.65 855.4 450.5 855.6 450.35 855.8 450.15 855.95 450 856.15 449.8 856.35 449.65 856.5 449.5 856.7 449.3 856.85 449.1 857.05 448.95 857.2 448.75 857.4 448.55 857.55 448.35 857.7 448.15 857.85 448 858.05 447.8 858.2 447.6 858.35 447.4 858.5 447.2 858.65 447 858.8 446.8 858.95 446.6 859.1 446.4 859.25 446.2 859.4 446 859.55 445.8 859.7 445.6 859.8 445.35 859.95 445.2 860.05 444.95 860.2 444.75 860.3 444.5 860.4 444.3 860.55 444.05 860.65 443.9 860.75 443.65 860.85 443.4 860.95 443.2 861.05 442.95 861.15 442.7 861.25 442.55 861.35 442.3 861.4 442.05 861.5 441.8 861.6 441.55 861.7 441.25 861.8 441.05 861.9 440.8 862 440.5 862.1 440.25 862.2 439.95 862.3 439.75 862.35 439.5 862.45 439.2 862.55 438.95 862.6 438.65 862.7 438.45 862.75 438.2 862.85 437.9 862.9 437.65 863 437.4 863.05 437.1 863.1 436.9 863.15 436.65 863.25 436.4 863.3 436.1 863.35 435.85 863.4 435.65 863.45 435.35 863.5 435.1 863.55 434.85 863.6 434.55 863.65 434.35 863.7 434.1 863.75 433.8 863.8 433.55 863.85 433.3 863.9 433 863.95 432.75 863.95 432.45 864 432.15 864.05 431.85 864.1 431.6 864.1 431.35 864.15 431.05 864.2 430.75 864.2 430.45 864.25 430.2 864.3 429.95 864.3 429.65 864.35 429.35 864.4 429.05 864.4 428.8 864.45 428.55 864.45 428.25 864.45 428 864.45 427.75 864.45 427.5 864.45 427.3 864.4 427.05 864.4 426.85 864.35 426.6 864.35 426.35 864.3 426.1 864.25 425.95 864.2 425.7 864.1 425.45 864.05 425.25 864 425 863.9 424.8 863.85 424.6 863.75 424.4 863.65 424.15 863.55 423.95 863.45 423.75 863.35 423.5 863.25 423.3 863.15 423.15 863 422.95 862.9 422.7 862.8 422.5 862.65 422.3 862.55 422.1 862.4 421.95 862.25 421.75 862.1 421.55 862 421.35 861.85 421.15 861.7 420.95 861.55 420.75 861.4 420.6 861.25 420.45 861.1 420.25 860.95 420.05 860.8 419.9 860.6 419.7 860.45 419.5 860.3 419.35 860.15 419.2 860 419.05 859.8 418.85 859.65 418.7 859.5 418.5 859.3 418.3 859.1 418.15 858.9 417.95 858.75 417.8 858.55 417.6 858.35 417.4 858.15 417.25 857.95 417.05 857.75 416.85 857.55 416.65 857.35 416.5 857.15 416.35 856.95 416.15 856.75 416 856.55 415.8 856.35 415.65 856.15 415.45 855.95 415.25 855.75 415.1 855.55 414.95 855.35 414.8 855.15 414.6 854.95 414.45 854.75 414.25 854.55 414.05 854.35 413.9 854.15 413.7 853.95 413.6 853.7 413.4 853.5 413.25 853.3 413.1 853.1 412.9 852.9 412.75 852.7 412.55 852.5 412.4 852.25 412.25 852.05 412.1 851.85 411.9 851.65 411.75 851.45 411.55 851.2 411.35 851 411.2 850.8 411 850.6 410.85 850.4 410.7 850.2 410.5 850 410.3 849.8 410.1 849.6 409.95 849.4 409.75 849.2 409.55 849 409.4 848.8 409.2 848.6 409.05 848.4 408.85 848.2 408.65 848 408.45 847.8 408.25 847.6 408.1 847.4 407.9 847.2 407.7 847 407.5 846.85 407.3 846.65 407.1 846.45 406.9 846.25 406.75 846.05 406.55 845.9 406.35 845.7 406.15 845.5 405.95 845.3 405.75 845.15 405.5 844.95 405.35 844.75 405.15 844.55 404.95 844.35 404.75 844.2 404.5 844 404.3 843.8 404.1 843.6 403.95 843.45 403.75 843.25 403.5 843.05 403.3 842.85 403.1 842.7 402.9 842.5 402.65 842.3 402.5 842.1 402.3 841.9 402.1 841.75 401.9 841.55 401.65 841.35 401.45 841.15 401.3 841 401.1 840.8 400.85 840.6 400.65 840.4 400.45 840.25 400.25 840.05 400 839.85 399.85 839.7 399.65 839.5 399.45 839.3 399.2 839.1 399 838.95 398.8 838.75 398.6 838.55 398.4 838.35 398.2 838.2 398 838 397.8 837.8 397.55 837.6 397.35 837.45 397.15 837.25 397 837.05 396.75 836.85 396.55 836.65 396.35 836.5 396.15 836.3 395.9 836.1 395.75 835.9 395.55 835.75 395.35 835.55 395.1 835.35 394.9 835.15 394.7 835 394.5 834.8 394.3 834.6 394.1 834.45 393.9 834.25 393.7 834.05 393.45 833.85 393.25 833.7 393.05 833.5 392.85 833.3 392.65 833.15 392.45 832.95 392.2 832.8 392 832.65 391.8 832.5 391.6 832.35 391.4 832.2 391.15 832.05 390.95 831.9 390.7 831.75 390.45 831.6 390.25 831.45 390.05 831.3 389.8 831.2 389.6 831.05 389.35 830.95 389.1 830.8 388.9 830.7 388.65 830.6 388.4 830.5 388.15 830.4 387.85 830.3 387.6 830.2 387.4 830.1 387.1 830 386.85 829.9 386.6 829.8 386.3 829.7 386.1 829.6 385.85 829.55 385.55 829.45 385.3 829.35 385.05 829.3 384.75 829.2 384.55 829.1 384.25 829.05 384 828.95 383.75 828.85 383.45 828.8 383.25 828.7 382.95 828.65 382.7 828.55 382.45 828.5 382.15 828.4 381.95 828.35 381.65 828.25 381.4 828.2 381.1 828.1 380.85 828.05 380.6 827.95 380.35 827.9 380.05 827.8 379.8 827.7 379.5 827.65 379.25 827.55 379 827.5 378.7 827.4 378.45 827.35 378.15 827.25 377.9 827.2 377.65 827.1 377.35 827.05 377.1 826.95 376.8 826.9 376.55 826.85 376.3 826.75 376 826.7 375.7 826.6 375.45 826.55 375.15 826.5 374.9 826.4 374.6 826.35 374.3 826.3 374.05 826.2 373.75 826.15 373.5 826.05 373.2 826 372.95 825.95 372.65 825.85 372.35 825.8 372.1 825.75 371.85 825.65 371.55 825.6 371.25 825.5 371 825.45 370.75 825.4 370.45 825.3 370.2 825.25 369.9 825.2 369.6 825.1 369.4 825.05 369.1 824.95 368.85 824.9 368.55 824.8 368.3 824.75 368.05 824.65 367.8 824.6 367.5 824.5 367.2 824.45 366.95 824.35 366.7 824.3 366.45 824.2 366.15 824.15 365.9 824.05 365.6 824 365.4 823.9 365.1 823.85 364.85 823.75 364.55 823.65 364.3 823.6 364.05 823.5 363.8 823.45 363.5 823.35 363.25 823.25 362.95 823.2 362.7 823.1 362.45 823 362.2 822.95 361.9 822.85 361.65 822.75 361.35 822.7 361.15 822.6 360.85 822.5 360.6 822.45 360.3 822.35 360.05 822.25 359.8 822.2 359.55 822.1 359.25 822 359 821.95 358.7 821.85 358.5 821.75 358.2 821.7 357.95 821.6 357.65 821.5 357.4 821.45 357.15 821.35 356.9 821.25 356.6 821.15 356.35 821.1 356.05 821 355.85 820.9 355.55 820.85 355.3 820.75 355 820.65 354.75 820.6 354.45 820.5 354.25 820.4 353.95 820.35 353.7 820.25 353.4 820.2 353.15 820.1 352.95 820.05 352.7 819.95 352.45 819.85 352.15 819.8 351.9 819.7 351.7 819.65 351.45 819.55 351.15 819.5 350.9 819.4 350.65 819.3 350.4 819.25 350.2 819.15 349.9 819.1 349.65 819 349.4 818.9 349.15 818.85 348.9 818.75 348.65 818.65 348.35 818.55 348.05 818.45 347.8 818.35 347.55 818.3 347.25 818.2 347 818.1 346.7 818 346.45 817.9 346.2 817.8 345.9 817.7 345.65 817.65 345.35 817.55 345.1 817.45 344.8 817.35 344.6 817.25 344.3 817.2 344.05 817.1 343.8 817 343.55 816.9 343.3 816.85 343.05 816.75 342.8 816.65 342.5 816.55 342.25 816.45 342.05 816.4 341.8 816.3 341.5 816.2 341.25 816.1 341 816.05 340.7 815.95 340.5 815.85 340.2 815.75 339.9 815.7 339.65 815.6 339.35 815.5 339.1 815.45 338.8 815.35 338.55 815.25 338.25 815.2 337.95 815.1 337.7 815 337.45 814.95 337.15 814.85 336.85 814.75 336.6 814.7 336.35 814.6 336.05 814.5 335.8 814.45 335.5 814.35 335.2 814.25 335 814.2 334.7 814.1 334.4 814 334.15 813.95 333.85 813.85 333.65 813.75 333.35 813.7 333.05 813.6 332.8 813.55 332.5 813.45 332.25 813.35 332 813.3 331.7 813.2 331.45 813.15 331.15 813.05 330.95 813 330.65 812.95 330.4 812.85 330.1 812.8 329.85 812.7 329.6 812.65 329.3 812.6 329.05 812.5 328.75 812.45 328.5 812.4 328.25 812.3 328 812.25 327.7 812.15 327.45 812.1 327.15 812.05 326.9 811.95 326.65 811.9 326.35 811.8 326.1 811.75 325.8 811.65 325.55 811.6 325.3 811.5 325.05 811.45 324.75 811.35 324.5 811.3 324.2 811.2 324 811.15 323.7 811.05 323.45 810.95 323.15 810.9 322.9 810.8 322.65 810.75 322.4 810.65 322.1 810.55 321.85 810.5 321.55 810.4 321.35 810.3 321.05 810.25 320.8 810.15 320.5 810.05 320.25 809.95 320 809.9 319.75 809.8 319.5 809.7 319.2 809.6 318.95 809.55 318.7 809.45 318.5 809.35 318.2 809.25 317.95 809.15 317.7 809.1 317.45 809 317.25 808.9 316.95 808.8 316.7 808.7 316.45 808.65 316.2 808.55 315.95 808.45 315.7 808.4 315.45 808.3 315.2 808.2 314.9 808.15 314.65 808.05 314.45 807.95 314.15 807.9 313.9 807.8 313.65 807.7 313.4 807.65 313.15 807.55 312.9 807.45 312.65 807.35 312.35 807.3 312.1 807.2 311.85 807.1 311.6 807.05 311.35 806.95 311.1 806.85 310.8 806.75 310.55 806.7 310.3 806.6 310.05 806.5 309.8 806.45 309.5 806.35 309.25 806.25 309 806.15 308.75 806.1 308.5 806 308.2 805.9 307.95 805.85 307.65 805.75 307.45 805.7 307.15 805.6 306.9 805.5 306.65 805.45 306.35 805.35 306.15 805.3 305.85 805.2 305.6 805.15 305.3 805.05 305.05 805 304.8 804.9 304.55 804.85 304.25 804.75 304 804.7 303.7 804.6 303.5 804.55 303.2 804.5 302.95 804.4 302.65 804.35 302.4 804.25 302.1 804.2 301.85 804.15 301.6 804.05 301.3 804 301.05 803.95 300.75 803.85 300.5 803.8 300.25 803.7 299.95 803.65 299.7 803.55 299.4 803.5 299.15 803.4 298.9 803.35 298.6 803.3 298.35 803.2 298.05 803.15 297.85 803.05 297.55 803 297.25 802.9 297 802.8 296.7 802.75 296.5 802.65 296.2 802.6 295.95 802.5 295.65 802.4 295.4 802.35 295.15 802.25 294.85 802.2 294.6 802.1 294.3 802 294.05 801.9 293.8 801.85 293.5 801.8 293.3 801.7 293.15 801.75 293.05 801.75 292.95 801.75 292.7 801.8 292.45 801.8 292.1 801.8 291.75 801.8 291.35 801.8 291.05 801.75 290.7 801.75 290.3 801.75 289.95 801.75 289.65 801.75 289.25 801.75 288.9 801.7 288.5 801.7 288.2 801.7 287.85 801.7 287.45 801.65 287.1 801.65 286.8 801.65 286.4 801.6 286.05 801.6 285.65 801.55 285.35 801.55 285 801.5 284.6 801.5 284.25 801.45 283.95 801.4 283.55 801.4 283.2 801.35 282.85 801.3 282.5 801.25 282.15 801.2 281.8 801.15 281.45 801.1 281.1 801.05 280.75 801 280.4 800.95 280.05 800.9 279.7 800.85 279.35 800.8 279 800.7 278.7 800.65 278.35 800.55 278.05 800.5 277.7 800.4 277.35 800.35 277.1 800.25 276.75 800.15 276.45 800.1 276.1 800 275.8 799.9 275.5 799.85 275.2 799.75 274.85 799.7 274.6 799.6 274.25 799.55 273.95 799.45 273.65 799.35 273.3 799.3 273.05 799.2 272.7 799.1 272.35 799 272 798.95 271.65 798.85 271.3 798.75 270.95 798.7 270.55 798.6 270.25 798.55 269.85 798.45 269.55 798.4 269.25 798.35 269 798.25 268.7 798.2 268.4 798.15 268.1 798.1 267.8 798.05 267.55 798.05 267.4 798 267.25
L 798 267.2
Q 797.95 267.05 797.95 266.9 797.9 266.55 797.85 266.25 797.75 265.9 797.7 265.55 797.65 265.15 797.6 264.85 797.55 264.5 797.5 264.15 797.45 263.8 797.4 263.45 797.4 263.1 797.35 262.75 797.3 262.4 797.3 262.1 797.25 261.75 797.2 261.4 797.15 261.05 797.15 260.75 797.1 260.45 797.05 260.1 797.05 259.75 797 259.45 796.95 259.1 796.9 258.75 796.9 258.4 796.85 258.05 796.85 257.75 796.8 257.35 796.8 257 796.75 256.65 796.75 256.35 796.75 255.95 796.75 255.6 796.75 255.3 796.7 254.95 796.7 254.55 796.7 254.2 796.7 253.9 796.7 253.55 796.7 253.15 796.65 252.8 796.65 252.5 796.65 252.15 796.65 251.8 796.6 251.45 796.6 251.15 796.55 250.8 796.55 250.45 796.55 250.1 796.5 249.8 796.5 249.45 796.45 249.1 796.45 248.75 796.4 248.4 796.35 248.1 796.35 247.75 796.3 247.4 796.25 247.05 796.25 246.75 796.2 246.4 796.15 246.1 796.1 245.75 796.1 245.45 796.05 245.1 796 244.75 795.95 244.4 795.9 244.15 795.9 243.8 795.85 243.45 795.8 243.1 795.8 242.8 795.75 242.45 795.75 242.1 795.7 241.75 795.7 241.45 795.65 241.15 795.65 240.8 795.6 240.45 795.6 240.15 795.55 239.8 795.55 239.45 795.5 239.1 795.5 238.75 795.45 238.4 795.4 238.05 795.4 237.65 795.35 237.35 795.3 236.95 795.25 236.6 795.2 236.2 795.15 235.9 795.1 235.5 795.05 235.15 795 234.8 794.95 234.45 794.9 234.1 794.85 233.7 794.8 233.35 794.7 233 794.65 232.65 794.6 232.3 794.55 231.9 794.5 231.6 794.4 231.2 794.35 230.85 794.3 230.5 794.25 230.15 794.2 229.8 794.1 229.4 794.05 229.1 794 228.7 793.95 228.35 793.9 227.95 793.8 227.65 793.75 227.3 793.7 226.9 793.65 226.55 793.55 226.2 793.5 225.85 793.4 225.5 793.35 225.1 793.25 224.8 793.2 224.45 793.1 224.05 793 223.7 792.95 223.35 792.85 223 792.8 222.65 792.7 222.25 792.65 221.95 792.55 221.55 792.45 221.2 792.35 220.85 792.3 220.5 792.2 220.15 792.1 219.8 792.2 219.9 792.3 220 792.5 220.3 792.75 220.6 793 220.85 793.2 221.15 793.45 221.45 793.7 221.75 793.9 222 794.15 222.25 794.4 222.55 794.6 222.85 794.85 223.15 795.1 223.4 795.3 223.65 795.55 223.95 795.8 224.25 796.05 224.55 796.25 224.8 796.5 225.05 796.75 225.35 797 225.65 797.25 225.9 797.45 226.2 797.7 226.45 797.95 226.75 798.2 227 798.45 227.3 798.65 227.6 798.9 227.85 799.15 228.1 799.4 228.4 799.65 228.7 799.9 229 800.15 229.2 800.4 229.5 800.65 229.8 800.9 230.05 801.15 230.35 801.4 230.6 801.65 230.9 801.9 231.15 802.15 231.45 802.4 231.75 802.65 232 802.9 232.25 803.1 232.55 803.35 232.85 803.55 233.15 803.8 233.35 804 233.65 804.2 233.95 804.45 234.25 804.65 234.5 804.9 234.75 805.1 235.05 805.35 235.35 805.55 235.6 805.8 235.9 806 236.15 806.25 236.45 806.45 236.7 806.7 237 806.9 237.3 807.15 237.55 807.35 237.85 807.6 238.1 807.8 238.4 808.05 238.7 808.25 238.95 808.45 239.2 808.65 239.45 808.85 239.7 809.05 240 809.25 240.2 809.45 240.45 809.6 240.75 809.8 241 810 241.3 810.2 241.5 810.35 241.75 810.55 242.05 810.75 242.3 810.9 242.6 811.1 242.9 811.25 243.1 811.4 243.4 811.6 243.7 811.75 244 811.95 244.3 812.15 244.6 812.3 244.95 812.5 245.25 812.7 245.6 812.85 245.9 813.05 246.2 813.2 246.55 813.4 246.85 813.6 247.15 813.75 247.5 813.95 247.8 814.1 248.15 814.3 248.4 814.5 248.75 814.65 249.05 814.85 249.4 815 249.7 815.2 249.95 815.4 250.3 815.55 250.6 815.75 250.9 815.95 251.2 816.15 251.5 816.3 251.8 816.5 252.1 816.7 252.45 816.9 252.7 817.1 253 817.25 253.3 817.45 253.65 817.65 253.9 817.85 254.2 818.05 254.45 818.25 254.75 818.45 255.05 818.65 255.3 818.85 255.6 819.05 255.9 819.25 256.15 819.45 256.45 819.65 256.7 819.85 257 820.05 257.25 820.25 257.55 820.45 257.85 820.65 258.1 820.85 258.4 821.05 258.7 821.3 259 821.5 259.3 821.7 259.55 821.9 259.85 822.1 260.15 822.3 260.45 822.5 260.75 822.7 261.05 822.9 261.35 823.1 261.65 823.3 261.95 823.5 262.2 823.7 262.5 823.9 262.85 824.1 263.15 824.3 263.45 824.5 263.7 824.7 264.05 824.9 264.35 825.1 264.65 825.25 264.95 825.45 265.25 825.65 265.55 825.85 265.85 826 266.2 826.2 266.45 826.4 266.8 826.6 267.1 826.75 267.4 826.95 267.7 827.15 268 827.3 268.35 827.5 268.65 827.7 269 827.9 269.25 828.05 269.6 828.25 269.95 828.45 270.25 828.6 270.55 828.8 270.85 828.95 271.2 829.15 271.5 829.3 271.8 829.5 272.15 829.7 272.45 829.85 272.8 830 273.15 830.2 273.4 830.35 273.75 830.55 274.1 830.7 274.4 830.85 274.7 831.05 275.05 831.2 275.4 831.35 275.7 831.55 276 831.7 276.35 831.85 276.7 831.95 277 832.1 277.3 832.2 277.55 832.3 277.85 832.45 278.15 832.55 278.5 832.65 278.75 832.75 279.05 832.85 279.35 832.95 279.65 833.05 280 833.15 280.25 833.25 280.55 833.35 280.9 833.4 281.2 833.5 281.45 833.6 281.8 833.7 282.15 833.75 282.5 833.85 282.85 833.95 283.15 834 283.5 834.1 283.85 834.15 284.2 834.25 284.5 834.3 284.85 834.35 285.2 834.45 285.55 834.45 285.85 834.5 286.2 834.55 286.6 834.55 286.95 834.6 287.25 834.6 287.6 834.6 287.95 834.6 288.35 834.65 288.65 834.65 289 834.65 289.35 834.6 289.7 834.6 290.05 834.6 290.4 834.6 290.75 834.55 291.1 834.55 291.45 834.55 291.8 834.5 292.15 834.5 292.5 834.45 292.8 834.4 293.2 834.4 293.55 834.35 293.85 834.3 294.2 834.3 294.55 834.25 294.95 834.2 295.25 834.15 295.6 834.1 296 834.05 296.4 834 296.7 833.95 297.1 833.9 297.45 833.85 297.85 833.8 298.15 833.75 298.55 833.7 298.95 833.7 299.3 833.65 299.65 833.6 300 833.55 300.4 833.5 300.75 833.45 301.1 833.45 301.5 833.4 301.9 833.4 302.25 833.35 302.6 833.35 303 833.3 303.4 833.3 303.75 833.25 304.1 833.25 304.5 833.2 304.85 833.2 305.25 833.2 305.6 833.15 305.95 833.15 306.3 833.15 306.65 833.15 307 833.15 307.35 833.15 307.65 833.15 308 833.15 308.4 833.15 308.75 833.15 309.05 833.2 309.4 833.2 309.75 833.25 310.1 833.25 310.4 833.3 310.8 833.35 311.15 833.35 311.5 833.4 311.8 833.45 312.15 833.5 312.55 833.55 312.9 833.6 313.2 833.65 313.55 833.7 313.9 833.75 314.3 833.8 314.6 833.85 314.95 833.95 315.3 834 315.65 834.1 315.95 834.15 316.3 834.25 316.65 834.35 317 834.45 317.3 834.55 317.65 834.65 317.95 834.8 318.25 834.9 318.55 835.05 318.8 835.15 319.1 835.3 319.45 835.4 319.75 835.55 320 835.7 320.3 835.85 320.55 835.95 320.85 836.1 321.1 836.2 321.35 836.35 321.6 836.5 321.85 836.65 322.1 836.75 322.35 836.95 322.65 837.1 322.9 837.3 323.2 837.45 323.5 837.65 323.75 837.8 324.05 838 324.3 838.2 324.55 838.35 324.85 838.55 325.1 838.75 325.4 838.95 325.6 839.15 325.9 839.35 326.15 839.55 326.4 839.75 326.7 839.95 326.9 840.2 327.15 840.4 327.45 840.65 327.7 840.85 327.95 841.1 328.25 841.35 328.45 841.6 328.75 841.8 329 842.05 329.25 842.3 329.55 842.55 329.75 842.8 330 843.05 330.3 843.25 330.55 843.5 330.8 843.75 331.05 844.05 331.25 844.25 331.5 844.5 331.75 844.8 332 845.05 332.2 845.3 332.4 845.55 332.65 845.8 332.85 846.1 333.1 846.35 333.3 846.6 333.5 846.9 333.75 847.15 333.9 847.45 334.1 847.7 334.35 848 334.55 848.25 334.75 848.55 334.95 848.8 335.15 849.1 335.3 849.35 335.5 849.65 335.7 849.95 335.9 850.25 336.1 850.5 336.25 850.8 336.45 851.1 336.55 851.4 336.75 851.7 336.9 852 337.05 852.3 337.2 852.6 337.35 852.9 337.45 853.25 337.6 853.55 337.75 853.85 337.85 854.2 337.95 854.5 338.05 854.8 338.15 855.1 338.25 855.45 338.4 855.75 338.45 856.05 338.55 856.35 338.65 856.7 338.75 857 338.8 857.35 338.9 857.65 338.95 858 339.05 858.3 339.1 858.6 339.2 858.95 339.25 859.25 339.3 859.6 339.3 859.95 339.35 860.3 339.4 860.65 339.45 860.95 339.5 861.3 339.55 861.65 339.6 862 339.65 862.35 339.7 862.65 339.7 863 339.75 863.35 339.75 863.7 339.8 864.05 339.8 864.4 339.85 864.75 339.85 865.05 339.85 865.4 339.85 865.6 339.85 865.8 339.85 866.15 339.85 866.5 339.85 866.85 339.85 867.2 339.85 867.55 339.85 867.9 339.85 868.25 339.8 868.6 339.8 868.95 339.8 869.3 339.8 869.65 339.8 870 339.75 870.35 339.75 870.7 339.75 871.05 339.7 871.4 339.7 871.75 339.7 872.15 339.65 872.5 339.65 872.85 339.6 873.25 339.6 873.6 339.55 873.95 339.55 874.35 339.5 874.7 339.45 875.05 339.45 875.45 339.4 875.8 339.35 876.15 339.3 876.55 339.3 876.9 339.25 877.25 339.2 877.6 339.15 878 339.1 878.35 339.05 878.7 339 879.05 338.95 879.45 338.9 879.8 338.8 880.15 338.75 880.5 338.7 880.85 338.6 881.25 338.55 881.6 338.45 881.95 338.4 882.3 338.3 882.65 338.25 883 338.15 883.4 338.05 883.75 337.95 884.05 337.95 884.4 337.85 884.75 337.75 885.1 337.65 885.45 337.55 885.75 337.45 886.1 337.35 886.45 337.25 886.8 337.15 887.1 337.05 887.45 336.95 887.8 336.85 888.1 336.7 888.45 336.6 888.75 336.5 889.1 336.35 889.4 336.25 889.7 336.1 890.05 335.95 890.35 335.8 890.65 335.65 890.95 335.55 891.25 335.4 891.6 335.25 891.9 335.15 892.2 335 892.5 334.8 892.8 334.65 893.1 334.5 893.4 334.35 893.7 334.15 894 334 894.25 333.8 894.55 333.7 894.85 333.5 895.15 333.3 895.4 333.15 895.7 332.95 895.95 332.75 896.25 332.55 896.5 332.4 896.8 332.25 897.05 332.05 897.3 331.85 897.6 331.65 897.85 331.45 898.15 331.25 898.4 331.05 898.65 330.9 898.95 330.7 899.2 330.5 899.5 330.3 899.8 330.1 900.05 329.9 900.35 329.7 900.6 329.55 900.9 329.3 901.15 329.1 901.45 328.9 901.7 328.7 902 328.5 902.25 328.3 902.55 328.1 902.8 327.9 903.1 327.65 903.35 327.45 903.65 327.25 903.9 327.05 904.2 326.85 904.5 326.65 904.75 326.45 905.05 326.25 905.35 326.05 905.6 325.8 905.9 325.6 906.2 325.45 906.45 325.25 906.75 325.05 907.05 324.85 907.3 324.65 907.6 324.45 907.9 324.2 908.2 324.05 908.45 323.85 908.75 323.65 909 323.4 909.3 323.2 909.55 322.95 909.8 322.8 910.05 322.55 910.3 322.35 910.55 322.1 910.8 321.85 911.05 321.65 911.3 321.4 911.5 321.2 911.75 320.9 911.95 320.65 912.15 320.4 912.35 320.15 912.55 319.95 912.7 319.7 912.9 319.45 913.1 319.2 913.25 318.95 913.45 318.7 913.6 318.45 913.75 318.2 913.95 317.95 914.1 317.65 914.25 317.35 914.4 317.15 914.6 316.85 914.75 316.55 914.9 316.25 915.05 315.95 915.2 315.7 915.35 315.4 915.5 315.1 915.6 314.8 915.75 314.5 915.9 314.25 916 313.95 916.15 313.65 916.25 313.35 916.4 313.1 916.5 312.8 916.6 312.45 916.7 312.15 916.8 311.85 916.9 311.6 917 311.25 917.1 310.9 917.2 310.55 917.25 310.2 917.35 309.85 917.4 309.45 917.5 309.1 917.55 308.8 917.65 308.4 917.7 308.05 917.75 307.65 917.85 307.35 917.9 306.95 917.95 306.6 918 306.25 918.05 305.9 918.1 305.5 918.15 305.15 918.2 304.8 918.25 304.45 918.3 304.1 918.35 303.75 918.35 303.5 918.4 303.15 918.4 302.8 918.45 302.45 918.45 302.1 918.45 301.8 918.5 301.45 918.5 301.1 918.5 300.75 918.45 300.45 918.45 300.1 918.45 299.75 918.4 299.4 918.35 299.1 918.35 298.75 918.3 298.4 918.25 298.1 918.2 297.8 918.15 297.5 918.1 297.15 918.05 296.8 918 296.55 917.95 296.2 917.9 295.9 917.85 295.55 917.8 295.25 917.75 294.95 917.65 294.6 917.6 294.3 917.5 294 917.45 293.7 917.35 293.4 917.25 293.05 917.15 292.75 917.05 292.45 916.95 292.15 916.85 291.85 916.75 291.5 916.65 291.2 916.5 290.95 916.4 290.6 916.3 290.3 916.2 290 916.05 289.7 915.95 289.4 915.85 289.05 915.75 288.75 915.6 288.45 915.5 288.2 915.35 287.85 915.25 287.55 915.1 287.25 915 286.95 914.85 286.65 914.7 286.35 914.6 286.05 914.45 285.75 914.3 285.45 914.15 285.15 914.05 284.85 913.9 284.55 913.75 284.25 913.6 284 913.45 283.7 913.3 283.35 913.15 283.05 913 282.8 912.85 282.55 912.7 282.25 912.55 281.95 912.35 281.65 912.2 281.4 912.05 281.1 911.9 280.8 911.75 280.5 911.6 280.2 911.4 279.95 911.25 279.65 911.1 279.35 910.9 279.1 910.75 278.8 910.6 278.55 910.4 278.25 910.25 277.95 910.05 277.7 909.85 277.4 909.7 277.15 909.5 276.9 909.3 276.6 909.15 276.35 908.95 276.05 908.75 275.85 908.55 275.55 908.35 275.3 908.1 275.05 907.9 274.8 907.7 274.55 907.45 274.3 907.25 274.05 907 273.8 906.8 273.6 906.55 273.35 906.35 273.2 906.15 273 905.9 272.8 905.7 272.6 905.45 272.4 905.2 272.2 905 272.05 904.75 271.85 904.5 271.7 904.25 271.55 904 271.35 903.75 271.2 903.45 271 903.15 270.85 902.85 270.65 902.55 270.55 902.25 270.45 901.95 270.3 901.65 270.15 901.35 270 901.05 269.9 900.7 269.75 900.4 269.6 900.05 269.5 899.7 269.35 899.35 269.25 899.05 269.15 898.7 269.05 898.35 268.95 898 268.85 897.7 268.7 897.35 268.6 897 268.5 896.65 268.35 896.35 268.25 896 268.15 895.65 268 895.35 267.85 895.05 267.75 894.75 267.65 894.4 267.5 894.1 267.3 893.8 267.15 893.55 267 893.25 266.85 892.95 266.65 892.65 266.5 892.35 266.3 892.05 266.2 891.8 266 891.5 265.8 891.3 265.6 891.1 265.4 890.9 265.15 890.7 264.9 890.55 264.65 890.35 264.35 890.2 264.05 890 263.8 889.85 263.55 889.7 263.25 889.55 262.95 889.4 262.7 889.25 262.4 889.1 262.15 888.95 261.85 888.8 261.55 888.65 261.25 888.55 260.95 888.4 260.7 888.25 260.4 888.1 260.1 887.95 259.8 887.75 259.45 887.6 259.15 887.4 258.85 887.25 258.5 887.05 258.15 886.9 257.9 886.7 257.55 886.5 257.2 886.35 256.9 886.2 256.65 886.05 256.35 885.85 256.05 885.7 255.75 885.55 255.4 885.4 255.15 885.25 254.85 885.05 254.55 884.9 254.25 884.7 253.95 884.55 253.7 884.35 253.4 884.15 253.1 883.95 252.8 883.75 252.55 883.55 252.25 883.35 251.95 883.15 251.65 882.95 251.35 882.75 251.1 882.55 250.85 882.35 250.55 882.15 250.25 881.95 249.95 881.7 249.75 881.5 249.45 881.3 249.15 881.1 248.9 880.85 248.6 880.65 248.35 880.45 248.1 880.2 247.8 880 247.5 879.75 247.25 879.55 247 879.3 246.75 879.1 246.45 878.85 246.2 878.65 245.9 878.4 245.65 878.2 245.4 877.95 245.15 877.75 244.85 877.5 244.6 877.3 244.3 877.1 244.1 876.85 243.8 876.65 243.55 876.45 243.3 876.25 243 876.05 242.8 875.85 242.55 875.65 242.25 875.4 242 875.2 241.75 875 241.5 874.8 241.25 874.6 240.95 874.4 240.7 874.15 240.45 873.95 240.15 873.7 239.9 873.5 239.6 873.25 239.3 873 239 872.75 238.75 872.5 238.5 872.25 238.2 872 237.9 871.75 237.6 871.55 237.35 871.3 237.05 871.05 236.75 870.8 236.45 870.55 236.15 870.3 235.9 870.05 235.6 869.85 235.3 869.6 235 869.4 234.75 869.15 234.5 868.95 234.2 868.7 233.9 868.45 233.6 868.25 233.35 868 233.1 867.8 232.8 867.55 232.5 867.35 232.2 867.1 231.95 866.85 231.7 866.65 231.4 866.4 231.1 866.15 230.8 865.95 230.5 865.7 230.3 865.5 230 865.25 229.7 865 229.4 864.8 229.15 864.55 228.85 864.3 228.55 864.05 228.3 863.85 228 863.6 227.75 863.35 227.45 863.15 227.15 862.9 226.9 862.65 226.6 862.45 226.35 862.2 226.05 861.95 225.75 861.7 225.5 861.5 225.2 861.25 224.95 861 224.65 860.75 224.35 860.55 224.1 860.3 223.8 860.05 223.55 859.8 223.25 859.55 223 859.35 222.7 859.1 222.4 858.85 222.15 858.6 221.9 858.35 221.6 858.15 221.3 857.9 221 857.65 220.8 857.4 220.5 857.15 220.2 856.9 219.95 856.7 219.65 856.45 219.4 856.2 219.15 855.95 218.85 855.7 218.55 855.5 218.25 855.25 218 855 217.7 854.8 217.45 854.55 217.15 854.35 216.85 854.1 216.6 853.85 216.3 853.65 216 853.4 215.7 853.2 215.4 852.95 215.15 852.75 214.85 852.5 214.6 852.3 214.3 852.05 214 851.85 213.75 851.6 213.45 851.4 213.15 851.15 212.85 850.95 212.6 850.7 212.3 850.5 212 850.25 211.7 850.05 211.4 849.8 211.15 849.6 210.85 849.4 210.55 849.2 210.3 849 210 848.8 209.75 848.6 209.5 848.4 209.2 848.2 208.9 848 208.65 847.8 208.4 847.6 208.15 847.4 207.85 847.2 207.55 847 207.3 846.8 207.05 846.6 206.8 846.35 206.5 846.15 206.25 845.95 205.95 845.75 205.7 845.55 205.5 845.35 205.2 845.1 204.95 844.9 204.7 844.7 204.45 844.45 204.2 844.25 203.95 844.05 203.7 843.8 203.45 843.6 203.2 843.4 202.95 843.15 202.7 842.95 202.45 842.75 202.2 842.55 201.95 842.4 201.75 842.25 201.6 842.05 201.35 841.85 201.1 841.65 200.8 841.4 200.55 841.2 200.25 840.95 200 840.75 199.7 840.5 199.4 840.3 199.15 840.05 198.85 839.85 198.6 839.6 198.3 839.4 198 839.2 197.7 838.95 197.45 838.75 197.2 838.55 196.9 838.3 196.6 838.1 196.3 837.9 196.05 837.65 195.75 837.45 195.45 837.25 195.15 837 194.9 836.8 194.65 836.6 194.35 836.35 194.05 836.15 193.75 835.9 193.5 835.7 193.25 835.45 192.95 835.25 192.65 835 192.35 834.8 192.1 834.55 191.85 834.35 191.55 834.1 191.3 833.9 191 833.7 190.75 833.5 190.5 833.25 190.25 833.05 190 832.85 189.75 832.65 189.45 832.45 189.2 832.25 189 832.05 188.7 831.85 188.45 831.65 188.2 831.45 187.95 831.2 187.75 831 187.45 830.8 187.2 830.6 186.95 830.35 186.7 830.15 186.45 829.9 186.25 829.7 186 829.45 185.75 829.2 185.5 828.95 185.25 828.7 185 828.4 184.75 828.15 184.5 827.9 184.25 827.65 184 827.4 183.75 827.15 183.55 826.85 183.3 826.6 183 826.35 182.75 826.1 182.5 825.8 182.3 825.55 182.05 825.3 181.8 825 181.55 824.75 181.35 824.5 181.1 824.25 180.9 823.95 180.65 823.7 180.4 823.45 180.2 823.15 179.95 822.9 179.7 822.6 179.55 822.35 179.3 822.05 179.05 821.8 178.85 821.5 178.6 821.25 178.4 820.95 178.15 820.7 178 820.4 177.75 820.1 177.55 819.85 177.3 819.55 177.1 819.25 176.9 819 176.7 818.7 176.5 818.4 176.25 818.15 176.05 817.85 175.85 817.55 175.6 817.3 175.4 817 175.25 816.7 175.05 816.4 174.8 816.1 174.6 815.85 174.4 815.55 174.2 815.25 174 814.95 173.8 814.7 173.6 814.45 173.4 814.15 173.15 813.9 172.95 813.6 172.75 813.35 172.6 813.05 172.35 812.8 172.15 812.55 171.95 812.25 171.75 812 171.55 811.7 171.3 811.45 171.15 811.15 170.95
M 742.1 147.75
Q 742.1560546875 147.8029296875 742.25 147.85 742.2 147.85 742.15 147.8
L 742.1 147.75
M 742.55 147.9
Q 742.5015625 147.8515625 742.45 147.85
L 742.5 147.85
Q 742.5484375 147.8984375 742.6 147.9
L 742.55 147.9
M 615.9 278
Q 615.8984375 277.9484375 615.85 277.9
L 615.9 277.9
Q 615.9 277.9484375 615.9 278 Z"/>
</g>
</defs>

<g transform="matrix( 1, 0, 0, 1, -527.25,-65.35) ">
<g transform="matrix( 1, 0, 0, 1, 0,0) ">
<use xlink:href="#Symbol_1_1_Layer0_0_FILL"/>
</g>
</g>
</svg>
