
<svg xmlns="http://www.w3.org/2000/svg" version="1.1" xmlns:xlink="http://www.w3.org/1999/xlink" preserveAspectRatio="none" x="0px" y="0px" width="400px" height="400px" viewBox="0 0 400 400">
<defs>
<g id="Symbol_1_0_Layer0_0_FILL">
<path fill="#DE4034" stroke="none" d="
M 831.95 172.95
Q 831.75 172.75 831.55 172.6 831.3 172.4 831.1 172.25 830.85 172.05 830.65 171.9 830.4 171.7 830.2 171.55 829.95 171.35 829.75 171.2 829.5 171 829.3 170.85 829.05 170.65 828.85 170.5 828.6 170.3 828.4 170.1 828.15 169.95 827.95 169.75 827.75 169.6 827.5 169.4 827.3 169.25 827.1 169.05 826.9 168.9 826.65 168.7 826.45 168.55 826.25 168.35 826 168.2 825.8 168 825.6 167.85 825.4 167.7 825.15 167.5 824.95 167.35 824.75 167.15 824.55 167 824.3 166.8 824.1 166.65 823.9 166.45 823.65 166.25 823.45 166.1 823.25 165.9 823 165.7 822.8 165.55 822.6 165.35 822.4 165.15 822.2 164.95 822 164.75 821.75 164.55 821.55 164.35 821.35 164.2 821.15 164 820.95 163.8 820.75 163.6 820.55 163.4 820.35 163.2 820.15 163 819.95 162.8 819.7 162.6 819.5 162.35 819.3 162.15 819.1 161.95 818.9 161.75 818.7 161.55 818.5 161.35 818.3 161.15 818.1 160.95 817.9 160.75 817.7 160.55 817.45 160.35 817.25 160.15 817.05 159.95 816.85 159.7 816.65 159.5 816.45 159.3 816.25 159.1 816.05 158.9 815.85 158.7 815.65 158.5 815.45 158.3 815.25 158.1 815 157.9 814.8 157.7 814.6 157.45 814.4 157.25 814.2 157.05 814 156.85 813.8 156.65 813.6 156.45 813.4 156.25 813.2 156.05 813 155.85 812.8 155.65 812.55 155.45 812.35 155.25 812.15 155.1 811.95 154.9 811.75 154.7 811.55 154.5 811.35 154.3 811.1 154.1 810.9 153.9 810.7 153.7 810.5 153.5 810.3 153.35 810.05 153.15 809.85 152.95 809.65 152.75 809.45 152.55 809.25 152.35 809 152.2 808.8 152 808.6 151.8 808.4 151.6 808.2 151.4 807.95 151.2 807.75 151.05 807.55 150.85 807.35 150.65 807.15 150.45 806.9 150.25 806.7 150.05 806.5 149.9 806.3 149.7 806.1 149.5 805.9 149.3 805.65 149.15 805.45 148.95 805.25 148.75 805.05 148.55 804.85 148.4 804.65 148.2 804.4 148 804.2 147.85 804 147.65 803.8 147.45 803.55 147.3 803.35 147.1 803.1 146.95 802.9 146.75 802.7 146.6 802.45 146.4 802.25 146.25 802.05 146.05 801.8 145.9 801.6 145.7 801.35 145.55 801.15 145.4 800.95 145.2 800.7 145.05 800.5 144.9 800.25 144.7 800.05 144.55 799.8 144.4 799.55 144.25 799.35 144.1 799.1 143.95 798.9 143.8 798.65 143.65 798.4 143.5 798.2 143.35 797.95 143.2 797.7 143.1 797.5 142.95 797.25 142.8 797 142.65 796.8 142.55 796.55 142.4 796.3 142.25 796.05 142.15 795.85 142 795.6 141.85 795.35 141.7 795.1 141.6 794.85 141.45 794.6 141.3 794.35 141.15 794.1 141 793.85 140.85 793.6 140.7 793.35 140.55 793.1 140.4 792.85 140.25 792.6 140.1 792.35 139.95 792.1 139.8 791.85 139.65 791.6 139.5 791.4 139.4 791.15 139.25 790.9 139.1 790.65 139 790.45 138.85 790.2 138.75 789.95 138.6 789.7 138.45 789.45 138.35 789.2 138.25 789 138.1 788.75 138 788.5 137.85 788.25 137.75 788 137.65 787.75 137.5 787.5 137.4 787.25 137.3 787 137.2 786.75 137.1 786.5 136.95 786.25 136.85 786 136.75 785.75 136.65 785.5 136.55 785.25 136.5 785 136.4 784.7 136.3 784.45 136.2 784.2 136.1 783.95 136.05 783.7 135.95 783.45 135.85 783.15 135.8 782.9 135.7 782.65 135.65 782.35 135.55 782.1 135.5 781.8 135.45 781.55 135.35 781.25 135.3 781 135.2 780.7 135.15 780.45 135.1 780.15 135 779.9 134.95 779.6 134.9 779.35 134.85 779.05 134.75 778.8 134.7 778.5 134.65 778.25 134.6 777.95 134.5 777.7 134.45 777.4 134.4 777.15 134.35 776.85 134.3 776.55 134.25 776.3 134.15 776 134.1 775.75 134.05 775.45 134 775.2 133.95 774.9 133.9 774.65 133.8 774.35 133.75 774.05 133.7 773.8 133.65 773.5 133.6 773.25 133.55 772.95 133.45 772.65 133.4 772.4 133.35 772.1 133.3 771.8 133.25 771.55 133.2 771.25 133.15 770.95 133.1 770.65 133.05 770.4 133 770.1 132.95 769.8 132.9 769.55 132.85 769.25 132.85 768.95 132.8 768.65 132.75 768.4 132.7 768.1 132.65 767.8 132.65 767.55 132.6 767.25 132.55 766.95 132.55 766.65 132.5 766.4 132.5 766.1 132.45 765.8 132.4 765.5 132.4 765.2 132.35 764.95 132.35 764.65 132.3 764.35 132.3 764.05 132.25 763.8 132.25 763.5 132.2 763.2 132.2 762.95 132.15 762.7 132.1 762.45 132.1 762.15 132.05 761.9 132 761.65 131.95 761.35 131.9 761.1 131.85 760.85 131.85 760.6 131.8 760.3 131.75 760.05 131.7 759.8 131.65 759.55 131.6 759.25 131.5 759 131.45 758.75 131.4 758.5 131.35 758.2 131.3 757.95 131.2 757.7 131.15 757.45 131.1 757.15 131 756.9 130.95 756.65 130.85 756.4 130.8 756.1 130.7 755.85 130.65 755.6 130.6 755.3 130.5 755.05 130.45 754.8 130.35 754.55 130.3 754.25 130.2 754 130.15 753.75 130.1 753.45 130 753.2 129.95 752.95 129.85 752.7 129.8 752.4 129.75 752.15 129.65 751.9 129.6 751.6 129.5 751.35 129.45 751.1 129.4 750.85 129.3 750.55 129.25 750.3 129.15 750.05 129.1 749.75 129.05 749.5 128.95 749.25 128.9 748.95 128.8 748.7 128.75 748.45 128.7 748.2 128.6 747.9 128.55 747.65 128.45 747.4 128.4 747.1 128.35 746.85 128.3 746.6 128.2 746.3 128.15 746.05 128.1 745.8 128.05 745.5 128 745.25 127.95 744.95 127.9 744.7 127.85 744.4 127.8 744.1 127.8 743.8 127.75 743.55 127.7 743.25 127.65 742.95 127.6 742.65 127.55 742.4 127.5 742.1 127.45 741.8 127.4 741.55 127.35 741.25 127.3 741 127.25 740.75 127.2 740.5 127.1 740.25 127.05 740 127 739.75 126.9 739.5 126.85 739.25 126.75 739 126.7 738.75 126.6 738.5 126.5 738.3 126.4 738.05 126.3 737.85 126.2 737.6 126.05 737.4 125.9 737.2 125.8 737 125.65 736.8 125.45 736.6 125.3 736.45 125.15 736.4 125.1 736.4 125.05
L 736.4 125
Q 736.35 124.8 736.35 124.65 736.4 124.4 736.5 124.15 736.55 123.9 736.6 123.65 736.7 123.4 736.75 123.15 736.85 122.95 736.9 122.7 737 122.45 737.1 122.2 737.2 121.95 737.3 121.7 737.4 121.45 737.55 121.2 737.65 120.95 737.75 120.7 737.85 120.45 737.95 120.25 738.05 120 738.2 119.75 738.3 119.5 738.4 119.25 738.5 119 738.6 118.75 738.7 118.5 738.85 118.25 738.95 118 739.05 117.75 739.15 117.5 739.25 117.25 739.35 117 739.45 116.75 739.55 116.5 739.65 116.25 739.75 115.95 739.85 115.7 739.9 115.45 740 115.2 740.1 114.95 740.2 114.7 740.25 114.45 740.35 114.15 740.45 113.9 740.5 113.65 740.6 113.4 740.7 113.1 740.75 112.85 740.8 112.6 740.9 112.3 740.95 112.05 741 111.8 741.05 111.5 741.1 111.25 741.15 110.95 741.2 110.7 741.25 110.45 741.25 110.15 741.3 109.9 741.35 109.65 741.35 109.4 741.4 109.1 741.45 108.85 741.45 108.6 741.5 108.3 741.5 108.05 741.55 107.8 741.55 107.5 741.6 107.25 741.6 107 741.6 106.7 741.65 106.45 741.65 106.15 741.65 105.85 741.7 105.6 741.7 105.3 741.7 105 741.7 104.75 741.75 104.45 741.75 104.2 741.75 103.9 741.75 103.6 741.75 103.35 741.75 103.05 741.8 102.75 741.8 102.5 741.8 102.2 741.8 101.9 741.8 101.65 741.8 101.35 741.8 101.05 741.8 100.8 741.85 100.5 741.85 100.2 741.85 99.95 741.85 99.65 741.85 99.4 741.85 99.1 741.85 98.8 741.85 98.5 741.9 98.2 741.9 97.95 741.9 97.65 741.95 97.35 741.95 97.05 741.95 96.75 742 96.45 742 96.15 742.05 95.85 742.1 95.6 742.1 95.3 742.15 95.05 742.15 94.75
L 742.15 94.7
Q 742.15 94.45 742.15 94.2 742.15 93.8 742.15 93.45 742.15 93.05 742.15 92.7 742.3 92.3 742.4 91.95 742.4 91.55 742.4 91.2 742.55 90.8 742.65 90.45 742.75 90.15 742.85 89.85 742.9 89.7 742.9 89.6 742.95 89.35 743 89.1 743.05 88.8 743.1 88.55 743.15 88.4 743.15 88.3 743.15 88.25 743.15 88.2 743.15 87.8 743.15 87.45 743.15 87.05 743.15 86.7 743.15 86.3 743.15 85.95 743.15 85.55 743.15 85.2 743.15 84.8 743.15 84.45 743.05 84.05 742.9 83.7 742.8 83.3 742.65 82.95 742.55 82.55 742.4 82.2 742.3 81.8 742.15 81.45 742.15 81.05 742.15 80.7 742.05 80.3 741.9 79.95 741.8 79.55 741.65 79.2 741.55 78.8 741.4 78.45 741.15 78.05 740.9 77.7 740.65 77.3 740.4 76.95 740.3 76.55 740.15 76.2 739.8 75.8 739.4 75.45 739.05 75.05 738.65 74.7 738.3 74.3 737.9 73.95 737.55 73.55 737.15 73.2 736.8 72.8 736.4 72.45 736.05 72.05 735.65 71.7 735.3 71.3 734.9 70.95 734.55 70.55 734.15 70.2 733.8 69.8 733.4 69.45 732.9 69.05 732.4 68.7 732.05 68.3 731.65 67.95 731.15 67.55 730.65 67.2 730.15 66.95 729.65 66.7 729.4 66.55 729.15 66.45 728.65 66.3 728.15 66.2 727.8 66.05 727.4 65.95 724.05 65.95 720.65 65.95 720.3 66.05 719.9 66.2 719.4 66.3 718.9 66.45 717.8 66.55 716.65 66.7 715.15 66.8 713.65 66.95 713.3 67.05 712.9 67.2 712.4 67.3 711.9 67.45 710.8 67.7 709.65 67.95 708.8 68.2 707.9 68.45 706.4 68.7 704.9 68.95 704.05 69.2 703.15 69.45 702.05 69.7 700.9 69.95 700.05 70.3 699.15 70.7 698.55 71.05 697.9 71.45 697.05 71.8 696.15 72.2 695.4 72.55 694.65 72.95 693.9 73.3 693.15 73.7 692.55 74.05 691.9 74.45 691.4 74.8 690.9 75.2 690.55 75.55 690.15 75.95 689.8 76.3 689.4 76.7 689.15 77.05 688.9 77.45 688.65 77.8 688.4 78.2 688.15 78.55 687.9 78.95 687.8 79.3 687.65 79.7 687.4 80.05 687.15 80.45 687.05 80.8 686.9 81.2 686.55 81.55 686.15 81.95 685.9 82.3 685.65 82.7 685.4 83.05 685.15 83.45 685.05 83.8 684.9 84.2 684.9 84.55 684.9 84.95 684.9 85.3 684.9 85.7 684.9 86.05 684.9 86.45 684.9 86.8 684.9 87.2 684.9 87.55 684.9 87.95 684.9 88.3 684.9 88.7 684.9 89.05 684.9 89.45 684.9 89.8 684.9 90.2 684.9 90.55 684.9 90.95 684.9 91.3 684.9 91.7 684.9 92.05 684.9 92.45 684.9 92.8 684.9 93.2 684.9 93.55 684.9 93.95 684.9 94.3 684.9 94.7 684.9 95.05 684.9 95.45 684.9 95.8 684.9 96.2 684.9 96.55 684.9 96.95 685.05 97.3 685.15 97.7 685.3 98.05 685.4 98.45 685.55 98.8 685.65 99.2 685.9 99.55 686.15 99.95 686.55 100.3 686.9 100.7 687.3 101.05 687.65 101.45 688.05 101.8 688.4 102.2 688.8 102.55 689.15 102.95 689.65 103.3 690.15 103.7 690.4 104.05 690.65 104.45 691.05 104.8 691.4 105.2 691.65 105.55 691.9 105.95 692.15 106.3 692.4 106.7 692.55 107.05 692.65 107.45 692.9 107.8 693.15 108.2 693.3 108.55 693.4 108.95 693.65 109.3 693.9 109.7 694.05 110.05 694.15 110.45 694.3 110.8 694.4 111.2 694.55 111.55 694.65 111.95 694.8 112.3 694.9 112.7 694.9 113.05 694.9 113.45 694.9 113.8 694.9 114.2 694.9 114.55 694.9 114.95 694.9 115.3 694.9 115.7 694.9 116.05 694.9 116.45 694.9 116.8 694.9 117.2 694.9 117.55 694.9 117.95 694.9 118.3 694.9 118.7 694.8 119.05 694.65 119.45 694.65 119.8 694.65 120.2 694.55 120.55 694.4 120.95 694.15 121.3 693.9 121.7 693.8 122.05 693.65 122.45 693.65 122.8 693.65 123.2 693.55 123.55 693.4 123.95 693.15 124.3 692.9 124.7 692.8 125.05 692.65 125.45 692.4 125.8 692.15 126.2 692.05 126.55 691.9 126.95 691.55 127.3 691.15 127.7 690.9 128.05 690.65 128.45 690.3 128.8 689.9 129.2 689.65 129.55 689.4 129.95 688.9 130.3 688.4 130.7 688.05 131.05 687.65 131.45 687.15 131.8 686.65 132.2 686.3 132.55 685.9 132.95 685.4 133.3 684.9 133.7 684.3 134.05 683.65 134.45 682.8 134.8 681.9 135.2 681.3 135.55 680.65 135.95 680.05 136.3 679.45 136.7 678.7 137.05 677.95 137.45 677.45 137.7 676.95 137.95 676.55 138.05 676.2 138.2 675.7 138.3 675.2 138.45 674.05 138.55 672.95 138.7 672.35 138.6 671.75 138.55 671.55 138.65 671.3 138.8 671 139 670.7 139.2 670.35 139.35 670.05 139.55 669.75 139.75 669.4 139.95 669.1 140.15 668.75 140.35 668.45 140.55 668.15 140.75 667.8 140.95 667.5 141.15 667.15 141.35 666.85 141.55 666.5 141.75 666.2 141.95 665.85 142.1 665.55 142.3 665.25 142.5 664.9 142.7 664.6 142.9 664.25 143.1 663.95 143.25 663.6 143.45 663.3 143.65 662.95 143.85 662.6 144.05 662.3 144.2 661.95 144.4 661.65 144.6 661.3 144.75 661 144.95 660.65 145.15 660.35 145.3 660 145.5 659.65 145.7 659.35 145.85 659 146.05 658.65 146.2 658.35 146.4 658 146.55 657.65 146.75 657.3 146.9 656.95 147.1 656.65 147.25 656.3 147.45 655.95 147.6 655.65 147.8 655.3 148 654.95 148.15 654.65 148.35 654.3 148.55 653.95 148.75 653.65 148.9 653.3 149.1 652.95 149.3 652.6 149.5 652.3 149.7 651.95 149.9 651.6 150.1 651.3 150.3 650.95 150.5 650.6 150.7 650.3 150.9 649.95 151.1 649.65 151.3 649.3 151.5 648.95 151.75 648.65 151.95 648.35 152.1 648.05 152.35 647.75 152.55 647.45 152.75 647.15 152.95 646.85 153.15 646.6 153.4 646.3 153.6 646 153.8 645.7 154.05 645.4 154.25 645.15 154.5 644.85 154.7 644.55 154.95 644.25 155.15 644 155.4 643.7 155.6 643.4 155.85 643.15 156.05 642.85 156.3 642.6 156.5 642.3 156.75 642.05 157 641.75 157.2 641.5 157.45 641.25 157.65 641 157.9 640.75 158.1 640.55 158.35 640.3 158.55 640.05 158.75 639.8 159 639.55 159.2 639.3 159.45 639 159.7 638.75 159.95 638.45 160.2 638.15 160.45 637.9 160.7 637.6 160.9 637.3 161.15 637.05 161.4 636.75 161.65 636.45 161.9 636.2 162.15 635.9 162.4 635.65 162.65 635.35 162.9 635.1 163.15 634.8 163.4 634.55 163.65 634.3 163.9 634.05 164.15 633.8 164.4 633.5 164.65 633.25 164.9 633 165.15 632.75 165.4 632.5 165.65 632.25 165.9 632 166.15 631.7 166.4 631.45 166.65 631.2 166.9 630.95 167.15 630.7 167.4 630.4 167.65 630.15 167.9 629.85 168.15 629.6 168.4 629.3 168.65 629 168.9 628.75 169.1 628.45 169.35 628.15 169.6 627.85 169.85 627.6 170.05 627.3 170.3 627 170.55 626.75 170.8 626.45 171 626.15 171.25 625.85 171.5 625.6 171.75 625.3 172 625 172.25 624.7 172.5 624.4 172.75 624.15 173 623.85 173.25 623.55 173.5 623.25 173.75 622.95 173.95 622.7 174.2 622.4 174.45 622.1 174.7 621.8 174.95 621.55 175.15 621.25 175.4 620.95 175.6 620.7 175.8 620.4 176.05 620.15 176.25 619.85 176.45 619.55 176.7 619.3 176.9 619 177.15 618.75 177.35 618.45 177.6 618.2 177.8 617.9 178.05 617.65 178.25 617.4 178.5 617.1 178.75 616.85 178.95 616.6 179.2 616.3 179.45 616.05 179.7 615.8 179.9 615.55 180.15 615.35 180.4 615.1 180.65 614.9 180.9 614.7 181.2 614.5 181.45 614.3 181.7 614.1 182 613.9 182.3 613.7 182.55 613.55 182.85 613.35 183.15 613.15 183.4 612.95 183.7 612.8 184 612.6 184.25 612.4 184.6 612.15 184.9 611.95 185.2 611.7 185.55 611.5 185.85 611.25 186.2 611.05 186.5 610.8 186.8 610.55 187.1 610.3 187.4 610.05 187.75 609.8 188.05 609.55 188.35 609.3 188.65 609.05 188.95 608.8 189.25 608.55 189.55 608.3 189.85 608.05 190.15 607.8 190.45 607.6 190.75 607.35 191.05 607.15 191.35 606.9 191.6 606.65 191.9 606.45 192.2 606.2 192.45 605.95 192.75 605.75 193.05 605.5 193.35 605.25 193.6 605.05 193.9 604.8 194.2 604.55 194.5 604.3 194.8 604.05 195.1 603.8 195.4 603.55 195.7 603.3 195.95 603.05 196.25 602.8 196.55 602.55 196.85 602.3 197.15 602.1 197.45 601.85 197.75 601.6 198.05 601.35 198.35 601.1 198.65 600.85 198.95 600.65 199.2 600.4 199.45 600.15 199.75 599.95 200 599.7 200.3 599.5 200.55 599.25 200.85 599.05 201.15 598.8 201.4 598.6 201.7 598.35 201.95 598.15 202.25 597.9 202.55 597.7 202.8 597.5 203.1 597.25 203.4 597.05 203.65 596.85 204 596.6 204.3 596.4 204.6 596.2 204.9 595.95 205.2 595.75 205.5 595.55 205.85 595.35 206.15 595.15 206.45 594.95 206.8 594.75 207.1 594.5 207.4 594.3 207.7 594.1 208.05 593.9 208.35 593.7 208.7 593.5 209 593.3 209.3 593.1 209.65 592.95 209.95 592.75 210.3 592.55 210.6 592.4 210.9 592.2 211.25 592 211.6 591.85 211.9 591.65 212.25 591.5 212.55 591.3 212.9 591.15 213.25 591 213.55 590.8 213.9 590.65 214.25 590.45 214.6 590.3 214.95 590.1 215.3 589.95 215.7 589.8 216.05 589.6 216.4 589.45 216.75 589.3 217.1 589.15 217.5 588.95 217.85 588.8 218.2 588.65 218.55 588.5 218.95 588.35 219.25 588.2 219.55 588.05 219.9 587.9 220.2 587.75 220.5 587.6 220.85 587.45 221.15 587.3 221.45 587.15 221.75 587 222.05 586.85 222.35 586.7 222.7 586.5 223 586.35 223.3 586.2 223.6 586 223.9 585.85 224.2 585.65 224.5 585.5 224.8 585.3 225.15 585.1 225.45 584.9 225.75 584.7 226.1 584.5 226.4 584.3 226.7 584.15 227.05 583.95 227.35 583.75 227.7 583.55 228.05 583.35 228.35 583.15 228.7 582.95 229 582.75 229.35 582.55 229.65 582.35 229.95 582.15 230.3 581.9 230.6 581.7 230.9 581.5 231.2 581.3 231.5 581.1 231.8 580.85 232.1 580.65 232.4 580.45 232.7 580.25 233 580 233.3 579.8 233.6 579.6 233.9 579.35 234.15 579.15 234.45 578.95 234.7 578.75 234.95 578.55 235.25 578.35 235.5 578.1 235.75 577.9 236.05 577.7 236.3 577.45 236.55 577.25 236.8 577 237.05 576.75 237.3 576.55 237.55 576.25 237.8 576 238.1 575.7 238.35 575.45 238.6 575.15 238.9 574.85 239.15 574.6 239.45 574.3 239.7 574.05 239.95 573.75 240.25 573.5 240.5 573.2 240.75 572.9 241.05 572.65 241.3 572.35 241.6 572.1 241.85 571.8 242.15 571.5 242.4 571.25 242.7 570.95 243 570.7 243.3 570.45 243.55 570.15 243.85 569.9 244.15 569.6 244.45 569.35 244.7 569.1 245 568.8 245.3 568.55 245.6 568.3 245.9 568 246.2 567.75 246.5 567.5 246.8 567.25 247.1 566.95 247.4 566.7 247.65 566.45 247.95 566.2 248.25 565.9 248.55 565.65 248.85 565.4 249.15 565.15 249.45 564.95 249.7 564.7 250 564.45 250.3 564.2 250.55 564 250.85 563.75 251.15 563.5 251.45 563.3 251.7 563.05 252 562.8 252.3 562.6 252.6 562.35 252.9 562.15 253.2 561.9 253.45 561.65 253.8 561.4 254.1 561.2 254.4 560.95 254.75 560.7 255.05 560.45 255.35 560.25 255.7 560 256 559.75 256.35 559.5 256.65 559.3 256.95 559.1 257.2 558.95 257.45 558.8 257.65 558.65 257.75 558.55 257.8 558.35 257.9 558.2 258 558 258.1 557.85 258.25 557.6 258.4 557.4 258.55 557.15 258.7 556.95 258.85 556.7 259.05 556.5 259.2 556.25 259.35 556.05 259.55 555.8 259.7 555.6 259.85 555.4 260 555.15 260.2 554.95 260.35 554.75 260.5 554.5 260.65 554.3 260.8 554.1 260.95 553.85 261.1 553.65 261.25 553.45 261.4 553.2 261.55 553 261.7 552.8 261.85 552.55 262 552.35 262.15 552.1 262.3 551.9 262.45 551.7 262.6 551.45 262.7 551.25 262.85 551 263 550.8 263.15 550.6 263.3 550.35 263.4 550.15 263.55 549.9 263.7 549.7 263.8 549.5 263.95 549.3 264.1 549.05 264.25 548.85 264.4 548.65 264.55 548.45 264.7 548.2 264.9 548 265.05 547.75 265.2 547.55 265.4 547.35 265.55 547.1 265.7 546.9 265.9 546.7 266.05 546.45 266.25 546.25 266.4 546.05 266.6 545.85 266.75 545.65 266.9 545.45 267.05 545.25 267.25 545.05 267.4 544.85 267.55 544.65 267.75 544.45 267.9 544.25 268.05 544.1 268.25 543.9 268.4 543.7 268.55 543.5 268.75 543.3 268.9 543.15 269.1 542.95 269.3 542.75 269.45 542.6 269.65 542.4 269.85 542.25 270 542.05 270.2 541.9 270.4 541.7 270.65 541.55 270.85 541.35 271.05 541.2 271.3 541 271.5 540.85 271.75 540.65 271.95 540.5 272.2 540.35 272.4 540.15 272.65 540 272.85 539.85 273.1 539.65 273.35 539.5 273.55 539.35 273.8 539.2 274.05 539.05 274.25 538.85 274.5 538.75 274.7 538.6 274.9 538.45 275.15 538.3 275.35 538.15 275.55 538.05 275.75 537.9 275.95 537.75 276.2 537.65 276.4 537.5 276.6 537.35 276.85 537.25 277.05 537.1 277.25 537 277.5 536.9 277.7 536.75 277.95 536.65 278.15 536.55 278.4 536.45 278.65 536.3 278.9 536.2 279.15 536.1 279.4 536 279.65 535.9 279.9 535.8 280.15 535.65 280.4 535.55 280.65 535.45 280.9 535.4 281.15 535.3 281.45 535.2 281.7 535.1 281.95 535 282.2 534.9 282.5 534.85 282.75 534.75 283 534.65 283.25 534.6 283.55 534.5 283.8 534.45 284.05 534.4 284.35 534.3 284.6 534.25 284.85 534.2 285.15 534.1 285.4 534.05 285.7 534 285.95 533.95 286.2 533.9 286.5 533.85 286.75 533.8 287.05 533.75 287.3 533.75 287.6 533.7 287.85 533.65 288.1 533.6 288.4 533.6 288.65 533.55 288.9 533.5 289.2 533.5 289.45 533.45 289.7 533.4 290 533.4 290.25 533.35 290.5 533.35 290.8 533.3 291.05 533.3 291.35 533.25 291.6 533.25 291.85 533.25 292.15 533.2 292.4 533.2 292.65 533.2 292.95 533.2 293.2 533.2 293.45 533.2 293.7 533.25 293.95 533.25 294.15 533.25 294.4 533.3 294.65 533.3 294.9 533.35 295.15 533.4 295.35 533.45 295.6 533.5 295.85 533.55 296.05 533.6 296.3 533.7 296.55 533.75 296.75 533.85 297 533.9 297.2 534 297.45 534.1 297.65 534.2 297.9 534.3 298.1 534.4 298.3 534.5 298.5 534.65 298.75 534.75 298.95 534.9 299.15 535.05 299.35 535.2 299.55 535.35 299.75 535.5 299.95 535.65 300.2 535.85 300.4 536 300.6 536.15 300.8 536.35 301.05 536.5 301.25 536.7 301.45 536.85 301.65 537 301.85 537.2 302.05 537.35 302.25 537.55 302.45 537.7 302.65 537.9 302.85 538.1 303.05 538.3 303.2 538.45 303.4 538.65 303.6 538.85 303.75 539.05 303.95 539.25 304.1 539.45 304.3 539.65 304.5 539.85 304.65 540.05 304.8 540.25 305 540.45 305.15 540.65 305.35 540.85 305.5 541.05 305.7 541.25 305.85 541.45 306 541.65 306.2 541.9 306.35 542.1 306.5 542.3 306.65 542.5 306.85 542.7 307 542.95 307.15 543.15 307.3 543.35 307.5 543.6 307.65 543.8 307.8 544 307.95 544.2 308.1 544.45 308.25 544.65 308.45 544.85 308.6 545.1 308.75 545.3 308.9 545.55 309.05 545.75 309.25 546 309.4 546.2 309.55 546.45 309.7 546.7 309.85 546.9 310 547.15 310.15 547.4 310.3 547.6 310.45 547.85 310.6 548.1 310.75 548.3 310.9 548.55 311.05 548.8 311.15 549.05 311.3 549.25 311.45 549.5 311.6 549.75 311.7 550 311.85 550.25 312 550.5 312.1 550.7 312.25 550.95 312.35 551.2 312.5 551.45 312.6 551.7 312.75 551.95 312.85 552.2 313 552.45 313.1 552.7 313.2 552.95 313.3 553.2 313.45 553.45 313.55 553.7 313.65 553.95 313.75 554.2 313.9 554.45 314 554.7 314.1 554.95 314.2 555.25 314.3 555.5 314.4 555.75 314.5 556 314.6 556.25 314.7 556.5 314.8 556.75 314.9 557 315 557.3 315.05 557.55 315.15 557.8 315.25 558.05 315.3 558.3 315.4 558.55 315.45 558.8 315.55 559.05 315.6 559.3 315.65 559.55 315.7 559.8 315.8 560.05 315.85 560.3 315.9 560.55 315.95 560.8 316 561.1 316.05 561.35 316.1 561.6 316.1 561.85 316.15 562.1 316.2 562.4 316.25 562.65 316.25 562.95 316.3 563.25 316.35 563.5 316.35 563.8 316.4 564.1 316.45 564.35 316.45 564.65 316.5 564.95 316.5 565.25 316.55 565.5 316.55 565.8 316.6 566.1 316.6 566.35 316.6 566.65 316.65 566.95 316.65 567.2 316.7 567.5 316.7 567.8 316.7 568.05 316.7 568.35 316.75 568.65 316.75 568.95 316.75 569.2 316.75 569.5 316.8 569.8 316.8 570.05 316.8 570.35 316.8 570.65 316.8 570.9 316.8 571.2 316.85 571.5 316.85 571.8 316.85 572.05 316.85 572.35 316.85 572.65 316.85 572.95 316.85 573.25 316.85 573.55 316.85 573.85 316.85 574.15 316.9 574.4 316.9 574.7 316.9 575 316.9 575.3 316.9 575.6 316.9 575.9 316.9 576.2 316.9 576.5 316.9 576.8 316.9 577.1 316.9 577.4 316.9 577.7 316.9 577.95 316.9 578.25 316.9 578.55 316.9 578.85 316.9 579.15 316.9 579.45 316.9 579.75 316.9 580.05 316.95 580.35 316.95 580.65 316.95 580.95 316.95 581.25 316.95 581.55 316.95 581.8 316.95 582.05 316.95 582.3 316.95 582.6 316.95 582.85 316.95 583.1 316.95 583.35 316.95 583.6 316.95 583.85 316.95 584.1 316.95 584.35 316.95 584.6 316.95 584.85 316.95 585.15 316.95 585.4 316.95 585.7 316.95 586 316.95 586.3 316.95 586.55 316.95 586.85 316.95 587.15 316.9 587.4 316.9 587.7 316.9 588 316.9 588.3 316.9 588.55 316.9 588.85 316.85 589.15 316.85 589.45 316.85 589.7 316.8 590 316.8 590.3 316.8 590.6 316.75 590.85 316.75 591.15 316.7 591.4 316.7 591.7 316.65 591.95 316.6 592.2 316.6 592.45 316.55 592.75 316.5 593 316.45 593.25 316.4 593.5 316.35 593.8 316.35 594.05 316.3 594.3 316.2 594.55 316.15 594.8 316.1 595.1 316.05 595.35 316 595.6 315.95 595.85 315.85 596.1 315.8 596.35 315.75 596.65 315.65 596.9 315.55 597.2 315.5 597.45 315.4 597.7 315.35 598 315.25 598.25 315.2 598.55 315.1 598.8 315 599.05 314.9 599.35 314.85 599.6 314.75 599.85 314.65 600.15 314.55 600.4 314.45 600.65 314.35 600.9 314.25 601.15 314.15 601.4 314.05 601.65 313.95 601.9 313.85 602.15 313.75 602.4 313.65 602.65 313.55 602.9 313.45 603.15 313.3 603.4 313.2 603.65 313.1 603.9 313 604.15 312.85 604.4 312.75 604.65 312.6 604.85 312.5 605.1 312.35 605.35 312.2 605.55 312.1 605.8 311.95 606 311.8 606.2 311.7 606.4 311.55 606.6 311.4 606.85 311.25 607.05 311.15 607.25 311 607.45 310.85 607.65 310.7 607.85 310.55 608.05 310.4 608.25 310.25 608.45 310.1 608.65 309.95 608.85 309.8 609.05 309.65 609.25 309.5 609.45 309.3 609.6 309.15 609.8 309 610 308.8 610.2 308.6 610.35 308.45 610.55 308.25 610.75 308.1 610.9 307.9 611.1 307.7 611.3 307.5 611.45 307.35 611.65 307.15 611.8 306.95 612 306.75 612.15 306.55 612.3 306.35 612.5 306.15 612.65 306 612.8 305.8 613 305.55 613.15 305.35 613.3 305.15 613.45 304.95 613.6 304.75 613.75 304.55 613.9 304.35 614.05 304.15 614.2 303.9 614.35 303.7 614.5 303.5 614.65 303.3 614.8 303.05 614.95 302.85 615.05 302.6 615.2 302.4 615.35 302.2 615.45 301.95 615.6 301.75 615.75 301.5 615.85 301.3 616 301.05 616.1 300.85 616.25 300.6 616.35 300.35 616.5 300.15 616.6 299.9 616.75 299.65 616.85 299.45 616.95 299.2 617.1 298.95 617.2 298.75 617.3 298.5 617.45 298.25 617.55 298.05 617.65 297.8 617.75 297.55 617.85 297.3 617.95 297.05 618.05 296.8 618.15 296.55 618.25 296.3 618.35 296.05 618.45 295.85 618.55 295.6 618.65 295.35 618.75 295.1 618.85 294.85 618.95 294.6 619 294.35 619.1 294.05 619.2 293.8 619.3 293.55 619.4 293.3 619.45 293.05 619.55 292.8 619.65 292.55 619.75 292.3 619.85 292.05 619.9 291.8 620 291.5 620.1 291.25 620.2 290.95 620.3 290.7 620.35 290.45 620.45 290.15 620.55 289.9 620.6 289.6 620.7 289.35 620.75 289.05 620.8 288.8 620.9 288.5 620.95 288.25 621 287.95 621.05 287.7 621.1 287.4 621.15 287.15 621.15 286.85 621.2 286.6 621.25 286.3 621.25 286 621.25 285.75 621.25 285.45 621.3 285.2 621.25 284.9 621.25 284.65 621.2 284.4 621.2 284.2 621.15 283.95 621.15 283.75 621.1 283.5 621.05 283.3 621.05 283 621 282.75 620.95 282.45 620.9 282.2 620.85 281.9 620.75 281.65 620.7 281.35 620.65 281.1 620.55 280.85 620.45 280.55 620.4 280.3 620.3 280.05 620.2 279.8 620.15 279.55 620.05 279.3 619.95 279.05 619.85 278.8 619.75 278.5 619.65 278.25 619.6 278 619.5 277.75 619.4 277.5 619.25 277.25 619.15 277 619.05 276.75 618.95 276.55 618.85 276.3 618.75 276.05 618.65 275.8 618.5 275.55 618.4 275.3 618.3 275.05 618.15 274.8 618.05 274.55 617.9 274.35 617.8 274.1 617.65 273.85 617.55 273.6 617.4 273.4 617.3 273.15 617.15 272.9 617.05 272.7 616.9 272.45 616.75 272.2 616.6 272 616.5 271.75 616.35 271.5 616.2 271.3 616.05 271.05 615.9 270.85 615.75 270.6 615.6 270.4 615.45 270.15 615.3 269.95 615.15 269.7 615 269.5 614.85 269.3 614.7 269.05 614.55 268.85 614.4 268.65 614.25 268.4 614.05 268.2 613.9 268 613.75 267.75 613.6 267.55 613.4 267.35 613.25 267.15 613.1 266.95 612.9 266.7 612.75 266.5 612.55 266.3 612.4 266.1 612.2 265.9 612.05 265.7 611.85 265.5 611.7 265.3 611.5 265.1 611.35 264.9 611.2 264.75 611.1 264.6 611.2 264.4 611.3 264.25 611.5 263.95 611.65 263.7 611.85 263.4 612.05 263.15 612.3 262.8 612.55 262.5 612.8 262.2 613 261.85 613.25 261.55 613.5 261.25 613.75 260.9 614 260.6 614.2 260.3 614.45 259.95 614.7 259.65 614.9 259.35 615.15 259 615.4 258.7 615.65 258.4 615.85 258.05 616.1 257.75 616.35 257.45 616.55 257.1 616.8 256.8 617.05 256.45 617.25 256.15 617.5 255.85 617.75 255.5 617.95 255.2 618.2 254.85 618.45 254.55 618.65 254.25 618.9 253.9 619.15 253.6 619.35 253.25 619.6 252.95 619.8 252.6 620.05 252.3 620.3 252 620.5 251.65 620.75 251.35 620.95 251 621.2 250.7 621.4 250.35 621.65 250.05 621.9 249.7 622.1 249.4 622.35 249.05 622.55 248.75 622.8 248.4 623 248.1 623.25 247.75 623.45 247.45 623.7 247.1 623.9 246.8 624.1 246.55 624.3 246.25 624.5 245.95 624.7 245.65 624.9 245.4 625.1 245.1 625.3 244.8 625.5 244.5 625.75 244.25 625.95 243.95 626.15 243.65 626.35 243.35 626.55 243.1 626.75 242.8 626.9 242.55 627.1 242.25 627.3 241.95 627.45 241.7 627.65 241.4 627.8 241.1 628 240.8 628.15 240.5 628.35 240.25 628.5 239.95 628.7 239.65 628.85 239.35 629.05 239.1 629.25 238.75 629.4 238.45 629.6 238.15 629.8 237.85 630 237.5 630.15 237.2 630.35 236.9 630.55 236.55 630.7 236.25 630.9 235.95 631.1 235.6 631.25 235.3 631.45 235 631.65 234.65 631.8 234.4 632 234.1 632.15 233.85 632.35 233.55 632.5 233.3 632.7 233 632.9 232.75 633.05 232.5 633.25 232.2 633.45 231.95 633.65 231.65 633.85 231.4 634.05 231.1 634.3 230.8 634.55 230.5 634.8 230.2 635 229.9 635.25 229.6 635.5 229.3 635.75 229 636 228.7 636.25 228.4 636.5 228.15 636.7 227.85 636.95 227.55 637.2 227.25 637.45 226.95 637.7 226.65 637.95 226.4 638.2 226.1 638.45 225.8 638.7 225.5 638.95 225.2 639.2 224.95 639.5 224.65 639.75 224.35 640 224.1 640.25 223.8 640.5 223.5 640.75 223.25 641 222.95 641.25 222.7 641.5 222.4 641.75 222.15 642.05 221.9 642.3 221.6 642.55 221.35 642.8 221.1 643.1 220.85 643.35 220.6 643.65 220.3 643.9 220.05 644.2 219.8 644.5 219.55 644.8 219.3 645.1 219 645.4 218.75 645.7 218.5 646 218.25 646.3 218 646.6 217.75 646.9 217.5 647.2 217.25 647.5 216.95 647.8 216.75 648.1 216.5 648.45 216.25 648.75 216.05 649.05 215.8 649.35 215.55 649.7 215.35 650 215.1 650.3 214.85 650.65 214.6 650.95 214.4 651.25 214.15 651.55 213.9 651.85 213.65 652.2 213.4 652.5 213.15 652.8 212.9 653.1 212.7 653.4 212.45 653.7 212.2 654 211.95 654.25 211.7 654.55 211.45 654.85 211.2 655.1 210.95 655.4 210.7 655.65 210.45 655.95 210.2 656.2 209.9 656.5 209.65 656.75 209.4 657 209.15 657.3 208.85 657.55 208.6 657.8 208.35 658.05 208.05 658.35 207.8 658.6 207.5 658.85 207.25 659.1 207 659.35 206.7 659.6 206.4 659.85 206.15 660.1 205.85 660.35 205.6 660.6 205.3 660.85 205 661.1 204.75 661.35 204.45 661.6 204.15 661.85 203.85 662.1 203.6 662 203.9 661.95 204.25 661.9 204.6 661.85 204.95 661.75 205.35 661.7 205.7 661.65 206.1 661.6 206.45 661.55 206.85 661.5 207.25 661.45 207.6 661.45 208 661.4 208.4 661.35 208.75 661.35 209.15 661.3 209.55 661.25 209.9 661.25 210.3 661.2 210.7 661.2 211.1 661.2 211.45 661.15 211.85 661.15 212.25 661.15 212.6 661.1 213 661.1 213.4 661.1 213.8 661.1 214.15 661.05 214.55 661.05 214.95 661.05 215.3 661.05 215.7 661.05 216.1 661.05 216.45 661.05 216.85 661 217.25 661 217.6 661 218 661 218.4 661 218.75 660.95 219.15 660.95 219.55 660.9 219.9 660.9 220.3 660.85 220.65 660.85 221.05 660.8 221.45 660.8 221.8 660.75 222.2 660.7 222.55 660.7 222.95 660.65 223.35 660.6 223.7 660.6 224.1 660.55 224.45 660.5 224.85 660.5 225.25 660.45 225.6 660.4 226 660.4 226.35 660.35 226.75 660.35 227.15 660.3 227.5 660.25 227.9 660.25 228.25 660.25 228.65 660.2 229.05 660.2 229.4 660.2 229.8 660.15 230.15 660.15 230.5 660.15 230.9 660.15 231.25 660.1 231.6 660.1 232 660.1 232.35 660.1 232.75 660.1 233.1 660.05 233.45 660.05 233.85 660.05 234.2 660.05 234.6 660.05 234.95 660 235.3 660 235.7 660 236.1 659.95 236.5 659.95 236.85 659.9 237.25 659.9 237.65 659.85 238.05 659.85 238.4 659.8 238.8 659.75 239.2 659.7 239.6 659.65 239.95 659.65 240.35 659.6 240.75 659.55 241.1 659.5 241.5 659.45 241.85 659.35 242.25 659.3 242.65 659.25 243 659.2 243.4 659.15 243.75 659.1 244.15 659.05 244.55 659 244.9 658.95 245.3 658.85 245.65 658.8 246.05 658.75 246.4 658.7 246.8 658.65 247.2 658.55 247.55 658.5 247.95 658.45 248.3 658.35 248.7 658.3 249.05 658.25 249.45 658.15 249.85 658.1 250.25 658.05 250.65 657.95 251.05 657.9 251.45 657.85 251.85 657.75 252.25 657.7 252.65 657.6 253.05 657.55 253.35 657.45 253.7 657.4 254.05 657.3 254.35 657.25 254.7 657.15 255.05 657.1 255.35 657 255.7 656.95 256.05 656.85 256.35 656.8 256.7 656.7 257.05 656.6 257.4 656.5 257.8 656.45 258.15 656.35 258.55 656.25 258.9 656.15 259.3 656.05 259.65 655.95 260 655.9 260.4 655.8 260.75 655.7 261.15 655.6 261.5 655.5 261.85 655.4 262.15 655.3 262.5 655.25 262.85 655.15 263.15 655.05 263.5 654.95 263.85 654.85 264.15 654.75 264.5 654.65 264.85 654.6 265.15 654.5 265.5 654.4 265.85 654.3 266.25 654.25 266.65 654.15 267 654.1 267.4 654 267.8 653.95 268.15 653.9 268.55 653.8 268.95 653.75 269.3 653.7 269.7 653.65 270.1 653.6 270.45 653.55 270.85 653.5 271.25 653.5 271.6 653.45 272 653.4 272.4 653.35 272.8 653.3 273.15 653.3 273.55 653.25 273.95 653.2 274.2 653.15 274.5 653.1 274.75 653.05 275.05 653 275.3 652.95 275.55 652.85 275.85 652.75 276.1 652.65 276.4 652.6 276.65 652.5 276.95 652.4 277.25 652.25 277.55 652.1 277.9 651.95 278.25 651.8 278.6 651.65 278.95 651.5 279.3 651.35 279.65 651.2 279.95 651.05 280.3 650.85 280.65 650.7 281 650.55 281.35 650.4 281.65 650.2 282 650.05 282.35 649.9 282.65 649.7 283 649.55 283.35 649.35 283.65 649.2 283.95 649.05 284.3 648.85 284.6 648.7 284.95 648.5 285.25 648.35 285.55 648.2 285.9 648 286.2 647.85 286.55 647.65 286.85 647.5 287.15 647.3 287.5 647.15 287.8 646.95 288.1 646.8 288.45 646.6 288.75 646.4 289.05 646.25 289.35 646.05 289.7 645.85 290 645.65 290.3 645.5 290.65 645.3 290.95 645.1 291.25 644.9 291.6 644.7 291.9 644.5 292.2 644.35 292.55 644.15 292.85 643.95 293.15 643.75 293.45 643.55 293.8 643.35 294.1 643.15 294.4 643 294.75 642.8 295.05 642.6 295.35 642.4 295.7 642.2 296 642 296.35 641.8 296.65 641.6 297 641.4 297.3 641.2 297.65 641 297.95 640.8 298.3 640.6 298.6 640.4 298.95 640.2 299.25 640 299.6 639.8 299.9 639.6 300.25 639.4 300.55 639.2 300.9 639 301.2 638.8 301.55 638.6 301.9 638.4 302.2 638.25 302.55 638.05 302.9 637.85 303.2 637.7 303.55 637.5 303.85 637.35 304.2 637.15 304.5 636.95 304.85 636.8 305.2 636.6 305.5 636.45 305.85 636.25 306.15 636.05 306.5 635.9 306.8 635.7 307.15 635.5 307.45 635.35 307.8 635.15 308.15 634.95 308.5 634.75 308.85 634.55 309.2 634.35 309.55 634.1 309.9 633.9 310.25 633.7 310.55 633.5 310.9 633.3 311.25 633.1 311.6 632.9 311.95 632.7 312.3 632.5 312.65 632.3 313 632.1 313.35 631.9 313.7 631.75 314.05 631.55 314.4 631.35 314.75 631.15 315.1 630.95 315.4 630.75 315.75 630.55 316.1 630.35 316.45 630.1 316.8 629.9 317.1 629.7 317.45 629.5 317.8 629.3 318.15 629.05 318.45 628.85 318.8 628.65 319.15 628.4 319.45 628.2 319.8 628 320.15 627.75 320.45 627.55 320.8 627.35 321.15 627.1 321.45 626.9 321.8 626.7 322.15 626.45 322.45 626.25 322.8 626.05 323.15 625.8 323.45 625.6 323.8 625.4 324.15 625.2 324.5 625 324.8 624.8 325.15 624.55 325.5 624.35 325.8 624.15 326.15 623.95 326.5 623.75 326.8 623.55 327.15 623.35 327.5 623.15 327.85 622.95 328.2 622.75 328.5 622.55 328.85 622.4 329.2 622.2 329.55 622 329.9 621.8 330.25 621.6 330.6 621.4 330.95 621.25 331.3 621.05 331.65 620.85 332 620.65 332.35 620.5 332.7 620.3 333.05 620.1 333.4 619.9 333.75 619.7 334.1 619.55 334.45 619.35 334.8 619.15 335.15 618.95 335.45 618.8 335.8 618.6 336.1 618.4 336.45 618.25 336.75 618.05 337.1 617.9 337.4 617.7 337.75 617.5 338.05 617.35 338.4 617.15 338.7 616.95 339.05 616.75 339.35 616.6 339.7 616.4 340 616.2 340.35 616 340.65 615.85 341 615.65 341.3 615.45 341.65 615.25 341.95 615.1 342.25 614.9 342.6 614.7 342.9 614.5 343.25 614.3 343.55 614.1 343.85 613.9 344.2 613.7 344.5 613.5 344.8 613.3 345.15 613.1 345.45 612.9 345.75 612.7 346.1 612.45 346.4 612.2 346.75 611.95 347.05 611.7 347.4 611.5 347.7 611.25 348 611 348.3 610.75 348.6 610.5 348.85 610.25 349.15 610 349.45 609.75 349.75 609.5 350 609.25 350.25 609 350.5 608.75 350.75 608.5 351.05 608.3 351.3 608.05 351.55 607.8 351.8 607.5 352.1 607.25 352.35 607 352.65 606.7 352.95 606.45 353.2 606.2 353.5 605.9 353.8 605.65 354.05 605.35 354.35 605.1 354.65 604.85 354.9 604.55 355.2 604.3 355.5 604.05 355.8 603.8 356.05 603.5 356.35 603.25 356.65 603 356.95 602.75 357.2 602.45 357.5 602.2 357.8 601.95 358.05 601.7 358.35 601.4 358.65 601.15 358.9 600.9 359.2 600.65 359.5 600.4 359.8 600.1 360.05 599.85 360.35 599.6 360.65 599.35 360.9 599.1 361.2 598.8 361.5 598.55 361.8 598.3 362.05 598.05 362.35 597.8 362.65 597.55 362.95 597.3 363.25 597 363.5 596.75 363.8 596.5 364.1 596.25 364.4 596 364.7 595.75 365 595.5 365.3 595.25 365.6 595.05 365.9 594.8 366.2 594.55 366.45 594.3 366.75 594.1 367.05 593.85 367.35 593.65 367.6 593.4 367.9 593.2 368.2 593 368.5 592.75 368.8 592.55 369.1 592.35 369.4 592.15 369.7 591.95 370 591.75 370.3 591.55 370.65 591.35 370.95 591.15 371.25 590.95 371.55 590.8 371.9 590.6 372.2 590.4 372.55 590.25 372.9 590.05 373.2 589.9 373.55 589.75 373.9 589.55 374.25 589.4 374.6 589.25 374.95 589.1 375.3 588.95 375.6 588.8 375.95 588.65 376.3 588.55 376.7 588.4 377.05 588.25 377.4 588.15 377.75 588 378.1 587.9 378.45 587.75 378.8 587.65 379.2 587.5 379.55 587.4 379.9 587.3 380.3 587.15 380.65 587.05 381 586.95 381.35 586.8 381.75 586.7 382.1 586.55 382.45 586.45 382.85 586.35 383.2 586.2 383.55 586.1 383.9 586 384.3 585.85 384.65 585.75 385 585.6 385.4 585.5 385.75 585.4 386.1 585.25 386.45 585.1 386.85 585 387.2 584.85 387.55 584.75 387.9 584.6 388.25 584.45 388.6 584.35 388.9 584.25 389.15 584.1 389.45 584 389.7 583.85 389.95 583.7 390.2 583.55 390.45 583.45 390.7 583.2 391 582.95 391.25 582.7 391.5 582.45 391.75 582.2 392 581.95 392.2 581.65 392.45 581.4 392.7 581.15 392.85 580.95 393.05 580.7 393.25 580.45 393.4 580.15 393.6 579.85 393.85 579.5 394.05 579.2 394.3 578.9 394.5 578.6 394.7 578.25 394.9 577.95 395.15 577.65 395.35 577.3 395.55 577 395.75 576.7 396 576.35 396.2 576.05 396.4 575.75 396.6 575.4 396.8 575.1 397 574.75 397.2 574.45 397.45 574.15 397.65 573.8 397.85 573.5 398.05 573.15 398.25 572.85 398.45 572.5 398.65 572.2 398.8 571.85 399 571.55 399.2 571.2 399.4 570.9 399.6 570.55 399.8 570.25 400 569.9 400.15 569.6 400.35 569.25 400.55 568.95 400.75 568.6 400.95 568.3 401.15 567.95 401.3 567.65 401.5 567.3 401.7 567 401.9 566.65 402.1 566.35 402.3 566.05 402.5 565.7 402.65 565.4 402.85 565.05 403.05 564.75 403.25 564.4 403.45 564.1 403.65 563.75 403.85 563.45 404 563.15 404.2 562.8 404.4 562.5 404.6 562.15 404.8 561.85 405 561.5 405.15 561.2 405.35 560.85 405.55 560.55 405.75 560.2 405.9 559.9 406.1 559.55 406.3 559.25 406.45 558.95 406.65 558.6 406.8 558.3 407 558 407.2 557.7 407.4 557.35 407.55 557.05 407.75 556.75 407.95 556.45 408.2 556.15 408.4 555.9 408.6 555.6 408.85 555.3 409.05 555.05 409.3 554.75 409.55 554.5 409.8 554.25 410.05 554 410.25 553.75 410.55 553.5 410.8 553.3 411.05 553.05 411.3 552.85 411.6 552.6 411.85 552.4 412.15 552.2 412.4 552 412.7 551.8 413 551.6 413.25 551.4 413.55 551.2 413.85 551.05 414.15 550.85 414.45 550.65 414.75 550.5 415.05 550.3 415.35 550.15 415.65 550 415.95 549.85 416.3 549.65 416.6 549.5 416.9 549.35 417.25 549.15 417.6 549 417.95 548.85 418.25 548.65 418.6 548.5 418.95 548.35 419.3 548.2 419.65 548.05 419.95 547.9 420.3 547.75 420.65 547.6 421 547.45 421.35 547.35 421.7 547.2 422.05 547.05 422.4 546.9 422.75 546.8 423.1 546.65 423.45 546.55 423.8 546.4 424.2 546.3 424.55 546.2 424.9 546.1 425.25 545.95 425.6 545.85 425.95 545.75 426.35 545.65 426.7 545.55 427.05 545.5 427.4 545.4 427.8 545.3 428.15 545.2 428.5 545.15 428.9 545.05 429.25 545 429.65 544.9 430 544.85 430.4 544.8 430.75 544.75 431.15 544.7 431.5 544.65 431.9 544.55 432.25 544.55 432.65 544.5 433 544.45 433.4 544.4 433.75 544.35 434.15 544.35 434.55 544.3 434.9 544.3 435.3 544.25 435.65 544.25 436 544.25 436.35 544.25 436.7 544.3 437.05 544.35 437.4 544.35 437.75 544.4 438.1 544.5 438.4 544.55 438.75 544.6 439.1 544.7 439.45 544.8 439.8 544.9 440.1 545 440.45 545.1 440.8 545.25 441.1 545.35 441.45 545.5 441.75 545.6 442.1 545.75 442.4 545.9 442.75 546.1 443.05 546.25 443.35 546.4 443.65 546.55 444 546.75 444.3 546.9 444.6 547.1 444.9 547.3 445.2 547.5 445.5 547.7 445.75 547.9 446.05 548.05 446.35 548.3 446.6 548.5 446.9 548.7 447.2 548.95 447.5 549.15 447.75 549.4 448.05 549.65 448.3 549.85 448.6 550.1 448.85 550.35 449.1 550.6 449.4 550.85 449.65 551.1 449.9 551.35 450.15 551.6 450.4 551.85 450.65 552.15 450.9 552.4 451.15 552.7 451.4 553 451.6 553.25 451.85 553.55 452.1 553.85 452.35 554.15 452.55 554.45 452.8 554.75 453 555.1 453.2 555.4 453.45 555.7 453.65 556 453.85 556.35 454.05 556.65 454.3 556.95 454.5 557.3 454.7 557.6 454.9 557.9 455.1 558.25 455.3 558.55 455.5 558.85 455.7 559.15 455.9 559.5 456.1 559.8 456.3 560.1 456.5 560.45 456.7 560.75 456.85 561.1 457.05 561.4 457.25 561.75 457.45 562.05 457.6 562.4 457.8 562.7 457.95 563 458.15 563.35 458.3 563.65 458.45 563.95 458.65 564.3 458.8 564.6 458.95 564.9 459.1 565.25 459.25 565.55 459.4 565.9 459.55 566.2 459.7 566.55 459.85 566.85 460 567.2 460.15 567.5 460.3 567.85 460.45 568.15 460.6 568.5 460.7 568.8 460.85 569.15 460.95 569.5 461.05 569.8 461.15 570.15 461.25 570.5 461.35 570.85 461.45 571.2 461.55 571.5 461.65 571.85 461.7 572.2 461.8 572.55 461.85 572.9 461.9 573.25 461.95 573.6 462 573.95 462.1 574.35 462.15 574.7 462.2 575.1 462.25 575.45 462.3 575.85 462.35 576.2 462.35 576.6 462.4 576.95 462.45 577.35 462.5 577.7 462.55 578.1 462.55 578.45 462.6 578.85 462.6 579.2 462.65 579.6 462.65 579.95 462.7 580.35 462.7 580.75 462.7 581.1 462.7 581.5 462.75 581.9 462.75 582.3 462.75 582.65 462.75 583.05 462.8 583.45 462.8 583.85 462.8 584.2 462.8 584.6 462.8 585 462.8 585.4 462.8 585.8 462.85 586.15 462.85 586.55 462.85 586.95 462.85 587.35 462.85 587.7 462.85 588.1 462.85 588.5 462.85 588.9 462.85 589.25 462.85 589.65 462.85 590.05 462.85 590.45 462.85 590.8 462.85 591.2 462.9 591.6 462.9 592 462.9 592.35 462.9 592.75 462.9 593.1 462.9 593.45 462.9 593.8 462.9 594.2 462.9 594.55 462.9 594.9 462.9 595.25 462.9 595.6 462.9 596 462.9 596.35 462.9 596.75 462.9 597.15 462.9 597.5 462.85 597.9 462.85 598.25 462.8 598.65 462.8 599.05 462.75 599.4 462.7 599.8 462.7 600.2 462.65 600.55 462.6 600.95 462.6 601.35 462.55 601.7 462.5 602.1 462.5 602.5 462.45 602.85 462.4 603.25 462.35 603.65 462.3 604 462.25 604.4 462.2 604.8 462.2 605.15 462.15 605.55 462.1 605.9 462 606.3 461.95 606.65 461.9 607.05 461.85 607.45 461.8 607.8 461.75 608.2 461.7 608.55 461.65 608.95 461.6 609.3 461.55 609.7 461.45 610.05 461.4 610.45 461.35 610.8 461.25 611.2 461.2 611.55 461.1 611.9 461.05 612.25 461 612.65 460.9 613 460.85 613.35 460.75 613.7 460.65 614.05 460.6 614.4 460.5 614.75 460.4 615.1 460.35 615.45 460.25 615.8 460.15 616.15 460.1 616.5 460 616.85 459.9 617.2 459.8 617.6 459.7 617.95 459.65 618.35 459.55 618.7 459.45 619.1 459.35 619.45 459.25 619.85 459.2 620.2 459.1 620.6 459 621 458.95 621.35 458.85 621.75 458.8 622.1 458.7 622.5 458.65 622.9 458.55 623.25 458.5 623.6 458.45 624 458.35 624.35 458.3 624.7 458.25 625.05 458.15 625.4 458.05 625.75 457.95 626.1 457.9 626.45 457.8 626.8 457.7 627.15 457.55 627.5 457.45 627.85 457.35 628.2 457.2 628.55 457.1 628.85 456.95 629.2 456.8 629.55 456.7 629.9 456.55 630.25 456.4 630.6 456.25 630.95 456.1 631.3 455.95 631.65 455.8 632 455.65 632.3 455.45 632.65 455.3 633 455.1 633.3 454.95 633.6 454.75 633.9 454.6 634.2 454.4 634.45 454.2 634.75 454 635.05 453.8 635.35 453.65 635.6 453.45 635.9 453.25 636.2 453.05 636.5 452.85 636.75 452.6 637.05 452.4 637.35 452.2 637.65 452 637.95 451.8 638.25 451.6 638.55 451.35 638.8 451.15 639.1 450.95 639.4 450.7 639.65 450.5 639.95 450.25 640.25 450.05 640.5 449.8 640.8 449.6 641.05 449.35 641.3 449.1 641.6 448.85 641.8 448.65 642.05 448.4 642.25 448.2 642.45 448 642.7 447.75 642.9 447.55 643.1 447.3 643.35 447.1 643.55 446.85 643.75 446.6 643.95 446.35 644.15 446.1 644.35 445.8 644.55 445.55 644.75 445.3 644.95 445 645.15 444.75 645.35 444.45 645.55 444.2 645.75 443.9 645.9 443.65 646.1 443.35 646.25 443.05 646.45 442.8 646.6 442.5 646.75 442.2 646.95 441.85 647.1 441.5 647.3 441.2 647.45 440.85 647.65 440.5 647.8 440.15 647.95 439.8 648.15 439.5 648.3 439.15 648.45 438.8 648.6 438.45 648.75 438.1 648.9 437.75 649.05 437.4 649.2 437.05 649.35 436.7 649.45 436.35 649.6 436 649.75 435.65 649.85 435.3 649.95 434.95 650.1 434.6 650.2 434.25 650.3 433.9 650.35 433.5 650.45 433.15 650.55 432.8 650.6 432.45 650.7 432.05 650.75 431.7 650.85 431.35 650.9 431 650.95 430.6 651 430.25 651.05 429.85 651.1 429.5 651.15 429.1 651.2 428.7 651.25 428.35 651.3 427.95 651.35 427.55 651.4 427.15 651.45 426.8 651.45 426.4 651.5 426.05 651.55 425.7 651.55 425.35 651.6 425 651.65 424.65 651.65 424.3 651.65 423.95 651.7 423.6 651.7 423.25 651.7 422.85 651.65 422.5 651.65 422.15 651.65 421.8 651.65 421.45 651.6 421.05 651.55 420.7 651.5 420.4 651.5 420.1 651.4 419.8 651.35 419.5 651.3 419.2 651.25 418.9 651.2 418.6 651.15 418.3 651.05 417.95 650.95 417.6 650.85 417.25 650.75 416.9 650.65 416.55 650.5 416.2 650.4 415.85 650.25 415.5 650.15 415.1 650 414.75 649.9 414.4 649.75 414.05 649.65 413.7 649.55 413.35 649.4 413 649.3 412.6 649.2 412.25 649.1 411.9 649 411.55 648.95 411.15 648.85 410.8 648.75 410.45 648.7 410.05 648.7 409.7 648.65 409.35 648.65 408.95 648.65 408.6 648.65 408.25 648.65 407.9 648.65 407.5 648.75 407.15 648.8 406.75 648.9 406.4 649 406.05 649.1 405.7 649.25 405.3 649.35 405.05 649.5 404.75 649.6 404.45 649.75 404.15 649.9 403.9 650.05 403.6 650.2 403.3 650.35 403.05 650.5 402.8 650.65 402.55 650.8 402.3 651 402.05 651.15 401.8 651.3 401.55 651.5 401.3 651.65 401.05 651.85 400.8 652.1 400.55 652.3 400.3 652.5 400.05 652.75 399.8 652.95 399.6 653.2 399.35 653.45 399.15 653.65 398.9 653.9 398.65 654.15 398.45 654.4 398.2 654.6 398 654.85 397.75 655.1 397.55 655.35 397.3 655.55 397.05 655.8 396.85 656.05 396.6 656.3 396.4 656.5 396.15 656.75 395.95 656.95 395.75 657.2 395.55 657.4 395.3 657.65 395.1 657.85 394.85 658.05 394.65 658.25 394.4 658.45 394.15 658.65 393.9 658.9 393.65 659.1 393.35 659.3 393.1 659.5 392.85 659.75 392.6 659.95 392.35 660.15 392.1 660.4 391.85 660.6 391.6 660.8 391.35 661 391.1 661.25 390.85 661.45 390.6 661.65 390.35 661.85 390.1 662.1 389.85 662.3 389.6 662.5 389.35 662.75 389.1 663 388.85 663.2 388.65 663.45 388.4 663.7 388.15 663.95 387.9 664.2 387.7 664.4 387.45 664.65 387.2 664.95 386.95 665.2 386.7 665.45 386.5 665.7 386.25 666 386 666.25 385.75 666.55 385.55 666.8 385.3 667.1 385.05 667.35 384.85 667.65 384.6 667.9 384.4 668.2 384.15 668.45 383.95 668.75 383.7 669 383.5 669.3 383.25 669.6 383 669.9 382.75 670.2 382.5 670.5 382.25 670.75 382 671.05 381.75 671.35 381.5 671.65 381.25 671.95 381 672.2 380.75 672.5 380.5 672.8 380.25 673.1 380 673.4 379.75 673.65 379.5 673.95 379.25 674.25 379 674.5 378.75 674.8 378.5 675.05 378.25 675.35 378 675.6 377.75 675.9 377.5 676.15 377.25 676.45 377 676.7 376.75 677 376.5 677.25 376.25 677.55 376 677.85 375.75 678.1 375.5 678.4 375.25 678.7 375 679 374.7 679.3 374.45 679.6 374.2 679.9 373.95 680.2 373.7 680.5 373.4 680.8 373.15 681.1 372.9 681.4 372.65 681.7 372.4 682 372.15 682.3 371.85 682.55 371.6 682.85 371.35 683.15 371.1 683.45 370.85 683.75 370.6 684.05 370.35 684.35 370.1 684.65 369.85 684.95 369.6 685.25 369.35 685.5 369.1 685.8 368.85 686.1 368.6 686.4 368.35 686.7 368.1 687 367.85 687.25 367.6 687.55 367.35 687.85 367.05 688.1 366.8 688.4 366.55 688.7 366.3 688.95 366 689.25 365.75 689.5 365.45 689.8 365.2 690.05 364.9 690.35 364.65 690.6 364.35 690.85 364.1 691.15 363.8 691.4 363.5 691.65 363.25 691.9 362.95 692.15 362.65 692.45 362.4 692.7 362.1 692.95 361.85 693.2 361.55 693.45 361.3 693.75 361 694 360.75 694.25 360.5 694.55 360.2 694.8 359.95 695.05 359.65 695.35 359.4 695.6 359.15 695.85 358.85 696.15 358.6 696.4 358.35 696.7 358.1 696.95 357.85 697.25 357.55 697.55 357.3 697.8 357.05 698.1 356.8 698.4 356.55 698.65 356.3 698.95 356.05 699.25 355.8 699.5 355.55 699.8 355.3 700.1 355.05 700.35 354.8 700.65 354.55 700.95 354.3 701.2 354.05 701.5 353.8 701.8 353.6 702.05 353.35 702.35 353.1 702.65 352.85 702.9 352.6 703.2 352.35 703.45 352.1 703.75 351.8 704 351.55 704.3 351.3 704.55 351.05 704.85 350.75 705.1 350.5 705.35 350.25 705.6 349.95 705.9 349.65 706.15 349.4 706.4 349.1 706.7 348.85 706.95 348.55 707.2 348.25 707.5 348 707.75 347.7 708 347.45 708.3 347.15 708.55 346.85 708.8 346.6 709.05 346.3 709.35 346 709.6 345.75 709.85 345.45 710.1 345.15 710.4 344.9 710.65 344.6 710.9 344.3 711.15 344.05 711.4 343.75 711.7 343.45 711.95 343.2 712.2 342.9 712.45 342.6 712.7 342.35 713 342.05 713.25 341.75 713.5 341.45 713.75 341.2 714 340.9 714.3 340.6 714.55 340.35 714.8 340.05 715.05 339.75 715.3 339.45 715.55 339.2 715.85 338.9 716.1 338.6 716.35 338.3 716.6 338 716.85 337.75 717.1 337.45 717.35 337.15 717.6 336.85 717.85 336.6 718.05 336.3 718.25 336.05 718.5 335.75 718.7 335.5 718.9 335.2 719.1 334.9 719.3 334.65 719.5 334.35 719.7 334.05 719.85 333.75 720.05 333.5 720.25 333.2 720.4 332.9 720.6 332.6 720.8 332.3 720.95 332 721.15 331.7 721.35 331.4 721.55 331.05 721.7 330.75 721.9 330.4 722.1 330.1 722.3 329.75 722.5 329.45 722.7 329.15 722.9 328.8 723.1 328.5 723.3 328.2 723.5 327.85 723.7 327.55 723.9 327.25 724.1 326.9 724.3 326.6 724.5 326.3 724.7 325.95 724.9 325.65 725.15 325.35 725.35 325 725.55 324.7 725.75 324.4 725.95 324.1 726.2 323.8 726.4 323.45 726.6 323.15 726.8 322.85 727.05 322.55 727.25 322.25 727.45 321.95 727.7 321.65 727.95 321.3 728.2 321 728.45 320.7 728.65 320.35 728.9 320.05 729.15 319.75 729.4 319.45 729.65 319.1 729.85 318.85 730.05 318.6 730.25 318.35 730.45 318.1 730.65 317.85 730.85 317.6 731.1 317.35 731.3 317.1 731.5 317.4 731.65 317.75 731.85 318.1 732.05 318.45 732.25 318.8 732.4 319.15 732.6 319.5 732.75 319.85 732.95 320.2 733.1 320.55 733.3 320.9 733.45 321.25 733.6 321.6 733.8 321.95 733.95 322.3 734.1 322.6 734.3 322.95 734.45 323.3 734.6 323.65 734.75 324 734.95 324.35 735.1 324.65 735.25 325 735.4 325.35 735.6 325.7 735.75 326.05 735.95 326.35 736.1 326.7 736.3 327.05 736.45 327.35 736.65 327.7 736.8 328.05 737 328.4 737.2 328.7 737.4 329.05 737.55 329.4 737.75 329.75 737.95 330.05 738.1 330.4 738.3 330.75 738.5 331.1 738.65 331.45 738.85 331.75 739.05 332.1 739.25 332.45 739.4 332.8 739.6 333.1 739.8 333.45 740 333.8 740.2 334.1 740.4 334.45 740.6 334.8 740.8 335.1 740.95 335.45 741.15 335.8 741.35 336.1 741.6 336.45 741.8 336.75 742 337.1 742.2 337.4 742.4 337.75 742.6 338.05 742.85 338.4 743.05 338.7 743.25 339 743.45 339.35 743.65 339.65 743.9 339.95 744.1 340.3 744.3 340.6 744.5 340.9 744.7 341.25 744.95 341.55 745.15 341.85 745.35 342.2 745.55 342.5 745.75 342.8 745.95 343.15 746.2 343.45 746.4 343.8 746.6 344.1 746.8 344.4 747 344.75 747.2 345.05 747.4 345.4 747.6 345.7 747.8 346 748 346.35 748.2 346.65 748.4 347 748.6 347.3 748.8 347.65 749 347.95 749.2 348.3 749.4 348.6 749.6 348.95 749.75 349.25 749.95 349.55 750.15 349.9 750.35 350.2 750.5 350.55 750.7 350.85 750.85 351.15 751.05 351.5 751.2 351.8 751.4 352.15 751.55 352.45 751.75 352.8 751.9 353.1 752.1 353.45 752.25 353.8 752.45 354.1 752.6 354.45 752.75 354.75 752.95 355.1 753.1 355.45 753.25 355.75 753.4 356.1 753.6 356.4 753.75 356.75 753.9 357.1 754.05 357.4 754.2 357.75 754.35 358.1 754.55 358.4 754.7 358.75 754.8 359.1 754.95 359.4 755.1 359.7 755.25 360.05 755.4 360.4 755.55 360.75 755.7 361.1 755.8 361.45 755.95 361.8 756.1 362.15 756.25 362.5 756.4 362.9 756.55 363.25 756.65 363.6 756.8 363.95 756.95 364.3 757.05 364.65 757.2 365.05 757.3 365.4 757.45 365.75 757.55 366.1 757.65 366.45 757.75 366.8 757.85 367.15 757.95 367.5 758.05 367.85 758.15 368.2 758.25 368.55 758.35 368.9 758.45 369.25 758.55 369.6 758.65 369.95 758.75 370.35 758.85 370.7 758.95 371.05 759 371.4 759.1 371.75 759.2 372.1 759.3 372.45 759.4 372.85 759.5 373.2 759.6 373.55 759.7 373.95 759.8 374.3 759.85 374.7 759.95 375.05 760.05 375.4 760.15 375.8 760.25 376.15 760.35 376.55 760.45 376.9 760.55 377.25 760.65 377.65 760.75 378 760.85 378.4 760.9 378.75 761 379.1 761.1 379.5 761.2 379.85 761.3 380.25 761.4 380.6 761.5 380.95 761.6 381.35 761.7 381.7 761.8 382.05 761.9 382.45 762 382.8 762.1 383.2 762.2 383.55 762.3 383.9 762.4 384.3 762.5 384.65 762.6 385 762.75 385.4 762.85 385.75 762.95 386.15 763.05 386.5 763.15 386.85 763.25 387.25 763.4 387.6 763.5 388 763.6 388.35 763.7 388.7 763.85 389.1 763.95 389.45 764.05 389.8 764.2 390.2 764.3 390.55 764.4 390.9 764.55 391.3 764.65 391.65 764.8 392 764.9 392.4 765.05 392.75 765.15 393.1 765.3 393.5 765.4 393.85 765.55 394.2 765.65 394.55 765.8 394.95 765.95 395.3 766.1 395.65 766.2 396 766.35 396.4 766.5 396.75 766.65 397.1 766.8 397.45 766.95 397.8 767.05 398.15 767.2 398.5 767.35 398.85 767.5 399.25 767.65 399.6 767.8 399.95 767.95 400.3 768.1 400.65 768.25 401 768.4 401.35 768.55 401.7 768.7 402.05 768.85 402.4 768.95 402.7 769.1 403 769.2 403.35 769.3 403.65 769.4 404 769.5 404.3 769.6 404.65 769.7 404.95 769.8 405.3 769.85 405.6 769.95 405.95 770 406.25 770.1 406.6 770.15 406.95 770.2 407.25 770.25 407.65 770.3 408 770.35 408.35 770.4 408.7 770.45 409.05 770.45 409.45 770.5 409.8 770.55 410.15 770.55 410.5 770.6 410.85 770.6 411.2 770.65 411.6 770.65 411.95 770.65 412.3 770.7 412.65 770.7 413.05 770.7 413.4 770.75 413.75 770.75 414.15 770.75 414.5 770.8 414.9 770.8 415.3 770.85 415.65 770.85 416.05 770.9 416.45 770.95 416.8 771 417.2 771.05 417.55 771.1 417.95 771.15 418.35 771.2 418.65 771.3 419 771.35 419.3 771.45 419.65 771.55 419.95 771.65 420.3 771.75 420.6 771.8 420.9 771.95 421.25 772.05 421.55 772.15 421.85 772.25 422.2 772.4 422.5 772.5 422.8 772.6 423.15 772.75 423.45 772.9 423.75 773 424.05 773.15 424.4 773.3 424.7 773.45 425 773.65 425.3 773.8 425.6 773.95 425.9 774.1 426.2 774.3 426.5 774.45 426.8 774.65 427.1 774.8 427.35 775 427.65 775.2 427.95 775.4 428.25 775.55 428.55 775.75 428.8 775.95 429.1 776.15 429.4 776.3 429.65 776.5 429.9 776.7 430.2 776.85 430.45 777.05 430.75 777.25 431 777.45 431.3 777.6 431.55 777.8 431.85 778 432.1 778.2 432.35 778.4 432.6 778.6 432.9 778.8 433.15 779 433.4 779.25 433.7 779.45 433.95 779.65 434.2 779.85 434.5 780.1 434.75 780.3 435 780.55 435.25 780.75 435.5 780.95 435.8 781.2 436.05 781.45 436.3 781.7 436.6 781.9 436.85 782.15 437.1 782.4 437.35 782.65 437.65 782.9 437.9 783.15 438.15 783.35 438.4 783.6 438.65 783.85 438.9 784.1 439.2 784.35 439.45 784.6 439.7 784.85 439.95 785.05 440.25 785.3 440.5 785.55 440.75 785.8 441 786.05 441.25 786.3 441.5 786.5 441.75 786.75 442 787 442.25 787.25 442.5 787.5 442.75 787.75 443 788.05 443.2 788.3 443.45 788.55 443.7 788.8 443.9 789.1 444.15 789.35 444.35 789.65 444.6 789.9 444.8 790.2 445 790.45 445.25 790.75 445.45 791.05 445.65 791.3 445.85 791.6 446.05 791.9 446.25 792.2 446.45 792.5 446.65 792.8 446.85 793.1 447 793.4 447.2 793.7 447.35 794 447.55 794.3 447.7 794.6 447.85 794.95 448.05 795.25 448.2 795.6 448.35 795.9 448.5 796.25 448.65 796.55 448.8 796.85 448.95 797.2 449.1 797.2 449.3 797.2 449.5 797.25 449.75 797.25 450 797.3 450.25 797.35 450.55 797.35 450.8 797.4 451.05 797.45 451.35 797.5 451.6 797.55 451.85 797.6 452.15 797.65 452.4 797.7 452.65 797.75 452.95 797.8 453.2 797.9 453.45 797.95 453.75 798.05 454 798.15 454.25 798.25 454.5 798.35 454.75 798.45 455 798.55 455.25 798.65 455.45 798.75 455.7 798.85 455.95 798.95 456.2 799.05 456.4 799.15 456.65 799.25 456.9 799.4 457.1 799.5 457.35 799.65 457.6 799.75 457.8 799.9 458.05 800 458.25 800.15 458.5 800.3 458.7 800.45 458.95 800.6 459.15 800.75 459.35 800.85 459.6 801 459.8 801.15 460 801.3 460.2 801.45 460.4 801.6 460.6 801.7 460.8 801.85 460.95 802 461.15 802.15 461.35 802.35 461.55 802.5 461.7 802.65 461.9 802.8 462.05 803 462.2 803.15 462.4 803.35 462.55 803.55 462.7 803.75 462.85 803.95 463 804.2 463.15 804.4 463.3 804.6 463.45 804.85 463.55 805.05 463.7 805.3 463.8 805.55 463.95 805.8 464.05 806 464.15 806.25 464.25 806.45 464.3 806.7 464.4 806.95 464.5 807.15 464.6 807.4 464.65 807.65 464.75 807.9 464.85 808.15 464.95 808.4 465 808.65 465.1 808.9 465.2 809.15 465.3 809.45 465.35 809.7 465.45 809.95 465.5 810.2 465.6 810.45 465.65 810.75 465.75 811 465.85 811.25 465.9 811.5 466 811.75 466.05 812 466.15 812.25 466.2 812.5 466.3 812.75 466.4 813 466.45 813.25 466.55 813.5 466.6 813.75 466.7 814 466.75 814.25 466.85 814.5 466.9 814.75 466.95 815 467 815.25 467.1 815.5 467.15 815.75 467.2 816 467.25 816.3 467.3 816.6 467.35 816.85 467.4 817.15 467.45 817.45 467.5 817.75 467.55 818 467.6 818.3 467.6 818.6 467.65 818.9 467.65 819.15 467.7 819.45 467.7 819.75 467.75 820 467.75 820.3 467.8 820.6 467.8 820.85 467.8 821.15 467.8 821.45 467.8 821.7 467.85 822 467.85 822.3 467.85 822.55 467.85 822.85 467.85 823.15 467.85 823.4 467.85 823.7 467.85 823.95 467.85 824.25 467.85 824.55 467.9 824.8 467.9 825.1 467.9 825.4 467.9 825.65 467.9 825.95 467.9 826.2 467.9 826.5 467.9 826.8 467.9 827.05 467.9 827.35 467.9 827.65 467.9 827.9 467.9 828.2 467.9 828.5 467.9 828.75 467.9 829.05 467.9 829.3 467.9 829.6 467.9 829.9 467.9 830.2 467.9 830.5 467.9 830.8 467.9 831.1 467.9 831.4 467.9 831.7 467.9 832 467.9 832.3 467.9 832.6 467.9 832.9 467.9 833.15 467.9 833.45 467.9 833.75 467.9 834.05 467.9 834.35 467.85 834.65 467.85 834.9 467.85 835.2 467.85 835.5 467.8 835.75 467.8 836.05 467.75 836.35 467.75 836.6 467.7 836.9 467.7 837.2 467.65 837.5 467.65 837.75 467.6 838.05 467.6 838.35 467.55 838.6 467.55 838.9 467.5 839.2 467.5 839.45 467.45 839.75 467.45 840.05 467.4 840.35 467.4 840.6 467.35 840.9 467.35 841.2 467.3 841.5 467.3 841.75 467.25 842.05 467.25 842.35 467.25 842.65 467.2 842.9 467.2 843.2 467.15 843.5 467.15 843.75 467.1 844.05 467.1 844.35 467.05 844.65 467 844.9 467 845.2 466.95 845.5 466.95 845.75 466.9 846.05 466.85 846.35 466.85 846.65 466.8 846.9 466.75 847.2 466.7 847.5 466.65 847.75 466.65 848.05 466.6 848.35 466.55 848.6 466.5 848.85 466.45 849.15 466.4 849.4 466.35 849.65 466.3 849.9 466.25 850.2 466.2 850.45 466.2 850.7 466.15 850.95 466.1 851.25 466.05 851.5 466 851.75 465.95 852 465.9 852.3 465.8 852.55 465.75 852.8 465.7 853.05 465.65 853.3 465.6 853.6 465.55 853.85 465.5 854.1 465.4 854.35 465.35 854.65 465.3 854.9 465.25 855.15 465.2 855.4 465.15 855.7 465.1 855.95 465 856.2 464.95 856.5 464.9 856.75 464.85 857 464.8 857.25 464.75 857.55 464.7 857.8 464.65 858.1 464.6 858.4 464.55 858.65 464.5 858.95 464.45 859.2 464.4 859.5 464.3 859.75 464.25 860.05 464.2 860.35 464.15 860.6 464.1 860.9 464.05 861.15 463.95 861.45 463.9 861.7 463.85 862 463.8 862.3 463.75 862.55 463.7 862.85 463.65 863.1 463.6 863.4 463.55 863.65 463.5 863.95 463.45 864.25 463.4 864.5 463.35 864.8 463.3 865.05 463.25 865.35 463.2 865.65 463.1 865.9 463.05 866.2 463 866.45 462.95 866.75 462.9 867.05 462.85 867.3 462.8 867.6 462.75 867.9 462.65 868.15 462.6 868.45 462.55 868.75 462.5 869 462.45 869.3 462.35 869.6 462.3 869.85 462.25 870.15 462.15 870.4 462.1 870.7 462.05 871 461.95 871.25 461.9 871.55 461.8 871.85 461.75 872.1 461.7 872.4 461.6 872.65 461.55 872.95 461.45 873.2 461.35 873.5 461.3 873.8 461.2 874.05 461.15 874.35 461.05 874.6 460.95 874.85 460.9 875.1 460.8 875.3 460.75 875.55 460.65 875.8 460.6 876.05 460.5 876.25 460.45 876.5 460.35 876.75 460.25 877 460.2 877.2 460.1 877.45 460 877.7 459.9 877.9 459.85 878.15 459.75 878.4 459.65 878.6 459.55 878.85 459.45 879.1 459.35 879.3 459.25 879.55 459.15 879.8 459.05 880 458.95 880.25 458.85 880.45 458.7 880.7 458.6 880.9 458.5 881.1 458.4 881.35 458.25 881.55 458.15 881.8 458 882 457.9 882.2 457.75 882.4 457.6 882.6 457.45 882.85 457.35 883.05 457.2 883.25 457.05 883.45 456.9 883.7 456.7 883.9 456.55 884.1 456.35 884.3 456.2 884.55 456 884.75 455.85 884.95 455.65 885.15 455.5 885.4 455.3 885.6 455.1 885.8 454.9 886 454.75 886.2 454.55 886.4 454.35 886.6 454.15 886.8 453.95 887 453.75 887.15 453.55 887.35 453.4 887.55 453.2 887.7 453 887.9 452.8 888.1 452.6 888.25 452.4 888.45 452.2 888.6 451.95 888.8 451.75 888.95 451.55 889.1 451.3 889.3 451.1 889.45 450.85 889.6 450.65 889.75 450.4 889.95 450.2 890.1 449.95 890.25 449.7 890.4 449.5 890.55 449.25 890.7 449 890.8 448.8 890.95 448.55 891.1 448.3 891.25 448.05 891.35 447.85 891.5 447.6 891.6 447.4 891.75 447.15 891.85 446.9 891.95 446.7 892.05 446.45 892.15 446.25 892.25 446 892.4 445.75 892.5 445.55 892.6 445.3 892.7 445.05 892.8 444.85 892.9 444.6 893 444.35 893.1 444.1 893.2 443.9 893.3 443.65 893.4 443.4 893.5 443.15 893.6 442.9 893.7 442.65 893.8 442.4 893.9 442.15 894 441.9 894.05 441.65 894.15 441.4 894.25 441.15 894.35 440.9 894.4 440.65 894.5 440.35 894.6 440.1 894.65 439.85 894.75 439.6 894.85 439.35 894.9 439.1 895 438.85 895.05 438.55 895.15 438.3 895.2 438 895.3 437.75 895.35 437.45 895.45 437.2 895.5 436.9 895.6 436.65 895.65 436.35 895.7 436.1 895.75 435.8 895.85 435.5 895.9 435.25 895.95 434.95 896 434.65 896.05 434.4 896.1 434.1 896.15 433.85 896.2 433.55 896.25 433.25 896.3 432.95 896.3 432.7 896.35 432.4 896.4 432.1 896.4 431.85 896.45 431.55 896.45 431.25 896.45 431 896.5 430.7 896.5 430.4 896.5 430.15 896.5 429.85 896.5 429.55 896.5 429.25 896.45 429 896.45 428.75 896.45 428.55 896.4 428.3 896.4 428.05 896.35 427.8 896.35 427.55 896.3 427.3 896.25 427.05 896.2 426.8 896.15 426.55 896.1 426.3 896.05 426.05 895.95 425.85 895.9 425.6 895.85 425.35 895.75 425.1 895.65 424.9 895.6 424.65 895.5 424.4 895.4 424.2 895.3 423.95 895.2 423.75 895.1 423.5 894.95 423.3 894.85 423.05 894.7 422.85 894.6 422.65 894.45 422.45 894.3 422.25 894.2 422.05 894.05 421.8 893.9 421.65 893.75 421.45 893.6 421.25 893.4 421.05 893.25 420.85 893.1 420.65 892.95 420.45 892.8 420.25 892.65 420.1 892.5 419.9 892.3 419.7 892.15 419.55 892 419.35 891.8 419.15 891.65 419 891.45 418.8 891.3 418.65 891.1 418.5 890.9 418.3 890.7 418.15 890.5 418 890.3 417.85 890.1 417.7 889.9 417.55 889.7 417.4 889.5 417.25 889.3 417.1 889.1 416.95 888.9 416.8 888.7 416.7 888.45 416.55 888.25 416.4 888.05 416.3 887.85 416.15 887.6 416.05 887.4 415.95 887.15 415.8 886.95 415.7 886.7 415.6 886.5 415.5 886.25 415.4 886.05 415.3 885.8 415.2 885.55 415.1 885.35 415 885.1 414.9 884.85 414.8 884.55 414.7 884.3 414.6 884.05 414.55 883.8 414.45 883.5 414.35 883.25 414.3 882.95 414.25 882.7 414.15 882.45 414.1 882.15 414.05 881.9 413.95 881.6 413.9 881.35 413.85 881.05 413.8 880.8 413.75 880.5 413.65 880.25 413.6 879.95 413.55 879.65 413.5 879.4 413.45 879.1 413.4 878.85 413.35 878.55 413.3 878.25 413.25 878 413.2 877.7 413.15 877.4 413.1 877.15 413.05 876.85 413 876.55 412.95 876.3 412.9 876 412.85 875.7 412.8 875.45 412.75 875.15 412.7 874.9 412.65 874.6 412.6 874.3 412.55 874.05 412.5 873.8 412.45 873.55 412.45 873.55 412.15 873.55 411.85 873.55 411.5 873.55 411.15 873.55 410.75 873.55 410.4 873.5 410.05 873.45 409.7 873.4 409.4 873.35 409.05 873.3 408.75 873.25 408.4 873.2 408.1 873.15 407.75 873.05 407.45 873 407.1 872.9 406.8 872.8 406.5 872.65 406.15 872.55 405.8 872.4 405.5 872.3 405.15 872.15 404.85 872 404.5 871.85 404.2 871.7 403.9 871.55 403.6 871.35 403.3 871.2 402.95 871 402.65 870.8 402.35 870.6 402.05 870.4 401.75 870.15 401.45 869.95 401.15 869.7 400.9 869.5 400.6 869.25 400.3 869 400.05 868.8 399.75 868.55 399.5 868.3 399.2 868.05 398.95 867.8 398.7 867.55 398.4 867.3 398.15 867.05 397.9 866.8 397.65 866.5 397.35 866.25 397.1 865.95 396.85 865.7 396.55 865.4 396.3 865.1 396.05 864.85 395.8 864.55 395.5 864.25 395.25 864 395 863.7 394.75 863.4 394.5 863.1 394.25 862.8 394 862.55 393.75 862.25 393.5 861.95 393.3 861.7 393.05 861.4 392.85 861.15 392.6 860.85 392.4 860.6 392.15 860.3 391.9 860.05 391.7 859.75 391.45 859.5 391.25 859.2 391 858.95 390.8 858.7 390.55 858.4 390.35 858.15 390.1 857.85 389.85 857.6 389.65 857.35 389.4 857.1 389.2 856.8 388.95 856.55 388.75 856.3 388.55 856.05 388.3 855.8 388.1 855.5 387.85 855.25 387.65 855 387.4 854.75 387.2 854.5 386.95 854.25 386.7 853.95 386.5 853.7 386.25 853.45 386 853.2 385.75 852.95 385.5 852.7 385.25 852.45 385 852.15 384.75 851.9 384.5 851.65 384.25 851.4 384 851.15 383.75 850.9 383.55 850.65 383.35 850.4 383.15 850.15 382.95 849.9 382.75 849.65 382.55 849.45 382.35 849.2 382.15 849 381.95 848.8 381.75 848.6 381.5 848.35 381.3 848.25 381.1 848.1 380.9 848 380.7 847.9 380.5 847.75 380.15 847.65 379.8 847.5 379.45 847.4 379.1 847.3 378.75 847.15 378.4 847.05 378.05 846.95 377.7 846.85 377.35 846.75 377 846.65 376.65 846.6 376.3 846.5 375.95 846.4 375.6 846.35 375.2 846.25 374.85 846.15 374.5 846.1 374.15 846 373.8 845.95 373.4 845.85 373.05 845.8 372.7 845.7 372.35 845.65 372 845.55 371.6 845.5 371.25 845.4 370.9 845.35 370.55 845.25 370.2 845.2 369.85 845.1 369.45 845.05 369.1 844.95 368.75 844.85 368.35 844.8 368 844.7 367.65 844.65 367.3 844.55 366.9 844.45 366.55 844.4 366.2 844.3 365.8 844.2 365.45 844.15 365.1 844.05 364.75 843.95 364.35 843.85 364 843.8 363.65 843.7 363.3 843.6 362.95 843.5 362.55 843.4 362.2 843.3 361.85 843.2 361.5 843.1 361.15 843 360.75 842.85 360.4 842.75 360.05 842.65 359.7 842.5 359.35 842.4 358.95 842.25 358.6 842.15 358.25 842 357.9 841.9 357.5 841.75 357.15 841.6 356.8 841.5 356.4 841.35 356.05 841.2 355.7 841.1 355.35 840.95 355 840.8 354.6 840.65 354.3 840.5 353.95 840.35 353.6 840.25 353.3 840.1 352.95 839.95 352.6 839.8 352.3 839.65 351.95 839.5 351.6 839.35 351.3 839.2 350.95 839.05 350.6 838.9 350.3 838.75 349.95 838.6 349.6 838.45 349.3 838.3 348.95 838.15 348.6 838 348.25 837.8 347.9 837.65 347.55 837.5 347.15 837.35 346.8 837.15 346.45 837 346.1 836.85 345.75 836.65 345.4 836.5 345.05 836.35 344.7 836.2 344.35 836 344 835.85 343.65 835.7 343.3 835.5 342.95 835.35 342.6 835.2 342.25 835.05 341.9 834.85 341.55 834.7 341.2 834.55 340.85 834.35 340.5 834.2 340.15 834.05 339.8 833.9 339.45 833.75 339.1 833.6 338.75 833.45 338.35 833.3 338 833.15 337.65 833.05 337.3 832.9 336.95 832.75 336.6 832.6 336.25 832.45 335.9 832.3 335.55 832.15 335.2 832 334.85 831.85 334.45 831.7 334.1 831.6 333.75 831.45 333.4 831.3 333.05 831.15 332.7 831 332.35 830.85 332 830.7 331.65 830.55 331.25 830.45 330.9 830.3 330.55 830.15 330.2 830 329.85 829.85 329.5 829.7 329.15 829.55 328.8 829.4 328.45 829.3 328.05 829.15 327.7 829 327.35 828.85 327 828.7 326.65 828.55 326.3 828.4 325.9 828.25 325.55 828.1 325.2 827.95 324.8 827.8 324.45 827.65 324.1 827.5 323.75 827.3 323.35 827.15 323 827 322.65 826.85 322.25 826.7 321.9 826.5 321.55 826.35 321.2 826.2 320.85 826.05 320.45 825.85 320.1 825.7 319.75 825.55 319.4 825.35 319.05 825.2 318.75 825.05 318.4 824.9 318.05 824.7 317.75 824.55 317.4 824.4 317.1 824.25 316.75 824.1 316.4 823.9 316.1 823.75 315.75 823.6 315.45 823.45 315.1 823.25 314.75 823.1 314.45 822.95 314.1 822.8 313.75 822.65 313.45 822.5 313.1 822.35 312.8 822.25 312.45 822.1 312.15 821.95 311.8 821.85 311.45 821.7 311.15 821.55 310.8 821.45 310.5 821.3 310.15 821.15 309.8 821.05 309.5 820.9 309.15 820.75 308.85 820.6 308.45 820.45 308.1 820.3 307.75 820.15 307.4 820 307.05 819.85 306.7 819.65 306.35 819.5 306 819.35 305.6 819.15 305.25 819 304.9 818.8 304.6 818.65 304.25 818.45 303.9 818.25 303.55 818.05 303.2 817.9 302.85 817.7 302.55 817.5 302.2 817.3 301.85 817.1 301.55 816.9 301.2 816.7 300.9 816.5 300.55 816.25 300.25 816.05 299.9 815.85 299.6 815.6 299.3 815.4 298.95 815.2 298.65 814.95 298.35 814.75 298.1 814.55 297.8 814.3 297.5 814.1 297.2 813.9 296.95 813.65 296.65 813.45 296.35 813.2 296.1 813 295.8 812.75 295.55 812.55 295.25 812.3 295 812.1 294.7 811.85 294.4 811.6 294.1 811.4 293.8 811.15 293.5 810.9 293.2 810.65 292.9 810.45 292.55 810.2 292.25 809.95 291.95 809.75 291.65 809.5 291.35 809.25 291.05 809 290.75 808.8 290.45 808.55 290.1 808.35 289.8 808.1 289.5 807.9 289.2 807.65 288.9 807.45 288.55 807.2 288.25 807 287.95 806.8 287.6 806.6 287.3 806.35 287 806.15 286.65 805.95 286.35 805.75 286 805.55 285.7 805.35 285.35 805.15 285.05 804.95 284.7 804.75 284.4 804.55 284.05 804.35 283.75 804.15 283.4 803.95 283.05 803.75 282.75 803.6 282.4 803.4 282.1 803.2 281.8 803.05 281.5 802.85 281.2 802.7 280.95 802.5 280.65 802.35 280.35 802.15 280.05 802 279.8 801.8 279.5 801.6 279.2 801.4 278.95 801.25 278.65 801 278.35 800.8 278 800.55 277.7 800.35 277.4 800.1 277.05 799.9 276.75 799.65 276.45 799.45 276.1 799.25 275.8 799 275.45 798.85 275.2 798.65 274.9 798.45 274.65 798.3 274.35 798.1 274.1 797.95 273.8 797.75 273.55 797.55 273.3 797.35 273 797.2 272.75 797 272.45 796.8 272.2 796.6 271.95 796.4 271.65 796.2 271.4 796 271.15 795.8 270.85 795.6 270.6 795.4 270.3 795.2 270 795 269.75 794.85 269.45 794.65 269.15 794.5 268.85 794.35 268.55 794.15 268.25 794 267.95 793.85 267.65 793.75 267.35 793.65 267 793.5 266.65 793.4 266.35 793.35 266 793.25 265.7 793.15 265.35 793.1 265 793 264.65 792.95 264.35 792.85 264 792.8 263.65 792.75 263.3 792.7 263 792.65 262.6 792.6 262.2 792.55 261.8 792.5 261.4 792.45 260.95 792.45 260.55 792.4 260.15 792.35 259.75 792.35 259.35 792.3 258.95 792.25 258.55 792.25 258.15 792.2 257.75 792.2 257.35 792.15 256.95 792.15 256.55 792.1 256.15 792.1 255.75 792.1 255.35 792.05 254.95 792.05 254.55 792.05 254.15 792 253.75 792 253.35 792 252.95 792 252.55 792 252.15 791.95 251.75 791.95 251.35 791.95 250.9 791.95 250.5 791.95 250.1 791.95 249.7 791.95 249.3 791.95 248.9 791.95 248.5 791.95 248.1 791.95 247.7 791.9 247.3 791.9 246.9 791.9 246.5 791.9 246.1 791.9 245.7 791.9 245.3 791.9 244.9 791.9 244.5 791.9 244.1 791.9 243.65 791.9 243.25 791.9 242.85 791.9 242.45 791.9 242.05 791.9 241.65 791.9 241.25 791.9 240.85 791.9 240.45 791.9 240.1 791.9 239.7 791.9 239.35 791.9 238.95 791.9 238.6 791.9 238.2 791.9 237.85 791.9 237.5 791.85 237.1 791.85 236.75 791.85 236.35 791.85 236 791.8 235.6 791.8 235.25 791.75 234.9 791.75 234.5 791.7 234.1 791.65 233.7 791.6 233.3 791.6 232.9 791.55 232.5 791.5 232.1 791.5 231.7 791.45 231.3 791.4 230.95 791.4 230.55 791.35 230.15 791.35 229.75 791.3 229.35 791.3 228.95 791.25 228.55 791.25 228.15 791.2 227.75 791.2 227.35 791.15 226.95 791.15 226.55 791.1 226.15 791.1 225.75 791.05 225.3 791.05 224.9 791 224.55 790.95 224.2 790.9 223.85 790.85 223.5 790.8 223.15 790.75 222.8 790.7 222.45 790.6 222.05 790.55 221.7 790.45 221.35 790.4 221 790.3 220.65 790.2 220.3 790.1 219.95 790 219.6 789.9 219.25 789.8 218.9 789.7 218.5 789.6 218.15 789.45 217.8 789.35 217.45 789.2 217.1 789.05 216.75 788.95 216.4 788.8 216.05 788.65 215.7 788.55 215.35 788.4 215 788.25 214.65 788.1 214.3 788 213.9 787.85 213.55 787.7 213.2 787.55 212.8 787.4 212.45 787.25 212.1 787.1 211.7 786.95 211.35 786.85 210.95 786.7 210.6 786.55 210.2 786.4 209.85 786.3 209.5 786.15 209.1 786.05 208.75 785.9 208.35 785.8 208 785.7 207.7 785.6 207.35 785.5 207 785.4 206.65 785.3 206.35 785.2 206 785.15 205.65 785.05 205.3 784.95 205 784.9 204.65 784.8 204.3 784.75 203.95 784.65 203.6 784.6 203.25 784.55 202.9 784.5 202.55 784.45 202.15 784.4 201.75 784.35 201.35 784.3 200.95 784.25 200.55 784.25 200.15 784.2 199.75 784.2 199.35 784.15 198.95 784.15 198.55 784.1 198.15 784.1 197.75 784.05 197.4 784.05 197 784.05 196.6 784.05 196.2 784 195.8 784 195.4 784 195 784 194.6 784 194.2 783.95 193.8 783.95 193.4 783.95 193 783.95 192.6 783.95 192.2 783.95 191.8 783.95 191.4 783.95 191 783.95 190.6 783.95 190.25 783.95 189.85 783.9 189.45 783.9 189.05 783.9 188.65 783.9 188.25 783.9 187.85 783.9 187.45 783.9 187.05 783.9 186.65 783.9 186.25 784.05 186.45 784.2 186.6 784.35 186.75 784.45 186.9 784.7 187.2 784.95 187.45 785.2 187.75 785.45 188 785.7 188.3 785.95 188.6 786.2 188.85 786.4 189.15 786.65 189.4 786.9 189.7 787.15 190 787.4 190.25 787.6 190.55 787.85 190.85 788.1 191.15 788.35 191.45 788.55 191.75 788.8 192.05 789.05 192.35 789.3 192.65 789.5 192.95 789.75 193.3 790 193.6 790.25 193.9 790.45 194.2 790.7 194.5 790.95 194.8 791.2 195.1 791.4 195.4 791.65 195.7 791.9 196 792.15 196.3 792.35 196.65 792.6 196.95 792.85 197.25 793.1 197.55 793.35 197.9 793.55 198.2 793.8 198.5 794.05 198.85 794.3 199.15 794.5 199.45 794.75 199.8 795 200.1 795.2 200.45 795.45 200.75 795.7 201.1 795.9 201.4 796.15 201.7 796.35 202.05 796.6 202.35 796.85 202.7 797.05 203 797.3 203.35 797.5 203.6 797.7 203.9 797.9 204.2 798.1 204.45 798.3 204.75 798.55 205.05 798.75 205.3 798.95 205.6 799.15 205.85 799.4 206.15 799.6 206.4 799.85 206.65 800.05 206.9 800.3 207.2 800.5 207.45 800.75 207.7 801 207.95 801.2 208.2 801.45 208.45 801.7 208.7 801.95 208.9 802.2 209.15 802.45 209.4 802.7 209.65 802.95 209.9 803.25 210.15 803.5 210.4 803.8 210.65 804.1 210.95 804.35 211.2 804.65 211.45 804.95 211.7 805.2 212 805.45 212.25 805.75 212.5 806 212.8 806.25 213.1 806.55 213.35 806.8 213.65 807.05 213.95 807.3 214.2 807.55 214.5 807.8 214.8 808.05 215.1 808 215 807.95 214.9 808.15 215.2 808.4 215.45 808.6 215.75 808.8 216 809.05 216.3 809.25 216.55 809.5 216.85 809.7 217.1 809.95 217.4 810.15 217.65 810.2 217.7 810.3 217.8
L 810.3 217.85
Q 810.35 217.9 810.4 217.95 810.5 218.1 810.6 218.2 810.85 218.5 811.1 218.8 811.3 219.1 811.55 219.4 811.8 219.7 812 220 812.25 220.3 812.5 220.6 812.7 220.9 812.95 221.2 813.15 221.55 813.4 221.85 813.6 222.15 813.85 222.45 814.05 222.75 814.25 223.05 814.45 223.35 814.65 223.6 814.9 223.9 815.1 224.2 815.3 224.5 815.5 224.8 815.7 225.1 815.9 225.4 816.1 225.65 816.35 225.95 816.55 226.25 816.75 226.55 816.95 226.85 817.15 227.15 817.4 227.45 817.65 227.75 817.85 228.05 818.1 228.4 818.35 228.7 818.6 229 818.8 229.3 819.05 229.6 819.3 229.9 819.55 230.25 819.75 230.55 820 230.85 820.25 231.15 820.45 231.45 820.7 231.8 820.95 232.1 821.15 232.4 821.4 232.7 821.6 233 821.85 233.35 822.05 233.65 822.25 233.95 822.5 234.25 822.7 234.55 822.95 234.85 823.15 235.2 823.35 235.5 823.55 235.8 823.8 236.1 824 236.45 824.2 236.75 824.4 237.05 824.6 237.4 824.8 237.7 825 238 825.2 238.35 825.4 238.65 825.6 239 825.8 239.3 825.95 239.65 826.15 239.95 826.35 240.3 826.5 240.6 826.7 240.95 826.9 241.25 827.05 241.6 827.25 241.9 827.45 242.25 827.6 242.55 827.8 242.85 827.95 243.2 828.1 243.5 828.3 243.8 828.45 244.15 828.6 244.45 828.8 244.75 828.95 245.1 829.1 245.4 829.25 245.75 829.4 246.05 829.55 246.35 829.75 246.7 829.9 247 830.05 247.35 830.2 247.7 830.4 248.05 830.55 248.4 830.7 248.75 830.9 249.1 831.05 249.45 831.25 249.8 831.4 250.15 831.55 250.5 831.75 250.85 831.95 251.2 832.1 251.55 832.3 251.9 832.5 252.25 832.65 252.55 832.8 252.85 833 253.15 833.15 253.45 833.35 253.75 833.5 254.05 833.7 254.35 833.9 254.65 834.05 254.9 834.2 255.15 834.35 255.4 834.45 255.6 834.6 255.85 834.75 256.1 834.85 256.4 834.95 256.75 835 257.05 835.1 257.35 835.2 257.65 835.25 257.95 835.3 258.25 835.35 258.6 835.4 258.95 835.45 259.35 835.5 259.75 835.55 260.15 835.55 260.55 835.6 260.95 835.65 261.3 835.7 261.7 835.75 262.1 835.75 262.5 835.8 262.9 835.85 263.25 835.9 263.65 836 264.05 836.05 264.45 836.1 264.85 836.2 265.2 836.25 265.6 836.35 266 836.45 266.35 836.55 266.7 836.65 267.05 836.8 267.4 836.9 267.75 837 268.1 837.15 268.45 837.25 268.8 837.4 269.1 837.55 269.45 837.7 269.8 837.85 270.1 838 270.45 838.15 270.75 838.3 271.1 838.45 271.45 838.6 271.75 838.8 272.05 838.95 272.4 839.1 272.7 839.3 273.05 839.45 273.35 839.65 273.65 839.8 274 840 274.3 840.2 274.6 840.35 274.95 840.55 275.25 840.75 275.55 840.9 275.85 841.1 276.2 841.3 276.5 841.45 276.8 841.4 276.9 841.35 277.05 841.25 277.3 841.15 277.55 841.05 277.8 840.95 278.05 840.8 278.3 840.7 278.55 840.6 278.8 840.5 279.05 840.35 279.35 840.25 279.6 840.15 279.85 840.05 280.1 839.9 280.35 839.8 280.6 839.7 280.85 839.6 281.1 839.45 281.35 839.35 281.6 839.25 281.9 839.15 282.15 839.05 282.4 838.95 282.65 838.85 282.9 838.8 283.15 838.7 283.45 838.6 283.7 838.5 283.95 838.45 284.2 838.35 284.5 838.3 284.75 838.2 285 838.15 285.25 838.1 285.55 838 285.8 837.95 286.1 837.9 286.35 837.85 286.65 837.8 286.9 837.75 287.2 837.7 287.5 837.65 287.75 837.6 288.05 837.6 288.35 837.55 288.65 837.5 288.9 837.45 289.2 837.45 289.5 837.4 289.8 837.35 290.05 837.35 290.35 837.3 290.65 837.3 290.95 837.3 291.2 837.25 291.5 837.25 291.8 837.25 292.05 837.25 292.35 837.2 292.65 837.2 292.9 837.25 293.2 837.25 293.5 837.25 293.75 837.25 294.05 837.25 294.3 837.3 294.6 837.3 294.9 837.35 295.15 837.35 295.45 837.4 295.7 837.45 296 837.5 296.25 837.5 296.55 837.55 296.8 837.6 297.1 837.65 297.35 837.7 297.65 837.8 297.9 837.85 298.2 837.9 298.45 838 298.75 838.05 299 838.15 299.3 838.2 299.55 838.3 299.8 838.4 300.1 838.5 300.35 838.6 300.6 838.7 300.9 838.8 301.1 838.9 301.35 839 301.6 839.1 301.85 839.2 302.1 839.3 302.3 839.4 302.55 839.5 302.8 839.6 303.05 839.7 303.25 839.85 303.5 839.95 303.75 840.05 303.95 840.2 304.2 840.35 304.4 840.45 304.65 840.6 304.85 840.75 305.1 840.85 305.3 841 305.5 841.15 305.75 841.3 305.95 841.45 306.15 841.65 306.35 841.8 306.6 841.95 306.8 842.1 307 842.3 307.2 842.45 307.4 842.6 307.6 842.8 307.8 842.95 308 843.15 308.2 843.3 308.4 843.5 308.6 843.7 308.75 843.85 308.95 844.05 309.15 844.25 309.35 844.45 309.5 844.65 309.7 844.85 309.9 845.05 310.05 845.25 310.25 845.45 310.45 845.7 310.6 845.9 310.8 846.1 310.95 846.35 311.1 846.55 311.3 846.75 311.45 847 311.6 847.2 311.8 847.45 311.95 847.65 312.1 847.9 312.25 848.1 312.4 848.35 312.6 848.55 312.75 848.8 312.9 849 313.05 849.25 313.2 849.5 313.35 849.7 313.5 849.95 313.65 850.2 313.85 850.4 314 850.65 314.15 850.9 314.3 851.15 314.45 851.35 314.6 851.6 314.75 851.85 314.9 852.1 315 852.3 315.15 852.55 315.3 852.8 315.45 853.05 315.6 853.3 315.75 853.55 315.9 853.8 316.05 854.05 316.15 854.3 316.3 854.55 316.45 854.8 316.6 855.05 316.75 855.3 316.85 855.55 317 855.8 317.15 856.05 317.3 856.3 317.4 856.55 317.55 856.8 317.7 857.05 317.85 857.3 317.95 857.55 318.1 857.8 318.2 858.05 318.35 858.35 318.5 858.6 318.6 858.85 318.75 859.1 318.85 859.35 319 859.6 319.15 859.85 319.25 860.1 319.4 860.35 319.5 860.65 319.65 860.85 319.75 861.1 319.85 861.35 319.95 861.55 320.1 861.8 320.2 862.05 320.3 862.25 320.4 862.5 320.5 862.75 320.65 863 320.75 863.2 320.85 863.45 320.95 863.7 321.05 863.95 321.1 864.2 321.2 864.45 321.3 864.65 321.4 864.9 321.45 865.15 321.55 865.4 321.65 865.7 321.7 865.95 321.75 866.2 321.85 866.5 321.9 866.75 321.95 867.05 322 867.3 322.05 867.55 322.1 867.85 322.15 868.1 322.2 868.4 322.2 868.7 322.25 868.95 322.3 869.2 322.3 869.5 322.35 869.75 322.4 870.05 322.4 870.35 322.45 870.6 322.45 870.9 322.5 871.2 322.55 871.45 322.55 871.75 322.6 872.05 322.6 872.3 322.6 872.6 322.65 872.9 322.65 873.15 322.7 873.45 322.7 873.7 322.7 874 322.75 874.3 322.75 874.55 322.75 874.85 322.75 875.15 322.8 875.4 322.8 875.7 322.8 876 322.8 876.25 322.8 876.55 322.85 876.85 322.85 877.1 322.85 877.4 322.85 877.7 322.85 877.95 322.85 878.25 322.85 878.55 322.85 878.8 322.9 879.1 322.9 879.4 322.9 879.65 322.9 879.95 322.9 880.25 322.9 880.5 322.9 880.8 322.9 881.1 322.9 881.35 322.9 881.65 322.9 881.95 322.9 882.2 322.9 882.5 322.9 882.75 322.9 883 322.9 883.25 322.9 883.5 322.9 883.8 322.9 884.05 322.9 884.3 322.85 884.55 322.85 884.8 322.85 885.1 322.8 885.4 322.8 885.7 322.75 885.95 322.75 886.25 322.7 886.55 322.65 886.85 322.6 887.1 322.55 887.4 322.5 887.7 322.45 887.9 322.4 888.15 322.35 888.35 322.3 888.6 322.3 888.8 322.25 889.05 322.2 889.3 322.1 889.5 322.05 889.7 322 889.95 321.95 890.2 321.85 890.5 321.75 890.75 321.65 891 321.55 891.3 321.45 891.55 321.4 891.8 321.3 892.1 321.2 892.35 321.05 892.6 320.95 892.85 320.85 893.15 320.75 893.4 320.65 893.65 320.5 893.9 320.4 894.15 320.3 894.45 320.15 894.7 320.05 894.9 319.9 895.15 319.8 895.4 319.65 895.6 319.55 895.85 319.4 896.1 319.3 896.3 319.15 896.55 319.05 896.75 318.9 897 318.75 897.2 318.65 897.45 318.5 897.65 318.35 897.9 318.2 898.1 318.05 898.3 317.9 898.55 317.75 898.75 317.65 899 317.45 899.2 317.3 899.45 317.15 899.65 317 899.9 316.85 900.1 316.7 900.35 316.55 900.55 316.4 900.75 316.25 901 316.1 901.2 315.95 901.45 315.8 901.65 315.65 901.9 315.45 902.1 315.3 902.3 315.15 902.55 315 902.75 314.8 902.95 314.65 903.15 314.5 903.4 314.3 903.6 314.15 903.8 314 904 313.8 904.2 313.65 904.4 313.45 904.6 313.3 904.8 313.1 905 312.9 905.2 312.75 905.4 312.55 905.6 312.35 905.8 312.2 906 312 906.2 311.8 906.35 311.6 906.55 311.45 906.75 311.25 906.9 311.05 907.1 310.9 907.25 310.7 907.4 310.5 907.6 310.3 907.75 310.1 907.9 309.9 908.1 309.7 908.25 309.55 908.4 309.35 908.55 309.15 908.75 308.95 908.9 308.7 909.05 308.5 909.2 308.3 909.35 308.1 909.5 307.9 909.65 307.7 909.8 307.45 909.95 307.25 910.05 307.05 910.2 306.85 910.35 306.6 910.5 306.4 910.6 306.2 910.75 305.95 910.85 305.75 911 305.5 911.1 305.3 911.25 305.05 911.35 304.85 911.5 304.6 911.6 304.4 911.7 304.15 911.8 303.9 911.95 303.7 912.05 303.45 912.15 303.2 912.25 302.95 912.35 302.7 912.5 302.45 912.6 302.2 912.7 301.95 912.8 301.7 912.9 301.45 913 301.2 913.1 300.95 913.2 300.7 913.3 300.45 913.4 300.15 913.5 299.9 913.6 299.65 913.7 299.4 913.8 299.15 913.85 298.9 913.95 298.65 914.05 298.4 914.15 298.15 914.2 297.9 914.3 297.65 914.4 297.4 914.45 297.15 914.55 296.9 914.65 296.65 914.7 296.4 914.8 296.15 914.85 295.9 914.95 295.65 915 295.4 915.1 295.15 915.15 294.9 915.25 294.65 915.3 294.4 915.35 294.15 915.4 293.85 915.45 293.6 915.55 293.3 915.6 293.05 915.65 292.75 915.7 292.45 915.75 292.2 915.8 291.9 915.85 291.6 915.9 291.35 915.95 291.05 916 290.75 916.05 290.5 916.1 290.2 916.15 289.9 916.2 289.65 916.25 289.35 916.3 289.05 916.3 288.8 916.35 288.5 916.4 288.2 916.4 287.95 916.45 287.65 916.5 287.35 916.5 287.05 916.55 286.8 916.55 286.5 916.6 286.2 916.6 285.95 916.6 285.65 916.65 285.35 916.65 285.05 916.65 284.8 916.7 284.5 916.7 284.25 916.7 284 916.7 283.75 916.7 283.5 916.7 283.25 916.7 283 916.7 282.75 916.7 282.5 916.7 282.25 916.65 282 916.65 281.75 916.6 281.5 916.6 281.2 916.55 280.95 916.5 280.7 916.45 280.4 916.4 280.15 916.35 279.9 916.35 279.6 916.3 279.35 916.2 279.1 916.15 278.85 916.1 278.6 916.05 278.35 915.95 278.1 915.9 277.85 915.8 277.6 915.75 277.35 915.65 277.1 915.55 276.85 915.45 276.6 915.35 276.35 915.25 276.1 915.15 275.85 915.05 275.6 914.95 275.4 914.85 275.15 914.75 274.9 914.65 274.65 914.55 274.45 914.45 274.2 914.35 273.95 914.2 273.75 914.1 273.5 914 273.3 913.85 273.05 913.75 272.85 913.6 272.6 913.5 272.4 913.35 272.15 913.2 271.95 913.1 271.75 912.95 271.55 912.8 271.3 912.7 271.1 912.55 270.9 912.4 270.65 912.25 270.45 912.1 270.25 911.95 270 911.8 269.8 911.65 269.55 911.5 269.35 911.35 269.1 911.2 268.9 911 268.65 910.85 268.45 910.7 268.2 910.55 268 910.4 267.75 910.2 267.55 910.05 267.3 909.9 267.1 909.75 266.9 909.55 266.65 909.4 266.45 909.25 266.25 909.05 266.05 908.9 265.8 908.75 265.6 908.55 265.4 908.4 265.2 908.25 265 908.05 264.75 907.9 264.55 907.75 264.35 907.55 264.15 907.4 263.95 907.2 263.7 907.05 263.5 906.85 263.3 906.7 263.1 906.5 262.9 906.35 262.7 906.15 262.5 906 262.3 905.8 262.1 905.65 261.9 905.45 261.65 905.25 261.45 905.1 261.25 904.9 261.1 904.75 260.9 904.55 260.7 904.35 260.5 904.15 260.3 904 260.1 903.8 259.9 903.6 259.7 903.4 259.5 903.2 259.35 903.05 259.15 902.85 258.95 902.65 258.75 902.45 258.6 902.25 258.4 902.05 258.2 901.85 258.05 901.65 257.85 901.45 257.65 901.25 257.5 901.05 257.3 900.85 257.1 900.65 256.95 900.45 256.75 900.25 256.55 900.05 256.4 899.85 256.2 899.65 256.05 899.45 255.85 899.25 255.65 899.05 255.5 898.85 255.3 898.65 255.15 898.45 254.95 898.25 254.8 898.05 254.6 897.85 254.45 897.6 254.25 897.4 254.1 897.2 253.95 897 253.75 896.8 253.6 896.6 253.4 896.35 253.25 896.15 253.1 895.95 252.9 895.75 252.75 895.5 252.55 895.3 252.4 895.05 252.2 894.85 252.05 894.65 251.85 894.4 251.7 894.2 251.55 893.95 251.35 893.75 251.2 893.5 251 893.3 250.85 893.1 250.65 892.85 250.5 892.65 250.35 892.4 250.15 892.2 250 891.95 249.8 891.75 249.65 891.55 249.5 891.35 249.35 891.15 249.2 890.9 249 890.7 248.85 890.5 248.7 890.3 248.55 890.1 248.4 889.9 248.25 889.7 248.1 889.5 247.95 889.3 247.75 889.1 247.6 888.9 247.45 888.7 247.3 888.5 247.1 888.3 246.95 888.1 246.8 887.9 246.6 887.7 246.4 887.5 246.25 887.3 246.05 887.1 245.9 886.9 245.7 886.7 245.5 886.5 245.35 886.3 245.15 886.1 244.95 885.9 244.8 885.7 244.6 885.5 244.4 885.3 244.25 885.1 244.05 884.9 243.85 884.7 243.65 884.5 243.5 884.35 243.3 884.15 243.1 883.95 242.9 883.75 242.7 883.55 242.55 883.35 242.35 883.2 242.15 883 241.95 882.8 241.75 882.6 241.55 882.45 241.35 882.25 241.15 882.05 240.95 881.9 240.75 881.7 240.55 881.5 240.35 881.4 240.15 881.25 239.95 881.1 239.7 880.95 239.5 880.8 239.3 880.65 239.1 880.55 238.85 880.4 238.65 880.25 238.45 880.15 238.2 880 238 879.9 237.75 879.8 237.55 879.65 237.3 879.55 237.1 879.45 236.85 879.3 236.65 879.2 236.4 879.1 236.2 879 235.95 878.85 235.7 878.75 235.5 878.65 235.25 878.55 235.05 878.45 234.75 878.35 234.5 878.25 234.25 878.1 234 878 233.75 877.9 233.5 877.8 233.25 877.7 233 877.55 232.7 877.45 232.45 877.35 232.2 877.25 231.95 877.15 231.7 877 231.45 876.9 231.25 876.85 231.05 876.8 231 876.8 230.95 876.75 230.8 876.65 230.65
L 876.65 230.6
Q 876.55 230.35 876.45 230.1 876.3 229.8 876.2 229.55 876.1 229.3 876 229.05 875.85 228.75 875.75 228.5 875.65 228.25 875.5 227.95 875.4 227.7 875.3 227.45 875.2 227.2 875.05 226.9 874.95 226.65 874.85 226.4 874.7 226.15 874.6 225.9 874.5 225.65 874.4 225.4 874.25 225.15 874.15 224.9 874.05 224.65 873.9 224.4 873.8 224.15 873.65 223.9 873.55 223.65 873.4 223.4 873.3 223.15 873.15 222.9 873 222.7 872.9 222.45 872.75 222.2 872.6 221.95 872.45 221.75 872.3 221.5 872.15 221.25 872 221 871.85 220.75 871.65 220.55 871.5 220.3 871.35 220.05 871.2 219.8 871.05 219.6 870.85 219.35 870.7 219.1 870.55 218.9 870.35 218.65 870.2 218.45 870.05 218.2 869.85 218 869.7 217.75 869.5 217.5 869.35 217.3 869.2 217.05 869 216.85 868.85 216.6 868.7 216.4 868.5 216.15 868.35 215.95 868.15 215.75 868 215.5 867.8 215.3 867.65 215.05 867.45 214.85 867.3 214.6 867.1 214.4 866.95 214.15 866.75 213.95 866.6 213.75 866.4 213.5 866.25 213.3 866.05 213.05 865.9 212.85 865.7 212.65 865.55 212.4 865.35 212.2 865.2 212 865 211.75 864.8 211.55 864.65 211.35 864.45 211.1 864.25 210.9 864.1 210.7 863.9 210.45 863.75 210.25 863.55 210.05 863.35 209.85 863.2 209.6 863 209.4 862.8 209.2 862.65 209 862.45 208.8 862.25 208.6 862.1 208.4 861.9 208.2 861.7 208 861.55 207.8 861.35 207.6 861.15 207.4 860.95 207.2 860.8 207 860.6 206.8 860.4 206.6 860.2 206.4 860 206.2 859.85 206 859.65 205.8 859.45 205.6 859.25 205.4 859.05 205.2 858.85 205 858.65 204.8 858.5 204.6 858.3 204.45 858.1 204.25 857.9 204.05 857.7 203.85 857.5 203.65 857.3 203.5 857.1 203.3 856.9 203.1 856.7 202.9 856.5 202.75 856.3 202.55 856.15 202.4 855.95 202.2 855.75 202 855.55 201.85 855.35 201.65 855.15 201.5 854.95 201.3 854.75 201.15 854.55 200.95 854.35 200.75 854.2 200.6 854 200.4 853.8 200.25 853.6 200.05 853.4 199.85 853.2 199.7 853 199.5 852.8 199.3 852.65 199.15 852.45 198.95 852.25 198.75 852.05 198.6 851.9 198.4 851.7 198.2 851.5 198 851.35 197.8 851.15 197.65 850.95 197.45 850.8 197.25 850.6 197.05 850.45 196.85 850.25 196.65 850.1 196.45 849.95 196.25 849.8 196.05 849.65 195.8 849.55 195.6 849.4 195.35 849.25 195.15 849.15 194.9 849.05 194.7 848.9 194.45 848.8 194.25 848.7 194 848.6 193.8 848.45 193.55 848.35 193.3 848.25 193.05 848.15 192.8 848.05 192.55 847.95 192.3 847.85 192.05 847.75 191.8 847.65 191.55 847.55 191.3 847.45 191.05 847.35 190.8 847.2 190.55 847.1 190.3 847 190.05 846.9 189.8 846.8 189.55 846.7 189.3 846.6 189.05 846.45 188.8 846.35 188.55 846.25 188.3 846.1 188.05 846 187.8 845.85 187.55 845.75 187.3 845.6 187.1 845.45 186.85 845.3 186.6 845.2 186.4 845.05 186.15 844.9 185.9 844.75 185.7 844.6 185.45 844.45 185.25 844.3 185 844.15 184.8 844 184.6 843.8 184.35 843.65 184.15 843.5 183.95 843.35 183.7 843.15 183.5 843 183.3 842.85 183.1 842.65 182.85 842.5 182.65 842.3 182.45 842.15 182.25 841.95 182.05 841.75 181.85 841.6 181.65 841.4 181.45 841.25 181.25 841.05 181.1 840.9 180.9 840.7 180.7 840.55 180.5 840.35 180.35 840.2 180.15 840 179.95 839.8 179.8 839.65 179.6 839.45 179.4 839.3 179.25 839.1 179.05 838.9 178.85 838.75 178.7 838.55 178.5 838.35 178.3 838.15 178.15 838 177.95 837.8 177.8 837.6 177.6 837.4 177.4 837.2 177.25 837 177.1 836.8 176.9 836.6 176.75 836.4 176.55 836.15 176.4 835.95 176.2 835.7 176 835.5 175.85 835.3 175.65 835.05 175.45 834.85 175.3 834.65 175.1 834.4 174.9 834.2 174.75 833.95 174.55 833.75 174.4 833.55 174.2 833.3 174 833.1 173.85 832.85 173.65 832.65 173.5 832.4 173.3 832.2 173.1 831.95 172.95 Z"/>
</g>
</defs>

<g transform="matrix( 1, 0, 0, 1, -527.25,-65.35) ">
<g transform="matrix( 1, 0, 0, 1, 0,0) ">
<use xlink:href="#Symbol_1_0_Layer0_0_FILL"/>
</g>
</g>
</svg>
