
<svg xmlns="http://www.w3.org/2000/svg" version="1.1" xmlns:xlink="http://www.w3.org/1999/xlink" preserveAspectRatio="none" x="0px" y="0px" width="400px" height="400px" viewBox="0 0 400 400">
<defs>
<g id="Symbol_1_4_Layer0_0_FILL">
<path fill="#DE4034" stroke="none" d="
M 830.7 166.75
Q 830.5 166.55 830.3 166.4 830 166.2 829.8 166.05 829.6 165.85 829.35 165.65 829.15 165.5 828.9 165.3 828.65 165.1 828.45 164.95 828.25 164.75 828 164.55 827.8 164.35 827.6 164.15 827.35 163.95 827.15 163.75 826.9 163.6 826.7 163.4 826.5 163.2 826.3 163 826.1 162.8 825.85 162.6 825.65 162.4 825.45 162.2 825.2 162 824.95 161.75 824.75 161.55 824.55 161.35 824.35 161.15 824.15 160.95 823.9 160.75 823.7 160.55 823.5 160.35 823.3 160.15 823.1 159.95 822.8 159.75 822.6 159.55 822.4 159.35 822.2 159.1 821.95 158.9 821.75 158.7 821.55 158.5 821.35 158.3 821.15 158.1 820.9 157.9 820.7 157.7 820.5 157.5 820.25 157.3 820.05 157.1 819.8 156.85 819.6 156.65 819.4 156.45 819.2 156.25 818.95 156.05 818.75 155.85 818.55 155.65 818.35 155.45 818.15 155.25 817.9 155.05 817.65 154.85 817.45 154.65 817.25 154.5 817.05 154.3 816.8 154.1 816.6 153.9 816.4 153.7 816.15 153.5 815.9 153.3 815.7 153.1 815.5 152.9 815.3 152.75 815.05 152.55 814.8 152.35 814.6 152.15 814.4 151.95 814.2 151.75 813.9 151.6 813.7 151.4 813.5 151.2 813.3 151 813.1 150.8 812.8 150.6 812.6 150.45 812.4 150.25 812.2 150.05 812 149.85 811.7 149.65 811.5 149.45 811.3 149.3 811.1 149.1 810.85 148.9 810.65 148.7 810.4 148.55 810.2 148.35 810 148.15 809.75 147.95 809.55 147.8 809.35 147.6 809.1 147.4 808.85 147.25 808.65 147.05 808.45 146.85 808.2 146.7 808 146.5 807.7 146.35 807.5 146.15 807.3 146 807.05 145.8 806.8 145.65 806.6 145.45 806.35 145.3 806.15 145.1 805.85 144.95 805.65 144.8 805.45 144.6 805.2 144.45 805 144.3 804.7 144.1 804.5 143.95 804.25 143.8 804 143.65 803.75 143.5 803.5 143.35 803.3 143.2 803.05 143.05 802.75 142.9 802.55 142.75 802.3 142.6 802.05 142.5 801.8 142.35 801.55 142.2 801.3 142.05 801.1 141.95 800.8 141.8 800.55 141.65 800.3 141.55 800.1 141.4 799.85 141.25 799.55 141.1 799.3 141 799.05 140.85 798.75 140.7 798.5 140.55 798.25 140.4 798 140.25 797.7 140.1 797.45 139.95 797.2 139.8 796.95 139.65 796.65 139.5 796.4 139.35 796.15 139.2 795.9 139.05 795.6 138.9 795.4 138.8 795.15 138.65 794.9 138.5 794.6 138.4 794.4 138.25 794.15 138.15 793.9 138 793.6 137.85 793.35 137.75 793.1 137.65 792.9 137.5 792.6 137.4 792.35 137.25 792.1 137.15 791.85 137.05 791.55 136.9 791.3 136.8 791.05 136.7 790.8 136.6 790.5 136.5 790.25 136.35 790 136.25 789.7 136.15 789.45 136.05 789.2 135.95 788.95 135.9 788.65 135.8 788.35 135.7 788.1 135.6 787.85 135.5 787.55 135.45 787.3 135.35 787.05 135.25 786.75 135.2 786.45 135.1 786.2 135.05 785.9 134.95 785.6 134.9 785.3 134.85 785.05 134.75 784.75 134.7 784.45 134.6 784.15 134.55 783.9 134.5 783.55 134.4 783.3 134.35 783 134.3 782.75 134.25 782.4 134.15 782.15 134.1 781.85 134.05 781.55 134 781.25 133.9 781 133.85 780.7 133.8 780.4 133.75 780.1 133.7 779.8 133.65 779.5 133.55 779.2 133.5 778.95 133.45 778.6 133.4 778.35 133.35 778.05 133.3 777.8 133.2 777.45 133.15 777.15 133.1 776.9 133.05 776.55 133 776.3 132.95 776 132.85 775.7 132.8 775.4 132.75 775.1 132.7 774.8 132.65 774.5 132.6 774.2 132.55 773.9 132.5 773.55 132.45 773.3 132.4 773 132.35 772.7 132.3 772.4 132.25 772.1 132.25 771.8 132.2 771.45 132.15 771.2 132.1 770.9 132.05 770.6 132.05 770.3 132 770 131.95 769.7 131.95 769.35 131.9 769.1 131.9 768.8 131.85 768.45 131.8 768.15 131.8 767.85 131.75 767.6 131.75 767.25 131.7 766.95 131.7 766.65 131.65 766.35 131.65 766.05 131.6 765.75 131.6 765.45 131.55 765.2 131.5 764.95 131.5 764.65 131.45 764.35 131.4 764.1 131.35 763.8 131.3 763.55 131.25 763.25 131.25 763 131.2 762.7 131.15 762.4 131.1 762.15 131.05 761.9 131 761.6 130.9 761.3 130.85 761.05 130.8 760.8 130.75 760.45 130.7 760.2 130.6 759.95 130.55 759.7 130.5 759.35 130.4 759.1 130.35 758.85 130.25 758.6 130.2 758.25 130.1 758 130.05 757.75 130 757.4 129.9 757.15 129.85 756.9 129.75 756.65 129.7 756.3 129.6 756.05 129.55 755.8 129.5 755.5 129.4 755.2 129.35 754.95 129.25 754.7 129.2 754.35 129.15 754.1 129.05 753.85 129 753.55 128.9 753.25 128.85 753 128.8 752.75 128.7 752.45 128.65 752.15 128.55 751.9 128.5 751.6 128.45 751.3 128.35 751.05 128.3 750.75 128.2 750.5 128.15 750.2 128.1 749.95 128 749.65 127.95 749.35 127.85 749.1 127.8 748.8 127.75 748.55 127.7 748.25 127.6 747.95 127.55 747.7 127.5 747.45 127.45 747.1 127.4 746.85 127.35 746.55 127.3 746.25 127.25 745.95 127.2 745.65 127.2 745.3 127.15 745.05 127.1 744.75 127.05 744.45 127 744.1 126.95 743.85 126.9 743.55 126.85 743.2 126.8 742.95 126.75 742.65 126.7 742.4 126.65 742.1 126.6 741.85 126.5 741.6 126.45 741.35 126.4 741.05 126.3 740.8 126.25 740.55 126.15 740.25 126.1 740 126 739.75 125.9 739.55 125.8 739.25 125.7 739.05 125.6 738.8 125.45 738.6 125.3 738.4 125.2 738.15 125.05 737.95 124.85 737.75 124.7 737.6 124.55 737.55 124.5 737.55 124.45
L 737.55 124.4
Q 737.5 124.2 737.5 124.05 737.55 123.8 737.65 123.55 737.7 123.3 737.75 123.05 737.85 122.8 737.9 122.55 738 122.35 738.05 122.1 738.15 121.85 738.25 121.6 738.4 121.35 738.5 121.1 738.6 120.85 738.75 120.6 738.85 120.35 738.95 120.1 739.05 119.85 739.15 119.65 739.25 119.4 739.45 119.15 739.55 118.9 739.65 118.65 739.75 118.4 739.85 118.15 739.95 117.9 740.1 117.65 740.2 117.4 740.35 117.15 740.45 116.9 740.55 116.65 740.65 116.4 740.75 116.15 740.85 115.9 740.95 115.65 741.05 115.35 741.15 115.1 741.2 114.85 741.35 114.6 741.45 114.35 741.55 114.1 741.6 113.85 741.7 113.55 741.8 113.3 741.85 113.05 741.95 112.8 742.05 112.5 742.1 112.25 742.15 112 742.25 111.7 742.3 111.45 742.4 111.2 742.45 110.9 742.5 110.65 742.55 110.35 742.6 110.1 742.65 109.85 742.65 109.55 742.7 109.3 742.75 109.05 742.75 108.8 742.8 108.5 742.85 108.25 742.85 108 742.9 107.7 742.9 107.45 742.95 107.2 742.95 106.9 743 106.65 743 106.4 743 106.1 743.05 105.85 743.05 105.55 743.05 105.25 743.1 105 743.1 104.7 743.1 104.4 743.1 104.15 743.15 103.85 743.15 103.6 743.15 103.3 743.15 103 743.15 102.75 743.15 102.45 743.2 102.15 743.2 101.9 743.2 101.6 743.2 101.3 743.2 101.05 743.2 100.75 743.2 100.45 743.2 100.2 743.25 99.9 743.25 99.6 743.25 99.35 743.25 99.05 743.25 98.8 743.25 98.5 743.25 98.2 743.25 97.9 743.3 97.6 743.3 97.35 743.3 97.05 743.4 96.75 743.4 96.45 743.4 96.15 743.45 95.85 743.45 95.55 743.5 95.25 743.55 95 743.55 94.7 743.6 94.45 743.6 94.15
L 743.6 94.1
Q 743.6 93.85 743.6 93.6 743.6 93.2 743.6 92.85 743.6 92.45 743.6 92.1 743.75 91.7 743.85 91.35 743.85 90.95 743.85 90.6 744 90.2 744.1 89.85 744.2 89.55 744.3 89.25 744.4 89.1 744.4 89 744.45 88.75 744.5 88.5 744.55 88.2 744.6 87.95 744.65 87.8 744.65 87.7 744.65 87.65 744.65 87.6 744.65 87.2 744.65 86.85 744.65 86.45 744.65 86.1 744.65 85.7 744.65 85.35 744.65 84.95 744.65 84.6 744.65 84.2 744.65 83.85 744.55 83.45 744.4 83.1 744.25 82.7 744.1 82.35 744 81.95 743.85 81.6 743.75 81.2 743.6 80.85 743.6 80.45 743.6 80.1 743.5 79.7 743.3 79.35 743.2 78.95 743.05 78.6 742.95 78.2 742.8 77.85 742.55 77.45 742.25 77.1 742 76.7 741.75 76.35 741.65 75.95 741.5 75.6 741.1 75.2 740.7 74.85 740.35 74.45 739.9 74.1 739.55 73.7 739.1 73.35 738.75 72.95 738.35 72.6 737.95 72.2 737.55 71.85 737.15 71.45 736.75 71.1 736.4 70.7 735.95 70.35 735.6 69.95 735.15 69.6 734.8 69.2 734.4 68.85 733.85 68.45 733.35 68.1 732.95 67.7 732.55 67.35 732 66.95 731.5 66.6 730.95 66.35 730.45 66.1 730.15 65.95 729.9 65.85 729.4 65.7 728.85 65.6 728.5 65.45 728.05 65.35 724.55 65.35 720.95 65.35 720.6 65.45 720.2 65.6 719.65 65.7 719.1 65.85 717.95 65.95 716.75 66.1 715.2 66.2 713.6 66.35 713.25 66.45 712.8 66.6 712.3 66.7 711.75 66.85 710.6 67.1 709.4 67.35 708.5 67.6 707.55 67.85 705.95 68.1 704.4 68.35 703.5 68.6 702.55 68.85 701.4 69.1 700.2 69.35 699.3 69.7 698.35 70.1 697.7 70.45 697.05 70.85 696.15 71.2 695.2 71.6 694.4 71.95 693.6 72.35 692.8 72.7 692.05 73.1 691.4 73.45 690.7 73.85 690.2 74.2 689.65 74.6 689.3 74.95 688.9 75.35 688.5 75.7 688.1 76.1 687.8 76.45 687.55 76.85 687.3 77.2 687.05 77.6 686.75 77.95 686.5 78.35 686.4 78.7 686.25 79.1 686 79.45 685.7 79.85 685.6 80.2 685.45 80.6 685.1 80.95 684.65 81.35 684.4 81.7 684.15 82.1 683.9 82.45 683.6 82.85 683.5 83.2 683.35 83.6 683.35 83.95 683.35 84.35 683.35 84.7 683.35 85.1 683.35 85.45 683.35 85.85 683.35 86.2 683.35 86.6 683.35 86.95 683.35 87.35 683.35 87.7 683.35 88.1 683.35 88.45 683.35 88.85 683.35 89.2 683.35 89.6 683.35 89.95 683.35 90.35 683.35 90.7 683.35 91.1 683.35 91.45 683.35 91.85 683.35 92.2 683.35 92.6 683.35 92.95 683.35 93.35 683.35 93.7 683.35 94.1 683.35 94.45 683.35 94.85 683.35 95.2 683.35 95.6 683.35 95.95 683.35 96.35 683.5 96.7 683.6 97.1 683.75 97.45 683.9 97.85 684.05 98.2 684.15 98.6 684.4 98.95 684.65 99.35 685.1 99.7 685.45 100.1 685.9 100.45 686.25 100.85 686.65 101.2 687.05 101.6 687.45 101.95 687.8 102.35 688.35 102.7 688.9 103.1 689.15 103.45 689.4 103.85 689.8 104.2 690.2 104.6 690.45 104.95 690.7 105.35 691 105.7 691.25 106.1 691.4 106.45 691.5 106.85 691.75 107.2 692.05 107.6 692.2 107.95 692.3 108.35 692.55 108.7 692.8 109.1 693 109.45 693.1 109.85 693.25 110.2 693.35 110.6 693.5 110.95 693.6 111.35 693.75 111.7 693.85 112.1 693.85 112.45 693.85 112.85 693.85 113.2 693.85 113.6 693.85 113.95 693.85 114.35 693.85 114.7 693.85 115.1 693.85 115.45 693.85 115.85 693.85 116.2 693.85 116.6 693.85 116.95 693.85 117.35 693.85 117.7 693.85 118.1 693.75 118.45 693.6 118.85 693.6 119.2 693.6 119.6 693.5 119.95 693.35 120.35 693.1 120.7 692.8 121.1 692.7 121.45 692.55 121.85 692.55 122.2 692.55 122.6 692.45 122.95 692.3 123.35 692.05 123.7 691.75 124.1 691.65 124.45 691.5 124.85 691.25 125.2 691 125.6 690.85 125.95 690.7 126.35 690.35 126.7 689.95 127.1 689.65 127.45 689.4 127.85 689.05 128.2 688.6 128.6 688.35 128.95 688.1 129.35 687.55 129.7 687.05 130.1 686.65 130.45 686.25 130.85 685.7 131.2 685.2 131.6 684.8 131.95 684.4 132.35 683.9 132.7 683.35 133.1 682.7 133.45 682.05 133.85 681.15 134.2 680.2 134.6 679.55 134.95 678.9 135.35 678.25 135.7 677.6 136.1 676.85 136.45 676.05 136.85 675.5 137.1 675 137.35 674.55 137.45 674.2 137.6 673.65 137.7 673.15 137.85 671.95 137.95 670.8 138.1 670.15 138 669.5 137.95 669.3 138.05 669.05 138.2 668.75 138.4 668.4 138.6 668.05 138.75 667.75 138.95 667.4 139.15 667.05 139.35 666.75 139.55 666.35 139.75 666.05 139.95 665.75 140.15 665.35 140.35 665.05 140.55 664.7 140.75 664.35 140.95 664 141.15 663.7 141.35 663.3 141.5 663 141.7 662.7 141.9 662.3 142.1 662 142.3 661.6 142.5 661.3 142.65 660.95 142.85 660.65 143.05 660.25 143.25 659.9 143.45 659.55 143.6 659.2 143.8 658.9 144 658.5 144.15 658.2 144.35 657.85 144.55 657.5 144.7 657.15 144.9 656.8 145.1 656.45 145.25 656.1 145.45 655.75 145.6 655.4 145.8 655.05 145.95 654.7 146.15 654.3 146.3 653.95 146.5 653.65 146.65 653.25 146.85 652.9 147 652.6 147.2 652.2 147.4 651.85 147.55 651.5 147.75 651.15 147.95 650.8 148.15 650.45 148.3 650.1 148.5 649.75 148.7 649.35 148.9 649.05 149.1 648.7 149.3 648.3 149.5 648 149.7 647.65 149.9 647.25 150.1 646.95 150.3 646.6 150.5 646.25 150.7 645.9 150.9 645.55 151.15 645.2 151.35 644.9 151.5 644.6 151.75 644.25 151.95 643.95 152.15 643.65 152.35 643.3 152.55 643.05 152.8 642.75 153 642.4 153.2 642.1 153.45 641.8 153.65 641.55 153.9 641.2 154.1 640.9 154.35 640.6 154.55 640.3 154.8 640 155 639.7 155.25 639.4 155.45 639.1 155.7 638.85 155.9 638.55 156.15 638.25 156.4 637.95 156.6 637.7 156.85 637.45 157.05 637.15 157.3 636.9 157.5 636.7 157.75 636.45 157.95 636.15 158.15 635.9 158.4 635.65 158.6 635.35 158.85 635.05 159.1 634.8 159.35 634.5 159.6 634.15 159.85 633.9 160.1 633.6 160.3 633.25 160.55 633 160.8 632.7 161.05 632.35 161.3 632.1 161.55 631.8 161.8 631.55 162.05 631.2 162.3 630.95 162.55 630.65 162.8 630.4 163.05 630.1 163.3 629.85 163.55 629.6 163.8 629.25 164.05 629 164.3 628.75 164.55 628.5 164.8 628.2 165.05 627.95 165.3 627.7 165.55 627.4 165.8 627.1 166.05 626.85 166.3 626.6 166.55 626.3 166.8 626 167.05 625.75 167.3 625.45 167.55 625.15 167.8 624.85 168.05 624.55 168.3 624.25 168.5 623.95 168.75 623.65 169 623.35 169.25 623.05 169.45 622.75 169.7 622.45 169.95 622.15 170.2 621.85 170.4 621.55 170.65 621.2 170.9 620.95 171.15 620.65 171.4 620.35 171.65 620 171.9 619.7 172.15 619.45 172.4 619.1 172.65 618.8 172.9 618.5 173.15 618.15 173.35 617.9 173.6 617.6 173.85 617.3 174.1 616.95 174.35 616.7 174.55 616.4 174.8 616.05 175 615.8 175.2 615.5 175.45 615.2 175.65 614.9 175.85 614.6 176.1 614.35 176.3 614 176.55 613.75 176.75 613.45 177 613.15 177.2 612.85 177.45 612.6 177.65 612.35 177.9 612 178.15 611.75 178.35 611.5 178.6 611.15 178.85 610.9 179.1 610.65 179.3 610.4 179.55 610.15 179.8 609.9 180.05 609.7 180.3 609.5 180.6 609.3 180.85 609.05 181.1 608.85 181.4 608.65 181.7 608.45 181.95 608.3 182.25 608.05 182.55 607.85 182.8 607.65 183.1 607.5 183.4 607.3 183.65 607.05 184 606.8 184.3 606.6 184.6 606.35 184.95 606.1 185.25 605.85 185.6 605.65 185.9 605.4 186.2 605.1 186.5 604.85 186.8 604.6 187.15 604.35 187.45 604.05 187.75 603.8 188.05 603.55 188.35 603.3 188.65 603 188.95 602.75 189.25 602.5 189.55 602.25 189.85 602 190.15 601.75 190.45 601.55 190.75 601.3 191 601 191.3 600.8 191.6 600.55 191.85 600.3 192.15 600.05 192.45 599.8 192.75 599.55 193 599.35 193.3 599.05 193.6 598.8 193.9 598.55 194.2 598.3 194.5 598 194.8 597.75 195.1 597.5 195.35 597.25 195.65 596.95 195.95 596.7 196.25 596.45 196.55 596.25 196.85 595.95 197.15 595.7 197.45 595.45 197.75 595.2 198.05 594.9 198.35 594.7 198.6 594.45 198.85 594.2 199.15 593.95 199.4 593.7 199.7 593.5 199.95 593.25 200.25 593 200.55 592.75 200.8 592.55 201.1 592.3 201.35 592.1 201.65 591.8 201.95 591.6 202.2 591.4 202.5 591.15 202.8 590.9 203.05 590.7 203.4 590.45 203.7 590.25 204 590.05 204.3 589.75 204.6 589.55 204.9 589.35 205.25 589.15 205.55 588.9 205.85 588.7 206.2 588.5 206.5 588.25 206.8 588.05 207.1 587.8 207.45 587.6 207.75 587.4 208.1 587.2 208.4 586.95 208.7 586.75 209.05 586.6 209.35 586.4 209.7 586.2 210 586.05 210.3 585.8 210.65 585.6 211 585.45 211.3 585.25 211.65 585.1 211.95 584.85 212.3 584.7 212.65 584.55 212.95 584.35 213.3 584.2 213.65 584 214 583.8 214.35 583.6 214.7 583.45 215.1 583.3 215.45 583.1 215.8 582.9 216.15 582.75 216.5 582.6 216.9 582.4 217.25 582.25 217.6 582.1 217.95 581.9 218.35 581.75 218.65 581.6 218.95 581.45 219.3 581.3 219.6 581.15 219.9 581 220.25 580.8 220.55 580.65 220.85 580.5 221.15 580.35 221.45 580.2 221.75 580.05 222.1 579.8 222.4 579.65 222.7 579.5 223 579.3 223.3 579.15 223.6 578.95 223.9 578.75 224.2 578.55 224.55 578.35 224.85 578.15 225.15 577.95 225.5 577.7 225.8 577.5 226.1 577.35 226.45 577.15 226.75 576.95 227.1 576.7 227.45 576.5 227.75 576.3 228.1 576.1 228.4 575.85 228.75 575.65 229.05 575.45 229.35 575.25 229.7 575 230 574.75 230.3 574.55 230.6 574.35 230.9 574.15 231.2 573.85 231.5 573.65 231.8 573.45 232.1 573.25 232.4 573 232.7 572.75 233 572.55 233.3 572.3 233.55 572.1 233.85 571.9 234.1 571.65 234.35 571.45 234.65 571.25 234.9 571 235.15 570.75 235.45 570.55 235.7 570.3 235.95 570.1 236.2 569.8 236.45 569.55 236.7 569.35 236.95 569.05 237.2 568.75 237.5 568.45 237.75 568.2 238 567.9 238.3 567.55 238.55 567.3 238.85 567 239.1 566.7 239.35 566.4 239.65 566.15 239.9 565.85 240.15 565.5 240.45 565.25 240.7 564.95 241 564.65 241.25 564.35 241.55 564.05 241.8 563.75 242.1 563.45 242.4 563.2 242.7 562.95 242.95 562.6 243.25 562.35 243.55 562.05 243.85 561.8 244.1 561.5 244.4 561.2 244.7 560.95 245 560.65 245.3 560.35 245.6 560.1 245.9 559.85 246.2 559.55 246.5 559.25 246.8 559 247.05 558.7 247.35 558.45 247.65 558.15 247.95 557.9 248.25 557.6 248.55 557.35 248.85 557.15 249.1 556.9 249.4 556.6 249.7 556.35 249.95 556.15 250.25 555.9 250.55 555.6 250.85 555.4 251.1 555.15 251.4 554.9 251.7 554.65 252 554.4 252.3 554.2 252.6 553.95 252.85 553.65 253.2 553.4 253.5 553.2 253.8 552.95 254.15 552.65 254.45 552.4 254.75 552.2 255.1 551.95 255.4 551.65 255.75 551.4 256.05 551.2 256.35 551 256.6 550.85 256.85 550.65 257.05 550.5 257.15 550.4 257.2 550.2 257.3 550.05 257.4 549.85 257.5 549.7 257.65 549.4 257.8 549.2 257.95 548.95 258.1 548.75 258.25 548.45 258.45 548.25 258.6 548 258.75 547.8 258.95 547.5 259.1 547.3 259.25 547.1 259.4 546.85 259.6 546.6 259.75 546.4 259.9 546.15 260.05 545.95 260.2 545.75 260.35 545.45 260.5 545.25 260.65 545.05 260.8 544.8 260.95 544.55 261.1 544.35 261.25 544.1 261.4 543.9 261.55 543.65 261.7 543.4 261.85 543.2 262 542.95 262.1 542.75 262.25 542.45 262.4 542.25 262.55 542.05 262.7 541.8 262.8 541.55 262.95 541.3 263.1 541.1 263.2 540.9 263.35 540.7 263.5 540.4 263.65 540.2 263.8 540 263.95 539.8 264.1 539.5 264.3 539.3 264.45 539.05 264.6 538.85 264.8 538.65 264.95 538.35 265.1 538.15 265.3 537.95 265.45 537.7 265.65 537.45 265.8 537.25 266 537.05 266.15 536.85 266.3 536.65 266.45 536.4 266.65 536.2 266.8 536 266.95 535.8 267.15 535.6 267.3 535.35 267.45 535.2 267.65 535 267.8 534.8 267.95 534.6 268.15 534.35 268.3 534.2 268.5 534 268.7 533.8 268.85 533.65 269.05 533.4 269.25 533.25 269.4 533.05 269.6 532.9 269.8 532.7 270.05 532.55 270.25 532.3 270.45 532.15 270.7 531.95 270.9 531.8 271.15 531.6 271.35 531.4 271.6 531.25 271.8 531.05 272.05 530.9 272.25 530.75 272.5 530.55 272.75 530.35 272.95 530.2 273.2 530.05 273.45 529.9 273.65 529.7 273.9 529.6 274.1 529.4 274.3 529.25 274.55 529.1 274.75 528.95 274.95 528.85 275.15 528.7 275.35 528.55 275.6 528.4 275.8 528.25 276 528.1 276.25 528 276.45 527.85 276.65 527.75 276.9 527.65 277.1 527.45 277.35 527.35 277.55 527.25 277.8 527.15 278.05 527 278.3 526.9 278.55 526.8 278.8 526.7 279.05 526.6 279.3 526.5 279.55 526.3 279.8 526.2 280.05 526.1 280.3 526.05 280.55 525.95 280.85 525.85 281.1 525.75 281.35 525.65 281.6 525.55 281.9 525.5 282.15 525.35 282.4 525.25 282.65 525.2 282.95 525.1 283.2 525.05 283.45 525 283.75 524.9 284 524.85 284.25 524.8 284.55 524.7 284.8 524.65 285.1 524.6 285.35 524.55 285.6 524.5 285.9 524.4 286.15 524.35 286.45 524.3 286.7 524.3 287 524.25 287.25 524.2 287.5 524.15 287.8 524.15 288.05 524.1 288.3 524.05 288.6 524.05 288.85 524 289.1 523.95 289.4 523.95 289.65 523.9 289.9 523.9 290.2 523.85 290.45 523.85 290.75 523.8 291 523.8 291.25 523.8 291.55 523.75 291.8 523.75 292.05 523.75 292.35 523.75 292.6 523.75 292.85 523.75 293.1 523.8 293.35 523.8 293.55 523.8 293.8 523.85 294.05 523.85 294.3 523.9 294.55 523.95 294.75 524 295 524.05 295.25 524.1 295.45 524.15 295.7 524.25 295.95 524.3 296.15 524.4 296.4 524.5 296.6 524.6 296.85 524.7 297.05 524.8 297.3 524.9 297.5 525 297.7 525.1 297.9 525.25 298.15 525.35 298.35 525.55 298.55 525.7 298.75 525.85 298.95 526 299.15 526.15 299.35 526.3 299.6 526.55 299.8 526.7 300 526.85 300.2 527.05 300.45 527.2 300.65 527.4 300.85 527.6 301.05 527.75 301.25 527.95 301.45 528.1 301.65 528.3 301.85 528.45 302.05 528.7 302.25 528.9 302.45 529.1 302.6 529.25 302.8 529.45 303 529.7 303.15 529.9 303.35 530.1 303.5 530.3 303.7 530.55 303.9 530.75 304.05 530.95 304.2 531.15 304.4 531.35 304.55 531.6 304.75 531.8 304.9 532 305.1 532.2 305.25 532.4 305.4 532.65 305.6 532.9 305.75 533.1 305.9 533.3 306.05 533.5 306.25 533.75 306.4 534 306.55 534.2 306.7 534.4 306.9 534.7 307.05 534.9 307.2 535.1 307.35 535.3 307.5 535.6 307.65 535.8 307.85 536 308 536.25 308.15 536.45 308.3 536.75 308.45 536.95 308.65 537.2 308.8 537.4 308.95 537.7 309.1 537.95 309.25 538.15 309.4 538.4 309.55 538.7 309.7 538.9 309.85 539.15 310 539.4 310.15 539.65 310.3 539.9 310.45 540.15 310.55 540.4 310.7 540.65 310.85 540.9 311 541.15 311.1 541.4 311.25 541.7 311.4 541.95 311.5 542.15 311.65 542.4 311.75 542.7 311.9 542.95 312 543.2 312.15 543.45 312.25 543.75 312.4 544 312.5 544.25 312.6 544.5 312.7 544.8 312.85 545.05 312.95 545.3 313.05 545.55 313.15 545.85 313.3 546.1 313.4 546.35 313.5 546.6 313.6 546.95 313.7 547.2 313.8 547.45 313.9 547.75 314 548 314.1 548.25 314.2 548.5 314.3 548.8 314.4 549.1 314.45 549.35 314.55 549.6 314.65 549.9 314.7 550.15 314.8 550.4 314.85 550.65 314.95 550.95 315 551.2 315.05 551.45 315.1 551.75 315.2 552 315.25 552.25 315.3 552.5 315.35 552.8 315.4 553.1 315.45 553.35 315.5 553.6 315.5 553.9 315.55 554.15 315.6 554.45 315.65 554.75 315.65 555.05 315.7 555.35 315.75 555.6 315.75 555.95 315.8 556.25 315.85 556.5 315.85 556.85 315.9 557.15 315.9 557.45 315.95 557.7 315.95 558.05 316 558.35 316 558.6 316 558.95 316.05 559.25 316.05 559.5 316.1 559.85 316.1 560.15 316.1 560.4 316.1 560.7 316.15 561.05 316.15 561.35 316.15 561.6 316.15 561.95 316.2 562.25 316.2 562.5 316.2 562.85 316.2 563.15 316.2 563.4 316.2 563.7 316.25 564.05 316.25 564.35 316.25 564.6 316.25 564.95 316.25 565.25 316.25 565.55 316.25 565.9 316.25 566.2 316.25 566.5 316.25 566.85 316.3 567.1 316.3 567.4 316.3 567.7 316.3 568.05 316.3 568.35 316.3 568.65 316.3 569 316.3 569.3 316.3 569.6 316.3 569.95 316.3 570.25 316.3 570.55 316.3 570.8 316.3 571.15 316.3 571.45 316.3 571.75 316.3 572.1 316.3 572.4 316.3 572.7 316.3 573.05 316.35 573.35 316.35 573.65 316.35 574 316.35 574.3 316.35 574.6 316.35 574.85 316.35 575.15 316.35 575.4 316.35 575.7 316.35 576 316.35 576.25 316.35 576.5 316.35 576.75 316.35 577.05 316.35 577.3 316.35 577.55 316.35 577.8 316.35 578.1 316.35 578.4 316.35 578.65 316.35 579 316.35 579.3 316.35 579.6 316.35 579.85 316.35 580.2 316.35 580.5 316.3 580.75 316.3 581.1 316.3 581.4 316.3 581.7 316.3 582 316.3 582.3 316.25 582.6 316.25 582.9 316.25 583.2 316.2 583.5 316.2 583.8 316.2 584.15 316.15 584.4 316.15 584.7 316.1 585 316.1 585.3 316.05 585.55 316 585.8 316 586.1 315.95 586.4 315.9 586.65 315.85 586.9 315.8 587.2 315.75 587.5 315.75 587.75 315.7 588.05 315.6 588.3 315.55 588.55 315.5 588.85 315.45 589.15 315.4 589.4 315.35 589.65 315.25 589.9 315.2 590.2 315.15 590.5 315.05 590.75 314.95 591.1 314.9 591.35 314.8 591.6 314.75 591.9 314.65 592.2 314.6 592.5 314.5 592.75 314.4 593 314.3 593.35 314.25 593.6 314.15 593.85 314.05 594.2 313.95 594.45 313.85 594.7 313.75 594.95 313.65 595.25 313.55 595.5 313.45 595.75 313.35 596 313.25 596.3 313.15 596.55 313.05 596.8 312.95 597.05 312.85 597.35 312.7 597.6 312.6 597.85 312.5 598.15 312.4 598.4 312.25 598.65 312.15 598.9 312 599.15 311.9 599.4 311.75 599.65 311.6 599.85 311.5 600.15 311.35 600.35 311.2 600.55 311.1 600.75 310.95 600.95 310.8 601.25 310.65 601.45 310.55 601.65 310.4 601.85 310.25 602.05 310.1 602.3 309.95 602.5 309.8 602.7 309.65 602.9 309.5 603.1 309.35 603.35 309.2 603.55 309.05 603.75 308.9 603.95 308.7 604.1 308.55 604.35 308.4 604.55 308.2 604.75 308 604.9 307.85 605.1 307.65 605.35 307.5 605.5 307.3 605.7 307.1 605.9 306.9 606.05 306.75 606.3 306.55 606.45 306.35 606.65 306.15 606.8 305.95 606.95 305.75 607.2 305.55 607.35 305.4 607.5 305.2 607.7 304.95 607.85 304.75 608 304.55 608.2 304.35 608.35 304.15 608.5 303.95 608.65 303.75 608.8 303.55 608.95 303.3 609.1 303.1 609.3 302.9 609.45 302.7 609.6 302.45 609.75 302.25 609.85 302 610 301.8 610.15 301.6 610.3 301.35 610.45 301.15 610.6 300.9 610.7 300.7 610.85 300.45 610.95 300.25 611.1 300 611.25 299.75 611.4 299.55 611.5 299.3 611.65 299.05 611.75 298.85 611.85 298.6 612 298.35 612.1 298.15 612.25 297.9 612.4 297.65 612.5 297.45 612.6 297.2 612.7 296.95 612.8 296.7 612.9 296.45 613 296.2 613.1 295.95 613.25 295.7 613.35 295.45 613.45 295.25 613.55 295 613.65 294.75 613.75 294.5 613.85 294.25 613.95 294 614 293.75 614.1 293.45 614.25 293.2 614.35 292.95 614.45 292.7 614.5 292.45 614.6 292.2 614.7 291.95 614.8 291.7 614.9 291.45 614.95 291.2 615.05 290.9 615.15 290.65 615.3 290.35 615.4 290.1 615.45 289.85 615.55 289.55 615.65 289.3 615.7 289 615.8 288.75 615.85 288.45 615.9 288.2 616 287.9 616.05 287.65 616.1 287.35 616.15 287.1 616.2 286.8 616.3 286.55 616.3 286.25 616.35 286 616.4 285.7 616.4 285.4 616.4 285.15 616.4 284.85 616.45 284.6 616.4 284.3 616.4 284.05 616.35 283.8 616.35 283.6 616.3 283.35 616.3 283.15 616.2 282.9 616.15 282.7 616.15 282.4 616.1 282.15 616.05 281.85 616 281.6 615.95 281.3 615.85 281.05 615.8 280.75 615.75 280.5 615.65 280.25 615.55 279.95 615.5 279.7 615.4 279.45 615.3 279.2 615.2 278.95 615.1 278.7 615 278.45 614.9 278.2 614.8 277.9 614.7 277.65 614.65 277.4 614.55 277.15 614.45 276.9 614.3 276.65 614.15 276.4 614.05 276.15 613.95 275.95 613.85 275.7 613.75 275.45 613.65 275.2 613.5 274.95 613.4 274.7 613.3 274.45 613.1 274.2 613 273.95 612.85 273.75 612.75 273.5 612.6 273.25 612.5 273 612.35 272.8 612.25 272.55 612.05 272.3 611.95 272.1 611.8 271.85 611.65 271.6 611.5 271.4 611.4 271.15 611.25 270.9 611.05 270.7 610.9 270.45 610.75 270.25 610.6 270 610.45 269.8 610.3 269.55 610.1 269.35 609.95 269.1 609.8 268.9 609.65 268.7 609.5 268.45 609.35 268.25 609.15 268.05 609 267.8 608.8 267.6 608.65 267.4 608.5 267.15 608.35 266.95 608.1 266.75 607.95 266.55 607.8 266.35 607.6 266.1 607.45 265.9 607.25 265.7 607.05 265.5 606.85 265.3 606.7 265.1 606.5 264.9 606.35 264.7 606.1 264.5 605.95 264.3 605.8 264.15 605.7 264 605.8 263.8 605.9 263.65 606.1 263.35 606.3 263.1 606.5 262.8 606.7 262.55 606.95 262.2 607.25 261.9 607.5 261.6 607.7 261.25 607.95 260.95 608.25 260.65 608.5 260.3 608.75 260 608.95 259.7 609.25 259.35 609.5 259.05 609.7 258.75 609.95 258.4 610.25 258.1 610.5 257.8 610.7 257.45 610.95 257.15 611.25 256.85 611.45 256.5 611.7 256.2 611.95 255.85 612.15 255.55 612.45 255.25 612.7 254.9 612.9 254.6 613.15 254.25 613.45 253.95 613.65 253.65 613.9 253.3 614.15 253 614.4 252.65 614.65 252.35 614.85 252 615.1 251.7 615.4 251.4 615.6 251.05 615.85 250.75 616.05 250.4 616.35 250.1 616.55 249.75 616.8 249.45 617.05 249.1 617.3 248.8 617.55 248.45 617.75 248.15 618 247.8 618.2 247.5 618.5 247.15 618.7 246.85 618.95 246.5 619.15 246.2 619.4 245.95 619.6 245.65 619.8 245.35 620 245.05 620.2 244.8 620.45 244.5 620.65 244.2 620.85 243.9 621.1 243.65 621.35 243.35 621.55 243.05 621.75 242.75 621.95 242.5 622.15 242.2 622.35 241.95 622.55 241.65 622.75 241.35 622.9 241.1 623.1 240.8 623.25 240.5 623.5 240.2 623.65 239.9 623.85 239.65 624 239.35 624.2 239.05 624.4 238.75 624.6 238.5 624.8 238.15 624.95 237.85 625.15 237.55 625.4 237.25 625.6 236.9 625.75 236.6 625.95 236.3 626.15 235.95 626.3 235.65 626.55 235.35 626.75 235 626.9 234.7 627.1 234.4 627.3 234.05 627.5 233.8 627.7 233.5 627.85 233.25 628.05 232.95 628.2 232.7 628.45 232.4 628.65 232.15 628.8 231.9 629 231.6 629.2 231.35 629.45 231.05 629.65 230.8 629.85 230.5 630.1 230.2 630.4 229.9 630.65 229.6 630.85 229.3 631.1 229 631.4 228.7 631.65 228.4 631.9 228.1 632.15 227.8 632.45 227.55 632.65 227.25 632.9 226.95 633.15 226.65 633.45 226.35 633.7 226.05 633.95 225.8 634.2 225.5 634.5 225.2 634.75 224.9 635 224.6 635.25 224.35 635.6 224.05 635.85 223.75 636.1 223.5 636.35 223.2 636.65 222.9 636.9 222.65 637.15 222.35 637.45 222.1 637.7 221.8 637.95 221.55 638.25 221.3 638.55 221 638.8 220.75 639.05 220.5 639.35 220.25 639.65 220 639.95 219.7 640.2 219.45 640.55 219.2 640.85 218.95 641.15 218.7 641.5 218.4 641.8 218.15 642.1 217.9 642.4 217.65 642.75 217.4 643.05 217.15 643.35 216.9 643.7 216.65 644 216.35 644.3 216.15 644.65 215.9 645 215.65 645.3 215.45 645.65 215.2 645.95 214.95 646.3 214.75 646.65 214.5 646.95 214.25 647.3 214 647.65 213.8 647.95 213.55 648.25 213.3 648.6 213.05 648.95 212.8 649.25 212.55 649.6 212.3 649.9 212.1 650.2 211.85 650.5 211.6 650.85 211.35 651.1 211.1 651.4 210.85 651.75 210.6 652 210.35 652.3 210.1 652.6 209.85 652.9 209.6 653.15 209.3 653.45 209.05 653.75 208.8 654 208.55 654.3 208.25 654.6 208 654.85 207.75 655.1 207.45 655.4 207.2 655.7 206.9 655.95 206.65 656.2 206.4 656.45 206.1 656.75 205.8 657 205.55 657.25 205.25 657.5 205 657.8 204.7 658.05 204.4 658.3 204.15 658.55 203.85 658.85 203.55 659.1 203.25 659.35 203 659.25 203.3 659.2 203.65 659.15 204 659.1 204.35 659 204.75 658.95 205.1 658.9 205.5 658.85 205.85 658.8 206.25 658.75 206.65 658.7 207 658.7 207.4 658.65 207.8 658.55 208.15 658.55 208.55 658.5 208.95 658.45 209.3 658.45 209.7 658.4 210.1 658.4 210.5 658.4 210.85 658.35 211.25 658.35 211.65 658.35 212 658.3 212.4 658.3 212.8 658.3 213.2 658.3 213.55 658.25 213.95 658.25 214.35 658.25 214.7 658.25 215.1 658.25 215.5 658.25 215.85 658.25 216.25 658.2 216.65 658.2 217 658.2 217.4 658.2 217.8 658.2 218.15 658.15 218.55 658.15 218.95 658.1 219.3 658.1 219.7 658.05 220.05 658.05 220.45 658 220.85 658 221.2 657.95 221.6 657.9 221.95 657.9 222.35 657.85 222.75 657.8 223.1 657.8 223.5 657.75 223.85 657.7 224.25 657.7 224.65 657.65 225 657.55 225.4 657.55 225.75 657.5 226.15 657.5 226.55 657.45 226.9 657.4 227.3 657.4 227.65 657.4 228.05 657.35 228.45 657.35 228.8 657.35 229.2 657.3 229.55 657.3 229.9 657.3 230.3 657.3 230.65 657.25 231 657.25 231.4 657.25 231.75 657.25 232.15 657.25 232.5 657.2 232.85 657.2 233.25 657.2 233.6 657.2 234 657.2 234.35 657.15 234.7 657.15 235.1 657.15 235.5 657.1 235.9 657.1 236.25 657.05 236.65 657.05 237.05 657 237.45 657 237.8 656.95 238.2 656.9 238.6 656.85 239 656.8 239.35 656.8 239.75 656.75 240.15 656.7 240.5 656.65 240.9 656.55 241.25 656.45 241.65 656.4 242.05 656.35 242.4 656.3 242.8 656.25 243.15 656.2 243.55 656.15 243.95 656.1 244.3 656.05 244.7 655.95 245.05 655.9 245.45 655.85 245.8 655.8 246.2 655.75 246.6 655.65 246.95 655.55 247.35 655.5 247.7 655.4 248.1 655.35 248.45 655.3 248.85 655.2 249.25 655.15 249.65 655.1 250.05 655 250.45 654.95 250.85 654.9 251.25 654.8 251.65 654.75 252.05 654.65 252.45 654.6 252.75 654.45 253.1 654.4 253.45 654.3 253.75 654.25 254.1 654.15 254.45 654.1 254.75 654 255.1 653.95 255.45 653.85 255.75 653.8 256.1 653.7 256.45 653.6 256.8 653.45 257.2 653.4 257.55 653.3 257.95 653.2 258.3 653.1 258.7 653 259.05 652.9 259.4 652.85 259.8 652.75 260.15 652.65 260.55 652.5 260.9 652.4 261.25 652.3 261.55 652.2 261.9 652.15 262.25 652.05 262.55 651.95 262.9 651.85 263.25 651.75 263.55 651.65 263.9 651.5 264.25 651.45 264.55 651.35 264.9 651.25 265.25 651.15 265.65 651.1 266.05 651 266.4 650.95 266.8 650.85 267.2 650.8 267.55 650.75 267.95 650.65 268.35 650.6 268.7 650.5 269.1 650.45 269.5 650.4 269.85 650.35 270.25 650.3 270.65 650.3 271 650.25 271.4 650.2 271.8 650.15 272.2 650.1 272.55 650.1 272.95 650.05 273.35 650 273.6 649.95 273.9 649.9 274.15 649.85 274.45 649.8 274.7 649.75 274.95 649.65 275.25 649.5 275.5 649.4 275.8 649.35 276.05 649.25 276.35 649.15 276.65 649 276.95 648.85 277.3 648.7 277.65 648.55 278 648.35 278.35 648.2 278.7 648.05 279.05 647.9 279.35 647.75 279.7 647.55 280.05 647.35 280.4 647.2 280.75 647.05 281.05 646.85 281.4 646.7 281.75 646.55 282.05 646.3 282.4 646.15 282.75 645.95 283.05 645.8 283.35 645.65 283.7 645.4 284 645.25 284.35 645.05 284.65 644.9 284.95 644.75 285.3 644.55 285.6 644.35 285.95 644.15 286.25 644 286.55 643.8 286.9 643.65 287.2 643.4 287.5 643.25 287.85 643.05 288.15 642.85 288.45 642.7 288.75 642.5 289.1 642.25 289.4 642.05 289.7 641.9 290.05 641.7 290.35 641.5 290.65 641.25 291 641.05 291.3 640.85 291.6 640.7 291.95 640.5 292.25 640.25 292.55 640.05 292.85 639.85 293.2 639.65 293.5 639.4 293.8 639.25 294.15 639.05 294.45 638.85 294.75 638.65 295.1 638.4 295.4 638.2 295.75 638 296.05 637.8 296.4 637.6 296.7 637.35 297.05 637.15 297.35 636.95 297.7 636.75 298 636.55 298.35 636.3 298.65 636.1 299 635.9 299.3 635.7 299.65 635.5 299.95 635.25 300.3 635.05 300.6 634.85 300.95 634.65 301.3 634.45 301.6 634.25 301.95 634.05 302.3 633.85 302.6 633.7 302.95 633.5 303.25 633.3 303.6 633.1 303.9 632.9 304.25 632.75 304.6 632.55 304.9 632.35 305.25 632.15 305.55 631.95 305.9 631.8 306.2 631.6 306.55 631.4 306.85 631.2 307.2 631 307.55 630.8 307.9 630.6 308.25 630.4 308.6 630.15 308.95 629.9 309.3 629.7 309.65 629.5 309.95 629.25 310.3 629.05 310.65 628.85 311 628.65 311.35 628.45 311.7 628.2 312.05 628 312.4 627.8 312.75 627.6 313.1 627.45 313.45 627.2 313.8 627 314.15 626.8 314.5 626.6 314.8 626.4 315.15 626.15 315.5 625.95 315.85 625.7 316.2 625.5 316.5 625.25 316.85 625.05 317.2 624.85 317.55 624.6 317.85 624.4 318.2 624.15 318.55 623.9 318.85 623.7 319.2 623.5 319.55 623.2 319.85 623 320.2 622.8 320.55 622.55 320.85 622.35 321.2 622.1 321.55 621.85 321.85 621.65 322.2 621.45 322.55 621.15 322.85 620.95 323.2 620.75 323.55 620.55 323.9 620.35 324.2 620.1 324.55 619.85 324.9 619.65 325.2 619.45 325.55 619.2 325.9 619 326.2 618.8 326.55 618.6 326.9 618.4 327.25 618.15 327.6 617.95 327.9 617.75 328.25 617.6 328.6 617.4 328.95 617.15 329.3 616.95 329.65 616.75 330 616.55 330.35 616.4 330.7 616.15 331.05 615.95 331.4 615.75 331.75 615.6 332.1 615.4 332.45 615.15 332.8 614.95 333.15 614.75 333.5 614.6 333.85 614.4 334.2 614.15 334.55 613.95 334.85 613.8 335.2 613.6 335.5 613.4 335.85 613.25 336.15 613 336.5 612.85 336.8 612.65 337.15 612.45 337.45 612.3 337.8 612.05 338.1 611.85 338.45 611.65 338.75 611.5 339.1 611.3 339.4 611.05 339.75 610.85 340.05 610.7 340.4 610.5 340.7 610.3 341.05 610.05 341.35 609.9 341.65 609.7 342 609.5 342.3 609.3 342.65 609.05 342.95 608.85 343.25 608.65 343.6 608.45 343.9 608.25 344.2 608 344.55 607.8 344.85 607.6 345.15 607.4 345.5 607.1 345.8 606.85 346.15 606.6 346.45 606.35 346.8 606.1 347.1 605.85 347.4 605.6 347.7 605.35 348 605.05 348.25 604.8 348.55 604.55 348.85 604.3 349.15 604 349.4 603.75 349.65 603.5 349.9 603.25 350.15 602.95 350.45 602.75 350.7 602.5 350.95 602.25 351.2 601.9 351.5 601.65 351.75 601.4 352.05 601.05 352.35 600.8 352.6 600.55 352.9 600.25 353.2 599.95 353.45 599.65 353.75 599.4 354.05 599.15 354.3 598.8 354.6 598.55 354.9 598.3 355.2 598 355.45 597.7 355.75 597.45 356.05 597.2 356.35 596.9 356.6 596.6 356.9 596.35 357.2 596.1 357.45 595.8 357.75 595.5 358.05 595.25 358.3 594.95 358.6 594.7 358.9 594.45 359.2 594.15 359.45 593.85 359.75 593.6 360.05 593.35 360.3 593.1 360.6 592.75 360.9 592.5 361.2 592.25 361.45 591.95 361.75 591.7 362.05 591.45 362.35 591.2 362.65 590.85 362.9 590.6 363.2 590.35 363.5 590.1 363.8 589.8 364.1 589.55 364.4 589.3 364.7 589.05 365 588.8 365.3 588.55 365.6 588.3 365.85 588.05 366.15 587.8 366.45 587.55 366.75 587.35 367 587.1 367.3 586.85 367.6 586.65 367.9 586.4 368.2 586.2 368.5 585.95 368.8 585.75 369.1 585.55 369.4 585.35 369.7 585.15 370.05 584.9 370.35 584.7 370.65 584.5 370.95 584.35 371.3 584.15 371.6 583.9 371.95 583.75 372.3 583.55 372.6 583.4 372.95 583.25 373.3 583.05 373.65 582.85 374 582.7 374.35 582.55 374.7 582.4 375 582.25 375.35 582.1 375.7 582 376.1 581.8 376.45 581.65 376.8 581.55 377.15 581.4 377.5 581.3 377.85 581.15 378.2 581.05 378.6 580.85 378.95 580.75 379.3 580.65 379.7 580.5 380.05 580.4 380.4 580.3 380.75 580.15 381.15 580.05 381.5 579.85 381.85 579.75 382.25 579.65 382.6 579.5 382.95 579.4 383.3 579.3 383.7 579.15 384.05 579.05 384.4 578.85 384.8 578.75 385.15 578.65 385.5 578.5 385.85 578.35 386.25 578.25 386.6 578.1 386.95 578 387.3 577.8 387.65 577.65 388 577.55 388.3 577.45 388.55 577.3 388.85 577.2 389.1 577.05 389.35 576.85 389.6 576.7 389.85 576.6 390.1 576.35 390.4 576.1 390.65 575.8 390.9 575.55 391.15 575.3 391.4 575.05 391.6 574.7 391.85 574.45 392.1 574.2 392.25 574 392.45 573.7 392.65 573.45 392.8 573.15 393 572.8 393.25 572.45 393.45 572.15 393.7 571.8 393.9 571.5 394.1 571.15 394.3 570.8 394.55 570.5 394.75 570.15 394.95 569.8 395.15 569.5 395.4 569.15 395.6 568.8 395.8 568.5 396 568.15 396.2 567.8 396.4 567.45 396.6 567.15 396.85 566.85 397.05 566.45 397.25 566.15 397.45 565.75 397.65 565.45 397.85 565.1 398.05 564.75 398.2 564.4 398.4 564.1 398.6 563.7 398.8 563.4 399 563.05 399.2 562.7 399.4 562.35 399.55 562.05 399.75 561.65 399.95 561.35 400.15 561 400.35 560.65 400.55 560.3 400.7 560 400.9 559.6 401.1 559.3 401.3 558.95 401.5 558.6 401.7 558.3 401.9 557.95 402.05 557.6 402.25 557.25 402.45 556.95 402.65 556.55 402.85 556.25 403.05 555.9 403.25 555.55 403.4 555.25 403.6 554.9 403.8 554.55 404 554.2 404.2 553.9 404.4 553.5 404.55 553.2 404.75 552.85 404.95 552.5 405.15 552.15 405.3 551.85 405.5 551.45 405.7 551.15 405.85 550.85 406.05 550.45 406.2 550.15 406.4 549.85 406.6 549.5 406.8 549.15 406.95 548.85 407.15 548.5 407.35 548.2 407.6 547.9 407.8 547.6 408 547.3 408.25 547 408.45 546.75 408.7 546.4 408.95 546.15 409.2 545.9 409.45 545.6 409.65 545.35 409.95 545.1 410.2 544.9 410.45 544.6 410.7 544.4 411 544.15 411.25 543.95 411.55 543.75 411.8 543.5 412.1 543.3 412.4 543.1 412.65 542.9 412.95 542.7 413.25 542.5 413.55 542.3 413.85 542.1 414.15 541.95 414.45 541.75 414.75 541.55 415.05 541.4 415.35 541.25 415.7 541.05 416 540.9 416.3 540.75 416.65 540.5 417 540.35 417.35 540.2 417.65 540 418 539.85 418.35 539.7 418.7 539.5 419.05 539.35 419.35 539.2 419.7 539.05 420.05 538.9 420.4 538.75 420.75 538.65 421.1 538.45 421.45 538.3 421.8 538.15 422.15 538.05 422.5 537.9 422.85 537.8 423.2 537.65 423.6 537.5 423.95 537.4 424.3 537.3 424.65 537.15 425 537.05 425.35 536.95 425.75 536.85 426.1 536.75 426.45 536.7 426.8 536.6 427.2 536.45 427.55 536.35 427.9 536.3 428.3 536.2 428.65 536.15 429.05 536.05 429.4 536 429.8 535.95 430.15 535.9 430.55 535.85 430.9 535.8 431.3 535.7 431.65 535.7 432.05 535.65 432.4 535.6 432.8 535.5 433.15 535.45 433.55 535.45 433.95 535.4 434.3 535.4 434.7 535.35 435.05 535.35 435.4 535.35 435.75 535.35 436.1 535.4 436.45 535.45 436.8 535.45 437.15 535.5 437.5 535.65 437.8 535.7 438.15 535.75 438.5 535.85 438.85 535.95 439.2 536.05 439.5 536.15 439.85 536.25 440.2 536.4 440.5 536.5 440.85 536.7 441.15 536.8 441.5 536.95 441.8 537.1 442.15 537.3 442.45 537.45 442.75 537.65 443.05 537.8 443.4 538 443.7 538.15 444 538.35 444.3 538.6 444.6 538.8 444.9 539 445.15 539.2 445.45 539.35 445.75 539.65 446 539.85 446.3 540.05 446.6 540.3 446.9 540.5 447.15 540.8 447.45 541.05 447.7 541.25 448 541.5 448.25 541.8 448.5 542.05 448.8 542.3 449.05 542.55 449.3 542.85 449.55 543.1 449.8 543.35 450.05 543.7 450.3 543.95 450.55 544.25 450.8 544.55 451 544.85 451.25 545.15 451.5 545.45 451.75 545.8 451.95 546.1 452.2 546.4 452.4 546.8 452.6 547.1 452.85 547.4 453.05 547.75 453.25 548.1 453.45 548.4 453.7 548.75 453.9 549.1 454.1 549.4 454.3 549.75 454.5 550.1 454.7 550.4 454.9 550.75 455.1 551.05 455.3 551.4 455.5 551.75 455.7 552.05 455.9 552.4 456.1 552.75 456.25 553.1 456.45 553.4 456.65 553.8 456.85 554.1 457 554.45 457.2 554.8 457.35 555.1 457.55 555.45 457.7 555.8 457.85 556.1 458.05 556.45 458.2 556.8 458.35 557.1 458.5 557.45 458.65 557.8 458.8 558.15 458.95 558.45 459.1 558.85 459.25 559.15 459.4 559.5 459.55 559.85 459.7 560.2 459.85 560.5 460 560.9 460.1 561.2 460.25 561.55 460.35 561.95 460.45 562.25 460.55 562.6 460.65 563 460.75 563.35 460.85 563.7 460.95 564.05 461.05 564.4 461.1 564.75 461.2 565.15 461.25 565.5 461.3 565.9 461.35 566.25 461.4 566.6 461.5 567.05 461.55 567.4 461.6 567.8 461.65 568.2 461.7 568.6 461.75 569 461.75 569.4 461.8 569.75 461.85 570.2 461.9 570.55 461.95 571 461.95 571.35 462 571.75 462 572.15 462.05 572.55 462.05 572.95 462.1 573.35 462.1 573.75 462.1 574.15 462.1 574.55 462.15 575 462.15 575.4 462.15 575.75 462.15 576.2 462.2 576.6 462.2 577.05 462.2 577.4 462.2 577.8 462.2 578.25 462.2 578.65 462.2 579.1 462.25 579.45 462.25 579.85 462.25 580.3 462.25 580.7 462.25 581.1 462.25 581.5 462.25 581.9 462.25 582.35 462.25 582.7 462.25 583.15 462.25 583.55 462.25 584 462.25 584.35 462.25 584.75 462.3 585.2 462.3 585.6 462.3 585.95 462.3 586.4 462.3 586.75 462.3 587.15 462.3 587.5 462.3 587.9 462.3 588.3 462.3 588.65 462.3 589.05 462.3 589.4 462.3 589.8 462.3 590.2 462.3 590.6 462.3 591 462.3 591.4 462.25 591.8 462.25 592.2 462.2 592.6 462.2 593 462.15 593.4 462.1 593.8 462.1 594.25 462.05 594.6 462 595 462 595.45 461.95 595.8 461.9 596.25 461.9 596.65 461.85 597 461.8 597.45 461.75 597.85 461.7 598.25 461.65 598.65 461.6 599.05 461.6 599.45 461.55 599.85 461.5 600.25 461.4 600.65 461.35 601 461.3 601.45 461.25 601.85 461.2 602.25 461.15 602.65 461.1 603 461.05 603.45 461 603.8 460.95 604.25 460.85 604.6 460.8 605 460.75 605.4 460.65 605.8 460.6 606.2 460.5 606.55 460.45 606.9 460.4 607.35 460.3 607.7 460.25 608.05 460.15 608.45 460.05 608.8 460 609.15 459.9 609.55 459.8 609.9 459.75 610.3 459.65 610.65 459.55 611 459.5 611.4 459.4 611.75 459.3 612.1 459.2 612.55 459.1 612.9 459.05 613.35 458.95 613.7 458.85 614.1 458.75 614.5 458.65 614.9 458.6 615.3 458.5 615.7 458.4 616.1 458.35 616.5 458.25 616.9 458.2 617.3 458.1 617.7 458.05 618.1 457.95 618.5 457.9 618.85 457.85 619.3 457.75 619.65 457.7 620 457.65 620.4 457.55 620.75 457.45 621.1 457.35 621.5 457.3 621.85 457.2 622.2 457.1 622.6 456.95 622.95 456.85 623.35 456.75 623.7 456.6 624.05 456.5 624.4 456.35 624.75 456.2 625.1 456.1 625.5 455.95 625.85 455.8 626.2 455.65 626.6 455.5 626.95 455.35 627.3 455.2 627.7 455.05 628 454.85 628.4 454.7 628.75 454.5 629.05 454.35 629.4 454.15 629.7 454 630 453.8 630.25 453.6 630.6 453.4 630.9 453.2 631.2 453.05 631.5 452.85 631.8 452.65 632.1 452.45 632.45 452.25 632.7 452 633 451.8 633.3 451.6 633.65 451.4 633.95 451.2 634.25 451 634.6 450.75 634.85 450.55 635.15 450.35 635.5 450.1 635.75 449.9 636.05 449.65 636.35 449.45 636.65 449.2 636.95 449 637.2 448.75 637.5 448.5 637.8 448.25 638 448.05 638.25 447.8 638.5 447.6 638.7 447.4 638.95 447.15 639.15 446.95 639.35 446.7 639.65 446.5 639.85 446.25 640.05 446 640.25 445.75 640.5 445.5 640.7 445.2 640.9 444.95 641.1 444.7 641.3 444.4 641.55 444.15 641.75 443.85 641.95 443.6 642.15 443.3 642.3 443.05 642.55 442.75 642.7 442.45 642.9 442.2 643.05 441.9 643.2 441.6 643.4 441.25 643.6 440.9 643.8 440.6 643.95 440.25 644.15 439.9 644.3 439.55 644.45 439.2 644.7 438.9 644.85 438.55 645 438.2 645.15 437.85 645.3 437.5 645.45 437.15 645.65 436.8 645.8 436.45 645.95 436.1 646.05 435.75 646.2 435.4 646.35 435.05 646.45 434.7 646.6 434.35 646.75 434 646.85 433.65 646.95 433.3 647 432.9 647.1 432.55 647.2 432.2 647.25 431.85 647.35 431.45 647.4 431.1 647.55 430.75 647.6 430.4 647.65 430 647.7 429.65 647.75 429.25 647.8 428.9 647.85 428.5 647.9 428.1 647.95 427.75 648 427.35 648.05 426.95 648.1 426.55 648.15 426.2 648.15 425.8 648.2 425.45 648.25 425.1 648.25 424.75 648.3 424.4 648.35 424.05 648.35 423.7 648.35 423.35 648.4 423 648.4 422.65 648.4 422.25 648.35 421.9 648.35 421.55 648.35 421.2 648.35 420.85 648.3 420.45 648.25 420.1 648.2 419.8 648.2 419.5 648.1 419.2 648.05 418.9 648 418.6 647.95 418.3 647.9 418 647.85 417.7 647.75 417.35 647.65 417 647.55 416.65 647.4 416.3 647.3 415.95 647.15 415.6 647.05 415.25 646.9 414.9 646.8 414.5 646.65 414.15 646.55 413.8 646.35 413.45 646.25 413.1 646.15 412.75 646 412.4 645.9 412 645.8 411.65 645.7 411.3 645.6 410.95 645.55 410.55 645.4 410.2 645.3 409.85 645.25 409.45 645.25 409.1 645.2 408.75 645.2 408.35 645.2 408 645.2 407.65 645.2 407.3 645.2 406.9 645.3 406.55 645.35 406.15 645.45 405.8 645.6 405.45 645.7 405.1 645.85 404.7 645.95 404.45 646.1 404.15 646.2 403.85 646.35 403.55 646.55 403.3 646.7 403 646.85 402.7 647 402.45 647.15 402.2 647.3 401.95 647.45 401.7 647.7 401.45 647.85 401.2 648 400.95 648.2 400.7 648.35 400.45 648.6 400.2 648.85 399.95 649.05 399.7 649.25 399.45 649.5 399.2 649.75 399 650 398.75 650.25 398.55 650.45 398.3 650.75 398.05 651 397.85 651.25 397.6 651.45 397.4 651.75 397.15 652 396.95 652.25 396.7 652.45 396.45 652.75 396.25 653 396 653.25 395.8 653.45 395.55 653.75 395.35 653.95 395.15 654.2 394.95 654.4 394.7 654.7 394.5 654.9 394.25 655.1 394.05 655.3 393.8 655.5 393.55 655.75 393.3 656 393.05 656.2 392.75 656.4 392.5 656.65 392.25 656.9 392 657.1 391.75 657.3 391.5 657.55 391.25 657.8 391 658 390.75 658.2 390.5 658.45 390.25 658.7 390 658.9 389.75 659.1 389.5 659.35 389.25 659.55 389 659.8 388.75 660.05 388.5 660.3 388.25 660.5 388.05 660.8 387.8 661.05 387.55 661.3 387.3 661.55 387.1 661.8 386.85 662.05 386.6 662.35 386.35 662.6 386.1 662.9 385.9 663.15 385.65 663.45 385.4 663.75 385.15 664.05 384.95 664.3 384.7 664.6 384.45 664.9 384.25 665.2 384 665.45 383.8 665.8 383.55 666.05 383.35 666.35 383.1 666.6 382.9 666.95 382.65 667.25 382.4 667.55 382.15 667.9 381.9 668.2 381.65 668.45 381.4 668.8 381.15 669.1 380.9 669.4 380.65 669.75 380.4 670 380.15 670.3 379.9 670.6 379.65 670.95 379.4 671.25 379.15 671.5 378.9 671.85 378.65 672.15 378.4 672.4 378.15 672.7 377.9 673 377.65 673.3 377.4 673.55 377.15 673.9 376.9 674.15 376.65 674.45 376.4 674.7 376.15 675.05 375.9 675.3 375.65 675.6 375.4 675.95 375.15 676.2 374.9 676.5 374.65 676.85 374.4 677.15 374.1 677.45 373.85 677.8 373.6 678.1 373.35 678.4 373.1 678.7 372.8 679.05 372.55 679.35 372.3 679.65 372.05 680 371.8 680.3 371.55 680.6 371.25 680.9 371 681.2 370.75 681.5 370.5 681.85 370.25 682.15 370 682.45 369.75 682.75 369.5 683.1 369.25 683.4 369 683.7 368.75 684 368.5 684.3 368.25 684.6 368 684.95 367.75 685.25 367.5 685.55 367.25 685.8 367 686.15 366.75 686.45 366.45 686.7 366.2 687.05 365.95 687.35 365.7 687.6 365.4 687.95 365.15 688.2 364.85 688.5 364.6 688.75 364.3 689.1 364.05 689.35 363.75 689.6 363.5 689.95 363.2 690.2 362.9 690.45 362.65 690.7 362.35 691 362.05 691.3 361.8 691.55 361.5 691.8 361.25 692.1 360.95 692.35 360.7 692.65 360.4 692.95 360.15 693.2 359.9 693.5 359.6 693.75 359.35 694.05 359.05 694.35 358.8 694.6 358.55 694.85 358.25 695.2 358 695.45 357.75 695.75 357.5 696.05 357.25 696.35 356.95 696.65 356.7 696.9 356.45 697.25 356.2 697.55 355.95 697.8 355.7 698.15 355.45 698.45 355.2 698.7 354.95 699.05 354.7 699.35 354.45 699.6 354.2 699.9 353.95 700.25 353.7 700.5 353.45 700.8 353.2 701.15 353 701.4 352.75 701.7 352.5 702.05 352.25 702.3 352 702.6 351.75 702.85 351.5 703.2 351.2 703.45 350.95 703.75 350.7 704.05 350.45 704.35 350.15 704.6 349.9 704.85 349.65 705.15 349.35 705.45 349.05 705.7 348.8 705.95 348.5 706.3 348.25 706.55 347.95 706.8 347.65 707.15 347.4 707.4 347.1 707.65 346.85 707.95 346.55 708.25 346.25 708.5 346 708.75 345.7 709.1 345.4 709.35 345.15 709.6 344.85 709.85 344.55 710.2 344.3 710.45 344 710.7 343.7 710.95 343.45 711.25 343.15 711.55 342.85 711.8 342.6 712.1 342.3 712.35 342 712.6 341.75 712.9 341.45 713.2 341.15 713.45 340.85 713.7 340.6 713.95 340.3 714.3 340 714.55 339.75 714.8 339.45 715.05 339.15 715.35 338.85 715.6 338.6 715.9 338.3 716.2 338 716.45 337.7 716.7 337.4 716.95 337.15 717.25 336.85 717.5 336.55 717.75 336.25 718 336 718.25 335.7 718.45 335.45 718.7 335.15 718.9 334.9 719.1 334.6 719.35 334.3 719.55 334.05 719.75 333.75 719.95 333.45 720.1 333.15 720.35 332.9 720.55 332.6 720.7 332.3 720.9 332 721.1 331.7 721.3 331.4 721.5 331.1 721.7 330.8 721.9 330.45 722.05 330.15 722.3 329.8 722.5 329.5 722.7 329.15 722.9 328.85 723.1 328.55 723.35 328.2 723.55 327.9 723.75 327.6 723.95 327.25 724.2 326.95 724.4 326.65 724.6 326.3 724.8 326 725 325.7 725.25 325.35 725.45 325.05 725.7 324.75 725.9 324.4 726.1 324.1 726.35 323.8 726.55 323.5 726.8 323.2 727 322.85 727.25 322.55 727.45 322.25 727.7 321.95 727.9 321.65 728.1 321.35 728.4 321.05 728.65 320.7 728.9 320.4 729.15 320.1 729.4 319.75 729.65 319.45 729.9 319.15 730.15 318.85 730.45 318.5 730.65 318.25 730.85 318 731.05 317.75 731.3 317.5 731.5 317.25 731.7 317 731.95 316.75 732.15 316.5 732.4 316.8 732.55 317.15 732.75 317.5 732.95 317.85 733.15 318.2 733.35 318.55 733.55 318.9 733.7 319.25 733.9 319.6 734.05 319.95 734.3 320.3 734.45 320.65 734.6 321 734.8 321.35 734.95 321.7 735.1 322 735.35 322.35 735.5 322.7 735.65 323.05 735.8 323.4 736 323.75 736.15 324.05 736.35 324.4 736.5 324.75 736.7 325.1 736.85 325.45 737.05 325.75 737.2 326.1 737.45 326.45 737.6 326.75 737.8 327.1 737.95 327.45 738.15 327.8 738.4 328.1 738.6 328.45 738.75 328.8 738.95 329.15 739.15 329.45 739.35 329.8 739.55 330.15 739.75 330.5 739.9 330.85 740.1 331.15 740.35 331.5 740.55 331.85 740.7 332.2 740.9 332.5 741.1 332.85 741.35 333.2 741.55 333.5 741.75 333.85 741.95 334.2 742.15 334.5 742.3 334.85 742.55 335.2 742.75 335.5 743 335.85 743.2 336.15 743.45 336.5 743.65 336.8 743.85 337.15 744.05 337.45 744.3 337.8 744.55 338.1 744.75 338.4 744.95 338.75 745.15 339.05 745.45 339.35 745.65 339.7 745.85 340 746.05 340.3 746.25 340.65 746.55 340.95 746.75 341.25 746.95 341.6 747.15 341.9 747.4 342.2 747.6 342.55 747.85 342.85 748.05 343.2 748.25 343.5 748.5 343.8 748.7 344.15 748.9 344.45 749.1 344.8 749.3 345.1 749.55 345.4 749.75 345.75 749.95 346.05 750.15 346.4 750.35 346.7 750.6 347.05 750.8 347.35 751 347.7 751.2 348 751.45 348.35 751.6 348.65 751.8 348.95 752 349.3 752.2 349.6 752.35 349.95 752.6 350.25 752.75 350.55 752.95 350.9 753.1 351.2 753.3 351.55 753.5 351.85 753.7 352.2 753.85 352.5 754.05 352.85 754.2 353.2 754.4 353.5 754.6 353.85 754.75 354.15 754.95 354.5 755.1 354.85 755.25 355.15 755.4 355.5 755.65 355.8 755.8 356.15 755.95 356.5 756.1 356.8 756.25 357.15 756.4 357.5 756.65 357.8 756.8 358.15 756.9 358.5 757.05 358.8 757.2 359.1 757.35 359.45 757.55 359.8 757.7 360.15 757.85 360.5 757.95 360.85 758.1 361.2 758.25 361.55 758.4 361.9 758.6 362.3 758.75 362.65 758.85 363 759 363.35 759.15 363.7 759.25 364.05 759.4 364.45 759.55 364.8 759.7 365.15 759.8 365.5 759.9 365.85 760 366.2 760.1 366.55 760.2 366.9 760.3 367.25 760.4 367.6 760.55 367.95 760.65 368.3 760.75 368.65 760.85 369 760.95 369.35 761.05 369.75 761.15 370.1 761.25 370.45 761.3 370.8 761.4 371.15 761.55 371.5 761.65 371.85 761.75 372.25 761.85 372.6 761.95 372.95 762.05 373.35 762.15 373.7 762.2 374.1 762.3 374.45 762.4 374.8 762.55 375.2 762.65 375.55 762.75 375.95 762.85 376.3 762.95 376.65 763.05 377.05 763.15 377.4 763.25 377.8 763.3 378.15 763.4 378.5 763.55 378.9 763.65 379.25 763.75 379.65 763.85 380 763.95 380.35 764.05 380.75 764.15 381.1 764.25 381.45 764.35 381.85 764.45 382.2 764.6 382.6 764.7 382.95 764.8 383.3 764.9 383.7 765 384.05 765.1 384.4 765.25 384.8 765.35 385.15 765.45 385.55 765.6 385.9 765.7 386.25 765.8 386.65 765.95 387 766.05 387.4 766.15 387.75 766.25 388.1 766.4 388.5 766.5 388.85 766.65 389.2 766.8 389.6 766.9 389.95 767 390.3 767.15 390.7 767.25 391.05 767.4 391.4 767.5 391.8 767.7 392.15 767.8 392.5 767.95 392.9 768.05 393.25 768.2 393.6 768.3 393.95 768.45 394.35 768.65 394.7 768.8 395.05 768.9 395.4 769.05 395.8 769.2 396.15 769.35 396.5 769.5 396.85 769.7 397.2 769.8 397.55 769.95 397.9 770.1 398.25 770.25 398.65 770.4 399 770.6 399.35 770.75 399.7 770.9 400.05 771.05 400.4 771.2 400.75 771.35 401.1 771.5 401.45 771.7 401.8 771.8 402.1 771.95 402.4 772.05 402.75 772.15 403.05 772.25 403.4 772.35 403.7 772.45 404.05 772.55 404.35 772.7 404.7 772.75 405 772.85 405.35 772.9 405.65 773 406 773.05 406.35 773.1 406.65 773.15 407.05 773.2 407.4 773.25 407.75 773.3 408.1 773.35 408.45 773.35 408.85 773.4 409.2 773.45 409.55 773.45 409.9 773.5 410.25 773.5 410.6 773.55 411 773.55 411.35 773.55 411.7 773.65 412.05 773.65 412.45 773.65 412.8 773.7 413.15 773.7 413.55 773.7 413.9 773.75 414.3 773.75 414.7 773.8 415.05 773.8 415.45 773.85 415.85 773.9 416.2 773.95 416.6 774 416.95 774.05 417.35 774.1 417.75 774.15 418.05 774.25 418.4 774.3 418.7 774.4 419.05 774.5 419.35 774.65 419.7 774.75 420 774.8 420.3 774.95 420.65 775.05 420.95 775.15 421.25 775.25 421.6 775.4 421.9 775.5 422.2 775.65 422.55 775.8 422.85 775.95 423.15 776.05 423.45 776.2 423.8 776.35 424.1 776.5 424.4 776.75 424.7 776.9 425 777.05 425.3 777.2 425.6 777.4 425.9 777.55 426.2 777.8 426.5 777.95 426.75 778.15 427.05 778.35 427.35 778.55 427.65 778.75 427.95 778.95 428.2 779.15 428.5 779.35 428.8 779.5 429.05 779.75 429.3 779.95 429.6 780.1 429.85 780.3 430.15 780.5 430.4 780.75 430.7 780.9 430.95 781.1 431.25 781.3 431.5 781.5 431.75 781.75 432 781.95 432.3 782.15 432.55 782.35 432.8 782.6 433.1 782.85 433.35 783.05 433.6 783.25 433.9 783.5 434.15 783.75 434.4 784 434.65 784.2 434.9 784.4 435.2 784.65 435.45 784.95 435.7 785.2 436 785.4 436.25 785.65 436.5 785.95 436.75 786.2 437.05 786.45 437.3 786.75 437.55 786.95 437.8 787.2 438.05 787.45 438.3 787.75 438.6 788 438.85 788.25 439.1 788.5 439.35 788.7 439.65 789 439.9 789.25 440.15 789.5 440.4 789.8 440.65 790.05 440.9 790.25 441.15 790.5 441.4 790.8 441.65 791.05 441.9 791.3 442.15 791.55 442.4 791.9 442.6 792.15 442.85 792.4 443.1 792.65 443.3 793 443.55 793.25 443.75 793.55 444 793.85 444.2 794.15 444.4 794.4 444.65 794.7 444.85 795.05 445.05 795.3 445.25 795.6 445.45 795.95 445.65 796.25 445.85 796.55 446.05 796.9 446.25 797.2 446.4 797.5 446.6 797.85 446.75 798.15 446.95 798.45 447.1 798.75 447.25 799.15 447.45 799.45 447.6 799.85 447.75 800.15 447.9 800.5 448.05 800.8 448.2 801.15 448.35 801.5 448.5 801.5 448.7 801.5 448.9 801.55 449.15 801.55 449.4 801.6 449.65 801.65 449.95 801.65 450.2 801.7 450.45 801.75 450.75 801.8 451 801.9 451.25 801.95 451.55 802 451.8 802.05 452.05 802.1 452.35 802.15 452.6 802.25 452.85 802.3 453.15 802.4 453.4 802.5 453.65 802.6 453.9 802.7 454.15 802.8 454.4 802.95 454.65 803.05 454.85 803.15 455.1 803.25 455.35 803.35 455.6 803.45 455.8 803.55 456.05 803.65 456.3 803.8 456.5 803.95 456.75 804.1 457 804.2 457.2 804.35 457.45 804.45 457.65 804.6 457.9 804.75 458.1 804.95 458.35 805.1 458.55 805.25 458.75 805.35 459 805.5 459.2 805.65 459.4 805.8 459.6 806 459.8 806.15 460 806.25 460.2 806.4 460.35 806.55 460.55 806.7 460.75 806.95 460.95 807.1 461.1 807.25 461.3 807.4 461.45 807.6 461.6 807.75 461.8 808 461.95 808.2 462.1 808.4 462.25 808.6 462.4 808.85 462.55 809.1 462.7 809.3 462.85 809.55 462.95 809.75 463.1 810.05 463.2 810.3 463.35 810.55 463.45 810.75 463.55 811.05 463.65 811.25 463.7 811.5 463.8 811.75 463.9 812 464 812.25 464.05 812.5 464.15 812.75 464.25 813.05 464.35 813.3 464.4 813.55 464.5 813.8 464.6 814.1 464.7 814.4 464.75 814.65 464.85 814.9 464.9 815.2 465 815.45 465.05 815.75 465.15 816.05 465.25 816.3 465.3 816.55 465.4 816.8 465.45 817.1 465.55 817.35 465.6 817.6 465.7 817.85 465.8 818.15 465.85 818.4 465.95 818.65 466 818.9 466.1 819.2 466.15 819.45 466.25 819.7 466.3 819.95 466.35 820.25 466.4 820.5 466.5 820.75 466.55 821.05 466.6 821.3 466.65 821.6 466.7 821.9 466.75 822.2 466.8 822.5 466.85 822.8 466.9 823.15 466.95 823.4 467 823.7 467 824 467.05 824.35 467.05 824.6 467.1 824.9 467.1 825.25 467.15 825.5 467.15 825.8 467.2 826.15 467.2 826.4 467.2 826.7 467.2 827 467.2 827.3 467.25 827.6 467.25 827.9 467.25 828.2 467.25 828.5 467.25 828.8 467.25 829.05 467.25 829.4 467.25 829.65 467.25 829.95 467.25 830.3 467.3 830.55 467.3 830.85 467.3 831.2 467.3 831.45 467.3 831.75 467.3 832 467.3 832.35 467.3 832.65 467.3 832.9 467.3 833.25 467.3 833.55 467.3 833.8 467.3 834.15 467.3 834.45 467.3 834.7 467.3 835 467.3 835.3 467.3 835.6 467.3 835.9 467.3 836.25 467.3 836.55 467.3 836.85 467.3 837.2 467.3 837.5 467.3 837.8 467.3 838.1 467.3 838.45 467.3 838.75 467.3 839.05 467.3 839.35 467.3 839.65 467.3 839.95 467.3 840.3 467.3 840.6 467.25 840.9 467.25 841.15 467.25 841.5 467.25 841.8 467.2 842.05 467.2 842.4 467.15 842.7 467.15 842.95 467.1 843.3 467.1 843.6 467.05 843.9 467.05 844.15 467 844.5 467 844.8 466.95 845.05 466.95 845.4 466.9 845.7 466.9 845.95 466.85 846.3 466.85 846.6 466.8 846.9 466.8 847.15 466.75 847.5 466.75 847.8 466.7 848.1 466.7 848.4 466.65 848.7 466.65 849 466.65 849.35 466.6 849.6 466.6 849.9 466.55 850.2 466.55 850.5 466.5 850.8 466.5 851.1 466.45 851.45 466.4 851.7 466.4 852 466.35 852.35 466.35 852.6 466.3 852.9 466.25 853.2 466.25 853.55 466.2 853.8 466.15 854.1 466.1 854.45 466.05 854.7 466.05 855 466 855.35 465.95 855.6 465.9 855.85 465.85 856.15 465.8 856.45 465.75 856.7 465.7 856.95 465.65 857.25 465.6 857.55 465.6 857.8 465.55 858.05 465.5 858.4 465.45 858.65 465.4 858.9 465.35 859.15 465.3 859.5 465.2 859.75 465.15 860 465.1 860.25 465.05 860.55 465 860.85 464.95 861.1 464.9 861.4 464.8 861.65 464.75 861.95 464.7 862.2 464.65 862.5 464.6 862.75 464.55 863.05 464.5 863.3 464.4 863.6 464.35 863.9 464.3 864.15 464.25 864.45 464.2 864.7 464.15 865 464.1 865.25 464.05 865.6 464 865.9 463.95 866.15 463.9 866.5 463.85 866.75 463.8 867.05 463.7 867.3 463.65 867.65 463.6 867.95 463.55 868.2 463.5 868.55 463.45 868.8 463.35 869.1 463.3 869.35 463.25 869.7 463.2 870 463.15 870.25 463.1 870.6 463.05 870.85 463 871.15 462.95 871.4 462.9 871.75 462.85 872.05 462.8 872.3 462.75 872.65 462.7 872.9 462.65 873.2 462.6 873.55 462.5 873.8 462.45 874.1 462.4 874.35 462.35 874.7 462.3 875 462.25 875.25 462.2 875.6 462.15 875.9 462.05 876.15 462 876.45 461.95 876.8 461.9 877.05 461.85 877.35 461.75 877.7 461.7 877.95 461.65 878.25 461.55 878.55 461.5 878.85 461.45 879.15 461.35 879.4 461.3 879.75 461.2 880.05 461.15 880.3 461.1 880.65 461 880.9 460.95 881.2 460.85 881.45 460.75 881.8 460.7 882.1 460.6 882.35 460.55 882.7 460.45 882.95 460.35 883.2 460.3 883.45 460.2 883.7 460.15 883.95 460.05 884.2 460 884.45 459.9 884.7 459.85 884.95 459.75 885.2 459.65 885.45 459.6 885.7 459.5 885.95 459.4 886.2 459.3 886.4 459.25 886.7 459.15 886.95 459.05 887.15 458.95 887.4 458.85 887.7 458.75 887.9 458.65 888.15 458.55 888.4 458.45 888.65 458.35 888.9 458.25 889.1 458.1 889.35 458 889.55 457.9 889.8 457.8 890.05 457.65 890.25 457.55 890.5 457.4 890.75 457.3 890.95 457.15 891.15 457 891.35 456.85 891.65 456.75 891.85 456.6 892.05 456.45 892.25 456.3 892.5 456.1 892.75 455.95 892.95 455.75 893.15 455.6 893.4 455.4 893.6 455.25 893.85 455.05 894.05 454.9 894.3 454.7 894.5 454.5 894.75 454.3 894.95 454.15 895.15 453.95 895.35 453.75 895.55 453.55 895.8 453.35 896 453.15 896.15 452.95 896.35 452.8 896.55 452.6 896.75 452.4 896.95 452.2 897.15 452 897.3 451.8 897.5 451.6 897.7 451.35 897.9 451.15 898.05 450.95 898.2 450.7 898.4 450.5 898.55 450.25 898.75 450.05 898.9 449.8 899.1 449.6 899.25 449.35 899.4 449.1 899.55 448.9 899.75 448.65 899.9 448.4 900 448.2 900.15 447.95 900.3 447.7 900.45 447.45 900.55 447.25 900.75 447 900.85 446.8 901 446.55 901.1 446.3 901.2 446.1 901.3 445.85 901.4 445.65 901.5 445.4 901.65 445.15 901.8 444.95 901.9 444.7 902 444.45 902.1 444.25 902.2 444 902.3 443.75 902.4 443.5 902.5 443.3 902.6 443.05 902.75 442.8 902.85 442.55 902.95 442.3 903.05 442.05 903.15 441.8 903.25 441.55 903.35 441.3 903.4 441.05 903.5 440.8 903.6 440.55 903.75 440.3 903.8 440.05 903.9 439.75 904 439.5 904.05 439.25 904.15 439 904.25 438.75 904.3 438.5 904.4 438.25 904.45 437.95 904.55 437.7 904.6 437.4 904.7 437.15 904.8 436.85 904.9 436.6 904.95 436.3 905.05 436.05 905.1 435.75 905.15 435.5 905.2 435.2 905.3 434.9 905.35 434.65 905.4 434.35 905.45 434.05 905.5 433.8 905.55 433.5 905.6 433.25 905.65 432.95 905.7 432.65 905.8 432.35 905.8 432.1 905.85 431.8 905.9 431.5 905.9 431.25 905.95 430.95 905.95 430.65 905.95 430.4 906 430.1 906 429.8 906 429.55 906 429.25 906 428.95 906 428.65 905.95 428.4 905.95 428.15 905.95 427.95 905.9 427.7 905.9 427.45 905.85 427.2 905.85 426.95 905.8 426.7 905.7 426.45 905.65 426.2 905.6 425.95 905.55 425.7 905.5 425.45 905.4 425.25 905.35 425 905.3 424.75 905.2 424.5 905.1 424.3 905.05 424.05 904.95 423.8 904.85 423.6 904.7 423.35 904.6 423.15 904.5 422.9 904.35 422.7 904.25 422.45 904.1 422.25 904 422.05 903.85 421.85 903.65 421.65 903.55 421.45 903.4 421.2 903.25 421.05 903.1 420.85 902.95 420.65 902.75 420.45 902.55 420.25 902.4 420.05 902.25 419.85 902.1 419.65 901.95 419.5 901.8 419.3 901.55 419.1 901.4 418.95 901.25 418.75 901.05 418.55 900.9 418.4 900.65 418.2 900.5 418.05 900.3 417.9 900.1 417.7 899.9 417.55 899.65 417.4 899.45 417.25 899.25 417.1 899.05 416.95 898.85 416.8 898.6 416.65 898.4 416.5 898.2 416.35 898 416.2 897.8 416.1 897.5 415.95 897.3 415.8 897.1 415.7 896.9 415.55 896.6 415.45 896.4 415.35 896.15 415.2 895.95 415.1 895.7 415 895.45 414.9 895.2 414.8 895 414.7 894.75 414.6 894.45 414.5 894.25 414.4 894 414.3 893.75 414.2 893.4 414.1 893.15 414 892.9 413.95 892.65 413.85 892.3 413.75 892.05 413.7 891.75 413.65 891.45 413.55 891.2 413.5 890.9 413.45 890.65 413.35 890.3 413.3 890.05 413.25 889.75 413.2 889.45 413.15 889.15 413.05 888.9 413 888.55 412.95 888.25 412.9 888 412.85 887.7 412.8 887.4 412.75 887.1 412.7 886.8 412.65 886.5 412.6 886.2 412.55 885.9 412.5 885.65 412.45 885.3 412.4 885 412.35 884.75 412.3 884.4 412.25 884.1 412.2 883.85 412.15 883.5 412.1 883.25 412.05 882.95 412 882.65 411.95 882.35 411.9 882.1 411.85 881.85 411.85 881.85 411.55 881.85 411.25 881.85 410.9 881.85 410.55 881.85 410.15 881.85 409.8 881.8 409.45 881.75 409.1 881.7 408.8 881.65 408.45 881.6 408.15 881.5 407.8 881.45 407.5 881.4 407.15 881.3 406.85 881.25 406.5 881.15 406.2 881.05 405.9 880.9 405.55 880.8 405.2 880.65 404.9 880.55 404.55 880.35 404.25 880.2 403.9 880.05 403.6 879.9 403.3 879.75 403 879.55 402.7 879.35 402.35 879.15 402.05 878.95 401.75 878.75 401.45 878.55 401.15 878.25 400.85 878.05 400.55 877.8 400.3 877.6 400 877.3 399.7 877.05 399.45 876.85 399.15 876.6 398.9 876.3 398.6 876.05 398.35 875.8 398.1 875.55 397.8 875.25 397.55 875 397.3 874.75 397.05 874.4 396.75 874.15 396.5 873.85 396.25 873.6 395.95 873.25 395.7 872.95 395.45 872.7 395.2 872.35 394.9 872.05 394.65 871.8 394.4 871.5 394.15 871.15 393.9 870.85 393.65 870.55 393.4 870.25 393.15 869.95 392.9 869.65 392.7 869.35 392.45 869.05 392.25 868.8 392 868.5 391.8 868.2 391.55 867.9 391.3 867.65 391.1 867.3 390.85 867.05 390.65 866.75 390.4 866.5 390.2 866.2 389.95 865.9 389.75 865.65 389.5 865.3 389.25 865.05 389.05 864.8 388.8 864.55 388.6 864.2 388.35 863.95 388.15 863.7 387.95 863.45 387.7 863.15 387.5 862.85 387.25 862.6 387.05 862.3 386.8 862.05 386.6 861.8 386.35 861.55 386.1 861.2 385.9 860.95 385.65 860.7 385.4 860.45 385.15 860.15 384.9 859.9 384.65 859.65 384.4 859.3 384.15 859.05 383.9 858.8 383.65 858.55 383.4 858.25 383.15 858 382.95 857.75 382.75 857.5 382.55 857.2 382.35 856.95 382.15 856.7 381.95 856.5 381.75 856.2 381.55 856 381.35 855.8 381.15 855.6 380.9 855.35 380.7 855.2 380.5 855.05 380.3 854.95 380.1 854.85 379.9 854.7 379.55 854.6 379.2 854.45 378.85 854.35 378.5 854.2 378.15 854.05 377.8 853.95 377.45 853.85 377.1 853.75 376.75 853.65 376.4 853.55 376.05 853.5 375.7 853.4 375.35 853.25 375 853.2 374.6 853.1 374.25 853 373.9 852.95 373.55 852.85 373.2 852.8 372.8 852.7 372.45 852.65 372.1 852.55 371.75 852.5 371.4 852.4 371 852.35 370.65 852.2 370.3 852.15 369.95 852.05 369.6 852 369.25 851.9 368.85 851.85 368.5 851.75 368.15 851.65 367.75 851.6 367.4 851.5 367.05 851.45 366.7 851.35 366.3 851.2 365.95 851.15 365.6 851.05 365.2 850.95 364.85 850.9 364.5 850.8 364.15 850.7 363.75 850.6 363.4 850.55 363.05 850.45 362.7 850.35 362.35 850.2 361.95 850.1 361.6 850 361.25 849.9 360.9 849.8 360.55 849.7 360.15 849.55 359.8 849.45 359.45 849.35 359.1 849.15 358.75 849.05 358.35 848.9 358 848.8 357.65 848.65 357.3 848.55 356.9 848.4 356.55 848.2 356.2 848.1 355.8 847.95 355.45 847.8 355.1 847.7 354.75 847.55 354.4 847.4 354 847.2 353.7 847.05 353.35 846.9 353 846.8 352.7 846.65 352.35 846.5 352 846.35 351.7 846.15 351.35 846 351 845.85 350.7 845.7 350.35 845.55 350 845.4 349.7 845.25 349.35 845.05 349 844.9 348.7 844.75 348.35 844.6 348 844.45 347.65 844.25 347.3 844.05 346.95 843.9 346.55 843.75 346.2 843.55 345.85 843.4 345.5 843.25 345.15 843 344.8 842.85 344.45 842.7 344.1 842.55 343.75 842.35 343.4 842.15 343.05 842 342.7 841.8 342.35 841.65 342 841.5 341.65 841.35 341.3 841.1 340.95 840.95 340.6 840.8 340.25 840.6 339.9 840.45 339.55 840.3 339.2 840.1 338.85 839.95 338.5 839.8 338.15 839.65 337.75 839.5 337.4 839.35 337.05 839.25 336.7 839.05 336.35 838.9 336 838.75 335.65 838.6 335.3 838.45 334.95 838.3 334.6 838.1 334.25 837.95 333.85 837.8 333.5 837.7 333.15 837.55 332.8 837.4 332.45 837.25 332.1 837.05 331.75 836.9 331.4 836.75 331.05 836.6 330.65 836.5 330.3 836.35 329.95 836.2 329.6 836 329.25 835.85 328.9 835.7 328.55 835.55 328.2 835.4 327.85 835.3 327.45 835.1 327.1 834.95 326.75 834.8 326.4 834.65 326.05 834.5 325.7 834.35 325.3 834.2 324.95 834 324.6 833.85 324.2 833.7 323.85 833.55 323.5 833.4 323.15 833.2 322.75 833 322.4 832.85 322.05 832.7 321.65 832.55 321.3 832.35 320.95 832.2 320.6 832 320.25 831.85 319.85 831.65 319.5 831.5 319.15 831.35 318.8 831.15 318.45 830.95 318.15 830.8 317.8 830.65 317.45 830.45 317.15 830.3 316.8 830.15 316.5 829.95 316.15 829.8 315.8 829.6 315.5 829.45 315.15 829.3 314.85 829.15 314.5 828.9 314.15 828.75 313.85 828.6 313.5 828.45 313.15 828.3 312.85 828.15 312.5 827.95 312.2 827.85 311.85 827.7 311.55 827.55 311.2 827.45 310.85 827.3 310.55 827.15 310.2 827 309.9 826.85 309.55 826.7 309.2 826.6 308.9 826.45 308.55 826.3 308.25 826.15 307.85 825.95 307.5 825.8 307.15 825.65 306.8 825.5 306.45 825.35 306.1 825.15 305.75 824.95 305.4 824.8 305 824.6 304.65 824.45 304.3 824.25 304 824.1 303.65 823.85 303.3 823.65 302.95 823.45 302.6 823.3 302.25 823.1 301.95 822.85 301.6 822.65 301.25 822.45 300.95 822.25 300.6 822.05 300.3 821.8 299.95 821.55 299.65 821.35 299.3 821.15 299 820.85 298.7 820.65 298.35 820.45 298.05 820.2 297.75 819.95 297.5 819.75 297.2 819.5 296.9 819.3 296.6 819.1 296.35 818.8 296.05 818.6 295.75 818.35 295.5 818.15 295.2 817.85 294.95 817.65 294.65 817.4 294.4 817.2 294.1 816.9 293.8 816.65 293.5 816.45 293.2 816.2 292.9 815.9 292.6 815.65 292.3 815.45 291.95 815.2 291.65 814.9 291.35 814.7 291.05 814.45 290.75 814.2 290.45 813.9 290.15 813.7 289.85 813.45 289.5 813.25 289.2 813 288.9 812.75 288.6 812.5 288.3 812.3 287.95 812.05 287.65 811.8 287.35 811.6 287 811.4 286.7 811.15 286.4 810.95 286.05 810.7 285.75 810.5 285.4 810.3 285.1 810.1 284.75 809.85 284.45 809.65 284.1 809.45 283.8 809.25 283.45 809.05 283.15 808.8 282.8 808.6 282.45 808.4 282.15 808.25 281.8 808.05 281.5 807.8 281.2 807.65 280.9 807.45 280.6 807.3 280.35 807.1 280.05 806.95 279.75 806.7 279.45 806.55 279.2 806.35 278.9 806.15 278.6 805.95 278.35 805.75 278.05 805.5 277.75 805.3 277.4 805.05 277.1 804.8 276.8 804.55 276.45 804.35 276.15 804.1 275.85 803.9 275.5 803.65 275.2 803.4 274.85 803.25 274.6 803.05 274.3 802.8 274.05 802.65 273.75 802.45 273.5 802.3 273.2 802.1 272.95 801.9 272.7 801.65 272.4 801.5 272.15 801.3 271.85 801.1 271.6 800.9 271.35 800.65 271.05 800.45 270.8 800.25 270.55 800.05 270.25 799.85 270 799.6 269.7 799.4 269.4 799.2 269.15 799.05 268.85 798.85 268.55 798.65 268.25 798.5 267.95 798.3 267.65 798.15 267.35 798 267.05 797.9 266.75 797.75 266.4 797.6 266.05 797.5 265.75 797.45 265.4 797.35 265.1 797.25 264.75 797.2 264.4 797.1 264.05 797.05 263.75 796.95 263.4 796.9 263.05 796.85 262.7 796.75 262.4 796.7 262 796.65 261.6 796.6 261.2 796.55 260.8 796.5 260.35 796.5 259.95 796.45 259.55 796.4 259.15 796.4 258.75 796.35 258.35 796.3 257.95 796.3 257.55 796.25 257.15 796.25 256.75 796.2 256.35 796.2 255.95 796.15 255.55 796.15 255.15 796.15 254.75 796.1 254.35 796.1 253.95 796.1 253.55 796.05 253.15 796.05 252.75 796.05 252.35 796.05 251.95 796.05 251.55 796 251.15 796 250.75 796 250.3 796 249.9 796 249.5 796 249.1 796 248.7 796 248.3 796 247.9 796 247.5 796 247.1 795.95 246.7 795.95 246.3 795.95 245.9 795.95 245.5 795.95 245.1 795.95 244.7 795.95 244.3 795.95 243.9 795.95 243.5 795.95 243.05 795.95 242.65 795.95 242.25 795.95 241.85 795.95 241.45 795.95 241.05 795.95 240.65 795.95 240.25 795.95 239.85 795.95 239.5 795.95 239.1 795.95 238.75 795.95 238.35 795.95 238 795.95 237.6 795.95 237.25 795.95 236.9 795.9 236.5 795.9 236.15 795.9 235.75 795.9 235.4 795.85 235 795.85 234.65 795.75 234.3 795.75 233.9 795.7 233.5 795.65 233.1 795.6 232.7 795.6 232.3 795.55 231.9 795.5 231.5 795.5 231.1 795.45 230.7 795.4 230.35 795.4 229.95 795.35 229.55 795.35 229.15 795.3 228.75 795.3 228.35 795.25 227.95 795.25 227.55 795.2 227.15 795.2 226.75 795.15 226.35 795.15 225.95 795.1 225.55 795.1 225.15 795.05 224.7 795.05 224.3 795 223.95 794.95 223.6 794.9 223.25 794.85 222.9 794.75 222.55 794.7 222.2 794.65 221.85 794.55 221.45 794.5 221.1 794.4 220.75 794.35 220.4 794.25 220.05 794.15 219.7 794.05 219.35 793.95 219 793.85 218.65 793.7 218.3 793.6 217.9 793.5 217.55 793.35 217.2 793.25 216.85 793.1 216.5 792.95 216.15 792.85 215.8 792.65 215.45 792.5 215.1 792.4 214.75 792.25 214.4 792.1 214.05 791.95 213.7 791.85 213.3 791.65 212.95 791.5 212.6 791.35 212.2 791.2 211.85 791.05 211.5 790.9 211.1 790.7 210.75 790.6 210.35 790.45 210 790.3 209.6 790.15 209.25 790.05 208.9 789.9 208.5 789.8 208.15 789.6 207.75 789.5 207.4 789.4 207.1 789.3 206.75 789.2 206.4 789.1 206.05 789 205.75 788.9 205.4 788.85 205.05 788.7 204.7 788.6 204.4 788.55 204.05 788.45 203.7 788.4 203.35 788.3 203 788.25 202.65 788.2 202.3 788.15 201.95 788.1 201.55 788.05 201.15 788 200.75 787.95 200.35 787.9 199.95 787.9 199.55 787.85 199.15 787.85 198.75 787.8 198.35 787.8 197.95 787.75 197.55 787.75 197.15 787.65 196.8 787.65 196.4 787.65 196 787.65 195.6 787.6 195.2 787.6 194.8 787.6 194.4 787.6 194 787.6 193.6 787.55 193.2 787.55 192.8 787.55 192.4 787.55 192 787.55 191.6 787.55 191.2 787.55 190.8 787.55 190.4 787.55 190 787.55 189.65 787.55 189.25 787.5 188.85 787.5 188.45 787.5 188.05 787.5 187.65 787.5 187.25 787.5 186.85 787.5 186.45 787.5 186.05 787.5 185.65 787.65 185.85 787.85 186 788 186.15 788.1 186.3 788.35 186.6 788.6 186.85 788.9 187.15 789.15 187.4 789.4 187.7 789.65 188 789.95 188.25 790.15 188.55 790.4 188.8 790.65 189.1 790.95 189.4 791.2 189.65 791.4 189.95 791.65 190.25 791.95 190.55 792.2 190.85 792.4 191.15 792.65 191.45 792.95 191.75 793.2 192.05 793.4 192.35 793.65 192.7 793.95 193 794.2 193.3 794.4 193.6 794.65 193.9 794.95 194.2 795.2 194.5 795.4 194.8 795.65 195.1 795.95 195.4 796.2 195.7 796.4 196.05 796.65 196.35 796.95 196.65 797.2 196.95 797.45 197.3 797.65 197.6 797.95 197.9 798.2 198.25 798.45 198.55 798.65 198.85 798.95 199.2 799.2 199.5 799.4 199.85 799.65 200.15 799.95 200.5 800.15 200.8 800.4 201.1 800.6 201.45 800.9 201.75 801.15 202.1 801.35 202.4 801.6 202.75 801.8 203 802.05 203.3 802.25 203.6 802.45 203.85 802.65 204.15 802.95 204.45 803.15 204.7 803.35 205 803.55 205.25 803.8 205.55 804.05 205.8 804.3 206.05 804.5 206.3 804.75 206.6 805 206.85 805.25 207.1 805.5 207.35 805.7 207.6 806 207.85 806.25 208.1 806.5 208.3 806.75 208.55 807.05 208.8 807.3 209.05 807.55 209.3 807.85 209.55 808.15 209.8 808.45 210.05 808.75 210.35 809.05 210.6 809.35 210.85 809.65 211.1 809.95 211.4 810.2 211.65 810.5 211.9 810.75 212.2 811.05 212.5 811.35 212.75 811.6 213.05 811.85 213.35 812.15 213.6 812.4 213.9 812.65 214.2 812.9 214.5 812.85 214.4 812.8 214.3 813.05 214.6 813.3 214.85 813.5 215.15 813.7 215.4 814 215.7 814.2 215.95 814.45 216.25 814.65 216.5 814.9 216.8 815.15 217.05 815.2 217.1 815.3 217.2
L 815.3 217.25
Q 815.35 217.3 815.4 217.35 815.5 217.5 815.6 217.6 815.85 217.9 816.15 218.2 816.35 218.5 816.6 218.8 816.85 219.1 817.1 219.4 817.35 219.7 817.6 220 817.8 220.3 818.1 220.6 818.3 220.95 818.55 221.25 818.75 221.55 819.05 221.85 819.25 222.15 819.45 222.45 819.65 222.75 819.85 223 820.15 223.3 820.35 223.6 820.55 223.9 820.75 224.2 820.95 224.5 821.2 224.8 821.4 225.05 821.65 225.35 821.85 225.65 822.1 225.95 822.3 226.25 822.5 226.55 822.75 226.85 823.05 227.15 823.25 227.45 823.5 227.8 823.75 228.1 824 228.4 824.25 228.7 824.5 229 824.75 229.3 825 229.65 825.25 229.95 825.5 230.25 825.75 230.55 825.95 230.85 826.25 231.2 826.5 231.5 826.7 231.8 826.95 232.1 827.2 232.4 827.45 232.75 827.65 233.05 827.85 233.35 828.15 233.65 828.35 233.95 828.6 234.25 828.8 234.6 829 234.9 829.25 235.2 829.5 235.5 829.7 235.85 829.9 236.15 830.15 236.45 830.35 236.8 830.55 237.1 830.75 237.4 830.95 237.75 831.2 238.05 831.4 238.4 831.6 238.7 831.75 239.05 831.95 239.35 832.2 239.7 832.35 240 832.55 240.35 832.75 240.65 832.9 241 833.15 241.3 833.35 241.65 833.5 241.95 833.7 242.25 833.85 242.6 834 242.9 834.25 243.2 834.4 243.55 834.55 243.85 834.75 244.15 834.9 244.5 835.05 244.8 835.25 245.15 835.4 245.45 835.55 245.75 835.75 246.1 835.9 246.4 836.05 246.75 836.25 247.1 836.45 247.45 836.6 247.8 836.75 248.15 836.95 248.5 837.1 248.85 837.35 249.2 837.5 249.55 837.65 249.9 837.85 250.25 838.05 250.6 838.25 250.95 838.45 251.3 838.65 251.65 838.8 251.95 838.95 252.25 839.2 252.55 839.35 252.85 839.55 253.15 839.7 253.45 839.9 253.75 840.1 254.05 840.3 254.3 840.45 254.55 840.6 254.8 840.7 255 840.85 255.25 841 255.5 841.1 255.8 841.25 256.15 841.3 256.45 841.4 256.75 841.5 257.05 841.55 257.35 841.6 257.65 841.65 258 841.7 258.35 841.75 258.75 841.8 259.15 841.85 259.55 841.85 259.95 841.9 260.35 841.95 260.7 842 261.1 842.05 261.5 842.05 261.9 842.1 262.3 842.15 262.65 842.25 263.05 842.35 263.45 842.4 263.85 842.45 264.25 842.55 264.6 842.6 265 842.7 265.4 842.8 265.75 842.9 266.1 843 266.45 843.15 266.8 843.3 267.15 843.4 267.5 843.55 267.85 843.65 268.2 843.8 268.5 843.95 268.85 844.1 269.2 844.3 269.5 844.45 269.85 844.6 270.15 844.75 270.5 844.9 270.85 845.05 271.15 845.3 271.45 845.45 271.8 845.6 272.1 845.8 272.45 845.95 272.75 846.15 273.05 846.35 273.4 846.55 273.7 846.75 274 846.9 274.35 847.1 274.65 847.35 274.95 847.5 275.25 847.7 275.6 847.9 275.9 848.05 276.2 848 276.3 847.95 276.45 847.85 276.7 847.75 276.95 847.65 277.2 847.55 277.45 847.4 277.7 847.3 277.95 847.15 278.2 847.05 278.45 846.9 278.75 846.8 279 846.7 279.25 846.6 279.5 846.45 279.75 846.35 280 846.25 280.25 846.1 280.5 845.95 280.75 845.85 281 845.75 281.3 845.65 281.55 845.55 281.8 845.45 282.05 845.35 282.3 845.3 282.55 845.15 282.85 845.05 283.1 844.95 283.35 844.9 283.6 844.8 283.9 844.75 284.15 844.65 284.4 844.6 284.65 844.55 284.95 844.45 285.2 844.4 285.5 844.35 285.75 844.3 286.05 844.25 286.3 844.15 286.6 844.1 286.9 844.05 287.15 844 287.45 844 287.75 843.95 288.05 843.9 288.3 843.85 288.6 843.85 288.9 843.8 289.2 843.75 289.45 843.75 289.75 843.7 290.05 843.7 290.35 843.7 290.6 843.65 290.9 843.65 291.2 843.65 291.45 843.65 291.75 843.6 292.05 843.6 292.3 843.65 292.6 843.65 292.9 843.65 293.15 843.65 293.45 843.65 293.7 843.7 294 843.7 294.3 843.75 294.55 843.75 294.85 843.8 295.1 843.85 295.4 843.9 295.65 843.9 295.95 843.95 296.2 844 296.5 844.05 296.75 844.1 297.05 844.25 297.3 844.3 297.6 844.35 297.85 844.45 298.15 844.5 298.4 844.6 298.7 844.65 298.95 844.75 299.2 844.85 299.5 844.95 299.75 845.05 300 845.15 300.3 845.3 300.5 845.4 300.75 845.5 301 845.6 301.25 845.7 301.5 845.8 301.7 845.9 301.95 846 302.2 846.1 302.45 846.25 302.65 846.4 302.9 846.5 303.15 846.6 303.35 846.75 303.6 846.9 303.8 847 304.05 847.15 304.25 847.35 304.5 847.45 304.7 847.6 304.9 847.75 305.15 847.9 305.35 848.05 305.55 848.3 305.75 848.45 306 848.6 306.2 848.75 306.4 848.95 306.6 849.1 306.8 849.3 307 849.5 307.2 849.65 307.4 849.85 307.6 850 307.8 850.2 308 850.45 308.15 850.6 308.35 850.8 308.55 851 308.75 851.2 308.9 851.45 309.1 851.65 309.3 851.85 309.45 852.05 309.65 852.25 309.85 852.55 310 852.75 310.2 852.95 310.35 853.2 310.5 853.45 310.7 853.65 310.85 853.9 311 854.1 311.2 854.4 311.35 854.6 311.5 854.85 311.65 855.05 311.8 855.35 312 855.55 312.15 855.8 312.3 856 312.45 856.25 312.6 856.55 312.75 856.75 312.9 857 313.05 857.25 313.25 857.5 313.4 857.75 313.55 858 313.7 858.25 313.85 858.5 314 858.75 314.15 859 314.3 859.25 314.4 859.5 314.55 859.75 314.7 860 314.85 860.25 315 860.55 315.15 860.8 315.3 861.05 315.45 861.3 315.55 861.6 315.7 861.85 315.85 862.1 316 862.4 316.15 862.65 316.25 862.9 316.4 863.15 316.55 863.45 316.7 863.7 316.8 863.95 316.95 864.2 317.1 864.5 317.25 864.75 317.35 865 317.5 865.25 317.6 865.55 317.75 865.85 317.9 866.1 318 866.35 318.15 866.65 318.25 866.9 318.4 867.15 318.55 867.45 318.65 867.7 318.8 867.95 318.9 868.25 319.05 868.5 319.15 868.75 319.25 869 319.35 869.2 319.5 869.5 319.6 869.75 319.7 869.95 319.8 870.2 319.9 870.5 320.05 870.75 320.15 870.95 320.25 871.2 320.35 871.5 320.45 871.75 320.5 872 320.6 872.25 320.7 872.5 320.8 872.75 320.85 873 320.95 873.25 321.05 873.6 321.1 873.85 321.15 874.1 321.25 874.4 321.3 874.7 321.35 875 321.4 875.25 321.45 875.55 321.5 875.85 321.55 876.1 321.6 876.4 321.6 876.75 321.65 877 321.7 877.25 321.7 877.6 321.75 877.85 321.8 878.15 321.8 878.45 321.85 878.75 321.85 879.05 321.9 879.35 321.95 879.65 321.95 879.95 322 880.25 322 880.55 322 880.85 322.05 881.15 322.05 881.4 322.1 881.75 322.1 882 322.1 882.3 322.15 882.65 322.15 882.9 322.15 883.2 322.15 883.5 322.2 883.8 322.2 884.1 322.2 884.4 322.2 884.7 322.2 885 322.25 885.3 322.25 885.6 322.25 885.9 322.25 886.2 322.25 886.45 322.25 886.8 322.25 887.1 322.25 887.35 322.3 887.7 322.3 888 322.3 888.25 322.3 888.55 322.3 888.9 322.3 889.15 322.3 889.45 322.3 889.8 322.3 890.05 322.3 890.35 322.3 890.7 322.3 890.95 322.3 891.25 322.3 891.5 322.3 891.8 322.3 892.05 322.3 892.3 322.3 892.65 322.3 892.9 322.3 893.15 322.25 893.4 322.25 893.7 322.25 894 322.2 894.3 322.2 894.6 322.15 894.9 322.15 895.2 322.1 895.5 322.05 895.85 322 896.1 321.95 896.4 321.9 896.75 321.85 896.95 321.8 897.2 321.75 897.4 321.7 897.7 321.7 897.9 321.65 898.15 321.6 898.4 321.5 898.6 321.45 898.85 321.4 899.1 321.35 899.35 321.25 899.65 321.15 899.95 321.05 900.2 320.95 900.5 320.85 900.8 320.8 901.05 320.7 901.35 320.6 901.6 320.45 901.9 320.35 902.15 320.25 902.45 320.15 902.75 320.05 903 319.9 903.25 319.8 903.5 319.7 903.85 319.55 904.1 319.45 904.3 319.3 904.55 319.2 904.85 319.05 905.05 318.95 905.3 318.8 905.55 318.7 905.8 318.55 906.05 318.45 906.25 318.3 906.5 318.15 906.7 318.05 907 317.9 907.2 317.75 907.45 317.6 907.65 317.45 907.9 317.3 908.15 317.15 908.35 317.05 908.6 316.85 908.85 316.7 909.1 316.55 909.3 316.4 909.55 316.25 909.8 316.1 910.05 315.95 910.25 315.8 910.45 315.65 910.7 315.5 910.95 315.35 911.2 315.2 911.4 315.05 911.65 314.85 911.9 314.7 912.1 314.55 912.35 314.4 912.55 314.2 912.75 314.05 913 313.9 913.25 313.7 913.45 313.55 913.65 313.4 913.9 313.2 914.1 313.05 914.3 312.85 914.5 312.7 914.7 312.5 914.95 312.3 915.15 312.15 915.35 311.95 915.55 311.75 915.75 311.6 916 311.4 916.2 311.2 916.35 311 916.55 310.85 916.75 310.65 916.95 310.45 917.15 310.3 917.3 310.1 917.45 309.9 917.65 309.7 917.8 309.5 918 309.3 918.2 309.1 918.35 308.95 918.5 308.75 918.65 308.55 918.9 308.35 919.05 308.1 919.2 307.9 919.35 307.7 919.5 307.5 919.65 307.3 919.8 307.1 920 306.85 920.15 306.65 920.25 306.45 920.4 306.25 920.55 306 920.7 305.8 920.8 305.6 921 305.35 921.1 305.15 921.25 304.9 921.35 304.7 921.5 304.45 921.6 304.25 921.75 304 921.85 303.8 922 303.55 922.1 303.3 922.25 303.1 922.35 302.85 922.45 302.6 922.55 302.35 922.65 302.1 922.8 301.85 922.95 301.6 923.05 301.35 923.15 301.1 923.25 300.85 923.35 300.6 923.45 300.35 923.55 300.1 923.65 299.85 923.75 299.55 923.85 299.3 924 299.05 924.1 298.8 924.2 298.55 924.25 298.3 924.35 298.05 924.45 297.8 924.55 297.55 924.6 297.3 924.7 297.05 924.8 296.8 924.85 296.55 925 296.3 925.1 296.05 925.15 295.8 925.25 295.55 925.3 295.3 925.4 295.05 925.45 294.8 925.55 294.55 925.6 294.3 925.7 294.05 925.75 293.8 925.8 293.55 925.85 293.25 925.95 293 926.05 292.7 926.1 292.45 926.15 292.15 926.2 291.85 926.25 291.6 926.3 291.3 926.35 291 926.4 290.75 926.45 290.45 926.5 290.15 926.55 289.9 926.6 289.6 926.65 289.3 926.7 289.05 926.75 288.75 926.8 288.45 926.8 288.2 926.85 287.9 926.95 287.6 926.95 287.35 927 287.05 927.05 286.75 927.05 286.45 927.1 286.2 927.1 285.9 927.15 285.6 927.15 285.35 927.15 285.05 927.2 284.75 927.2 284.45 927.2 284.2 927.25 283.9 927.25 283.65 927.25 283.4 927.25 283.15 927.25 282.9 927.25 282.65 927.25 282.4 927.25 282.15 927.25 281.9 927.25 281.65 927.2 281.4 927.2 281.15 927.15 280.9 927.15 280.6 927.1 280.35 927.05 280.1 927 279.8 926.95 279.55 926.85 279.3 926.85 279 926.8 278.75 926.7 278.5 926.65 278.25 926.6 278 926.55 277.75 926.45 277.5 926.4 277.25 926.3 277 926.25 276.75 926.15 276.5 926.05 276.25 925.95 276 925.8 275.75 925.7 275.5 925.6 275.25 925.5 275 925.4 274.8 925.3 274.55 925.2 274.3 925.1 274.05 925 273.85 924.85 273.6 924.75 273.35 924.6 273.15 924.5 272.9 924.4 272.7 924.25 272.45 924.15 272.25 924 272 923.85 271.8 923.7 271.55 923.55 271.35 923.45 271.15 923.3 270.95 923.15 270.7 923.05 270.5 922.85 270.3 922.7 270.05 922.55 269.85 922.4 269.65 922.25 269.4 922.1 269.2 921.95 268.95 921.75 268.75 921.6 268.5 921.45 268.3 921.25 268.05 921.1 267.85 920.95 267.6 920.75 267.4 920.6 267.15 920.4 266.95 920.25 266.7 920.1 266.5 919.95 266.3 919.7 266.05 919.55 265.85 919.4 265.65 919.2 265.45 919.05 265.2 918.9 265 918.65 264.8 918.5 264.6 918.35 264.4 918.15 264.15 918 263.95 917.8 263.75 917.6 263.55 917.45 263.35 917.25 263.1 917.1 262.9 916.9 262.7 916.7 262.5 916.5 262.3 916.35 262.1 916.15 261.9 916 261.7 915.75 261.5 915.6 261.3 915.4 261.05 915.2 260.85 915.05 260.65 914.85 260.5 914.65 260.3 914.45 260.1 914.25 259.9 914.05 259.7 913.9 259.5 913.65 259.3 913.45 259.1 913.25 258.9 913.05 258.75 912.9 258.55 912.65 258.35 912.45 258.15 912.25 258 912.05 257.8 911.85 257.6 911.6 257.45 911.4 257.25 911.2 257.05 911 256.9 910.75 256.7 910.55 256.5 910.35 256.35 910.15 256.15 909.95 255.95 909.7 255.8 909.5 255.6 909.3 255.45 909.1 255.25 908.9 255.05 908.65 254.9 908.45 254.7 908.25 254.55 908.05 254.35 907.85 254.2 907.6 254 907.4 253.85 907.15 253.65 906.95 253.5 906.7 253.35 906.5 253.15 906.3 253 906.1 252.8 905.85 252.65 905.6 252.5 905.4 252.3 905.2 252.15 904.95 251.95 904.7 251.8 904.45 251.6 904.25 251.45 904.05 251.25 903.8 251.1 903.55 250.95 903.3 250.75 903.1 250.6 902.85 250.4 902.6 250.25 902.4 250.05 902.15 249.9 901.95 249.75 901.65 249.55 901.45 249.4 901.2 249.2 901 249.05 900.8 248.9 900.55 248.75 900.35 248.6 900.1 248.4 899.9 248.25 899.65 248.1 899.45 247.95 899.25 247.8 899.05 247.65 898.85 247.5 898.6 247.35 898.4 247.15 898.2 247 898 246.85 897.8 246.7 897.55 246.5 897.35 246.35 897.15 246.2 896.95 246 896.75 245.8 896.5 245.65 896.3 245.45 896.1 245.3 895.9 245.1 895.7 244.9 895.45 244.75 895.25 244.55 895.05 244.35 894.85 244.2 894.6 244 894.4 243.8 894.2 243.65 894 243.45 893.8 243.25 893.55 243.05 893.35 242.9 893.2 242.7 893 242.5 892.8 242.3 892.55 242.1 892.35 241.95 892.15 241.75 892 241.55 891.8 241.35 891.55 241.15 891.35 240.95 891.2 240.75 891 240.55 890.8 240.35 890.65 240.15 890.4 239.95 890.2 239.75 890.1 239.55 889.95 239.35 889.8 239.1 889.65 238.9 889.45 238.7 889.3 238.5 889.2 238.25 889.05 238.05 888.9 237.85 888.8 237.6 888.65 237.4 888.5 237.15 888.4 236.95 888.25 236.7 888.15 236.5 888.05 236.25 887.9 236.05 887.8 235.8 887.7 235.6 887.55 235.35 887.4 235.1 887.3 234.9 887.2 234.65 887.1 234.45 887 234.15 886.9 233.9 886.8 233.65 886.65 233.4 886.5 233.15 886.4 232.9 886.3 232.65 886.2 232.4 886.05 232.1 885.95 231.85 885.85 231.6 885.75 231.35 885.65 231.1 885.45 230.85 885.35 230.65 885.3 230.45 885.25 230.4 885.25 230.35 885.2 230.2 885.1 230.05
L 885.1 230
Q 885 229.75 884.9 229.5 884.75 229.2 884.65 228.95 884.5 228.7 884.4 228.45 884.25 228.15 884.15 227.9 884.05 227.65 883.9 227.35 883.8 227.1 883.7 226.85 883.6 226.6 883.4 226.3 883.3 226.05 883.2 225.8 883.05 225.55 882.95 225.3 882.85 225.05 882.75 224.8 882.6 224.55 882.45 224.3 882.35 224.05 882.2 223.8 882.1 223.55 881.95 223.3 881.85 223.05 881.7 222.8 881.6 222.55 881.4 222.3 881.25 222.1 881.15 221.85 881 221.6 880.85 221.35 880.7 221.15 880.55 220.9 880.35 220.65 880.2 220.4 880.05 220.15 879.85 219.95 879.7 219.7 879.55 219.45 879.35 219.2 879.2 219 879 218.75 878.85 218.5 878.7 218.3 878.45 218.05 878.3 217.85 878.15 217.6 877.95 217.4 877.8 217.15 877.6 216.9 877.4 216.7 877.25 216.45 877.05 216.25 876.9 216 876.75 215.8 876.55 215.55 876.35 215.35 876.15 215.15 876 214.9 875.8 214.7 875.65 214.45 875.4 214.25 875.25 214 875.05 213.8 874.9 213.55 874.7 213.35 874.55 213.15 874.3 212.9 874.15 212.7 873.95 212.45 873.8 212.25 873.6 212.05 873.4 211.8 873.2 211.6 873.05 211.4 872.85 211.15 872.65 210.95 872.5 210.75 872.25 210.5 872.05 210.3 871.9 210.1 871.7 209.85 871.55 209.65 871.3 209.45 871.1 209.25 870.95 209 870.75 208.8 870.55 208.6 870.35 208.4 870.15 208.2 869.95 208 869.8 207.8 869.6 207.6 869.35 207.4 869.2 207.2 869 207 868.8 206.8 868.6 206.6 868.45 206.4 868.2 206.2 868 206 867.8 205.8 867.6 205.6 867.45 205.4 867.2 205.2 867 205 866.8 204.8 866.6 204.6 866.35 204.4 866.15 204.2 866 204 865.8 203.85 865.6 203.65 865.35 203.45 865.15 203.25 864.95 203.05 864.75 202.9 864.55 202.7 864.3 202.5 864.1 202.3 863.9 202.15 863.7 201.95 863.55 201.8 863.3 201.6 863.1 201.4 862.9 201.25 862.7 201.05 862.5 200.9 862.25 200.7 862.05 200.55 861.85 200.35 861.65 200.15 861.5 200 861.25 199.8 861.05 199.65 860.85 199.45 860.65 199.25 860.45 199.1 860.2 198.9 860 198.7 859.85 198.55 859.65 198.35 859.45 198.15 859.2 198 859.05 197.8 858.85 197.6 858.65 197.4 858.5 197.2 858.25 197.05 858.05 196.85 857.9 196.65 857.7 196.45 857.55 196.25 857.35 196.05 857.15 195.85 857 195.65 856.85 195.45 856.7 195.2 856.6 195 856.45 194.75 856.25 194.55 856.15 194.3 856.05 194.1 855.9 193.85 855.8 193.65 855.7 193.4 855.6 193.2 855.45 192.95 855.35 192.7 855.2 192.45 855.1 192.2 855 191.95 854.9 191.7 854.8 191.45 854.7 191.2 854.6 190.95 854.5 190.7 854.4 190.45 854.25 190.2 854.1 189.95 854 189.7 853.9 189.45 853.8 189.2 853.7 188.95 853.6 188.7 853.5 188.45 853.35 188.2 853.2 187.95 853.1 187.7 852.95 187.45 852.85 187.2 852.7 186.95 852.6 186.7 852.45 186.5 852.25 186.25 852.1 186 852 185.8 851.85 185.55 851.7 185.3 851.55 185.1 851.4 184.85 851.2 184.65 851.05 184.4 850.9 184.2 850.75 184 850.55 183.75 850.4 183.55 850.2 183.35 850.05 183.1 849.85 182.9 849.7 182.7 849.55 182.5 849.35 182.25 849.15 182.05 848.95 181.85 848.8 181.65 848.6 181.45 848.4 181.25 848.2 181.05 848 180.85 847.85 180.65 847.65 180.5 847.5 180.3 847.3 180.1 847.1 179.9 846.9 179.75 846.75 179.55 846.55 179.35 846.35 179.2 846.15 179 845.95 178.8 845.8 178.65 845.6 178.45 845.4 178.25 845.25 178.1 845 177.9 844.8 177.7 844.6 177.55 844.45 177.35 844.25 177.2 844 177 843.8 176.8 843.6 176.65 843.4 176.5 843.15 176.3 842.95 176.15 842.75 175.95 842.5 175.8 842.3 175.6 842 175.4 841.8 175.25 841.6 175.05 841.35 174.85 841.1 174.7 840.9 174.5 840.65 174.3 840.45 174.15 840.2 173.95 839.95 173.8 839.75 173.6 839.5 173.4 839.3 173.25 839 173.05 838.8 172.9 838.55 172.7 838.35 172.5 838.05 172.35 837.85 172.15 837.65 172 837.4 171.8 837.2 171.65 836.9 171.45 836.7 171.3 836.45 171.1 836.25 170.95 835.95 170.75 835.75 170.6 835.5 170.4 835.3 170.25 835 170.05 834.8 169.9 834.55 169.7 834.35 169.5 834.05 169.35 833.85 169.15 833.65 169 833.4 168.8 833.2 168.65 832.95 168.45 832.75 168.3 832.5 168.1 832.3 167.95 832.05 167.75 831.8 167.6 831.6 167.4 831.4 167.25 831.2 167.1 830.9 166.9 830.7 166.75 Z"/>
</g>
</defs>

<g transform="matrix( 1, 0, 0, 1, -527.25,-65.35) ">
<g transform="matrix( 1, 0, 0, 1, 0,0) ">
<use xlink:href="#Symbol_1_4_Layer0_0_FILL"/>
</g>
</g>
</svg>
