
<svg xmlns="http://www.w3.org/2000/svg" version="1.1" xmlns:xlink="http://www.w3.org/1999/xlink" preserveAspectRatio="none" x="0px" y="0px" width="400px" height="400px" viewBox="0 0 400 400">
<defs>
<g id="Symbol_1_3_Layer0_0_FILL">
<path fill="#DE4034" stroke="none" d="
M 811.9 169.9
Q 811.65 169.65 811.4 169.4 811.15 169.2 810.9 168.95 810.65 168.7 810.4 168.5 810.15 168.25 809.9 168 809.65 167.8 809.4 167.55 809.15 167.3 808.9 167.1 808.65 166.85 808.4 166.6 808.15 166.4 807.9 166.15 807.65 165.95 807.4 165.7 807.15 165.5 806.9 165.3 806.7 165.1 806.45 164.85 806.2 164.65 805.95 164.45 805.7 164.25 805.45 164.05 805.25 163.8 805 163.6 804.75 163.4 804.5 163.2 804.25 163 804 162.8 803.75 162.55 803.5 162.35 803.3 162.15 803.05 161.95 802.8 161.75 802.55 161.6 802.3 161.4 802.05 161.2 801.8 161 801.55 160.8 801.3 160.65 801.05 160.45 800.8 160.25 800.55 160.1 800.3 159.9 800.05 159.7 799.75 159.55 799.5 159.35 799.25 159.2 799 159 798.7 158.85 798.45 158.7 798.2 158.55 797.9 158.4 797.65 158.25 797.4 158.1 797.1 157.95 796.8 157.85 796.55 157.7 796.25 157.6 795.95 157.5 795.7 157.35 795.4 157.25 795.1 157.15 794.8 157.05 794.5 156.95 794.2 156.85 793.95 156.75 793.65 156.65 793.35 156.6 793.05 156.5 792.75 156.4 792.45 156.3 792.15 156.25 791.85 156.15 791.6 156.05 791.25 155.95 790.9 155.9 790.6 155.8 790.25 155.7 789.9 155.6 789.6 155.5 789.25 155.45 788.9 155.35 788.6 155.25 788.25 155.2 787.9 155.1 787.6 155 787.25 154.9 786.9 154.85 786.6 154.75 786.25 154.7 785.9 154.6 785.6 154.5 785.3 154.45 784.95 154.35 784.65 154.3 784.3 154.2 784 154.1 783.7 154.05 783.35 153.95 783.05 153.85 782.75 153.75 782.4 153.7 782.1 153.6 781.8 153.5 781.45 153.4 781.15 153.3 780.85 153.2 780.5 153.15 780.2 153.05 779.9 152.95 779.6 152.85 779.25 152.75 778.95 152.65 778.65 152.55 778.35 152.4 778 152.3 777.7 152.2 777.4 152.1 777.1 152 776.75 151.9 776.45 151.8 776.15 151.65 775.85 151.55 775.55 151.45 775.2 151.3 774.9 151.2 774.6 151.1 774.3 150.95 773.95 150.85 773.65 150.75 773.35 150.6 773.05 150.5 772.7 150.4 772.4 150.3 772.1 150.15 771.8 150.05 771.45 149.95 771.15 149.85 770.85 149.7 770.5 149.6 770.2 149.5 769.9 149.35 769.6 149.25 769.25 149.15 768.95 149.05 768.65 148.9 768.35 148.8 768 148.7 767.7 148.55 767.4 148.45 767.1 148.3 766.75 148.2 766.45 148.1 766.15 147.95 765.85 147.85 765.55 147.7 765.25 147.6 764.95 147.45 764.6 147.35 764.3 147.2 764 147.1 763.7 146.95 763.4 146.85 763.1 146.7 762.8 146.55 762.5 146.45 762.2 146.3 761.85 146.2 761.55 146.05 761.25 145.95 760.95 145.8 760.65 145.65 760.35 145.55 760.05 145.4 759.75 145.25 759.45 145.1 759.15 145 758.85 144.85 758.55 144.7 758.25 144.55 757.95 144.4 757.65 144.25 757.35 144.1 757.05 143.95 756.75 143.85 756.45 143.7 756.15 143.55 755.85 143.4 755.55 143.25 755.25 143.1 754.95 142.95 754.65 142.8 754.35 142.65 754.05 142.5 753.75 142.35 753.45 142.2 753.2 142 752.9 141.85 752.6 141.7 752.3 141.5 752 141.35 751.75 141.2 751.45 141 751.15 140.85 750.9 140.65 750.6 140.45 750.35 140.25 750.1 140.05 749.9 139.85 749.65 139.65 749.45 139.45 749.2 139.2 749 139 748.75 138.75 748.6 138.5 748.4 138.3 748.25 138.05 748.1 137.8 747.9 137.55 747.75 137.3 747.6 137.05 747.4 136.85 747.25 136.6 747.1 136.4 746.95 136.15 746.75 135.9 746.6 135.7 746.45 135.45 746.3 135.25 746.15 135 746 134.75 745.85 134.5 745.75 134.2 745.65 133.85 745.55 133.55 745.45 133.2 745.35 132.9 745.3 132.55 745.2 132.2 745.15 131.85 745.05 131.55 745 131.2 744.95 130.85 744.95 130.55 744.95 130.2 744.9 129.9 744.9 129.55 744.9 129.2 744.85 128.9 744.85 128.55 744.85 128.2 744.85 127.9 744.85 127.55 744.85 127.25 744.85 126.9 744.85 126.55 744.85 126.25 744.85 125.9 744.85 125.55 744.85 125.25 744.85 124.9 744.85 124.6 744.85 124.25 744.85 123.9 744.85 123.55 744.85 123.25 744.85 122.9 744.85 122.55 744.85 122.2 744.8 121.9 744.8 121.55 744.8 121.2 744.8 120.9 744.8 120.55 744.8 120.2 744.8 119.85 744.75 119.55 744.75 119.2 744.75 118.85 744.75 118.5 744.7 118.2 744.7 117.85 744.7 117.5 744.7 117.15 744.65 116.8 744.65 116.45 744.6 116.1 744.6 115.75 744.55 115.45 744.55 115.1 744.5 114.75 744.5 114.4 744.45 114.05 744.45 113.7 744.4 113.35 744.35 113 744.3 112.65 744.3 112.3 744.25 112 744.2 111.65 744.15 111.3 744.1 110.95 744.05 110.6 744 110.25 743.95 109.9 743.9 109.6 743.85 109.25 743.75 108.9 743.7 108.6 743.6 108.25 743.55 107.9 743.5 107.6 743.4 107.25 743.3 106.95 743.25 106.6 743.15 106.25 743.05 105.95 743 105.6 742.9 105.3 742.8 104.95 742.7 104.65 742.6 104.3 742.55 104 742.45 103.65 742.35 103.35 742.25 103 742.15 102.7 742.1 102.45 742 102.15 741.95 101.9 741.85 101.6 741.75 101.3 741.7 101.05 741.6 100.75 741.5 100.5 741.45 100.2 741.35 99.9 741.25 99.6 741.15 99.3 741.05 99 740.9 98.7 740.8 98.4 740.7 98.15 740.55 97.85 740.45 97.55 740.3 97.25 740.2 97 740.05 96.7 739.95 96.45 739.8 96.15 739.65 95.9 739.5 95.65 739.35 95.35 739.2 95.1 739.05 94.85 738.9 94.6 738.75 94.35 738.55 94.1 738.4 93.85 738.2 93.65 738.05 93.4 737.85 93.2 737.7 93 737.5 92.75 737.3 92.55 737.15 92.35 736.95 92.1 736.75 91.9 736.55 91.7 736.35 91.5 736.1 91.25 735.9 91.05 735.65 90.85 735.4 90.6 735.15 90.4 734.9 90.2 734.65 90 734.4 89.8 734.1 89.6 733.85 89.4 733.6 89.25 733.35 89.05 733.1 88.9 732.8 88.75 732.55 88.6 732.3 88.45 732 88.3 731.75 88.15 731.45 88.05 731.15 87.95 730.9 87.8 730.6 87.7 730.3 87.6 730 87.5 729.7 87.45 729.4 87.35 729.1 87.3 728.8 87.25 728.5 87.2 728.2 87.15 727.85 87.1 727.55 87.05 727.2 87.05 726.85 87 726.55 87 726.2 86.95 725.85 86.95 725.55 86.95 725.2 86.95 724.85 86.95 724.55 86.95 724.2 86.95 723.85 86.95 723.55 86.95 723.2 86.95 722.85 86.95 722.55 86.95 722.2 86.95 721.85 86.95 721.55 86.95 721.2 87 720.85 87 720.5 87 720.2 87 719.85 87 719.5 87.05 719.15 87.05 718.8 87.05 718.5 87.05 718.15 87.1 717.8 87.1 717.45 87.1 717.15 87.15 716.8 87.15 716.45 87.2 716.1 87.2 715.8 87.25 715.45 87.25 715.1 87.3 714.75 87.35 714.45 87.35 714.1 87.4 713.75 87.45 713.45 87.5 713.1 87.55 712.75 87.55 712.4 87.6 712.1 87.65 711.75 87.75 711.4 87.8 711.1 87.85 710.75 87.9 710.45 88 710.15 88.05 709.85 88.15 709.5 88.2 709.2 88.3 708.9 88.35 708.6 88.45 708.3 88.55 708 88.6 707.7 88.7 707.4 88.8 707.1 88.9 706.8 89 706.5 89.1 706.2 89.2 705.9 89.3 705.6 89.4 705.3 89.5 705 89.6 704.65 89.7 704.35 89.85 704.05 89.95 703.75 90.05 703.45 90.2 703.15 90.3 702.85 90.45 702.55 90.55 702.3 90.65 702.05 90.75 701.8 90.9 701.55 91 701.3 91.1 701.05 91.25 700.8 91.35 700.55 91.5 700.3 91.6 700 91.8 699.7 91.95 699.45 92.1 699.15 92.3 698.9 92.45 698.6 92.65 698.35 92.85 698.1 93.05 697.8 93.25 697.55 93.4 697.3 93.6 697.05 93.8 696.8 94.05 696.55 94.25 696.3 94.45 696 94.65 695.8 94.85 695.6 95 695.4 95.2 695.2 95.4 695 95.6 694.8 95.8 694.6 96 694.4 96.2 694.2 96.4 694 96.65 693.85 96.85 693.65 97.1 693.5 97.3 693.3 97.55 693.15 97.75 693 98 692.85 98.25 692.7 98.5 692.55 98.75 692.45 99 692.3 99.25 692.2 99.5 692.05 99.75 691.95 100 691.85 100.3 691.7 100.6 691.6 100.9 691.45 101.15 691.35 101.45 691.25 101.75 691.15 102.05 691.05 102.35 690.95 102.65 690.85 102.95 690.75 103.25 690.65 103.55 690.55 103.85 690.5 104.15 690.45 104.45 690.35 104.8 690.3 105.1 690.25 105.4 690.2 105.75 690.15 106.1 690.1 106.45 690.05 106.8 690.05 107.15 690 107.45 690 107.8 689.95 108.15 689.95 108.5 689.95 108.85 689.95 109.2 689.95 109.5 689.95 109.8 689.95 110.15 689.95 110.45 689.95 110.75 689.95 111.1 689.95 111.4 689.95 111.75 689.95 112.1 690 112.45 690 112.8 690 113.15 690 113.5 690.05 113.9 690.05 114.25 690.05 114.6 690.1 114.95 690.1 115.3 690.15 115.65 690.15 116 690.2 116.35 690.2 116.7 690.25 117.05 690.3 117.4 690.3 117.7 690.35 118.05 690.4 118.4 690.45 118.75 690.5 119.1 690.55 119.45 690.6 119.8 690.65 120.1 690.7 120.45 690.75 120.8 690.85 121.15 690.9 121.45 691 121.8 691.05 122.15 691.15 122.45 691.25 122.8 691.35 123.1 691.45 123.4 691.55 123.75 691.65 124.05 691.75 124.35 691.85 124.65 692 125 692.1 125.3 692.25 125.6 692.35 125.9 692.5 126.2 692.65 126.5 692.75 126.8 692.9 127.1 693.05 127.45 693.2 127.7 693.35 128 693.5 128.3 693.65 128.55 693.8 128.85 693.95 129.15 694.1 129.45 694.25 129.7 694.4 130 694.5 130.3 694.65 130.6 694.8 130.9 694.95 131.15 695.1 131.45 695.2 131.75 695.3 132 695.4 132.3 695.5 132.55 695.6 132.85 695.7 133.1 695.75 133.4 695.85 133.65 695.95 133.95 696 134.2 696.1 134.5 696.15 134.8 696.2 135.05 696.3 135.35 696.3 135.7 696.3 136.05 696.3 136.4 696.3 136.75 696.25 137.1 696.2 137.4 696.1 137.75 696 138.05 695.9 138.4 695.85 138.7 695.7 139.05 695.6 139.35 695.5 139.65 695.35 139.95 695.25 140.25 695.1 140.55 694.95 140.85 694.85 141.15 694.7 141.45 694.55 141.7 694.35 142 694.2 142.3 694 142.5 693.75 142.75 693.5 143 693.3 143.2 693.05 143.4 692.8 143.55 692.55 143.75 692.3 143.95 692.05 144.1 691.8 144.3 691.55 144.45 691.3 144.6 691.05 144.8 690.8 144.95 690.5 145.1 690.25 145.3 690 145.45 689.75 145.6 689.45 145.75 689.2 145.9 688.9 146.05 688.65 146.2 688.35 146.35 688.1 146.5 687.8 146.65 687.55 146.75 687.25 146.9 687 147.05 686.7 147.2 686.4 147.3 686.15 147.45 685.85 147.6 685.55 147.7 685.25 147.8 685 147.95 684.7 148.05 684.4 148.15 684.1 148.3 683.8 148.4 683.5 148.5 683.2 148.6 682.9 148.7 682.6 148.8 682.3 148.9 682 149 681.7 149.1 681.45 149.2 681.15 149.3 680.85 149.4 680.55 149.5 680.3 149.6 680 149.7 679.7 149.75 679.4 149.85 679.1 149.95 678.8 150.05 678.5 150.1 678.15 150.2 677.85 150.3 677.55 150.4 677.2 150.45 676.9 150.55 676.55 150.65 676.25 150.75 675.9 150.85 675.6 150.9 675.3 151 674.95 151.1 674.65 151.2 674.3 151.25 674 151.35 673.65 151.45 673.35 151.55 673.05 151.6 672.7 151.7 672.4 151.8 672.05 151.9 671.75 151.95 671.4 152.05 671.1 152.15 670.8 152.2 670.45 152.3 670.15 152.4 669.85 152.5 669.5 152.55 669.2 152.65 668.9 152.75 668.55 152.85 668.25 152.9 667.9 153 667.6 153.1 667.3 153.2 666.95 153.3 666.65 153.4 666.35 153.45 666.05 153.55 665.7 153.65 665.4 153.75 665.1 153.85 664.75 153.95 664.45 154.05 664.15 154.15 663.85 154.3 663.5 154.4 663.2 154.5 662.9 154.6 662.6 154.75 662.3 154.85 662 155 661.65 155.1 661.4 155.2 661.1 155.35 660.8 155.5 660.5 155.6 660.2 155.75 659.95 155.9 659.65 156 659.35 156.15 659.05 156.3 658.8 156.45 658.5 156.6 658.2 156.75 657.95 156.9 657.65 157.05 657.35 157.2 657.1 157.35 656.8 157.5 656.5 157.65 656.25 157.8 655.95 157.95 655.65 158.1 655.35 158.25 655.05 158.4 654.75 158.55 654.5 158.7 654.2 158.85 653.9 159 653.6 159.15 653.3 159.3 653 159.45 652.7 159.6 652.45 159.75 652.15 159.9 651.85 160.05 651.55 160.15 651.3 160.3 651 160.45 650.7 160.6 650.45 160.75 650.15 160.9 649.85 161.05 649.6 161.2 649.3 161.35 649.05 161.5 648.75 161.65 648.45 161.8 648.2 161.95 647.9 162.15 647.65 162.3 647.35 162.45 647.05 162.65 646.8 162.8 646.5 163 646.2 163.15 645.9 163.35 645.6 163.5 645.3 163.7 645 163.9 644.75 164.1 644.45 164.25 644.15 164.45 643.85 164.65 643.55 164.8 643.3 165 643 165.2 642.7 165.35 642.4 165.55 642.1 165.75 641.8 165.95 641.55 166.15 641.25 166.35 640.95 166.55 640.65 166.75 640.35 166.95 640.1 167.1 639.85 167.3 639.55 167.5 639.3 167.65 639.05 167.85 638.75 168.05 638.5 168.25 638.25 168.45 638 168.65 637.7 168.85 637.45 169.1 637.2 169.3 636.9 169.5 636.65 169.75 636.4 169.95 636.1 170.15 635.85 170.4 635.6 170.6 635.3 170.8 635.05 171.05 634.8 171.25 634.5 171.45 634.25 171.7 634 171.9 633.7 172.15 633.45 172.35 633.2 172.55 632.95 172.75 632.7 173 632.45 173.2 632.25 173.4 632 173.6 631.75 173.85 631.5 174.05 631.25 174.25 631 174.5 630.8 174.7 630.55 174.9 630.3 175.15 630.1 175.35 629.85 175.6 629.6 175.8 629.4 176.05 629.15 176.25 628.9 176.5 628.7 176.7 628.45 176.95 628.25 177.15 628 177.4 627.8 177.65 627.55 177.85 627.35 178.1 627.1 178.35 626.9 178.55 626.65 178.8 626.45 179.05 626.25 179.3 626 179.55 625.8 179.75 625.6 180 625.35 180.25 625.15 180.5 624.9 180.75 624.7 181 624.5 181.25 624.25 181.5 624.05 181.75 623.8 182 623.6 182.25 623.35 182.5 623.15 182.75 622.9 183 622.7 183.25 622.45 183.5 622.25 183.75 622.05 184 621.8 184.25 621.6 184.5 621.35 184.75 621.15 185 620.95 185.25 620.7 185.5 620.5 185.75 620.3 186.05 620.05 186.3 619.85 186.55 619.65 186.8 619.45 187.05 619.25 187.3 619 187.6 618.8 187.85 618.6 188.1 618.4 188.4 618.2 188.65 618 188.9 617.8 189.2 617.6 189.45 617.4 189.7 617.2 190 617 190.25 616.8 190.5 616.6 190.8 616.4 191.05 616.2 191.35 616 191.6 615.8 191.85 615.6 192.15 615.4 192.4 615.2 192.7 615 192.95 614.8 193.25 614.6 193.5 614.4 193.8 614.25 194.05 614.05 194.3 613.85 194.6 613.65 194.9 613.45 195.15 613.3 195.45 613.1 195.7 612.9 196 612.7 196.25 612.55 196.55 612.35 196.85 612.15 197.1 612 197.4 611.8 197.7 611.65 197.95 611.45 198.25 611.3 198.55 611.15 198.8 610.95 199.1 610.8 199.35 610.6 199.65 610.45 199.95 610.3 200.2 610.1 200.5 609.95 200.8 609.8 201.1 609.65 201.35 609.5 201.65 609.35 201.95 609.2 202.25 609.05 202.55 608.9 202.8 608.75 203.1 608.6 203.4 608.45 203.7 608.3 203.95 608.2 204.25 608.05 204.55 607.9 204.85 607.75 205.1 607.6 205.4 607.45 205.7 607.3 206 607.15 206.25 607 206.55 606.85 206.8 606.7 207.1 606.55 207.4 606.35 207.65 606.2 207.9 606 208.2 605.85 208.45 605.65 208.7 605.45 209 605.25 209.25 605.05 209.5 604.9 209.75 604.7 210 604.5 210.25 604.3 210.5 604.1 210.75 603.9 211 603.75 211.25 603.55 211.5 603.35 211.8 603.15 212.05 603 212.3 602.8 212.55 602.6 212.85 602.45 213.1 602.25 213.35 602.1 213.6 601.9 213.9 601.7 214.15 601.55 214.4 601.35 214.65 601.2 214.95 601 215.2 600.8 215.45 600.65 215.75 600.45 216 600.25 216.3 600.05 216.55 599.85 216.85 599.65 217.15 599.5 217.45 599.3 217.75 599.1 218 598.9 218.3 598.7 218.6 598.5 218.9 598.3 219.2 598.1 219.45 597.9 219.75 597.7 220.05 597.5 220.35 597.3 220.6 597.1 220.9 596.9 221.2 596.7 221.45 596.5 221.75 596.3 222.05 596.1 222.35 595.9 222.6 595.7 222.9 595.5 223.2 595.3 223.5 595.1 223.8 594.9 224.05 594.7 224.35 594.5 224.65 594.3 224.95 594.1 225.25 593.9 225.5 593.7 225.8 593.45 226.1 593.25 226.4 593.05 226.65 592.85 226.95 592.65 227.25 592.45 227.55 592.25 227.8 592.05 228.1 591.85 228.4 591.65 228.7 591.45 229 591.3 229.3 591.1 229.55 590.9 229.85 590.7 230.15 590.5 230.4 590.3 230.7 590.15 230.95 589.95 231.2 589.75 231.5 589.55 231.75 589.4 232.05 589.2 232.3 589 232.6 588.8 232.85 588.6 233.1 588.45 233.4 588.25 233.65 588.05 233.95 587.85 234.2 587.65 234.45 587.45 234.75 587.3 235 587.1 235.25 586.9 235.55 586.7 235.8 586.5 236.05 586.3 236.35 586.1 236.6 585.9 236.85 585.7 237.15 585.5 237.4 585.3 237.65 585.1 237.9 584.9 238.2 584.7 238.45 584.5 238.7 584.25 238.95 584.05 239.2 583.85 239.45 583.65 239.7 583.4 239.95 583.2 240.2 582.95 240.45 582.75 240.7 582.55 240.9 582.35 241.15 582.15 241.35 581.9 241.6 581.7 241.8 581.5 242 581.25 242.25 581.05 242.45 580.85 242.65 580.6 242.85 580.4 243.05 580.15 243.3 579.95 243.5 579.7 243.7 579.45 243.9 579.25 244.05 579 244.2 578.75 244.4 578.55 244.55 578.3 244.7 578.05 244.9 577.8 245.05 577.55 245.2 577.3 245.35 577.1 245.5 576.8 245.65 576.5 245.85 576.2 246 575.9 246.15 575.6 246.35 575.3 246.5 575 246.65 574.7 246.8 574.4 246.9 574.1 247 573.8 247.15 573.5 247.25 573.2 247.35 572.9 247.45 572.55 247.55 572.25 247.7 571.95 247.8 571.65 247.9 571.35 248 571.05 248.1 570.75 248.2 570.4 248.25 570.1 248.35 569.8 248.45 569.5 248.55 569.15 248.65 568.85 248.75 568.5 248.8 568.2 248.9 567.85 249 567.55 249.1 567.2 249.15 566.9 249.25 566.55 249.35 566.25 249.4 565.9 249.5 565.6 249.6 565.25 249.7 564.95 249.8 564.6 249.9 564.3 250 564 250.1 563.7 250.2 563.4 250.3 563.05 250.4 562.75 250.5 562.45 250.6 562.15 250.7 561.85 250.85 561.55 250.95 561.25 251.05 560.9 251.2 560.6 251.3 560.3 251.45 560 251.55 559.7 251.7 559.4 251.8 559.1 251.95 558.8 252.1 558.5 252.25 558.2 252.35 557.95 252.5 557.65 252.65 557.35 252.8 557.05 252.95 556.75 253.1 556.45 253.25 556.2 253.4 555.9 253.55 555.6 253.7 555.3 253.9 555.05 254.05 554.75 254.2 554.5 254.35 554.2 254.5 553.95 254.65 553.7 254.85 553.4 255 553.15 255.15 552.85 255.3 552.6 255.45 552.35 255.65 552.05 255.8 551.8 255.95 551.55 256.15 551.25 256.3 551 256.45 550.75 256.65 550.5 256.8 550.2 257 549.95 257.2 549.7 257.35 549.45 257.55 549.2 257.7 548.95 257.9 548.7 258.1 548.45 258.3 548.2 258.5 547.95 258.7 547.7 258.9 547.45 259.1 547.25 259.3 547 259.5 546.75 259.7 546.55 259.95 546.3 260.15 546.1 260.4 545.9 260.6 545.65 260.85 545.45 261.05 545.25 261.3 545.05 261.5 544.85 261.75 544.65 262 544.45 262.25 544.25 262.45 544.05 262.7 543.9 262.95 543.7 263.2 543.5 263.45 543.35 263.7 543.15 263.95 543 264.25 542.85 264.5 542.65 264.75 542.5 265 542.35 265.3 542.2 265.6 542 265.9 541.85 266.15 541.7 266.45 541.55 266.75 541.35 267.05 541.2 267.3 541.05 267.6 540.9 267.9 540.75 268.2 540.6 268.5 540.45 268.8 540.3 269.05 540.15 269.35 540 269.65 539.85 269.95 539.7 270.25 539.55 270.55 539.4 270.85 539.25 271.2 539.1 271.5 538.95 271.8 538.8 272.1 538.65 272.4 538.5 272.7 538.35 273 538.2 273.3 538.1 273.6 537.95 273.9 537.8 274.25 537.65 274.55 537.5 274.85 537.4 275.15 537.25 275.45 537.1 275.75 537 276.1 536.85 276.4 536.75 276.7 536.6 277 536.5 277.35 536.35 277.65 536.25 277.95 536.1 278.3 536 278.6 535.9 278.9 535.8 279.25 535.7 279.55 535.6 279.9 535.5 280.2 535.4 280.55 535.3 280.9 535.2 281.2 535.1 281.55 535 281.9 534.95 282.2 534.85 282.55 534.75 282.9 534.7 283.2 534.6 283.55 534.55 283.9 534.45 284.25 534.4 284.55 534.35 284.9 534.3 285.25 534.25 285.6 534.2 285.95 534.15 286.3 534.1 286.6 534.1 286.95 534.05 287.3 534.05 287.65 534 287.95 534 288.3 533.95 288.65 533.95 289 533.95 289.3 533.95 289.65 533.95 290 533.95 290.35 533.95 290.65 533.95 291 534 291.35 534 291.7 534 292 534.05 292.3 534.05 292.6 534.1 292.95 534.1 293.25 534.15 293.55 534.2 293.85 534.2 294.15 534.25 294.5 534.3 294.8 534.3 295.1 534.35 295.4 534.4 295.7 534.45 296.05 534.5 296.35 534.55 296.65 534.6 296.95 534.65 297.25 534.7 297.55 534.8 297.85 534.85 298.15 534.9 298.45 535 298.75 535.05 299.05 535.15 299.35 535.25 299.65 535.3 299.95 535.4 300.25 535.5 300.55 535.6 300.85 535.7 301.15 535.8 301.45 535.95 301.75 536.05 302 536.15 302.3 536.3 302.6 536.45 302.85 536.55 303.15 536.7 303.45 536.85 303.75 537 304.05 537.2 304.35 537.35 304.65 537.5 304.95 537.65 305.25 537.85 305.55 538 305.8 538.15 306.05 538.35 306.3 538.5 306.55 538.7 306.8 538.85 307.05 539.05 307.3 539.25 307.55 539.4 307.75 539.6 308 539.8 308.25 540 308.45 540.2 308.7 540.4 308.9 540.6 309.15 540.8 309.35 541 309.55 541.2 309.8 541.4 310 541.65 310.2 541.85 310.4 542.05 310.6 542.3 310.8 542.5 311 542.75 311.2 542.95 311.4 543.2 311.6 543.45 311.75 543.7 312 543.95 312.2 544.25 312.4 544.5 312.6 544.75 312.8 545.05 312.95 545.3 313.15 545.6 313.35 545.85 313.55 546.1 313.75 546.4 313.9 546.7 314.1 546.95 314.25 547.25 314.45 547.55 314.65 547.8 314.8 548.1 314.95 548.4 315.15 548.65 315.3 548.95 315.45 549.25 315.6 549.5 315.75 549.8 315.85 550.1 316 550.4 316.15 550.7 316.25 551 316.4 551.25 316.5 551.55 316.6 551.85 316.75 552.15 316.85 552.45 316.95 552.75 317.05 553.05 317.15 553.35 317.25 553.7 317.35 554 317.45 554.35 317.55 554.65 317.65 555 317.7 555.3 317.8 555.65 317.9 556 317.95 556.3 318.05 556.65 318.1 556.95 318.15 557.3 318.2 557.65 318.25 557.95 318.3 558.3 318.35 558.65 318.4 559 318.45 559.3 318.5 559.65 318.5 560 318.55 560.3 318.6 560.65 318.6 561 318.65 561.35 318.65 561.65 318.65 562 318.7 562.35 318.7 562.7 318.7 563.05 318.75 563.35 318.75 563.7 318.75 564.05 318.75 564.4 318.75 564.7 318.75 565.05 318.75 565.4 318.75 565.75 318.75 566.15 318.75 566.5 318.75 566.85 318.75 567.2 318.75 567.55 318.75 567.9 318.75 568.25 318.75 568.65 318.75 569 318.75 569.35 318.75 569.7 318.75 570.05 318.75 570.4 318.75 570.75 318.8 571.15 318.8 571.5 318.8 571.85 318.8 572.2 318.8 572.55 318.8 572.9 318.8 573.25 318.8 573.65 318.8 574 318.8 574.35 318.8 574.7 318.8 575.05 318.8 575.4 318.75 575.75 318.75 576.1 318.75 576.5 318.75 576.85 318.75 577.2 318.75 577.55 318.75 577.9 318.75 578.25 318.75 578.6 318.75 579 318.75 579.35 318.75 579.7 318.7 580.05 318.7 580.4 318.7 580.75 318.7 581.1 318.7 581.5 318.7 581.85 318.65 582.2 318.65 582.55 318.65 582.9 318.65 583.25 318.6 583.6 318.6 583.95 318.6 584.35 318.55 584.7 318.55 585.05 318.55 585.4 318.5 585.75 318.5 586.1 318.5 586.45 318.45 586.8 318.45 587.1 318.4 587.45 318.4 587.8 318.35 588.15 318.35 588.5 318.3 588.8 318.25 589.15 318.25 589.5 318.2 589.85 318.15 590.15 318.1 590.5 318.1 590.85 318.05 591.2 318 591.55 317.95 591.85 317.9 592.2 317.85 592.55 317.75 592.9 317.7 593.2 317.65 593.55 317.55 593.9 317.5 594.2 317.4 594.55 317.35 594.9 317.25 595.2 317.15 595.55 317.05 595.9 316.95 596.2 316.85 596.55 316.75 596.85 316.65 597.15 316.55 597.45 316.45 597.75 316.35 598 316.25 598.3 316.15 598.6 316.05 598.9 315.95 599.2 315.85 599.5 315.75 599.8 315.6 600.1 315.5 600.35 315.4 600.65 315.25 600.95 315.15 601.25 315 601.55 314.9 601.8 314.75 602.1 314.65 602.4 314.5 602.65 314.35 602.95 314.2 603.25 314.1 603.5 313.95 603.8 313.8 604.1 313.65 604.35 313.5 604.65 313.35 604.9 313.2 605.15 313.05 605.45 312.9 605.7 312.75 606 312.55 606.25 312.4 606.5 312.25 606.75 312.05 607.05 311.9 607.3 311.7 607.55 311.5 607.8 311.3 608.05 311.1 608.3 310.9 608.55 310.7 608.75 310.5 609 310.3 609.2 310.15 609.45 309.95 609.65 309.75 609.9 309.55 610.1 309.35 610.3 309.1 610.55 308.9 610.75 308.7 610.95 308.45 611.1 308.25 611.3 308.05 611.5 307.8 611.7 307.6 611.85 307.35 612.05 307.1 612.2 306.9 612.4 306.65 612.55 306.4 612.7 306.15 612.9 305.9 613.05 305.7 613.2 305.45 613.35 305.2 613.5 304.95 613.65 304.65 613.8 304.4 613.9 304.15 614.05 303.9 614.2 303.6 614.35 303.35 614.45 303.05 614.6 302.8 614.7 302.5 614.85 302.25 614.95 301.95 615.05 301.65 615.15 301.4 615.25 301.1 615.4 300.8 615.5 300.5 615.6 300.25 615.7 299.95 615.75 299.65 615.85 299.35 615.95 299.1 616.05 298.8 616.15 298.5 616.2 298.2 616.3 297.9 616.4 297.6 616.45 297.3 616.55 297 616.6 296.65 616.65 296.35 616.75 296.05 616.8 295.75 616.85 295.45 616.9 295.15 616.95 294.8 617 294.5 617.05 294.2 617.1 293.9 617.15 293.55 617.2 293.25 617.2 292.95 617.25 292.65 617.3 292.35 617.3 292.05 617.35 291.75 617.35 291.5 617.4 291.2 617.4 290.9 617.45 290.6 617.45 290.3 617.45 290 617.45 289.7 617.45 289.4 617.45 289.15 617.45 288.85 617.45 288.55 617.45 288.25 617.45 287.95 617.4 287.7 617.4 287.4 617.4 287.1 617.35 286.75 617.35 286.45 617.3 286.1 617.3 285.8 617.25 285.45 617.2 285.15 617.2 284.8 617.15 284.5 617.1 284.2 617.1 283.85 617.05 283.55 617 283.2 616.95 282.9 616.95 282.55 616.9 282.25 616.85 281.9 616.8 281.6 616.75 281.25 616.7 280.9 616.65 280.55 616.6 280.25 616.55 279.9 616.5 279.55 616.45 279.2 616.4 278.9 616.35 278.55 616.3 278.2 616.25 277.85 616.25 277.55 616.2 277.2 616.2 276.85 616.15 276.5 616.15 276.2 616.15 275.85 616.1 275.5 616.1 275.2 616.1 274.85 616.1 274.5 616.1 274.2 616.1 273.85 616.1 273.5 616.15 273.2 616.15 272.85 616.15 272.5 616.2 272.2 616.2 271.85 616.25 271.55 616.3 271.3 616.35 271 616.45 270.7 616.5 270.45 616.55 270.15 616.65 269.9 616.7 269.6 616.8 269.35 616.9 269.05 617.05 268.8 617.15 268.5 617.3 268.25 617.45 268 617.6 267.75 617.75 267.5 617.9 267.25 618.1 267 618.25 266.75 618.45 266.55 618.6 266.35 618.8 266.1 619 265.95 619.2 265.75 619.4 265.55 619.65 265.35 619.85 265.15 620.1 265 620.35 264.75 620.6 264.55 620.85 264.35 621.1 264.15 621.35 263.9 621.6 263.7 621.85 263.5 622.05 263.3 622.3 263.1 622.5 262.9 622.75 262.7 622.95 262.45 623.2 262.25 623.4 262.05 623.65 261.85 623.85 261.65 624.1 261.45 624.3 261.2 624.55 261 624.75 260.8 625 260.6 625.2 260.4 625.45 260.2 625.7 260 625.9 259.8 626.15 259.6 626.35 259.4 626.55 259.2 626.8 259 627 258.75 627.25 258.55 627.45 258.35 627.7 258.15 627.9 257.95 628.15 257.7 628.35 257.5 628.6 257.25 628.8 257.05 629.05 256.85 629.25 256.6 629.5 256.4 629.7 256.15 629.95 255.9 630.15 255.7 630.35 255.45 630.55 255.2 630.8 254.95 631.05 254.7 631.25 254.4 631.5 254.15 631.7 253.9 631.95 253.6 632.15 253.35 632.4 253.05 632.6 252.8 632.85 252.55 633.05 252.25 633.3 252 633.5 251.7 633.75 251.45 633.95 251.2 634.2 250.9 634.4 250.65 634.65 250.35 634.85 250.1 635.1 249.85 635.35 249.55 635.55 249.3 635.8 249.05 636 248.75 636.25 248.55 636.45 248.3 636.65 248.05 636.85 247.8 637.1 247.6 637.3 247.35 637.55 247.1 637.75 246.9 638 246.65 638.2 246.4 638.45 246.2 638.65 245.95 638.9 245.75 639.1 245.5 639.35 245.3 639.6 245.1 639.85 244.85 640.05 244.65 640.3 244.45 640.55 244.2 640.8 244 641 243.8 641.25 243.6 641.5 243.35 641.75 243.15 642 242.95 642.25 242.75 642.5 242.55 642.75 242.35 643 242.15 643.3 241.95 643.55 241.75 643.8 241.5 644.05 241.3 644.3 241.1 644.55 240.9 644.8 240.7 645.05 240.5 645.3 240.35 645.55 240.15 645.8 239.95 646.05 239.75 646.35 239.55 646.6 239.4 646.85 239.2 647.1 239 647.35 238.8 647.6 238.65 647.85 238.45 648.1 238.25 648.4 238.1 648.65 237.9 648.9 237.7 649.15 237.55 649.4 237.35 649.65 237.15 649.9 237 650.15 236.8 650.4 236.6 650.65 236.45 650.9 236.25 651.15 236.05 651.4 235.85 651.65 235.65 651.9 235.45 652.15 235.25 652.4 235.05 652.7 234.85 652.95 234.6 653.2 234.4 653.45 234.15 653.75 233.95 654 233.75 654.25 233.5 654.5 233.3 654.8 233.1 655.05 232.85 655.3 232.65 655.55 232.4 655.85 232.2 656.1 232 656.35 231.75 656.6 231.55 656.9 231.3 657.15 231.1 657.4 230.9 657.65 230.65 657.9 230.45 658.2 230.2 658.45 230 658.7 229.8 658.95 229.55 659.2 229.4 659.45 229.2 659.7 229 659.9 228.85 660.15 228.65 660.4 228.45 660.65 228.3 660.9 228.1 660.8 228.45 660.75 228.8 660.7 229.15 660.65 229.5 660.6 229.85 660.55 230.2 660.45 230.55 660.4 230.85 660.35 231.2 660.3 231.55 660.25 231.9 660.2 232.25 660.1 232.6 660.05 232.95 660 233.25 659.95 233.6 659.9 233.95 659.85 234.3 659.75 234.65 659.7 235 659.65 235.35 659.6 235.65 659.55 236 659.5 236.35 659.45 236.7 659.4 237.05 659.35 237.4 659.3 237.75 659.25 238.1 659.2 238.45 659.15 238.8 659.1 239.1 659.05 239.45 659 239.8 659 240.15 658.95 240.5 658.9 240.85 658.85 241.2 658.8 241.55 658.8 241.9 658.75 242.25 658.7 242.6 658.65 242.95 658.6 243.3 658.6 243.6 658.55 243.95 658.5 244.3 658.45 244.6 658.45 244.95 658.4 245.3 658.35 245.65 658.35 245.95 658.3 246.3 658.25 246.65 658.25 247 658.2 247.3 658.15 247.65 658.15 248 658.1 248.3 658.05 248.65 658 248.85 658 249.05 658 249.15 658 249.2 658 249.3 658 249.35 657.95 249.7 657.9 250.05 657.85 250.45 657.8 250.8 657.75 251.15 657.7 251.5 657.65 251.85 657.6 252.2 657.6 252.55 657.55 252.9 657.5 253.25 657.45 253.6 657.4 254 657.35 254.35 657.35 254.7 657.3 255.05 657.25 255.4 657.2 255.75 657.15 256.1 657.15 256.45 657.1 256.8 657.05 257.2 657.05 257.45 657 257.75 657 258 656.95 258.2 656.9 258.55 656.85 258.9 656.8 259.2 656.75 259.55 656.7 259.9 656.65 260.2 656.6 260.55 656.6 260.85 656.55 261.2 656.5 261.55 656.45 261.85 656.4 262.2 656.35 262.55 656.3 262.85 656.25 263.2 656.2 263.55 656.15 263.85 656.15 264.2 656.1 264.5 656.05 264.85 656 265.2 656 265.5 655.95 265.85 655.9 266.2 655.9 266.5 655.85 266.85 655.85 267.2 655.8 267.5 655.8 267.85 655.8 268.2 655.8 268.5 655.75 268.85 655.75 269.2 655.75 269.55 655.75 269.85 655.75 270.2 655.75 270.55 655.75 270.9 655.75 271.25 655.75 271.55 655.75 271.9 655.75 272.25 655.75 272.6 655.75 272.9 655.75 273.25 655.75 273.6 655.75 273.95 655.75 274.3 655.75 274.6 655.75 274.95 655.75 275.3 655.75 275.65 655.75 275.95 655.75 276.3 655.75 276.65 655.75 277 655.75 277.35 655.75 277.65 655.75 278 655.75 278.35 655.75 278.7 655.75 279 655.75 279.4 655.75 279.75 655.75 280.1 655.75 280.45 655.75 280.8 655.75 281.15 655.75 281.5 655.75 281.85 655.75 282.2 655.75 282.55 655.75 282.9 655.75 283.3 655.75 283.65 655.75 284 655.75 284.35 655.75 284.7 655.75 285.05 655.75 285.4 655.75 285.75 655.75 286.1 655.75 286.45 655.75 286.85 655.75 287.2 655.75 287.55 655.75 287.9 655.75 288.25 655.75 288.6 655.75 288.95 655.75 289.3 655.75 289.65 655.75 290 655.75 290.4 655.75 290.75 655.75 291.1 655.75 291.45 655.75 291.8 655.75 292.15 655.75 292.5 655.75 292.85 655.75 293.2 655.75 293.55 655.75 293.95 655.75 294.3 655.75 294.65 655.75 295 655.75 295.35 655.75 295.7 655.75 296.05 655.75 296.4 655.75 296.75 655.75 297.1 655.75 297.5 655.75 297.85 655.75 298.2 655.75 298.55 655.75 298.9 655.75 299.15 655.8 299.4 655.85 299.6 655.9 299.85 656 300.05 656.1 300.25 656.25 300.45 656.35 300.65 656.5 300.85 656.65 301 656.7 301.05 656.75 301.1
L 656.75 301.15
Q 656.75 301.4 656.75 301.7 656.75 302 656.75 302.3 656.75 302.6 656.75 302.9 656.75 303.2 656.75 303.5 656.75 303.8 656.75 304.1 656.75 304.4 656.75 304.7 656.75 305 656.75 305.3 656.75 305.6 656.75 305.85 656.75 306.15 656.75 306.45 656.75 306.75 656.75 307.05 656.75 307.35 656.75 307.65 656.75 307.95 656.75 308.25 656.75 308.55 656.75 308.85 656.75 309.15 656.75 309.45 656.75 309.75 656.75 310.05 656.75 310.3 656.75 310.6 656.75 310.9 656.75 311.2 656.75 311.5 656.75 311.8 656.75 312.1 656.75 312.4 656.75 312.7 656.75 313 656.75 313.3 656.75 313.6 656.75 313.9 656.75 314.2 656.75 314.5 656.75 314.75 656.75 315.05 656.7 315.35 656.7 315.65 656.7 315.95 656.7 316.25 656.7 316.55 656.7 316.85 656.7 317.15 656.7 317.45 656.7 317.75 656.7 318.05 656.7 318.35 656.7 318.65 656.7 318.95 656.7 319.2 656.7 319.5 656.7 319.8 656.7 320.1 656.7 320.4 656.7 320.7 656.7 321 656.7 321.3 656.7 321.6 656.7 321.9 656.7 322 656.7 322.05 656.7 322.3 656.7 322.5 656.7 322.8 656.7 323.1 656.7 323.4 656.7 323.65 656.7 323.95 656.7 324.25 656.7 324.55 656.7 324.85 656.7 325.15 656.7 325.45 656.7 325.75 656.7 326.05 656.7 326.35 656.7 326.65 656.7 326.95 656.7 327.25 656.7 327.55 656.7 327.85 656.7 328.1 656.7 328.4 656.7 328.7 656.7 329 656.7 329.3 656.7 329.6 656.7 329.9 656.7 330.2 656.7 330.5 656.7 330.8 656.7 331.1 656.7 331.4 656.7 331.7 656.7 332 656.7 332.3 656.7 332.55 656.7 332.85 656.7 333.15 656.7 333.45 656.7 333.75 656.7 334.05 656.7 334.3 656.7 334.6 656.7 334.85 656.7 335.15 656.7 335.4 656.7 335.7 656.7 335.95 656.7 336.25 656.7 336.5 656.7 336.8 656.7 337.1 656.7 337.35 656.7 337.65 656.7 337.9 656.7 338.2 656.7 338.45 656.7 338.75 656.75 339.05 656.75 339.35 656.75 339.6 656.8 339.9 656.8 340.2 656.85 340.45 656.85 340.75 656.9 341.05 656.9 341.35 656.95 341.6 656.95 341.9 657 342.2 657.05 342.45 657.05 342.75 657.1 343.05 657.15 343.35 657.15 343.6 657.2 343.9 657.25 344.2 657.3 344.45 657.3 344.75 657.35 345.05 657.4 345.3 657.45 345.6 657.5 345.85 657.55 346.15 657.6 346.45 657.65 346.7 657.7 347 657.75 347.3 657.8 347.55 657.85 347.85 657.9 348.1 657.95 348.4 658.05 348.7 658.1 348.95 658.15 349.25 658.2 349.5 658.25 349.8 658.35 350.1 658.4 350.35 658.45 350.65 658.5 350.9 658.6 351.2 658.65 351.45 658.7 351.75 658.8 352.05 658.85 352.3 658.9 352.55 659 352.85 659.05 353.1 659.1 353.35 659.2 353.6 659.25 353.9 659.35 354.15 659.4 354.4 659.45 354.65 659.55 354.95 659.6 355.2 659.7 355.45 659.75 355.7 659.85 356 659.9 356.25 659.95 356.5 660.05 356.8 660.15 357.1 660.2 357.35 660.3 357.65 660.35 357.95 660.4 358.2 660.5 358.5 660.55 358.8 660.65 359.05 660.7 359.35 660.8 359.65 660.85 359.95 660.9 360.2 661 360.5 661.05 360.8 661.15 361.05 661.2 361.35 661.3 361.6 661.35 361.85 661.4 362.1 661.45 362.35 661.55 362.65 661.6 362.9 661.65 363.15 661.75 363.4 661.8 363.7 661.85 363.95 661.95 364.2 662 364.45 662.1 364.7 662.15 365 662.25 365.25 662.3 365.5 662.4 365.75 662.45 366 662.55 366.3 662.65 366.55 662.7 366.8 662.8 367.05 662.85 367.35 662.9 367.6 663 367.85 663.05 368.15 663.1 368.4 663.15 368.65 663.2 368.95 663.25 369.2 663.25 369.45 663.3 369.7 663.3 369.95 663.35 370.2 663.35 370.45 663.4 370.7 663.45 370.95 663.45 371.2 663.5 371.45 663.55 371.7 663.6 372 663.6 372.25 663.65 372.5 663.7 372.75 663.75 373.05 663.8 373.3 663.8 373.55 663.85 373.8 663.9 374.05 663.9 374.35 663.95 374.6 664 374.9 664 375.15 664.05 375.45 664.1 375.7 664.1 376 664.15 376.25 664.15 376.55 664.2 376.8 664.25 377.05 664.25 377.35 664.3 377.6 664.3 377.9 664.3 378.15 664.35 378.45 664.35 378.7 664.4 379 664.4 379.25 664.4 379.55 664.45 379.8 664.45 380.1 664.45 380.35 664.5 380.65 664.5 380.9 664.5 381.2 664.5 381.45 664.5 381.75 664.55 382 664.55 382.25 664.55 382.55 664.55 382.8 664.55 383.1 664.55 383.35 664.55 383.65 664.55 383.9 664.6 384.2 664.6 384.45 664.6 384.75 664.6 385 664.6 385.3 664.6 385.55 664.6 385.85 664.6 386.15 664.6 386.45 664.6 386.7 664.6 387 664.6 387.3 664.6 387.6 664.6 387.9 664.6 388.15 664.6 388.45 664.6 388.7 664.55 388.95 664.55 389.2 664.55 389.45 664.5 389.7 664.5 389.95 664.5 390.2 664.45 390.45 664.45 390.7 664.4 390.95 664.4 391.2 664.35 391.45 664.3 391.7 664.25 391.9 664.2 392.15 664.15 392.4 664.1 392.65 664 392.9 663.95 393.1 663.9 393.35 663.8 393.6 663.75 393.85 663.65 394.05 663.6 394.3 663.45 394.55 663.35 394.75 663.25 395 663.1 395.2 663 395.45 662.85 395.65 662.75 395.9 662.6 396.1 662.45 396.35 662.35 396.55 662.2 396.75 662.05 397 661.9 397.2 661.8 397.4 661.65 397.65 661.5 397.85 661.35 398.05 661.2 398.25 661.05 398.5 660.9 398.7 660.75 398.9 660.6 399.1 660.45 399.3 660.3 399.5 660.15 399.75 659.95 399.95 659.8 400.15 659.65 400.35 659.5 400.55 659.35 400.75 659.2 401 659.05 401.2 658.9 401.4 658.75 401.65 658.55 401.85 658.4 402.05 658.25 402.3 658.1 402.5 657.95 402.7 657.8 402.95 657.65 403.15 657.5 403.4 657.35 403.6 657.2 403.85 657.1 404.05 656.95 404.25 656.8 404.5 656.65 404.75 656.5 404.95 656.35 405.2 656.25 405.4 656.1 405.65 655.95 405.85 655.85 406.1 655.7 406.35 655.6 406.55 655.45 406.8 655.35 407.05 655.2 407.3 655.1 407.5 654.95 407.75 654.85 408 654.75 408.25 654.6 408.5 654.5 408.75 654.4 409 654.25 409.2 654.15 409.45 654.05 409.7 653.95 409.95 653.8 410.2 653.7 410.45 653.6 410.7 653.5 410.95 653.4 411.2 653.3 411.45 653.2 411.7 653.1 411.95 653 412.2 652.9 412.45 652.8 412.75 652.7 413 652.65 413.25 652.55 413.5 652.45 413.75 652.4 414 652.3 414.25 652.25 414.5 652.15 414.8 652.1 415.05 652 415.3 651.95 415.55 651.9 415.8 651.85 416.1 651.75 416.35 651.7 416.6 651.65 416.9 651.6 417.15 651.55 417.4 651.5 417.65 651.45 417.95 651.4 418.2 651.35 418.45 651.3 418.75 651.25 419 651.2 419.3 651.15 419.55 651.05 419.85 651 420.1 650.95 420.4 650.9 420.65 650.85 420.95 650.8 421.2 650.75 421.5 650.7 421.8 650.65 422.05 650.6 422.35 650.55 422.6 650.5 422.9 650.45 423.2 650.4 423.45 650.4 423.75 650.35 424.05 650.3 424.3 650.25 424.6 650.25 424.9 650.2 425.15 650.15 425.45 650.15 425.75 650.1 426 650.1 426.3 650.05 426.6 650.05 426.85 650 427.15 650 427.45 649.95 427.7 649.95 428 649.95 428.3 649.9 428.6 649.9 428.85 649.85 429.15 649.85 429.45 649.85 429.7 649.85 430 649.8 430.3 649.8 430.6 649.8 430.85 649.8 431.15 649.75 431.45 649.75 431.7 649.75 432 649.75 432.3 649.75 432.6 649.7 432.85 649.7 433.15 649.7 433.45 649.7 433.75 649.7 434.05 649.7 434.3 649.7 434.6 649.7 434.9 649.65 435.2 649.65 435.5 649.65 435.8 649.65 436.05 649.65 436.35 649.65 436.65 649.65 436.95 649.65 437.25 649.65 437.55 649.65 437.8 649.65 438.1 649.65 438.4 649.65 438.7 649.65 439 649.65 439.3 649.65 439.55 649.6 439.85 649.6 440.15 649.6 440.45 649.6 440.75 649.6 441.05 649.6 441.35 649.6 441.6 649.6 441.9 649.6 442.2 649.6 442.5 649.6 442.8 649.6 443.05 649.6 443.3 649.6 443.6 649.65 443.85 649.65 444.15 649.65 444.4 649.65 444.65 649.65 444.95 649.7 445.2 649.7 445.5 649.75 445.75 649.75 446 649.8 446.3 649.8 446.55 649.85 446.8 649.85 447.1 649.9 447.35 649.95 447.6 650 447.9 650.05 448.15 650.1 448.4 650.1 448.7 650.15 448.95 650.25 449.2 650.3 449.45 650.35 449.75 650.4 450 650.45 450.25 650.55 450.5 650.6 450.8 650.7 451.05 650.75 451.3 650.85 451.55 650.9 451.8 651 452.05 651.1 452.35 651.2 452.6 651.3 452.85 651.4 453.15 651.5 453.4 651.6 453.65 651.7 453.95 651.8 454.2 651.9 454.45 652.05 454.7 652.15 455 652.25 455.25 652.4 455.5 652.5 455.75 652.6 456.05 652.75 456.3 652.85 456.55 653 456.8 653.1 457.05 653.25 457.3 653.35 457.55 653.45 457.8 653.6 458 653.7 458.25 653.85 458.5 653.95 458.7 654.1 458.95 654.2 459.2 654.35 459.4 654.5 459.65 654.65 459.9 654.75 460.1 654.9 460.35 655.05 460.55 655.2 460.75 655.35 460.95 655.5 461.2 655.65 461.4 655.8 461.6 655.95 461.8 656.1 462 656.25 462.2 656.4 462.4 656.55 462.6 656.7 462.8 656.9 463 657.05 463.2 657.2 463.4 657.4 463.55 657.55 463.75 657.7 463.95 657.9 464.15 658.1 464.3 658.25 464.5 658.45 464.65 658.65 464.85 658.85 465 659.05 465.2 659.25 465.35 659.45 465.5 659.65 465.7 659.85 465.85 660.05 466 660.25 466.15 660.45 466.35 660.65 466.5 660.85 466.65 661.1 466.8 661.3 466.95 661.5 467.1 661.7 467.25 661.95 467.4 662.15 467.55 662.35 467.7 662.55 467.85 662.8 468 663 468.15 663.25 468.3 663.5 468.45 663.7 468.6 663.95 468.7 664.2 468.85 664.4 469 664.65 469.1 664.9 469.25 665.15 469.35 665.4 469.5 665.65 469.6 665.9 469.7 666.15 469.85 666.35 469.95 666.6 470.05 666.85 470.2 667.1 470.3 667.35 470.4 667.6 470.5 667.85 470.65 668.1 470.75 668.35 470.85 668.6 470.95 668.85 471.05 669.15 471.1 669.4 471.2 669.65 471.3 669.9 471.4 670.15 471.45 670.45 471.55 670.7 471.6 670.95 471.65 671.25 471.7 671.5 471.8 671.8 471.85 672.1 471.9 672.4 471.95 672.65 472 672.95 472.05 673.25 472.1 673.5 472.15 673.8 472.2 674.1 472.25 674.4 472.3 674.65 472.3 674.95 472.35 675.25 472.4 675.55 472.4 675.85 472.45 676.1 472.5 676.4 472.5 676.7 472.55 677 472.55 677.3 472.6 677.55 472.6 677.85 472.6 678.15 472.65 678.45 472.65 678.75 472.7 679 472.7 679.3 472.7 679.6 472.75 679.9 472.75 680.2 472.75 680.45 472.75 680.75 472.8 681 472.8 681.3 472.8 681.55 472.8 681.8 472.8 682.05 472.8 682.35 472.8 682.6 472.8 682.85 472.8 683.15 472.75 683.4 472.75 683.65 472.75 683.9 472.7 684.2 472.7 684.45 472.7 684.7 472.65 685 472.6 685.25 472.6 685.5 472.55 685.8 472.5 686.05 472.5 686.3 472.45 686.6 472.4 686.85 472.35 687.1 472.3 687.35 472.25 687.65 472.2 687.9 472.15 688.15 472.1 688.4 472.05 688.7 472 688.95 471.95 689.2 471.9 689.45 471.85 689.75 471.8 690 471.75 690.25 471.7 690.55 471.65 690.8 471.6 691.05 471.55 691.35 471.5 691.6 471.45 691.9 471.35 692.15 471.3 692.45 471.25 692.7 471.2 692.95 471.1 693.25 471.05 693.5 471 693.8 470.9 694.05 470.85 694.3 470.8 694.6 470.7 694.85 470.65 695.15 470.55 695.4 470.5 695.65 470.45 695.95 470.35 696.2 470.3 696.45 470.2 696.75 470.15 697 470.05 697.3 470 697.55 469.95 697.8 469.85 698.1 469.8 698.35 469.7 698.6 469.65 698.9 469.55 699.15 469.5 699.45 469.45 699.7 469.35 700 469.3 700.25 469.25 700.55 469.15 700.8 469.1 701.1 469.05 701.35 469 701.65 468.95 701.9 468.85 702.2 468.8 702.5 468.75 702.75 468.7 703.05 468.65 703.3 468.6 703.6 468.55 703.9 468.5 704.2 468.45 704.5 468.4 704.75 468.35 705.05 468.3 705.35 468.25 705.65 468.2 705.9 468.15 706.2 468.05 706.5 468 706.8 467.95 707.1 467.9 707.35 467.85 707.65 467.8 707.95 467.7 708.2 467.65 708.5 467.6 708.75 467.55 709.05 467.5 709.3 467.45 709.6 467.4 709.85 467.35 710.15 467.3 710.4 467.25 710.7 467.2 710.95 467.15 711.25 467.05 711.5 467 711.8 466.9 712.05 466.85 712.3 466.75 712.55 466.65 712.8 466.6 713.05 466.5 713.3 466.4 713.55 466.3 713.8 466.2 714.05 466.1 714.35 466 714.6 465.9 714.85 465.8 715.05 465.7 715.3 465.6 715.55 465.5 715.8 465.4 716.05 465.25 716.3 465.15 716.55 465 716.8 464.9 717.05 464.75 717.3 464.65 717.55 464.5 717.8 464.4 718 464.25 718.25 464.15 718.5 464 718.75 463.85 719 463.75 719.25 463.6 719.5 463.45 719.7 463.3 719.95 463.2 720.2 463.05 720.4 462.9 720.65 462.75 720.85 462.6 721.1 462.45 721.35 462.3 721.55 462.2 721.8 462.05 722 461.9 722.25 461.75 722.5 461.6 722.7 461.45 722.95 461.35 723.2 461.2 723.4 461.05 723.65 461.2 723.85 461.35 724.1 461.5 724.3 461.6 724.5 461.8 724.7 461.95 724.9 462.1 725.1 462.25 725.3 462.45 725.5 462.6 725.7 462.75 725.9 462.95 726.1 463.1 726.3 463.25 726.45 463.4 726.65 463.6 726.85 463.75 727.1 463.9 727.3 464.05 727.5 464.2 727.7 464.35 727.9 464.5 728.15 464.65 728.35 464.8 728.6 464.95 728.8 465.1 729.05 465.25 729.3 465.35 729.55 465.5 729.75 465.65 730 465.75 730.25 465.9 730.5 466 730.75 466.15 731 466.25 731.25 466.4 731.5 466.5 731.75 466.6 732 466.7 732.25 466.8 732.5 466.9 732.75 467 733 467.1 733.25 467.2 733.55 467.3 733.8 467.4 734.05 467.45 734.35 467.55 734.6 467.65 734.85 467.7 735.15 467.75 735.4 467.85 735.65 467.9 735.95 467.95 736.2 468 736.5 468.05 736.75 468.1 737 468.15 737.3 468.2 737.55 468.25 737.85 468.3 738.1 468.35 738.4 468.35 738.65 468.4 738.95 468.45 739.2 468.45 739.5 468.5 739.75 468.55 740.05 468.55 740.35 468.6 740.6 468.6 740.9 468.6 741.15 468.65 741.45 468.65 741.7 468.7 742 468.7 742.3 468.7 742.55 468.75 742.85 468.75 743.15 468.8 743.45 468.8 743.7 468.8 744 468.8 744.3 468.85 744.6 468.85 744.9 468.85 745.15 468.85 745.45 468.85 745.75 468.85 746.05 468.85 746.3 468.9 746.6 468.9 746.9 468.9 747.2 468.9 747.5 468.9 747.75 468.9 748.05 468.9 748.35 468.9 748.65 468.9 748.9 468.9 749.2 468.95 749.5 468.95 749.8 468.95 750.05 468.95 750.35 468.95 750.65 468.95 750.95 468.95 751.25 468.95 751.5 469 751.8 469 752.1 469 752.4 469 752.7 469.05 752.95 469.05 753.25 469.05 753.55 469.1 753.85 469.1 754.15 469.1 754.4 469.15 754.7 469.15 755 469.2 755.3 469.2 755.6 469.25 755.85 469.25 756.15 469.3 756.45 469.3 756.75 469.35 757.05 469.35 757.3 469.4 757.6 469.4 757.9 469.45 758.2 469.45 758.45 469.5 758.75 469.5 759.05 469.55 759.35 469.55 759.65 469.6 759.9 469.6 760.2 469.65 760.5 469.7 760.8 469.75 761.1 469.8 761.4 469.8 761.7 469.85 762 469.9 762.25 469.95 762.55 469.95 762.85 470 763.15 470.05 763.45 470.1 763.75 470.15 764.05 470.2 764.3 470.2 764.6 470.25 764.9 470.3 765.2 470.35 765.5 470.4 765.8 470.45 766.1 470.5 766.35 470.55 766.65 470.6 766.95 470.65 767.25 470.7 767.55 470.75 767.8 470.8 768.1 470.8 768.4 470.85 768.7 470.9 769 470.95 769.25 471 769.55 471.05 769.85 471.1 770.15 471.1 770.45 471.15 770.7 471.2 771 471.25 771.3 471.25 771.6 471.3 771.9 471.35 772.2 471.35 772.45 471.4 772.75 471.45 773.05 471.45 773.35 471.5 773.65 471.55 773.95 471.55 774.25 471.6 774.5 471.6 774.8 471.65 775.1 471.65 775.4 471.65 775.7 471.7 775.95 471.7 776.25 471.7 776.5 471.75 776.75 471.75 777.05 471.75 777.3 471.8 777.55 471.8 777.85 471.8 778.1 471.8 778.35 471.85 778.65 471.85 778.9 471.85 779.15 471.85 779.45 471.85 779.7 471.85 779.95 471.85 780.25 471.9 780.5 471.9 780.8 471.9 781.05 471.9 781.35 471.85 781.65 471.85 781.9 471.85 782.2 471.85 782.5 471.8 782.75 471.8 783.05 471.75 783.35 471.75 783.6 471.7 783.9 471.65 784.15 471.65 784.45 471.6 784.75 471.55 785 471.5 785.3 471.45 785.55 471.4 785.85 471.35 786.1 471.3 786.35 471.25 786.6 471.2 786.85 471.15 787.1 471.05 787.35 471 787.65 470.95 787.9 470.85 788.15 470.8 788.4 470.7 788.65 470.65 788.9 470.55 789.15 470.5 789.4 470.4 789.65 470.3 789.9 470.25 790.15 470.15 790.4 470.05 790.65 469.95 790.85 469.85 791.1 469.75 791.35 469.65 791.6 469.55 791.85 469.45 792.1 469.35 792.3 469.25 792.55 469.15 792.8 469 793.05 468.9 793.3 468.8 793.5 468.7 793.75 468.55 794 468.45 794.2 468.3 794.45 468.2 794.7 468.05 794.9 467.95 795.15 467.8 795.35 467.7 795.55 467.55 795.8 467.4 796 467.3 796.25 467.15 796.45 467 796.65 466.9 796.85 466.75 797.1 466.6 797.3 466.45 797.5 466.35 797.7 466.2 797.9 466.05 798.15 465.9 798.35 465.75 798.55 465.55 798.75 465.4 798.95 465.25 799.15 465.1 799.35 464.9 799.6 464.75 799.8 464.55 800 464.4 800.2 464.2 800.4 464.05 800.65 463.85 800.85 463.7 801.05 463.5 801.25 463.35 801.45 463.15 801.65 463 801.85 462.8 802.05 462.6 802.25 462.4 802.45 462.2 802.6 462.05 802.8 461.85 803 461.65 803.2 461.4 803.35 461.2 803.55 461 803.75 460.8 803.9 460.6 804.1 460.4 804.3 460.2 804.45 460 804.65 459.8 804.8 459.55 805 459.35 805.2 459.15 805.35 458.95 805.55 458.75 805.7 458.5 805.9 458.3 806.05 458.1 806.2 457.9 806.35 457.7 806.55 457.45 806.7 457.25 806.85 457.05 807 456.85 807.15 456.65 807.3 456.45 807.45 456.2 807.6 456 807.75 455.8 807.85 455.55 808 455.35 808.15 455.15 808.3 454.9 808.45 454.7 808.6 454.5 808.7 454.25 808.85 454.05 809 453.85 809.1 453.6 809.25 453.4 809.4 453.15 809.5 452.95 809.6 452.7 809.75 452.5 809.85 452.25 810 452.05 810.1 451.8 810.2 451.55 810.3 451.35 810.4 451.1 810.5 450.85 810.6 450.6 810.7 450.4 810.8 450.15 810.9 449.9 811 449.7 811.1 449.45 811.2 449.2 811.3 448.95 811.4 448.75 811.5 448.5 811.6 448.25 811.65 448 811.75 447.75 811.85 447.55 811.9 447.3 812 447.05 812.05 446.8 812.15 446.55 812.2 446.3 812.3 446.05 812.35 445.8 812.4 445.55 812.5 445.3 812.55 445.05 812.6 444.8 812.65 444.55 812.7 444.3 812.75 444.05 812.8 443.75 812.85 443.5 812.85 443.25 812.9 442.95 812.95 442.7 813 442.45 813 442.15 813.05 441.9 813.05 441.65 813.05 441.35 813.1 441.1 813.1 440.85 813.1 440.55 813.15 440.3 813.15 440.05 813.15 439.75 813.15 439.5 813.15 439.25 813.1 438.95 813.1 438.7 813.1 438.45 813.05 438.2 813 437.9 813 437.65 812.95 437.4 812.9 437.15 812.85 436.9 812.75 436.65 812.7 436.4 812.65 436.15 812.55 435.9 812.5 435.65 812.4 435.4 812.35 435.15 812.25 434.9 812.15 434.65 812.1 434.4 812 434.15 811.9 433.9 811.8 433.65 811.7 433.4 811.6 433.15 811.5 432.9 811.4 432.65 811.3 432.4 811.2 432.15 811.1 431.9 811 431.65 810.85 431.4 810.75 431.15 810.65 430.9 810.55 430.65 810.45 430.4 810.35 430.15 810.25 429.9 810.1 429.65 810 429.45 809.9 429.2 809.8 428.95 809.65 428.7 809.55 428.45 809.45 428.2 809.3 427.95 809.2 427.7 809.1 427.45 808.95 427.2 808.85 426.95 808.75 426.7 808.6 426.45 808.5 426.2 808.4 425.95 808.25 425.7 808.15 425.45 808.05 425.15 807.95 424.9 807.8 424.65 807.7 424.4 807.6 424.15 807.5 423.9 807.4 423.6 807.3 423.35 807.2 423.1 807.1 422.85 807 422.6 806.9 422.3 806.8 422.05 806.7 421.8 806.6 421.55 806.5 421.3 806.4 421 806.3 420.75 806.2 420.5 806.1 420.25 806 420 805.9 419.7 805.8 419.45 805.7 419.2 805.55 418.95 805.45 418.7 805.35 418.4 805.25 418.15 805.15 417.9 805.1 417.65 805 417.4 804.9 417.15 804.8 416.9 804.7 416.65 804.6 416.4 804.5 416.15 804.4 415.9 804.3 415.65 804.2 415.4 804.05 415.15 803.95 414.9 803.85 414.65 803.75 414.4 803.65 414.15 803.55 413.9 803.4 413.65 803.3 413.4 803.2 413.15 803.05 412.9 802.95 412.7 802.8 412.45 802.7 412.2 802.55 411.95 802.45 411.7 802.3 411.5 802.15 411.25 802.05 411 801.9 410.8 801.75 410.55 801.6 410.35 801.45 410.1 801.3 409.9 801.2 409.65 801.05 409.4 800.9 409.2 800.75 409 800.55 408.75 800.4 408.55 800.25 408.3 800.1 408.1 799.9 407.85 799.75 407.65 799.6 407.45 799.4 407.2 799.25 407 799.05 406.8 798.9 406.6 798.7 406.35 798.55 406.15 798.35 405.95 798.2 405.75 798 405.5 797.85 405.3 797.65 405.1 797.45 404.85 797.3 404.65 797.1 404.45 796.95 404.2 796.75 404 796.55 403.8 796.35 403.6 796.2 403.35 796 403.15 795.8 402.95 795.65 402.75 795.45 402.5 795.25 402.3 795.1 402.1 794.9 401.85 794.7 401.65 794.55 401.45 794.35 401.25 794.2 401.05 794.1 400.9
L 794.1 400.95
Q 794.05 400.9 794.05 400.85
L 794 400.8
Q 793.85 400.65 793.75 400.5 793.7 400.45 793.65 400.35 793.45 400.15 793.3 399.95 793.15 399.75 792.95 399.5 792.8 399.3 792.65 399.1 792.5 398.85 792.3 398.65 792.15 398.45 792 398.25 791.85 398 791.7 397.8 791.55 397.55 791.4 397.35 791.25 397.15 791.1 396.9 790.95 396.7 790.8 396.45 790.65 396.25 790.5 396 790.35 395.8 790.2 395.55 790.1 395.3 789.95 395.1 789.8 394.85 789.7 394.6 789.55 394.4 789.45 394.15 789.35 393.9 789.25 393.7 789.15 393.45 789.05 393.25 788.95 393 788.85 392.75 788.8 392.55 788.7 392.3 788.6 392.1 788.5 391.85 788.45 391.6 788.35 391.35 788.3 391.15 788.2 390.9 788.15 390.65 788.1 390.35 788 390.1 787.95 389.85 787.9 389.6 787.8 389.3 787.75 389.05 787.7 388.8 787.65 388.5 787.6 388.25 787.55 387.95 787.5 387.7 787.45 387.45 787.4 387.15 787.35 386.85 787.3 386.6 787.3 386.3 787.25 386 787.2 385.7 787.2 385.4 787.15 385.1 787.15 384.8 787.1 384.5 787.05 384.25 787.05 383.95 787 383.65 786.95 383.35 786.95 383.05 786.9 382.75 786.9 382.45 786.85 382.15 786.8 381.9 786.8 381.6 786.75 381.3 786.7 381 786.65 380.7 786.65 380.4 786.6 380.15 786.55 379.85 786.55 379.55 786.5 379.25 786.45 378.95 786.45 378.7 786.4 378.4 786.4 378.1 786.35 377.8 786.3 377.5 786.3 377.2 786.25 376.95 786.25 376.65 786.2 376.35 786.2 376.05 786.15 375.75 786.15 375.5 786.1 375.2 786.1 374.9 786.05 374.6 786.05 374.3 786 374 786 373.75 786 373.45 785.95 373.15 785.95 372.9 785.95 372.6 785.9 372.3 785.9 372.05 785.9 371.75 785.9 371.45 785.85 371.2 785.85 370.9 785.85 370.6 785.85 370.35 785.8 370.05 785.8 369.75 785.8 369.5 785.8 369.2 785.8 368.9 785.8 368.65 785.8 368.35 785.75 368.05 785.75 367.8 785.75 367.5 785.75 367.2 785.75 366.95 785.75 366.65 785.75 366.4 785.75 366.15 785.75 365.85 785.75 365.6 785.75 365.35 785.75 365.05 785.75 364.8 785.75 364.5 785.75 364.25 785.75 364 785.75 363.7 785.75 363.45 785.75 363.2 785.75 362.9 785.75 362.65 785.75 362.4 785.75 362.15 785.8 361.9 785.8 361.6 785.85 361.35 785.85 361.1 785.9 360.85 785.9 360.55 785.95 360.25 786 360 786.05 359.7 786.1 359.4 786.15 359.1 786.2 358.8 786.25 358.5 786.3 358.25 786.35 357.95 786.4 357.65 786.45 357.35 786.5 357.05 786.55 356.75 786.6 356.45 786.65 356.2 786.7 355.9 786.8 355.6 786.85 355.3 786.9 355 786.95 354.75 787 354.45 787.05 354.15 787.1 353.85 787.15 353.55 787.25 353.25 787.3 353 787.35 352.7 787.4 352.4 787.45 352.1 787.5 351.8 787.6 351.5 787.65 351.25 787.7 350.95 787.75 350.65 787.8 350.35 787.85 350.05 787.95 349.8 788 349.5 788.05 349.2 788.1 348.9 788.15 348.6 788.25 348.35 788.3 348.05 788.35 347.75 788.4 347.45 788.45 347.2 788.5 346.9 788.55 346.6 788.6 346.35 788.65 346.05 788.7 345.75 788.75 345.45 788.8 345.2 788.85 344.9 788.9 344.6 788.95 344.35 789 344.05 789 343.75 789.05 343.45 789.1 343.2 789.1 342.9 789.15 342.6 789.2 342.3 789.2 342.05 789.25 341.75 789.25 341.45 789.3 341.15 789.3 340.9 789.35 340.6 789.35 340.35 789.4 340.05 789.4 339.8 789.4 339.5 789.45 339.25 789.45 338.95 789.45 338.7 789.5 338.4 789.5 338.15 789.5 337.85 789.5 337.6 789.5 337.3 789.55 337.05 789.55 336.75 789.55 336.5 789.55 336.2 789.55 335.95 789.6 335.65 789.6 335.4 789.6 335.1 789.6 334.85 789.6 334.55 789.6 334.3 789.6 334 789.65 333.7 789.65 333.45 789.65 333.15 789.65 332.85 789.65 332.6 789.65 332.3 789.65 332.05 789.65 331.75 789.65 331.45 789.65 331.2 789.65 330.9 789.7 330.6 789.7 330.35 789.7 330.05 789.7 329.75 789.7 329.5 789.7 329.2 789.7 328.95 789.7 328.65 789.7 328.35 789.7 328.1 789.75 327.8 789.75 327.5 789.75 327.25 789.75 326.95 789.75 326.65 789.75 326.4 789.8 326.1 789.8 325.85 789.8 325.55 789.8 325.25 789.85 325 789.85 324.7 789.85 324.4 789.9 324.15 789.9 323.85 789.9 323.55 789.95 323.25 789.95 323 790 322.7 790 322.4 790 322.2 790.05 322.05 790.05 321.95 790.05 321.85 790.05 321.55 790.1 321.25 790.1 321 790.15 320.7 790.15 320.4 790.15 320.1 790.2 319.85 790.2 319.55 790.25 319.25 790.25 319 790.3 318.7 790.3 318.4 790.3 318.1 790.35 317.85 790.35 317.55 790.4 317.25 790.4 316.95 790.4 316.7 790.45 316.4 790.45 316.1 790.45 315.85 790.5 315.55 790.5 315.25 790.5 314.95 790.55 314.65 790.55 314.4 790.6 314.1 790.6 313.8 790.65 313.5 790.65 313.25 790.7 312.95 790.7 312.65 790.75 312.35 790.75 312.05 790.8 311.8 790.85 311.5 790.85 311.2 790.9 310.9 790.9 310.65 790.95 310.35 791 310.05 791 309.75 791.05 309.45 791.1 309.2 791.1 308.9 791.15 308.6 791.15 308.3 791.2 308.05 791.25 307.75 791.25 307.45 791.3 307.15 791.3 306.85 791.35 306.6 791.35 306.3 791.4 306 791.4 305.75 791.4 305.45 791.45 305.15 791.45 304.9 791.5 304.6 791.5 304.3 791.5 304 791.55 303.75 791.55 303.45 791.55 303.15 791.55 302.9 791.6 302.6 791.6 302.3 791.6 302.05 791.6 301.75 791.65 301.45 791.65 301.2 791.65 300.9 791.65 300.6 791.65 300.35 791.65 300.05 791.7 299.75 791.7 299.45 791.7 299.2 791.7 298.9 791.7 298.6 791.7 298.35 791.7 298.05 791.7 297.75 791.7 297.5 791.75 297.2 791.75 296.9 791.75 296.6 791.75 296.3 791.75 296 791.7 295.7 791.7 295.45 791.7 295.15 791.7 294.85 791.7 294.55 791.7 294.25 791.65 293.95 791.65 293.65 791.65 293.35 791.6 293.05 791.6 292.8 791.6 292.5 791.55 292.2 791.55 291.9 791.5 291.6 791.5 291.3 791.5 291 791.45 290.7 791.45 290.45 791.4 290.15 791.4 289.85 791.35 289.55 791.35 289.25 791.3 288.95 791.3 288.65 791.3 288.35 791.25 288.05 791.25 287.8 791.2 287.5 791.2 287.2 791.2 286.95 791.15 286.65 791.15 286.35 791.15 286.05 791.1 285.8 791.1 285.5 791.1 285.2 791.05 284.95 791.05 284.65 791.05 284.35 791.05 284.1 791 283.8 791 283.5 791 283.2 791 282.95 791 282.65 790.95 282.35 790.95 282.1 790.95 281.8 790.95 281.5 790.95 281.25 790.95 280.95 790.9 280.65 790.9 280.35 790.9 280.1 790.9 279.8 790.9 279.5 790.9 279.25 790.9 278.95 790.85 278.65 790.85 278.35 790.85 278.05 790.85 277.8 790.85 277.5 790.85 277.2 790.85 276.9 790.85 276.6 790.85 276.3 790.85 276 790.85 275.7 790.85 275.45 790.8 275.15 790.8 274.85 790.8 274.55 790.8 274.25 790.8 273.95 790.8 273.65 790.8 273.4 790.8 273.1 790.8 272.8 790.8 272.5 790.8 272.2 790.8 271.9 790.8 271.6 790.8 271.3 790.8 271.05 790.8 270.75 790.8 270.45 790.8 270.15 790.8 269.85 790.8 269.55 790.8 269.25 790.8 268.95 790.8 268.7 790.8 268.4 790.8 268.1 790.8 267.8 790.8 267.5 790.8 267.2 790.8 266.9 790.8 266.6 790.8 266.35 790.8 266.05 790.8 265.75 790.8 265.45 790.8 265.15 790.8 264.85 790.8 264.55 790.8 264.35 790.8 264.2 790.9 263.95 791 263.8 791.1 263.6 791.15 263.35 791.25 263.05 791.35 262.75 791.4 262.45 791.5 262.1 791.55 261.8 791.65 261.5 791.7 261.15 791.75 260.85 791.8 260.55 791.9 260.2 791.95 259.9 791.95 259.6 792 259.25 792.05 258.95 792.1 258.6 792.15 258.3 792.2 258 792.2 257.65 792.25 257.35 792.3 257 792.3 256.7 792.35 256.35 792.4 256.05 792.4 255.75 792.45 255.4 792.5 255.1 792.5 254.8 792.55 254.5 792.6 254.15 792.6 253.85 792.65 253.55 792.7 253.25 792.7 252.9 792.75 252.6 792.75 252.3 792.75 252 792.8 251.65 792.8 251.3 792.8 250.95 792.8 250.6 792.8 250.25 792.8 249.9 792.8 249.55 792.8 249.2 792.8 248.85 792.75 248.5 792.75 248.15 792.75 247.8 792.75 247.5 792.75 247.15 792.75 246.8 792.7 246.5 792.7 246.15 792.7 245.8 792.7 245.5 792.65 245.15 792.65 244.8 792.6 244.5 792.6 244.15 792.55 243.8 792.55 243.5 792.5 243.15 792.5 242.8 792.45 242.5 792.4 242.15 792.4 241.8 792.35 241.45 792.3 241.15 792.25 240.8 792.2 240.45 792.15 240.1 792.1 239.75 792.05 239.45 792 239.1 791.95 238.75 791.9 238.4 791.85 238.1 791.8 237.75 791.75 237.4 791.7 237.05 791.65 236.75 791.6 236.4 791.65 236.55 791.75 236.7 791.9 237 792.1 237.3 792.25 237.55 792.4 237.85 792.6 238.15 792.75 238.45 792.95 238.7 793.15 239 793.3 239.3 793.5 239.6 793.65 239.85 793.85 240.15 794.05 240.4 794.25 240.7 794.4 241 794.6 241.25 794.8 241.55 795 241.8 795.15 242.1 795.35 242.35 795.55 242.65 795.75 242.9 795.95 243.15 796.15 243.45 796.35 243.7 796.55 243.95 796.75 244.25 796.95 244.5 797.15 244.75 797.35 245 797.55 245.25 797.8 245.55 798 245.8 798.2 246.05 798.4 246.3 798.65 246.55 798.85 246.8 799.05 247.05 799.3 247.3 799.5 247.55 799.7 247.8 799.95 248.05 800.15 248.3 800.4 248.55 800.6 248.8 800.85 249.05 801.05 249.3 801.3 249.55 801.5 249.8 801.75 250.05 801.95 250.25 802.2 250.5 802.45 250.75 802.65 251 802.9 251.25 803.15 251.5 803.4 251.7 803.65 251.95 803.85 252.2 804.1 252.45 804.35 252.65 804.6 252.9 804.8 253.15 805.05 253.4 805.3 253.65 805.55 253.85 805.75 254.1 806 254.35 806.25 254.6 806.45 254.85 806.7 255.1 806.9 255.35 807.15 255.6 807.35 255.8 807.6 256.05 807.8 256.3 808.05 256.55 808.25 256.8 808.5 257.05 808.7 257.35 808.9 257.6 809.15 257.85 809.35 258.1 809.55 258.35 809.75 258.6 809.95 258.85 810.15 259.15 810.35 259.4 810.55 259.65 810.7 259.95 810.9 260.2 811.1 260.5 811.25 260.75 811.45 261.05 811.6 261.35 811.75 261.6 811.9 261.9 812.05 262.25 812.2 262.55 812.35 262.85 812.5 263.15 812.65 263.45 812.8 263.75 812.95 264.1 813.05 264.4 813.2 264.7 813.3 265 813.4 265.35 813.5 265.65 813.6 265.95 813.7 266.3 813.8 266.6 813.9 266.9 814 267.25 814.05 267.55 814.15 267.85 814.25 268.2 814.3 268.5 814.35 268.85 814.45 269.15 814.5 269.5 814.55 269.8 814.6 270.15 814.65 270.5 814.65 270.85 814.7 271.2 814.75 271.55 814.75 271.9 814.75 272.25 814.8 272.6 814.8 272.95 814.8 273.35 814.8 273.7 814.85 274.05 814.85 274.4 814.85 274.75 814.85 275.1 814.85 275.45 814.85 275.8 814.85 276.15 814.85 276.5 814.85 276.85 814.85 277.2 814.85 277.55 814.85 277.9 814.85 278.25 814.85 278.6 814.85 278.95 814.85 279.35 814.85 279.7 814.85 280.05 814.9 280.4 814.9 280.7 814.9 281.05 814.9 281.35 814.9 281.7 814.95 282 814.95 282.35 814.95 282.65 814.95 283 814.95 283.3 815 283.65 815 283.95 815 284.3 815 284.6 815.05 284.95 815.05 285.25 815.05 285.6 815.1 285.9 815.1 286.2 815.1 286.5 815.15 286.85 815.15 287.15 815.15 287.45 815.2 287.75 815.2 288.05 815.25 288.4 815.25 288.7 815.3 289 815.3 289.3 815.35 289.6 815.4 289.9 815.4 290.25 815.45 290.55 815.5 290.85 815.55 291.2 815.6 291.5 815.65 291.85 815.7 292.15 815.75 292.5 815.8 292.8 815.9 293.15 815.95 293.45 816 293.8 816.05 294.1 816.1 294.45 816.2 294.75 816.25 295.1 816.35 295.4 816.4 295.75 816.5 296.05 816.55 296.35 816.65 296.7 816.7 297 816.8 297.3 816.85 297.65 816.95 297.95 817 298.25 817.1 298.6 817.15 298.9 817.25 299.2 817.35 299.55 817.45 299.85 817.5 300.15 817.6 300.45 817.7 300.75 817.8 301.05 817.9 301.35 818 301.65 818.05 301.95 818.15 302.2 818.25 302.5 818.35 302.8 818.45 303.1 818.55 303.4 818.65 303.7 818.8 304 818.9 304.3 819 304.55 819.1 304.85 819.2 305.15 819.35 305.45 819.45 305.7 819.55 306 819.7 306.3 819.8 306.6 819.95 306.85 820.1 307.15 820.2 307.4 820.35 307.7 820.5 307.95 820.65 308.25 820.8 308.5 820.95 308.8 821.1 309.05 821.25 309.35 821.4 309.6 821.55 309.85 821.75 310.1 821.9 310.4 822.05 310.65 822.25 310.9 822.4 311.15 822.6 311.45 822.75 311.7 822.95 311.95 823.1 312.2 823.3 312.45 823.5 312.7 823.65 312.95 823.85 313.2 824.05 313.45 824.25 313.7 824.45 313.95 824.65 314.2 824.85 314.45 825 314.65 825.2 314.85 825.4 315.05 825.55 315.25 825.75 315.45 825.95 315.7 826.15 315.85 826.35 316.05 826.55 316.25 826.75 316.45 827 316.7 827.25 316.9 827.5 317.1 827.75 317.35 828 317.55 828.3 317.75 828.55 318 828.8 318.2 829.05 318.4 829.3 318.6 829.6 318.8 829.85 318.95 830.1 319.15 830.35 319.35 830.6 319.5 830.9 319.7 831.15 319.9 831.4 320.05 831.7 320.25 831.95 320.4 832.2 320.6 832.5 320.75 832.75 320.9 833.05 321.1 833.3 321.25 833.6 321.4 833.85 321.55 834.15 321.75 834.45 321.9 834.7 322.05 835 322.2 835.25 322.35 835.55 322.5 835.85 322.65 836.1 322.8 836.4 322.95 836.7 323.1 836.95 323.25 837.25 323.4 837.55 323.55 837.8 323.7 838.1 323.85 838.4 324 838.7 324.1 839 324.25 839.3 324.45 839.6 324.6 839.9 324.75 840.2 324.9 840.5 325.05 840.85 325.15 841.15 325.3 841.45 325.45 841.75 325.6 842.05 325.75 842.4 325.9 842.7 326.05 843 326.15 843.3 326.3 843.65 326.45 843.9 326.55 844.2 326.65 844.5 326.8 844.8 326.9 845.1 327 845.4 327.15 845.65 327.25 845.95 327.35 846.25 327.45 846.55 327.55 846.85 327.6 847.15 327.7 847.45 327.75 847.75 327.85 848.05 327.9 848.4 327.95 848.7 328 849 328.05 849.35 328.1 849.65 328.15 850 328.2 850.3 328.25 850.65 328.25 850.95 328.3 851.3 328.3 851.65 328.3 851.95 328.3 852.3 328.3 852.6 328.25 852.9 328.25 853.25 328.2 853.55 328.15 853.85 328.1 854.2 328.1 854.5 328 854.8 327.95 855.1 327.9 855.4 327.8 855.7 327.75 856.05 327.65 856.35 327.55 856.65 327.45 856.95 327.35 857.25 327.2 857.55 327.1 857.85 327 858.15 326.9 858.45 326.75 858.7 326.65 859 326.5 859.3 326.4 859.6 326.25 859.85 326.15 860.1 326.05
L 860.05 326.05
Q 860.4 325.9 860.7 325.8 861.05 325.65 861.4 325.5 861.7 325.4 862.05 325.25 862.35 325.1 862.7 324.95 863 324.85 863.35 324.7 863.65 324.55 864 324.4 864.3 324.3 864.6 324.2 864.9 324.05 865.2 323.95 865.5 323.8 865.8 323.7 866.1 323.55 866.4 323.45 866.7 323.3 866.95 323.15 867.25 323.05 867.55 322.9 867.85 322.8 868.15 322.65 868.45 322.5 868.75 322.35 869 322.25 869.3 322.1 869.55 321.95 869.8 321.8 870.05 321.7 870.3 321.55 870.55 321.4 870.8 321.25 871.05 321.1 871.3 320.95 871.5 320.85 871.75 320.7 872.05 320.5 872.35 320.35 872.6 320.2 872.9 320.05 873.2 319.9 873.5 319.7 873.75 319.55 874.05 319.4 874.3 319.25 874.6 319.05 874.85 318.9 875.15 318.75 875.45 318.6 875.7 318.45 876 318.3 876.25 318.1 876.55 317.95 876.8 317.8 877.1 317.65 877.35 317.5 877.65 317.3 877.9 317.15 878.2 317 878.45 316.85 878.75 316.65 879 316.5 879.3 316.35 879.55 316.15 879.8 316 880.1 315.85 880.35 315.65 880.65 315.5 880.9 315.3 881.15 315.15 881.45 315 881.7 314.8 881.95 314.65 882.25 314.45 882.5 314.3 882.8 314.15 883.05 313.95 883.3 313.8 883.55 313.65 883.8 313.5 884.05 313.35 884.3 313.2 884.55 313.05 884.8 312.9 885.05 312.7 885.3 312.55 885.5 312.4 885.75 312.25 886 312.05 886.25 311.9 886.45 311.7 886.7 311.5 886.9 311.35 887.15 311.15 887.35 310.95 887.55 310.75 887.8 310.55 888 310.35 888.2 310.15 888.45 309.95 888.65 309.7 888.85 309.5 889.05 309.3 889.25 309.05 889.45 308.8 889.6 308.6 889.8 308.35 890 308.1 890.15 307.85 890.35 307.6 890.5 307.35 890.7 307.1 890.85 306.85 891 306.6 891.15 306.35 891.3 306.1 891.45 305.8 891.55 305.55 891.7 305.25 891.8 304.95 891.95 304.65 892.05 304.35 892.15 304.05 892.3 303.75 892.4 303.45 892.5 303.15 892.6 302.85 892.7 302.55 892.8 302.25 892.9 301.95 893 301.65 893.1 301.35 893.2 301.05 893.3 300.7 893.4 300.4 893.45 300.1 893.55 299.8 893.6 299.5 893.7 299.15 893.75 298.85 893.85 298.55 893.9 298.25 893.95 297.95 894.05 297.6 894.1 297.3 894.15 297 894.2 296.65 894.25 296.35 894.3 296.05 894.35 295.7 894.4 295.4 894.45 295.05 894.45 294.75 894.5 294.45 894.55 294.1 894.55 293.75 894.6 293.45 894.6 293.1 894.65 292.75 894.65 292.4 894.65 292.1 894.65 291.75 894.7 291.4 894.7 291.1 894.7 290.75 894.7 290.4 894.7 290.1 894.7 289.75 894.7 289.4 894.65 289.05 894.65 288.7 894.65 288.35 894.65 288 894.65 287.65 894.6 287.3 894.6 286.95 894.6 286.6 894.6 286.25 894.55 285.9 894.55 285.5 894.5 285.15 894.5 284.8 894.5 284.45 894.45 284.1 894.4 283.75 894.4 283.4 894.35 283.1 894.35 282.75 894.3 282.45 894.25 282.15 894.2 281.8 894.2 281.5 894.15 281.2 894.1 280.9 894.05 280.55 894 280.25 893.95 279.95 893.9 279.6 893.85 279.3 893.8 279 893.75 278.7 893.7 278.4 893.6 278.05 893.55 277.75 893.45 277.45 893.35 277.15 893.25 276.85 893.2 276.5 893.1 276.2 893 275.9 892.9 275.6 892.75 275.3 892.65 275 892.55 274.7 892.4 274.4 892.3 274.1 892.2 273.8 892.05 273.5 891.9 273.2 891.8 272.9 891.65 272.6 891.5 272.3 891.4 272.05 891.25 271.75 891.1 271.5 891 271.25 890.85 270.95 890.7 270.7 890.55 270.45 890.4 270.2 890.25 269.95 890.1 269.7 889.95 269.45 889.8 269.2 889.65 268.95 889.5 268.7 889.35 268.45 889.15 268.2 889 267.95 888.8 267.7 888.65 267.4 888.45 267.15 888.25 266.9 888.05 266.65 887.85 266.35 887.65 266.1 887.45 265.85 887.25 265.6 887.05 265.3 886.85 265.05 886.6 264.8 886.4 264.55 886.2 264.3 886 264.05 885.8 263.8 885.55 263.55 885.35 263.3 885.15 263.05 884.95 262.8 884.7 262.55 884.5 262.3 884.3 262.05 884.05 261.8 883.85 261.55 883.6 261.3 883.4 261.05 883.15 260.8 882.95 260.55 882.7 260.35 882.5 260.1 882.25 259.9 882 259.65 881.75 259.4 881.5 259.2 881.3 259 881.1 258.8 880.85 258.6 880.65 258.4 880.45 258.2 880.2 258 880 257.8 879.75 257.6 879.55 257.4 879.3 257.2 879.1 257.05 878.85 256.85 878.6 256.65 878.35 256.45 878.1 256.3 877.85 256.1 877.65 255.9 877.4 255.75 877.1 255.55 876.85 255.3 876.55 255.1 876.3 254.9 876.05 254.7 875.75 254.5 875.5 254.25 875.25 254.05 874.95 253.85 874.7 253.6 874.45 253.4 874.15 253.2 873.9 253 873.65 252.75 873.35 252.55 873.1 252.35 872.85 252.15 872.55 251.9 872.35 251.7 872.1 251.55 871.85 251.35 871.6 251.15 871.35 250.95 871.1 250.75 870.85 250.55 870.65 250.35 870.4 250.15 870.15 249.95 869.9 249.75 869.65 249.55 869.4 249.35 869.15 249.15 868.9 248.95 868.65 248.75 868.4 248.6 868.15 248.4 867.9 248.2 867.65 248.05 867.4 247.85 867.15 247.65 866.9 247.5 866.65 247.3 866.4 247.15 866.1 247 865.85 246.8 865.6 246.65 865.35 246.5 865.05 246.3 864.8 246.15 864.55 246 864.3 245.85 864 245.7 863.75 245.55 863.5 245.35 863.2 245.2 862.95 245.05 862.65 244.9 862.4 244.75 862.1 244.6 861.8 244.4 861.5 244.25 861.2 244.05 860.9 243.9 860.6 243.7 860.3 243.55 860 243.35 859.75 243.2 859.5 243.05 859.2 242.9 858.95 242.75 858.7 242.55 858.45 242.4 858.15 242.25 857.9 242.1 857.65 241.9 857.4 241.75 857.15 241.55 856.95 241.3 856.7 241.1 856.5 240.9 856.25 240.65 856.05 240.45 855.8 240.2 855.6 239.95 855.4 239.75 855.2 239.5 855 239.25 854.8 238.95 854.65 238.7 854.45 238.45 854.25 238.15 854.05 237.9 853.9 237.65 853.7 237.35 853.55 237.1 853.35 236.8 853.2 236.55 853 236.25 852.85 236 852.65 235.7 852.5 235.45 852.3 235.15 852.15 234.9 851.95 234.6 851.8 234.35 851.65 234.05 851.45 233.8 851.3 233.5 851.1 233.25 850.95 232.95 850.75 232.7 850.6 232.4 850.45 232.1 850.25 231.85 850.1 231.55 849.9 231.3 849.75 231 849.6 230.75 849.4 230.45 849.25 230.15 849.1 229.9 848.95 229.6 848.75 229.3 848.6 229.05 848.45 228.75 848.3 228.45 848.1 228.15 847.95 227.85 847.8 227.55 847.65 227.3 847.5 227 847.35 226.7 847.2 226.4 847.05 226.1 846.9 225.8 846.75 225.5 846.6 225.2 846.45 224.9 846.3 224.6 846.15 224.3 846 224 845.85 223.7 845.7 223.4 845.55 223.1 845.45 222.8 845.3 222.45 845.15 222.15 845 221.85 844.85 221.55 844.75 221.25 844.6 220.95 844.45 220.65 844.3 220.35 844.2 220.05 844.05 219.75 843.9 219.4 843.75 219.1 843.65 218.8 843.5 218.5 843.35 218.2 843.2 217.9 843.1 217.6 842.95 217.3 842.85 217 842.7 216.65 842.6 216.35 842.5 216.05 842.35 215.75 842.25 215.45 842.15 215.1 842.05 214.8 841.9 214.45 841.8 214.15 841.65 213.85 841.5 213.5 841.4 213.2 841.25 212.9 841.1 212.6 841 212.3 840.85 211.95 840.75 211.65 840.65 211.35 840.5 211.05 840.4 210.7 840.3 210.4 840.2 210.1 840.1 209.8 840 209.45 839.9 209.15 839.8 208.85 839.7 208.5 839.6 208.2 839.5 207.9 839.4 207.6 839.3 207.25 839.2 206.95 839.1 206.65 839 206.3 838.9 206.05 838.8 205.8 838.7 205.55 838.65 205.3 838.55 205.05 838.45 204.8 838.3 204.45 838.15 204.15 838.05 203.85 837.9 203.55 837.75 203.25 837.6 202.9 837.45 202.6 837.3 202.35 837.2 202.05 837.05 201.75 836.9 201.45 836.75 201.15 836.6 200.85 836.45 200.55 836.3 200.25 836.15 199.95 836.05 199.7 835.9 199.45 835.75 199.15 835.6 198.9 835.45 198.65 835.3 198.4 835.15 198.15 835 197.9 834.85 197.65 834.7 197.4 834.5 197.15 834.35 196.9 834.2 196.65 834 196.4 833.85 196.15 833.65 195.95 833.45 195.65 833.25 195.35 833.05 195.05 832.9 194.8 832.7 194.5 832.5 194.2 832.3 193.9 832.1 193.65 831.9 193.35 831.7 193.05 831.5 192.8 831.3 192.5 831.1 192.2 830.9 191.95 830.65 191.65 830.45 191.35 830.25 191.1 830.05 190.8 829.85 190.55 829.65 190.25 829.45 190 829.2 189.7 829 189.4 828.8 189.15 828.6 188.85 828.4 188.6 828.2 188.3 827.95 188.05 827.75 187.75 827.55 187.5 827.35 187.2 827.15 186.95 826.95 186.65 826.75 186.4 826.55 186.15 826.35 185.9 826.15 185.65 825.95 185.35 825.75 185.1 825.55 184.85 825.35 184.6 825.15 184.35 824.95 184.05 824.8 183.8 824.6 183.55 824.4 183.3 824.2 183.05 824 182.8 823.8 182.5 823.6 182.25 823.35 182 823.15 181.75 822.95 181.5 822.75 181.2 822.55 180.95 822.3 180.7 822.1 180.45 821.9 180.2 821.7 179.9 821.45 179.65 821.25 179.4 821.05 179.15 820.8 178.9 820.6 178.65 820.4 178.35 820.15 178.1 819.95 177.85 819.7 177.6 819.5 177.35 819.3 177.1 819.05 176.85 818.85 176.6 818.6 176.35 818.35 176.1 818.15 175.85 817.9 175.6 817.7 175.4 817.45 175.15 817.2 174.9 817 174.65 816.75 174.4 816.5 174.2 816.25 173.95 816.05 173.7 815.8 173.45 815.55 173.2 815.25 173 815 172.75 814.75 172.5 814.5 172.25 814.25 172 814 171.8 813.75 171.55 813.45 171.3 813.2 171.05 812.95 170.85 812.7 170.6 812.45 170.35 812.15 170.1 811.9 169.9 Z"/>
</g>
</defs>

<g transform="matrix( 1, 0, 0, 1, -527.25,-65.35) ">
<g transform="matrix( 1, 0, 0, 1, 0,0) ">
<use xlink:href="#Symbol_1_3_Layer0_0_FILL"/>
</g>
</g>
</svg>
