
<svg xmlns="http://www.w3.org/2000/svg" version="1.1" xmlns:xlink="http://www.w3.org/1999/xlink" preserveAspectRatio="none" x="0px" y="0px" width="400px" height="400px" viewBox="0 0 400 400">
<defs>
<g id="Symbol_1_2_Layer0_0_FILL">
<path fill="#DE4034" stroke="none" d="
M 815.75 189.8
Q 815.5 189.7 815.3 189.5 815.05 189.3 814.85 189.15 814.65 188.95 814.4 188.75 814.2 188.65 813.95 188.45 813.75 188.3 813.55 188.1 813.3 187.9 813.1 187.75 812.85 187.6 812.65 187.4 812.45 187.25 812.25 187.05 812 186.9 811.75 186.75 811.55 186.55 811.35 186.35 811.15 186.25 810.95 186.05 810.65 185.85 810.45 185.75 810.25 185.55 810.05 185.4 809.8 185.25 809.55 185.05 809.3 184.9 809.1 184.75 808.9 184.6 808.65 184.45 808.4 184.3 808.2 184.1 807.95 183.95 807.75 183.8 807.5 183.65 807.25 183.5 807.05 183.35 806.8 183.2 806.6 183.05 806.35 182.9 806.1 182.75 805.85 182.6 805.6 182.5 805.4 182.35 805.1 182.2 804.9 182.05 804.65 181.95 804.4 181.8 804.2 181.65 803.9 181.55 803.65 181.45 803.45 181.3 803.2 181.15 802.95 181.05 802.7 180.95 802.45 180.8 802.2 180.65 801.95 180.55 801.7 180.45 801.45 180.3 801.2 180.15 800.95 180.1 800.65 179.95 800.4 179.8 800.15 179.65 799.9 179.55 799.65 179.4 799.35 179.25 799.1 179.15 798.85 179 798.6 178.85 798.3 178.7 798.05 178.6 797.8 178.45 797.55 178.3 797.25 178.15 797.05 178.1 796.8 177.95 796.55 177.8 796.3 177.7 796.05 177.6 795.8 177.5 795.55 177.35 795.3 177.2 795 177.15 794.75 177.05 794.55 176.9 794.3 176.8 794.05 176.7 793.75 176.6 793.5 176.5 793.25 176.35 793 176.25 792.7 176.2 792.45 176.1 792.2 176 791.95 175.85 791.65 175.75 791.4 175.7 791.15 175.6 790.9 175.5 790.65 175.45 790.35 175.35 790.05 175.3 789.8 175.2 789.55 175.1 789.25 175.05 789 174.95 788.75 174.85 788.45 174.8 788.15 174.75 787.9 174.7 787.6 174.6 787.35 174.55 787 174.5 786.75 174.4 786.45 174.35 786.2 174.3 785.85 174.25 785.6 174.2 785.3 174.1 785.05 174.05 784.7 174 784.45 173.95 784.15 173.85 783.85 173.85 783.55 173.8 783.3 173.75 783 173.65 782.7 173.6 782.4 173.55 782.15 173.5 781.85 173.45 781.5 173.4 781.25 173.35 780.95 173.3 780.7 173.25 780.35 173.2 780.1 173.15 779.8 173.1 779.55 173 779.2 172.95 778.9 172.9 778.65 172.85 778.35 172.85 778.05 172.8 777.75 172.7 777.45 172.65 777.15 172.6 776.85 172.55 776.55 172.5 776.3 172.45 775.95 172.4 775.65 172.4 775.35 172.35 775.1 172.3 774.75 172.25 774.45 172.2 774.2 172.15 773.9 172.15 773.55 172.1 773.25 172.05 773 172 772.65 171.95 772.35 171.95 772.1 171.9 771.8 171.9 771.45 171.9 771.15 171.85 770.9 171.85 770.6 171.8 770.25 171.75 769.95 171.75 769.65 171.7 769.4 171.7 769.05 171.65 768.75 171.65 768.45 171.6 768.15 171.6 767.85 171.55 767.55 171.55 767.3 171.5 767 171.45 766.75 171.45 766.45 171.4 766.2 171.4 765.9 171.35 765.6 171.3 765.35 171.25 765.1 171.25 764.8 171.2 764.5 171.15 764.25 171.1 764 171.05 763.7 171 763.4 170.95 763.15 170.9 762.9 170.85 762.6 170.8 762.3 170.75 762.05 170.65 761.8 170.6 761.5 170.55 761.2 170.45 760.95 170.45 760.7 170.35 760.45 170.3 760.1 170.2 759.85 170.15 759.6 170.1 759.25 170 759 170 758.75 169.9 758.5 169.85 758.15 169.75 757.9 169.7 757.65 169.65 757.35 169.55 757.1 169.5 756.8 169.45 756.55 169.4 756.25 169.35 756 169.25 755.7 169.2 755.4 169.1 755.15 169.05 754.9 169 754.6 168.95 754.3 168.9 754.05 168.8 753.8 168.75 753.45 168.7 753.2 168.6 752.95 168.55 752.65 168.5 752.35 168.45 752.1 168.4 751.85 168.3 751.55 168.25 751.25 168.15 751 168.1 750.7 168.05 750.45 168.05 750.15 167.95 749.85 167.9 749.6 167.85 749.35 167.8 749 167.75 748.75 167.7 748.45 167.65 748.2 167.6 747.85 167.55 747.55 167.55 747.25 167.55 746.95 167.5 746.65 167.45 746.35 167.4 746.05 167.35 745.75 167.3 745.45 167.25 745.15 167.2 744.9 167.15 744.55 167.1 744.3 167.1 744.05 167.05 743.8 166.95 743.5 166.9 743.25 166.85 743 166.75 742.75 166.7 742.45 166.6 742.2 166.6 741.95 166.5 741.7 166.4 741.5 166.3 741.2 166.2 741 166.1 740.75 166 740.55 165.85 740.35 165.75 740.1 165.65 739.9 165.45 739.7 165.3 739.55 165.15 739.5 165.15 739.5 165.1
L 739.5 165.05
Q 739.45 164.85 739.45 164.7 739.5 164.5 739.6 164.25 739.65 164.05 739.7 163.8 739.8 163.6 739.85 163.35 739.95 163.2 740 162.95 740.1 162.75 740.2 162.5 740.35 162.25 740.45 162.05 740.55 161.8 740.7 161.6 740.8 161.35 740.9 161.15 741 160.9 741.1 160.75 741.2 160.5 741.35 160.3 741.5 160.05 741.6 159.85 741.7 159.6 741.8 159.4 741.9 159.15 742.05 158.9 742.15 158.7 742.25 158.45 742.35 158.25 742.45 158 742.6 157.8 742.7 157.55 742.8 157.35 742.9 157.1 743 156.85 743.1 156.6 743.15 156.4 743.25 156.15 743.35 155.95 743.45 155.7 743.5 155.5 743.6 155.2 743.75 155 743.8 154.75 743.9 154.55 744 154.25 744.05 154.05 744.1 153.8 744.2 153.55 744.25 153.3 744.3 153.1 744.35 152.8 744.4 152.6 744.45 152.3 744.5 152.1 744.55 151.85 744.55 151.6 744.6 151.35 744.65 151.15 744.65 150.9 744.7 150.65 744.8 150.4 744.8 150.2 744.85 149.9 744.85 149.7 744.9 149.45 744.9 149.2 744.95 148.95 744.95 148.75 744.95 148.45 745 148.25 745 147.95 745 147.7 745.05 147.45 745.05 147.2 745.05 146.9 745.05 146.7 745.1 146.4 745.1 146.2 745.1 145.9 745.1 145.65 745.1 145.4 745.1 145.15 745.15 144.9 745.15 144.65 745.15 144.4 745.15 144.1 745.15 143.9 745.15 143.6 745.15 143.35 745.15 143.1 745.2 142.85 745.2 142.55 745.2 142.35 745.2 142.05 745.2 141.85 745.2 141.55 745.2 141.3 745.2 141.05 745.25 140.75 745.25 140.55 745.25 140.25 745.3 140 745.3 139.7 745.3 139.45 745.35 139.15 745.35 138.9 745.4 138.65 745.45 138.4 745.45 138.15 745.5 137.9 745.5 137.65
L 745.5 137.6
Q 745.5 137.35 745.5 137.15 745.5 136.75 745.5 136.45 745.5 136.1 745.5 135.8 745.65 135.4 745.75 135.1 745.75 134.75 745.75 134.4 745.95 134.05 746.05 133.75 746.15 133.45 746.25 133.2 746.3 133.05 746.3 132.95 746.35 132.75 746.4 132.5 746.45 132.25 746.5 132 746.55 131.9 746.55 131.8 746.55 131.75 746.55 131.7 746.55 131.35 746.55 131 746.55 130.65 746.55 130.35 746.55 130 746.55 129.65 746.55 129.3 746.55 129 746.55 128.6 746.55 128.3 746.45 127.95 746.3 127.6 746.2 127.25 746.05 126.95 745.95 126.6 745.75 126.25 745.65 125.9 745.5 125.6 745.5 125.2 745.5 124.9 745.4 124.55 745.25 124.2 745.15 123.85 745 123.55 744.9 123.2 744.7 122.85 744.45 122.5 744.2 122.2 743.95 121.8 743.7 121.5 743.55 121.15 743.4 120.85 743.05 120.45 742.65 120.15 742.25 119.8 741.85 119.45 741.5 119.1 741.05 118.8 740.7 118.45 740.25 118.1 739.9 117.75 739.5 117.45 739.1 117.05 738.7 116.75 738.35 116.4 737.9 116.05 737.55 115.7 737.15 115.4 736.75 115.05 736.35 114.7 735.85 114.35 735.3 114.05 734.95 113.65 734.5 113.35 734 113 733.45 112.65 732.95 112.45 732.4 112.2 732.15 112.1 731.9 112 731.4 111.85 730.85 111.75 730.5 111.65 730.05 111.55 726.55 111.55 723 111.55 722.65 111.65 722.2 111.75 721.7 111.85 721.15 112 720 112.1 718.8 112.2 717.25 112.3 715.65 112.45 715.3 112.55 714.9 112.65 714.35 112.75 713.85 112.9 712.7 113.15 711.5 113.35 710.6 113.6 709.65 113.8 708.1 114.05 706.5 114.25 705.65 114.5 704.7 114.7 703.55 114.95 702.35 115.15 701.45 115.5 700.5 115.85 699.85 116.15 699.2 116.5 698.3 116.85 697.35 117.2 696.55 117.5 695.8 117.9 695 118.2 694.2 118.55 693.6 118.9 692.9 119.25 692.4 119.55 691.85 119.9 691.5 120.25 691.05 120.6 690.7 120.9 690.3 121.3 690.05 121.6 689.75 121.95 689.5 122.3 689.25 122.65 689 122.95 688.7 123.3 688.6 123.65 688.45 124 688.2 124.3 687.95 124.7 687.85 125 687.65 125.35 687.3 125.65 686.9 126.05 686.65 126.35 686.35 126.7 686.1 127.05 685.85 127.4 685.75 127.7 685.6 128.05 685.6 128.4 685.6 128.75 685.6 129.05 685.6 129.45 685.6 129.75 685.6 130.1 685.6 130.45 685.6 130.8 685.6 131.1 685.6 131.45 685.6 131.8 685.6 132.15 685.6 132.45 685.6 132.85 685.6 133.15 685.6 133.5 685.6 133.85 685.6 134.2 685.6 134.5 685.6 134.85 685.6 135.2 685.6 135.55 685.6 135.85 685.6 136.25 685.6 136.55 685.6 136.9 685.6 137.2 685.6 137.6 685.6 137.9 685.6 138.25 685.6 138.6 685.6 138.95 685.6 139.25 685.6 139.65 685.75 139.95 685.85 140.3 686 140.6 686.1 141 686.25 141.3 686.35 141.65 686.65 142 686.9 142.35 687.3 142.65 687.65 143 688.1 143.35 688.45 143.7 688.9 144 689.25 144.4 689.65 144.7 690.05 145.05 690.55 145.4 691.05 145.75 691.35 146.05 691.6 146.4 692 146.75 692.4 147.1 692.65 147.4 692.9 147.8 693.15 148.1 693.45 148.45 693.6 148.8 693.7 149.15 693.95 149.45 694.2 149.8 694.35 150.15 694.5 150.5 694.75 150.8 695 151.2 695.15 151.5 695.25 151.85 695.4 152.15 695.5 152.55 695.7 152.85 695.8 153.2 695.95 153.55 696.05 153.9 696.05 154.2 696.05 154.55 696.05 154.9 696.05 155.25 696.05 155.55 696.05 155.95 696.05 156.25 696.05 156.6 696.05 156.95 696.05 157.3 696.05 157.6 696.05 157.95 696.05 158.3 696.05 158.65 696.05 158.95 696.05 159.35 695.95 159.65 695.8 160 695.8 160.35 695.8 160.7 695.7 161 695.5 161.35 695.25 161.7 695 162.05 694.9 162.35 694.75 162.75 694.75 163.05 694.75 163.4 694.65 163.7 694.5 164.1 694.2 164.4 693.95 164.75 693.85 165.1 693.7 165.45 693.45 165.75 693.15 166.1 693.05 166.45 692.9 166.8 692.55 167.1 692.1 167.5 691.85 167.8 691.6 168.15 691.25 168.5 690.8 168.85 690.55 169.15 690.3 169.5 689.75 169.85 689.25 170.2 688.9 170.5 688.45 170.9 687.95 171.2 687.4 171.55 687.05 171.9 686.65 172.25 686.1 172.55 685.6 172.9 684.95 173.25 684.25 173.6 683.4 173.9 682.45 174.3 681.8 174.6 681.15 174.95 680.5 175.3 679.85 175.65 679.1 175.95 678.3 176.3 677.8 176.55 677.25 176.75 676.85 176.85 676.45 177 675.95 177.1 675.45 177.2 674.2 177.3 673.05 177.45 672.45 177.35 671.8 177.3 671.6 177.4 671.35 177.55 671.05 177.7 670.7 177.9 670.35 178.05 670.05 178.2 669.7 178.4 669.35 178.6 669.05 178.75 668.65 178.95 668.35 179.15 668.05 179.3 667.7 179.5 667.35 179.65 667 179.85 666.7 180.05 666.3 180.2 666 180.4 665.65 180.55 665.3 180.7 665 180.9 664.65 181.05 664.35 181.25 663.95 181.45 663.65 181.55 663.3 181.75 662.95 181.95 662.6 182.1 662.25 182.3 661.9 182.45 661.55 182.6 661.25 182.8 660.85 182.95 660.55 183.1 660.2 183.3 659.9 183.45 659.5 183.6 659.15 183.8 658.85 183.95 658.45 184.1 658.1 184.25 657.8 184.45 657.4 184.55 657.05 184.75 656.7 184.9 656.3 185.05 656 185.2 655.65 185.4 655.25 185.5 654.95 185.7 654.6 185.85 654.25 186 653.9 186.2 653.55 186.35 653.2 186.55 652.85 186.7 652.5 186.85 652.15 187.05 651.75 187.25 651.45 187.4 651.1 187.6 650.7 187.8 650.4 187.95 650.05 188.15 649.65 188.3 649.35 188.5 649 188.7 648.7 188.85 648.3 189.05 647.95 189.25 647.65 189.45 647.3 189.6 647 189.8 646.7 190 646.4 190.2 646.05 190.35 645.75 190.55 645.5 190.75 645.15 190.95 644.85 191.15 644.55 191.35 644.25 191.55 643.95 191.75 643.65 191.95 643.35 192.15 643.05 192.35 642.75 192.6 642.45 192.75 642.15 193 641.9 193.15 641.55 193.4 641.3 193.6 641 193.8 640.7 194.05 640.4 194.2 640.15 194.45 639.9 194.6 639.6 194.85 639.35 195 639.15 195.25 638.9 195.45 638.65 195.6 638.35 195.85 638.1 196 637.85 196.25 637.55 196.45 637.25 196.7 636.95 196.95 636.65 197.15 636.4 197.4 636.05 197.55 635.75 197.8 635.5 198 635.2 198.25 634.85 198.45 634.6 198.7 634.3 198.9 634 199.15 633.7 199.35 633.45 199.6 633.15 199.85 632.85 200.05 632.6 200.3 632.35 200.5 632.1 200.75 631.75 200.95 631.5 201.2 631.25 201.4 631 201.65 630.75 201.85 630.45 202.1 630.2 202.3 629.9 202.55 629.65 202.75 629.35 203 629.1 203.2 628.85 203.45 628.55 203.7 628.25 203.9 627.95 204.15 627.7 204.35 627.4 204.6 627.05 204.8 626.8 205 626.5 205.2 626.15 205.45 625.85 205.65 625.6 205.85 625.3 206.1 624.95 206.3 624.7 206.55 624.4 206.7 624.1 206.95 623.75 207.15 623.5 207.4 623.2 207.6 622.9 207.85 622.55 208.05 622.25 208.3 622 208.5 621.65 208.75 621.35 209 621.05 209.2 620.75 209.4 620.45 209.6 620.15 209.85 619.85 210.05 619.55 210.3 619.25 210.45 618.95 210.7 618.65 210.9 618.35 211.05 618.05 211.3 617.8 211.45 617.5 211.65 617.15 211.9 616.9 212.05 616.6 212.3 616.35 212.45 616 212.7 615.75 212.85 615.45 213.1 615.2 213.3 614.9 213.5 614.6 213.75 614.35 213.9 614.1 214.15 613.75 214.35 613.5 214.6 613.25 214.75 613 215 612.75 215.25 612.5 215.45 612.3 215.7 612.1 215.95 611.9 216.2 611.7 216.4 611.45 216.7 611.25 216.95 611.05 217.2 610.9 217.45 610.7 217.7 610.45 217.95 610.25 218.2 610.1 218.5 609.9 218.7 609.7 219.05 609.4 219.3 609.2 219.6 608.95 219.9 608.75 220.15 608.5 220.5 608.25 220.75 608 221.05 607.75 221.3 607.5 221.55 607.25 221.9 606.95 222.15 606.7 222.45 606.45 222.7 606.2 222.95 605.9 223.25 605.65 223.5 605.4 223.8 605.15 224.05 604.85 224.35 604.65 224.6 604.4 224.9 604.2 225.15 603.95 225.35 603.65 225.65 603.45 225.9 603.2 226.15 602.95 226.4 602.75 226.7 602.45 226.95 602.2 227.2 602 227.45 601.75 227.75 601.45 228 601.2 228.25 600.95 228.55 600.7 228.8 600.4 229.1 600.15 229.3 599.9 229.6 599.65 229.85 599.4 230.15 599.1 230.4 598.9 230.65 598.65 230.95 598.4 231.2 598.1 231.5 597.85 231.75 597.6 232.05 597.4 232.25 597.1 232.5 596.85 232.75 596.65 233 596.4 233.25 596.2 233.5 595.9 233.75 595.7 234.05 595.45 234.25 595.25 234.5 595 234.75 594.75 235 594.5 235.3 594.3 235.5 594.1 235.8 593.85 236.05 593.6 236.3 593.4 236.6 593.15 236.9 592.95 237.15 592.75 237.4 592.45 237.7 592.25 237.95 592.05 238.3 591.85 238.55 591.65 238.85 591.4 239.15 591.2 239.4 590.95 239.7 590.75 239.95 590.55 240.3 590.3 240.55 590.1 240.85 589.9 241.15 589.7 241.4 589.5 241.75 589.35 242 589.1 242.3 588.9 242.6 588.75 242.85 588.55 243.2 588.35 243.5 588.15 243.75 587.95 244.1 587.8 244.35 587.6 244.65 587.45 245 587.3 245.25 587.1 245.6 586.9 245.9 586.7 246.2 586.55 246.55 586.35 246.85 586.2 247.2 586.05 247.55 585.8 247.85 585.65 248.15 585.5 248.5 585.35 248.85 585.15 249.15 585 249.45 584.8 249.8 584.65 250.15 584.5 250.4 584.35 250.7 584.2 251 584.05 251.3 583.9 251.55 583.75 251.85 583.55 252.15 583.4 252.4 583.25 252.7 583.1 252.95 582.95 253.25 582.8 253.55 582.55 253.8 582.4 254.1 582.25 254.35 582.05 254.65 581.9 254.9 581.7 255.2 581.55 255.45 581.3 255.75 581.1 256.05 580.9 256.3 580.7 256.65 580.5 256.9 580.25 257.15 580.1 257.5 579.9 257.75 579.7 258.1 579.5 258.4 579.3 258.65 579.05 259 578.85 259.25 578.65 259.55 578.45 259.85 578.25 260.1 578 260.45 577.75 260.7 577.55 261 577.35 261.25 577.15 261.5 576.9 261.8 576.65 262.05 576.45 262.35 576.25 262.6 576.05 262.9 575.75 263.15 575.55 263.4 575.35 263.7 575.1 263.9 574.9 264.2 574.65 264.4 574.45 264.65 574.25 264.9 574.05 265.15 573.8 265.35 573.55 265.65 573.35 265.85 573.1 266.1 572.9 266.3 572.65 266.55 572.35 266.8 572.15 267 571.85 267.25 571.6 267.5 571.25 267.75 571 267.95 570.7 268.25 570.4 268.45 570.1 268.7 569.8 268.95 569.55 269.2 569.25 269.45 568.95 269.7 568.65 269.9 568.35 270.15 568.1 270.4 567.75 270.65 567.5 270.9 567.2 271.15 566.85 271.4 566.6 271.65 566.3 271.95 566.05 272.2 565.75 272.45 565.45 272.7 565.2 273 564.9 273.25 564.6 273.5 564.35 273.75 564.05 274 563.8 274.3 563.5 274.55 563.2 274.85 562.95 275.1 562.7 275.4 562.4 275.65 562.1 275.95 561.85 276.15 561.6 276.45 561.3 276.7 561 276.95 560.75 277.25 560.5 277.5 560.25 277.8 560 278 559.75 278.3 559.5 278.55 559.25 278.8 559 279.05 558.75 279.3 558.5 279.6 558.3 279.8 558.05 280.1 557.75 280.35 557.55 280.65 557.3 280.9 557.1 281.2 556.8 281.4 556.55 281.75 556.3 282 556.1 282.25 555.85 282.6 555.55 282.85 555.3 283.15 555.1 283.45 554.85 283.7 554.55 284.05 554.3 284.3 554.1 284.6 553.9 284.8 553.75 285.05 553.6 285.2 553.4 285.3 553.3 285.35 553.1 285.45 552.95 285.55 552.75 285.6 552.6 285.75 552.3 285.9 552.1 286.05 551.85 286.15 551.65 286.3 551.4 286.5 551.15 286.6 550.9 286.75 550.7 286.95 550.45 287.05 550.25 287.2 550 287.35 549.75 287.5 549.55 287.65 549.35 287.8 549.1 287.95 548.85 288.05 548.65 288.2 548.4 288.35 548.2 288.45 548 288.6 547.7 288.75 547.5 288.9 547.3 289 547.05 289.15 546.85 289.3 546.55 289.45 546.35 289.55 546.15 289.7 545.9 289.8 545.65 289.9 545.4 290.05 545.2 290.2 545 290.35 544.75 290.4 544.5 290.55 544.25 290.7 544.05 290.8 543.85 290.9 543.65 291.05 543.35 291.2 543.15 291.35 542.95 291.45 542.75 291.6 542.5 291.8 542.25 291.9 542 292.05 541.8 292.25 541.6 292.35 541.35 292.5 541.1 292.7 540.9 292.8 540.65 293 540.45 293.15 540.25 293.3 540 293.45 539.8 293.6 539.6 293.75 539.4 293.9 539.2 294.05 539 294.2 538.75 294.35 538.55 294.5 538.35 294.65 538.2 294.8 538 294.95 537.75 295.1 537.55 295.25 537.35 295.4 537.2 295.6 537 295.75 536.8 295.9 536.6 296.1 536.4 296.25 536.25 296.4 536.05 296.6 535.9 296.75 535.7 297 535.5 297.15 535.3 297.35 535.15 297.6 534.95 297.75 534.8 298 534.6 298.15 534.4 298.4 534.25 298.6 534.05 298.8 533.9 299 533.75 299.2 533.55 299.45 533.35 299.6 533.2 299.85 533.05 300.05 532.9 300.25 532.7 300.5 532.6 300.65 532.45 300.85 532.3 301.05 532.1 301.25 531.95 301.45 531.85 301.6 531.7 301.8 531.55 302 531.45 302.2 531.3 302.4 531.1 302.6 531 302.8 530.85 302.95 530.75 303.2 530.65 303.4 530.5 303.6 530.4 303.8 530.3 304 530.2 304.25 530 304.45 529.9 304.7 529.8 304.9 529.7 305.15 529.6 305.35 529.5 305.6 529.35 305.8 529.25 306.05 529.15 306.3 529.1 306.5 529 306.8 528.85 307 528.75 307.25 528.65 307.45 528.55 307.75 528.5 307.95 528.4 308.2 528.3 308.4 528.25 308.7 528.15 308.9 528.1 309.15 528.05 309.4 527.95 309.65 527.9 309.85 527.85 310.15 527.7 310.35 527.65 310.65 527.6 310.85 527.55 311.1 527.5 311.35 527.45 311.6 527.4 311.85 527.35 312.1 527.35 312.35 527.3 312.55 527.25 312.8 527.2 313.05 527.2 313.3 527.15 313.5 527.1 313.8 527.1 314 527.05 314.25 527 314.5 527 314.75 526.95 314.95 526.95 315.25 526.9 315.45 526.9 315.75 526.85 315.95 526.85 316.2 526.85 316.45 526.8 316.7 526.8 316.9 526.8 317.2 526.8 317.4 526.8 317.65 526.8 317.85 526.85 318.1 526.85 318.3 526.85 318.5 526.9 318.75 526.9 318.95 526.95 319.2 527 319.35 527.05 319.6 527.1 319.8 527.15 320 527.2 320.25 527.3 320.45 527.35 320.65 527.45 320.85 527.5 321.05 527.6 321.25 527.7 321.45 527.85 321.7 527.95 321.85 528.05 322.05 528.15 322.2 528.3 322.45 528.4 322.65 528.55 322.8 528.7 323 528.85 323.15 529.05 323.35 529.2 323.55 529.35 323.75 529.55 323.95 529.7 324.1 529.85 324.3 530.1 324.55 530.25 324.7 530.45 324.9 530.6 325.1 530.75 325.25 530.95 325.45 531.1 325.6 531.35 325.8 531.5 326 531.7 326.15 531.9 326.35 532.1 326.5 532.3 326.65 532.5 326.85 532.7 327 532.9 327.15 533.1 327.3 533.3 327.5 533.55 327.65 533.75 327.8 533.95 327.95 534.15 328.1 534.35 328.25 534.6 328.45 534.8 328.55 535 328.75 535.2 328.9 535.4 329 535.65 329.2 535.9 329.35 536.1 329.45 536.3 329.6 536.5 329.8 536.7 329.9 537 330.05 537.2 330.2 537.4 330.4 537.65 330.5 537.9 330.65 538.1 330.8 538.3 330.9 538.55 331.05 538.75 331.25 539 331.35 539.25 331.5 539.45 331.65 539.7 331.8 539.9 331.95 540.2 332.1 540.4 332.25 540.65 332.35 540.9 332.5 541.1 332.65 541.4 332.8 541.65 332.9 541.85 333.05 542.1 333.2 542.4 333.3 542.6 333.45 542.85 333.6 543.1 333.7 543.35 333.8 543.6 333.95 543.85 334.1 544.1 334.2 544.35 334.3 544.65 334.45 544.9 334.55 545.1 334.7 545.35 334.75 545.6 334.9 545.9 335 546.15 335.15 546.4 335.2 546.65 335.35 546.95 335.45 547.2 335.55 547.45 335.65 547.7 335.75 548 335.85 548.25 335.95 548.5 336.05 548.75 336.15 549 336.25 549.3 336.35 549.55 336.45 549.85 336.55 550.1 336.65 550.4 336.7 550.65 336.8 550.9 336.9 551.15 337 551.45 337.1 551.7 337.15 552 337.2 552.25 337.3 552.55 337.4 552.8 337.45 553.05 337.55 553.3 337.6 553.6 337.65 553.85 337.7 554.1 337.75 554.35 337.8 554.6 337.9 554.9 337.95 555.15 338 555.4 338.05 555.65 338.1 556 338.1 556.25 338.15 556.5 338.15 556.75 338.2 557.05 338.25 557.35 338.3 557.6 338.3 557.9 338.35 558.25 338.4 558.5 338.4 558.8 338.45 559.15 338.5 559.4 338.5 559.7 338.55 560 338.55 560.35 338.55 560.6 338.55 560.9 338.6 561.2 338.6 561.5 338.6 561.8 338.65 562.1 338.65 562.35 338.7 562.7 338.7 563 338.7 563.25 338.7 563.55 338.75 563.9 338.75 564.2 338.75 564.45 338.75 564.8 338.8 565.1 338.8 565.35 338.8 565.65 338.8 566 338.8 566.25 338.8 566.55 338.85 566.85 338.85 567.2 338.85 567.45 338.85 567.75 338.85 568.1 338.85 568.4 338.85 568.7 338.85 569 338.85 569.35 338.85 569.65 338.9 569.9 338.9 570.2 338.9 570.55 338.9 570.85 338.9 571.15 338.9 571.5 338.9 571.8 338.9 572.1 338.9 572.4 338.9 572.75 338.9 573.05 338.9 573.35 338.9 573.6 338.9 573.95 338.9 574.25 338.9 574.55 338.9 574.9 338.9 575.2 338.9 575.5 338.9 575.8 338.95 576.15 338.95 576.45 338.95 576.75 338.95 577.1 338.95 577.4 338.95 577.65 338.95 577.9 338.95 578.2 338.95 578.5 338.95 578.75 338.95 579 338.95 579.3 338.95 579.55 338.95 579.8 338.95 580.05 338.95 580.3 338.95 580.6 338.95 580.85 338.95 581.15 338.95 581.4 338.95 581.75 338.95 582.05 338.95 582.35 338.95 582.65 338.95 582.95 338.95 583.25 338.9 583.5 338.9 583.85 338.9 584.15 338.9 584.45 338.9 584.7 338.9 585.05 338.85 585.35 338.85 585.65 338.85 585.9 338.8 586.25 338.8 586.55 338.8 586.85 338.75 587.15 338.75 587.45 338.7 587.7 338.7 588 338.65 588.3 338.6 588.55 338.6 588.8 338.55 589.1 338.55 589.4 338.5 589.65 338.45 589.9 338.4 590.2 338.4 590.5 338.35 590.75 338.25 591 338.2 591.25 338.15 591.6 338.1 591.85 338.1 592.1 338.05 592.35 337.95 592.6 337.9 592.9 337.85 593.2 337.75 593.45 337.65 593.75 337.6 594.05 337.55 594.3 337.5 594.6 337.4 594.85 337.35 595.2 337.25 595.45 337.15 595.7 337.1 596.05 337.05 596.3 336.95 596.55 336.85 596.85 336.75 597.1 336.65 597.4 336.6 597.65 336.5 597.9 336.4 598.15 336.3 598.45 336.2 598.7 336.15 598.95 336.05 599.2 335.95 599.5 335.85 599.75 335.75 600 335.65 600.25 335.55 600.55 335.45 600.8 335.35 601.05 335.2 601.3 335.15 601.55 335 601.8 334.9 602.05 334.75 602.3 334.65 602.5 334.55 602.8 334.4 603 334.25 603.2 334.2 603.4 334.05 603.6 333.9 603.9 333.75 604.1 333.7 604.3 333.55 604.5 333.4 604.7 333.25 604.9 333.15 605.15 333 605.35 332.85 605.55 332.75 605.75 332.6 605.95 332.45 606.2 332.3 606.4 332.2 606.6 332 606.75 331.85 606.95 331.75 607.15 331.55 607.4 331.35 607.55 331.25 607.75 331.05 607.95 330.9 608.1 330.75 608.35 330.55 608.55 330.4 608.7 330.25 608.9 330.05 609.05 329.9 609.25 329.7 609.4 329.5 609.6 329.35 609.8 329.15 609.95 329 610.1 328.85 610.3 328.6 610.45 328.45 610.65 328.25 610.8 328.05 610.95 327.9 611.1 327.7 611.25 327.5 611.4 327.35 611.55 327.1 611.75 326.95 611.9 326.75 612.05 326.55 612.2 326.35 612.35 326.15 612.45 325.95 612.6 325.75 612.75 325.55 612.9 325.35 613.05 325.15 613.2 324.95 613.3 324.75 613.45 324.55 613.55 324.35 613.7 324.1 613.8 323.9 614 323.7 614.1 323.5 614.25 323.25 614.35 323.1 614.45 322.85 614.6 322.65 614.7 322.45 614.8 322.2 614.95 322 615.1 321.8 615.2 321.6 615.3 321.35 615.4 321.15 615.5 320.9 615.6 320.7 615.7 320.45 615.8 320.25 615.9 320 616 319.8 616.1 319.6 616.25 319.35 616.35 319.15 616.45 318.9 616.55 318.7 616.6 318.45 616.7 318.2 616.8 317.95 616.9 317.75 617 317.5 617.05 317.3 617.15 317.05 617.3 316.85 617.4 316.6 617.5 316.4 617.55 316.15 617.65 315.9 617.75 315.65 617.85 315.4 617.95 315.15 618 314.95 618.1 314.65 618.2 314.45 618.25 314.15 618.35 313.95 618.45 313.65 618.5 313.45 618.6 313.15 618.65 312.95 618.7 312.65 618.75 312.45 618.8 312.15 618.85 311.95 618.85 311.65 618.9 311.45 618.95 311.15 618.95 310.9 618.95 310.65 618.95 310.4 619 310.15 618.95 309.9 618.95 309.65 618.9 309.45 618.9 309.25 618.85 309.05 618.85 308.85 618.8 308.65 618.75 308.45 618.75 308.2 618.7 307.95 618.65 307.7 618.6 307.45 618.55 307.2 618.45 306.95 618.35 306.7 618.3 306.45 618.2 306.25 618.1 305.95 618.05 305.75 617.95 305.5 617.85 305.3 617.8 305.05 617.7 304.85 617.6 304.6 617.5 304.35 617.4 304.1 617.3 303.9 617.2 303.65 617.1 303.4 617 303.2 616.85 302.95 616.75 302.75 616.65 302.5 616.55 302.35 616.45 302.1 616.35 301.9 616.25 301.65 616.05 301.45 615.95 301.2 615.85 301 615.7 300.75 615.6 300.5 615.45 300.35 615.35 300.1 615.2 299.9 615.1 299.65 614.9 299.5 614.8 299.25 614.65 299.05 614.55 298.85 614.4 298.6 614.25 298.4 614.1 298.2 614 298 613.8 297.75 613.65 297.6 613.5 297.35 613.35 297.15 613.2 296.95 613.05 296.75 612.9 296.55 612.7 296.35 612.55 296.15 612.4 295.95 612.25 295.75 612.1 295.55 611.95 295.35 611.8 295.2 611.6 294.95 611.4 294.75 611.25 294.6 611.1 294.35 610.95 294.2 610.75 294 610.6 293.8 610.4 293.65 610.2 293.4 610.05 293.25 609.85 293.05 609.7 292.85 609.5 292.7 609.3 292.5 609.1 292.35 608.95 292.15 608.75 291.95 608.6 291.8 608.45 291.65 608.35 291.5 608.45 291.35 608.55 291.2 608.75 290.9 608.9 290.7 609.1 290.4 609.3 290.2 609.6 289.9 609.85 289.6 610.1 289.35 610.3 289 610.6 288.75 610.85 288.45 611.1 288.15 611.35 287.9 611.55 287.6 611.85 287.3 612.1 287.05 612.3 286.75 612.55 286.45 612.85 286.15 613.1 285.9 613.3 285.6 613.55 285.3 613.8 285.05 614.05 284.7 614.3 284.45 614.55 284.15 614.75 283.85 615 283.6 615.3 283.25 615.5 283 615.75 282.7 616 282.4 616.25 282.15 616.5 281.8 616.75 281.55 616.95 281.25 617.2 280.95 617.45 280.65 617.7 280.35 617.95 280.1 618.15 279.8 618.45 279.5 618.65 279.2 618.9 278.9 619.1 278.6 619.35 278.35 619.65 278 619.85 277.75 620.1 277.4 620.3 277.15 620.55 276.85 620.8 276.55 621.05 276.25 621.25 275.95 621.5 275.65 621.7 275.4 621.95 275.15 622.15 274.9 622.35 274.6 622.55 274.35 622.75 274.1 623 273.85 623.2 273.55 623.4 273.3 623.65 273.05 623.85 272.8 624.1 272.55 624.3 272.25 624.5 272.05 624.7 271.75 624.85 271.55 625.05 271.25 625.3 271 625.45 270.75 625.65 270.5 625.8 270.2 626 269.95 626.15 269.7 626.4 269.45 626.55 269.2 626.75 268.9 626.9 268.65 627.1 268.4 627.3 268.1 627.5 267.8 627.7 267.55 627.9 267.3 628.1 266.95 628.25 266.7 628.5 266.4 628.7 266.1 628.85 265.85 629.05 265.55 629.25 265.25 629.4 264.95 629.65 264.7 629.85 264.4 630 264.15 630.2 263.9 630.35 263.65 630.55 263.4 630.75 263.15 630.95 262.9 631.15 262.65 631.3 262.45 631.5 262.15 631.7 261.95 631.95 261.65 632.15 261.45 632.35 261.15 632.6 260.9 632.85 260.6 633.15 260.35 633.35 260.05 633.6 259.8 633.85 259.55 634.15 259.25 634.4 259 634.65 258.7 634.9 258.5 635.1 258.2 635.4 257.95 635.65 257.65 635.9 257.4 636.15 257.15 636.45 256.9 636.7 256.65 636.95 256.35 637.2 256.1 637.5 255.8 637.75 255.6 638.05 255.3 638.3 255.05 638.6 254.8 638.85 254.55 639.1 254.25 639.35 254.05 639.6 253.8 639.9 253.55 640.15 253.3 640.4 253.05 640.7 252.85 641 252.55 641.25 252.35 641.5 252.1 641.8 251.85 642.1 251.65 642.4 251.4 642.65 251.15 642.95 250.9 643.3 250.7 643.6 250.45 643.9 250.2 644.25 249.95 644.55 249.75 644.85 249.5 645.15 249.3 645.5 249.05 645.8 248.85 646.1 248.6 646.45 248.35 646.75 248.15 647.05 247.95 647.4 247.7 647.75 247.55 648.05 247.3 648.35 247.05 648.75 246.9 649.05 246.65 649.35 246.45 649.75 246.2 650.05 246.05 650.35 245.8 650.65 245.6 651 245.35 651.35 245.1 651.65 244.9 652 244.65 652.3 244.5 652.6 244.25 652.9 244.05 653.25 243.8 653.5 243.6 653.8 243.35 654.1 243.15 654.4 242.9 654.7 242.7 654.95 242.45 655.25 242.25 655.55 241.95 655.85 241.75 656.1 241.5 656.35 241.25 656.7 241 656.95 240.8 657.2 240.55 657.45 240.3 657.8 240.05 658.05 239.8 658.3 239.55 658.55 239.35 658.85 239.05 659.1 238.8 659.35 238.55 659.6 238.3 659.9 238.05 660.15 237.8 660.4 237.5 660.65 237.3 660.95 237 661.2 236.75 661.45 236.45 661.7 236.25 661.6 236.5 661.55 236.85 661.5 237.15 661.45 237.45 661.35 237.85 661.3 238.15 661.25 238.5 661.2 238.85 661.15 239.2 661.1 239.55 661.05 239.85 661.05 240.25 661 240.6 660.95 240.9 660.95 241.25 660.85 241.65 660.8 241.95 660.8 242.3 660.75 242.7 660.75 243.05 660.75 243.35 660.7 243.7 660.7 244.1 660.7 244.4 660.65 244.75 660.65 245.1 660.65 245.5 660.65 245.8 660.6 246.15 660.6 246.55 660.6 246.85 660.6 247.2 660.6 247.55 660.6 247.9 660.6 248.25 660.55 248.6 660.55 248.95 660.55 249.3 660.55 249.65 660.55 249.95 660.5 250.35 660.5 250.7 660.45 251 660.45 251.4 660.4 251.7 660.4 252.05 660.35 252.4 660.35 252.75 660.3 253.1 660.25 253.4 660.25 253.8 660.2 254.15 660.15 254.45 660.15 254.8 660.1 255.15 660.05 255.5 660.05 255.85 660 256.2 659.95 256.55 659.95 256.85 659.9 257.2 659.9 257.6 659.85 257.9 659.8 258.25 659.8 258.6 659.8 258.95 659.7 259.3 659.7 259.6 659.7 260 659.65 260.3 659.65 260.6 659.65 261 659.65 261.3 659.6 261.6 659.6 262 659.6 262.3 659.6 262.65 659.6 262.95 659.55 263.3 659.55 263.65 659.55 263.95 659.55 264.35 659.55 264.65 659.5 264.95 659.5 265.35 659.5 265.7 659.45 266.05 659.45 266.35 659.4 266.75 659.4 267.1 659.35 267.45 659.35 267.75 659.3 268.15 659.25 268.5 659.2 268.85 659.15 269.2 659.15 269.55 659.1 269.9 659.05 270.2 659 270.6 658.95 270.9 658.85 271.25 658.8 271.6 658.75 271.95 658.7 272.3 658.6 272.6 658.55 273 658.5 273.35 658.45 273.65 658.4 274 658.3 274.35 658.25 274.7 658.2 275 658.15 275.4 658.1 275.75 658 276.05 657.95 276.45 657.9 276.75 657.8 277.1 657.75 277.4 657.7 277.8 657.6 278.15 657.5 278.5 657.45 278.85 657.35 279.25 657.3 279.6 657.25 279.95 657.15 280.3 657.1 280.7 657 281.05 656.95 281.3 656.85 281.65 656.8 281.95 656.7 282.2 656.65 282.55 656.55 282.85 656.5 283.15 656.35 283.45 656.3 283.75 656.2 284.05 656.15 284.35 656.05 284.65 655.95 285 655.85 285.35 655.8 285.65 655.7 286.05 655.6 286.35 655.5 286.7 655.4 287.05 655.25 287.35 655.2 287.7 655.1 288 655 288.4 654.9 288.7 654.8 289 654.7 289.3 654.6 289.6 654.55 289.9 654.45 290.2 654.35 290.5 654.25 290.85 654.1 291.1 654 291.4 653.9 291.75 653.85 292 653.75 292.35 653.65 292.65 653.55 293 653.5 293.35 653.4 293.7 653.35 294.05 653.25 294.4 653.2 294.75 653.15 295.1 653 295.45 652.95 295.75 652.9 296.15 652.85 296.5 652.8 296.8 652.75 297.15 652.75 297.25 652.75 297.35 652.7 297.4 652.65 297.5 652.6 297.75 652.5 298 652.4 298.25 652.35 298.5 652.25 298.75 652.15 299.05 652.1 299.3 652 299.55 651.9 299.75 651.8 300 651.7 300.2 651.65 300.45 651.55 300.65 651.45 300.9 651.35 301.1 651.25 301.35 651.2 301.6 651.1 301.85 651 302.05 650.95 302.3 650.85 302.55 650.8 302.8 650.75 303.05 650.65 303.3 650.6 303.55 650.55 303.8 650.5 304 650.45 304.25 650.4 304.5 650.35 304.75 650.3 305 650.25 305.25
L 650.25 305.3
Q 649.9 305.45 649.55 305.65 648.5 306.3 647.65 306.95 647.65 307.25 647.65 307.65 647.65 307.75 647.65 307.9 647.95 307.8 648.3 307.75
L 648.25 307.8
Q 648.15 308 648.05 308.2 648 308.35 647.9 308.55 647.85 308.75 647.75 309 647.7 309.2 647.65 309.45 647.65 309.65 647.6 309.9 647.6 310.15 647.55 310.4 647.55 310.65 647.5 310.85 647.5 311.1 647.5 311.35 647.5 311.6 647.4 311.8 647.4 312.1 647.4 312.3 647.4 312.55 647.35 312.8 647.35 313.05 647.35 313.3 647.35 313.55 647.35 313.85 647.3 314.05 647.3 314.35 647.3 314.6 647.3 314.9 647.3 315.15 647.3 315.45 647.3 315.7 647.3 315.95 647.25 316.2 647.25 316.45 647.25 316.75 647.25 317 647.25 317.3 647.25 317.5 647.25 317.8 647.25 318.05 647.25 318.35 647.25 318.55 647.25 318.8 647.25 319.1 647.25 319.3 647.25 319.6 647.25 319.85 647.25 320.1 647.25 320.35 647.25 320.65 647.25 320.85 647.25 321.15 647.25 321.4 647.25 321.65 647.3 321.9 647.3 322.15 647.35 322.4 647.35 322.65 647.4 322.9 647.4 323.15 647.5 323.4 647.5 323.65 647.55 323.9 647.6 324.15 647.65 324.4 647.7 324.65 647.7 324.9 647.75 325.15 647.8 325.4 647.85 325.65 647.9 325.9 647.95 326.15 648 326.4 648.05 326.65 648.1 326.9 648.15 327.1 648.2 327.4 648.25 327.6 648.35 327.9 648.4 328.1 648.45 328.35 648.5 328.6 648.65 328.85 648.7 329.05 648.75 329.35 648.85 329.55 648.9 329.8 648.95 330.05 649.05 330.3 649.1 330.5 649.2 330.8 649.25 331 649.35 331.25 649.45 331.45 649.5 331.7 649.6 331.9 649.75 332.2 649.85 332.4 649.95 332.65 650.05 332.85 650.15 333.1 650.2 333.3 650.3 333.55 650.4 333.75 650.5 334.05 650.65 334.25 650.75 334.55 650.9 334.75 651 335 651.1 335.25 651.2 335.5 651.3 335.75 651.45 336 651.55 336.2 651.65 336.5 651.75 336.7 651.9 336.95 652.05 337.2 652.15 337.45 652.25 337.65 652.4 337.95 652.5 338.15 652.6 338.4 652.75 338.65 652.85 338.9 652.95 339.1 653.15 339.4 653.25 339.6 653.35 339.85 653.5 340.1 653.6 340.35 653.75 340.55 653.85 340.8 653.95 341.05 654.1 341.3 654.25 341.5 654.35 341.75 654.5 342 654.6 342.25 654.7 342.45 654.85 342.7 654.95 342.9 655.05 343.2 655.2 343.4 655.35 343.65 655.45 343.85 655.6 344.1 655.7 344.35 655.8 344.6 655.95 344.85 656.05 345 656.1 345.2
L 656.15 345.25 656.15 345.3
Q 656.25 345.45 656.35 345.65 656.55 345.9 656.65 346.15 656.8 346.4 656.9 346.65 657.05 346.85 657.15 347.15 657.25 347.35 657.35 347.55 657.45 347.75 657.6 348 657.75 348.2 657.85 348.45 657.95 348.7 658.05 348.9 658.15 349.15 658.25 349.35 658.4 349.55 658.5 349.75 658.6 350 658.75 350.2 658.9 350.45 659 350.6 659.15 350.85 659.25 351.1 659.35 351.25 659.5 351.5 659.6 351.7 659.7 351.95 659.9 352.1 660 352.35 660.1 352.55 660.2 352.75 660.35 353 660.45 353.2 660.55 353.45 660.65 353.6 660.75 353.75 660.85 353.95 661.05 354.05 661.2 354.15 661.35 354.3 661.5 354.4 661.65 354.5 661.85 354.6 661.9 354.75 661.95 354.9 662.05 355.1 662.15 355.35 662.2 355.55 662.3 355.8 662.35 356 662.45 356.3 662.5 356.5 662.6 356.75 662.7 356.95 662.75 357.2 662.85 357.4 662.9 357.65 663 357.85 663.05 358.1 663.15 358.3 663.25 358.6 663.3 358.8 663.4 359.1 663.45 359.3 663.5 359.6 663.6 359.85 663.65 360.1 663.7 360.35 663.8 360.65 663.85 360.85 663.9 361.15 663.95 361.4 664 361.65 664.1 361.9 664.15 362.15 664.2 362.4 664.3 362.65 664.35 362.95 664.4 363.2 664.45 363.45 664.5 363.7 664.55 364 664.6 364.2 664.65 364.5 664.7 364.75 664.75 365.05 664.8 365.25 664.85 365.55 664.9 365.8 664.95 366.05 665 366.3 665.05 366.55 665.1 366.85 665.1 367.05 665.15 367.35 665.2 367.6 665.25 367.85 665.25 368.1 665.3 368.35 665.4 368.6 665.4 368.9 665.45 369.15 665.5 369.4 665.55 369.7 665.55 369.95 665.6 370.25 665.65 370.5 665.7 370.75 665.7 371 665.75 371.3 665.8 371.55 665.85 371.8 665.85 372.1 665.9 372.35 665.95 372.65 666 372.85 666 373.15 666.05 373.4 666.1 373.7 666.15 373.95 666.15 374.2 666.2 374.5 666.25 374.75 666.25 375.05 666.3 375.25 666.35 375.55 666.35 375.8 666.4 376.1 666.4 376.35 666.5 376.6 666.5 376.9 666.55 377.1 666.55 377.4 666.6 377.65 666.6 377.9 666.65 378.15 666.65 378.4 666.65 378.65 666.7 378.95 666.7 379.15 666.7 379.45 666.75 379.7 666.75 379.95 666.75 380.2 666.8 380.45 666.8 380.7 666.8 380.95 666.85 381.2 666.85 381.45 666.9 381.75 666.9 382 666.95 382.25 666.95 382.5 667 382.8 667 383 667.05 383.3 667.05 383.55 667.1 383.85 667.15 384.05 667.15 384.35 667.2 384.6 667.25 384.8 667.25 385.1 667.3 385.35 667.35 385.65 667.35 385.9 667.4 386.2 667.45 386.45 667.45 386.75 667.5 386.95 667.5 387.2 667.55 387.5 667.55 387.75 667.65 388.05 667.65 388.3 667.7 388.6 667.7 388.85 667.7 389.15 667.75 389.4 667.75 389.65 667.8 389.9 667.8 390.15 667.8 390.45 667.85 390.7 667.85 391 667.85 391.25 667.85 391.55 667.9 391.8 667.9 392.05 667.9 392.35 667.9 392.6 667.9 392.85 667.95 393.1 667.95 393.4 667.95 393.65 667.95 393.9 667.95 394.15 667.95 394.4 667.95 394.65 667.95 394.9 667.95 395.15 668 395.4 668 395.65 668 395.9 668 396.15 668 396.4 668 396.65 668 396.9 668 397.2 668 397.4 668 397.7 668 397.9 668 398.15 668 398.4 667.95 398.65 667.95 398.9 667.95 399.15 667.95 399.4 667.9 399.65 667.9 399.9 667.9 400.15 667.85 400.35 667.85 400.65 667.85 400.85 667.8 401.15 667.75 401.35 667.7 401.65 667.65 401.85 667.55 402.15 667.5 402.35 667.45 402.65 667.4 402.85 667.3 403.1 667.25 403.35 667.2 403.6 667.1 403.85 667.05 404.1 666.95 404.35 666.85 404.55 666.8 404.85 666.7 405.05 666.6 405.3 666.5 405.55 666.4 405.8 666.3 406 666.2 406.3 666.15 406.5 666.05 406.75 665.95 407 665.85 407.25 665.8 407.45 665.7 407.75 665.65 407.95 665.55 408.25 665.45 408.45 665.4 408.7 665.3 408.95 665.2 409.2 665.15 409.4 665.05 409.7 665 409.9 664.95 410.15 664.85 410.35 664.8 410.65 664.7 410.85 664.65 411.1 664.6 411.3 664.5 411.6 664.45 411.8 664.35 412.05 664.3 412.25 664.15 412.5 664.1 412.75 664 413 663.9 413.25 663.85 413.45 663.75 413.7 663.65 413.95 663.6 414.2 663.5 414.4 663.4 414.65 663.35 414.85 663.25 415.1 663.15 415.3 663 415.55 662.9 415.8 662.8 416.05 662.7 416.25 662.6 416.5 662.5 416.65 662.35 416.9 662.25 417.1 662.15 417.35 662.05 417.55 661.85 417.8 661.75 418.05 661.6 418.25 661.5 418.45 661.35 418.65 661.25 418.9 661.1 419.1 661 419.35 660.8 419.5 660.65 419.75 660.55 419.95 660.4 420.2 660.25 420.45 660.1 420.65 659.95 420.9 659.8 421.05 659.6 421.3 659.4 421.5 659.25 421.75 659.1 421.9 658.95 422.15 658.8 422.4 658.6 422.6 658.45 422.85 658.3 423 658.15 423.25 658 423.45 657.85 423.65 657.7 423.85 657.5 424.1 657.4 424.3 657.25 424.5 657.1 424.75 656.95 424.9 656.8 425.15 656.65 425.35 656.55 425.55 656.35 425.75 656.2 426 656.05 426.2 655.95 426.4 655.8 426.65 655.65 426.85 655.5 427.05 655.4 427.25 655.2 427.5 655.05 427.7 654.95 427.9 654.8 428.15 654.65 428.35 654.55 428.6 654.4 428.8 654.3 429 654.1 429.2 654 429.45 653.85 429.65 653.75 429.9 653.6 430.1 653.5 430.3 653.35 430.55 653.25 430.75 653.15 431 652.95 431.2 652.85 431.45 652.75 431.6 652.65 431.85 652.55 432.05 652.45 432.3 652.35 432.5 652.25 432.75 652.15 433 652.05 433.2 651.9 433.45 651.85 433.65 651.75 433.9 651.65 434.1 651.55 434.35 651.5 434.55 651.4 434.8 651.35 435.05 651.25 435.3 651.15 435.5 651.1 435.75 651.05 435.95 650.95 436.2 650.9 436.4 650.75 436.65 650.7 436.9 650.65 437.15 650.55 437.35 650.5 437.6 650.45 437.8 650.4 438.1 650.35 438.3 650.25 438.55 650.2 438.75 650.15 439.05 650.1 439.3 650.05 439.55 650 439.8 649.95 440.05 649.95 440.3 649.9 440.6 649.85 440.8 649.85 441.1 649.8 441.35 649.75 441.6 649.75 441.85 649.65 442.15 649.65 442.35 649.6 442.6 649.6 442.9 649.55 443.1 649.55 443.4 649.5 443.65 649.5 443.95 649.45 444.2 649.45 444.45 649.4 444.7 649.4 445 649.4 445.25 649.4 445.5 649.35 445.8 649.35 446 649.35 446.3 649.35 446.55 649.35 446.85 649.35 447.1 649.35 447.4 649.35 447.6 649.35 447.85 649.35 448.05 649.4 448.3 649.4 448.55 649.45 448.8 649.5 449 649.5 449.25 649.55 449.45 649.6 449.75 649.65 449.95 649.75 450.2 649.85 450.4 649.9 450.65 649.95 450.8 650.05 451.05 650.1 451.3 650.2 451.5 650.3 451.75 650.4 451.95 650.5 452.15 650.6 452.35 650.7 452.6 650.85 452.75 650.95 453 651.1 453.2 651.2 453.4 651.3 453.65 651.45 453.8 651.55 454.05 651.7 454.2 651.8 454.4 652 454.65 652.15 454.85 652.3 455.05 652.45 455.25 652.6 455.45 652.75 455.65 652.9 455.85 653.15 456.05 653.3 456.25 653.45 456.45 653.6 456.6 653.8 456.85 653.95 457.05 654.2 457.2 654.35 457.4 654.55 457.55 654.7 457.75 654.9 458 655.1 458.15 655.25 458.35 655.5 458.55 655.7 458.75 655.9 458.95 656.1 459.15 656.3 459.35 656.55 459.5 656.75 459.7 656.95 459.85 657.1 460 657.3 460.15 657.5 460.35 657.75 460.45 657.95 460.6 658.2 460.8 658.4 460.9 658.6 461.05 658.85 461.2 659.1 461.35 659.3 461.4 659.5 461.55 659.8 461.7 660 461.85 660.25 461.95 660.45 462.05 660.7 462.2 660.95 462.3 661.2 462.4 661.4 462.5 661.65 462.6 661.85 462.75 662.15 462.85 662.35 462.9 662.6 463 662.85 463.1 663.05 463.2 663.35 463.3 663.6 463.35 663.8 463.45 664.05 463.55 664.35 463.65 664.55 463.75 664.8 463.8 665.05 463.9 665.3 463.95 665.6 464.05 665.85 464.15 666.1 464.25 666.35 464.3 666.65 464.35 666.9 464.45 667.15 464.55 667.4 464.6 667.7 464.7 667.95 464.75 668.2 464.8 668.45 464.9 668.75 464.95 669 465.05 669.3 465.1 669.55 465.2 669.8 465.25 670.1 465.3 670.35 465.4 670.6 465.45 670.9 465.55 671.2 465.6 671.45 465.7 671.75 465.75 672 465.8 672.3 465.85 672.6 465.95 672.85 466 673.1 466.1 673.45 466.15 673.7 466.2 673.95 466.25 674.25 466.3 674.55 466.4 674.8 466.45 675.1 466.5 675.35 466.55 675.7 466.65 675.95 466.7 676.25 466.7 676.5 466.75 676.85 466.8 677.1 466.85 677.4 466.9 677.7 466.95 678 467 678.25 467.05 678.55 467.1 678.85 467.15 679.15 467.2 679.4 467.2 679.7 467.2 680 467.25 680.3 467.3 680.55 467.35 680.85 467.35 681.15 467.4 681.45 467.45 681.7 467.45 682 467.5 682.3 467.55 682.6 467.55 682.9 467.6 683.15 467.6 683.5 467.65 683.75 467.65 684.05 467.65 684.3 467.65 684.65 467.7 684.95 467.7 685.2 467.7 685.55 467.75 685.85 467.75 686.15 467.8 686.45 467.8 686.8 467.8 687.05 467.8 687.35 467.85 687.65 467.85 688 467.85 688.3 467.85 688.6 467.9 688.9 467.9 689.2 467.9 689.5 467.9 689.8 467.9 690.15 467.95 690.45 467.95 690.75 467.95 691 467.95 691.35 467.95 691.65 467.95 691.95 467.95 692.3 467.95 692.6 468 692.85 468 693.15 468 693.5 468 693.8 468 694.1 468 694.4 468 694.75 468 695 468 695.3 468 695.65 468 695.95 468 696.2 468 696.5 468 696.85 468 697.15 468 697.4 468 697.7 468 698.05 468 698.35 468 698.65 468.05 698.95 468.05 699.25 468.05 699.55 468.05 699.85 468.05 700.15 468.05 700.45 468.05 700.75 468.05 701.05 468.05 701.35 468.05 701.65 468.05 701.95 468.05 702.3 468.05 702.6 468.05 702.85 468.05 703.15 468.05 703.5 468.05 703.8 468.05 704.05 468.05 704.35 468.05 704.7 468.05 705 468.05 705.25 468.05 705.55 468.05 705.9 468.05 706.2 468.05 706.45 468.05 706.8 468.05 707.1 468.05 707.4 468.05 707.65 468.05 708 468.05 708.3 468.05 708.6 468.05 708.85 468.05 709.2 468.05 709.5 468.05 709.8 468.05 710.05 468.05 710.4 468.05 710.7 468.05 711 468.05 711.3 468.05 711.6 468.05 711.9 468.05 712.2 468.05 712.5 468.05 712.8 468.05 713.1 468.05 713.4 468.05 713.7 468.05 714 468.05 714.3 468.05 714.65 468.05 714.9 468.05 715.2 468.05 715.45 468.05 715.8 468.05 716.05 468.05 716.35 468.05 716.6 468.05 716.9 468.05 717.2 468.05 717.45 468.05 717.75 468.05 718.05 468.05 718.35 468.05 718.6 468.05 718.9 468.05 719.2 468.05 719.5 468.05 719.75 468.05 720.05 468.1 720.4 468.1 720.7 468.1 721 468.1 721.35 468.15 721.65 468.15 721.95 468.15 722.25 468.15 722.6 468.15 722.9 468.2 723.2 468.2 723.45 468.25 723.8 468.25 724.1 468.3 724.4 468.3 724.75 468.35 725.05 468.35 725.35 468.35 725.65 468.4 726 468.4 726.3 468.45 726.6 468.45 726.95 468.5 727.25 468.5 727.55 468.5 727.85 468.55 728.15 468.55 728.45 468.6 728.75 468.6 729.05 468.6 729.4 468.6 729.7 468.6 730 468.6 730.35 468.65 730.65 468.65 730.95 468.65 731.25 468.7 731.6 468.7 731.9 468.7 732.2 468.75 732.55 468.75 732.8 468.75 733.1 468.75 733.4 468.8 733.75 468.8 734.05 468.8 734.35 468.8 734.65 468.8 735 468.85 735.3 468.85 735.6 468.85 735.95 468.85 736.2 468.85 736.5 468.85 736.8 468.85 737.15 468.9 737.45 468.9 737.75 468.9 738.1 468.9 738.4 468.9 738.65 468.9 738.95 468.9 739.3 468.9 739.6 468.9 739.9 468.95 740.2 468.95 740.55 468.95 740.8 468.95 741.1 468.95 741.45 468.95 741.75 468.95 742.05 468.95 742.35 468.95 742.7 468.95 743 468.95 743.25 468.95 743.55 468.95 743.9 468.95 744.2 468.95 744.5 468.95 744.7 468.95 744.95 468.95 745.15 469 745.4 469 745.6 469 745.8 469 746.15 469 746.4 469 746.7 468.95 747.05 468.95 747.3 468.95 747.6 468.95 747.9 468.95 748.2 468.95 748.5 468.95 748.8 468.9 749.05 468.9 749.4 468.9 749.7 468.85 749.95 468.85 750.25 468.8 750.6 468.8 750.85 468.75 751.15 468.75 751.5 468.7 751.8 468.7 752.05 468.65 752.35 468.6 752.7 468.6 752.95 468.6 753.25 468.55 753.55 468.55 753.85 468.5 754.15 468.45 754.45 468.4 754.75 468.35 755.05 468.3 755.35 468.25 755.6 468.2 755.9 468.15 756.25 468.15 756.5 468.1 756.8 468.05 757.15 468 757.4 467.9 757.7 467.85 757.95 467.8 758.3 467.75 758.55 467.65 758.85 467.65 759.15 467.6 759.45 467.55 759.75 467.45 760 467.4 760.25 467.35 760.55 467.3 760.85 467.2 761.1 467.2 761.35 467.15 761.65 467.1 761.95 467 762.2 466.95 762.45 466.85 762.75 466.8 763.05 466.7 763.3 466.7 763.55 466.6 763.85 466.5 764.1 466.45 764.35 466.35 764.6 466.25 764.85 466.2 765.15 466.15 765.4 466.05 765.65 465.95 765.9 465.85 766.2 465.8 766.45 465.75 766.7 465.65 766.95 465.55 767.25 465.45 767.5 465.35 767.75 465.3 768.05 465.25 768.35 465.15 768.6 465.05 768.85 464.95 769.1 464.85 769.4 464.75 769.65 464.7 769.9 464.65 770.15 464.55 770.4 464.45 770.7 464.35 770.95 464.3 771.25 464.2 771.5 464.1 771.8 464 772.05 463.9 772.3 463.8 772.55 463.7 772.85 463.6 773.1 463.5 773.35 463.4 773.6 463.35 773.9 463.2 774.15 463.1 774.4 463 774.65 462.85 774.9 462.8 775.2 462.7 775.45 462.55 775.7 462.45 775.9 462.35 776.2 462.25 776.45 462.1 776.7 462 776.95 461.9 777.25 461.8 777.5 461.65 777.7 461.5 777.95 461.4 778.2 461.3 778.5 461.15 778.75 461.05 779 460.9 779.2 460.8 779.5 460.7 779.75 460.55 780 460.45 780.2 460.35 780.45 460.2 780.75 460.05 781 459.95 781.25 459.85 781.45 459.7 781.75 459.55 782 459.45 782.25 459.35 782.5 459.2 782.75 459.1 783.05 459 783.3 458.85 783.5 458.7 783.75 458.6 784.05 458.5 784.3 458.35 784.55 458.2 784.8 458.1 785.1 458 785.35 457.85 785.55 457.7 785.8 457.55 786.05 457.45 786.3 457.35 786.55 457.2 786.75 457.05 786.95 456.95 787.15 456.8 787.45 456.7 787.65 456.6 787.85 456.45 788.05 456.3 788.25 456.15 788.5 456.05 788.7 455.9 788.9 455.75 789.1 455.6 789.3 455.45 789.55 455.3 789.75 455.15 789.9 455 790.1 454.85 790.3 454.65 790.5 454.55 790.7 454.35 790.9 454.2 791.05 454.05 791.25 453.9 791.45 453.7 791.6 453.55 791.85 453.35 792 453.2 792.2 453 792.35 452.8 792.55 452.65 792.7 452.45 792.9 452.25 793.1 452.1 793.25 451.9 793.4 451.75 793.55 451.55 793.75 451.35 793.9 451.2 794.1 451 794.25 450.8 794.4 450.6 794.55 450.4 794.7 450.2 794.85 450 795 449.85 795.2 449.6 795.3 449.4 795.45 449.25 795.6 449 795.75 448.85 795.9 448.6 796 448.4 796.15 448.2 796.3 448 796.45 447.8 796.6 447.55 796.7 447.4 796.8 447.15 796.95 446.95 797.05 446.75 797.2 446.5 797.3 446.3 797.45 446.1 797.55 445.9 797.7 445.65 797.8 445.5 797.9 445.25 798 445 798.1 444.8 798.2 444.6 798.3 444.4 798.4 444.15 798.55 443.95 798.65 443.7 798.75 443.5 798.8 443.3 798.9 443.1 799 442.85 799.05 442.6 799.15 442.4 799.2 442.15 799.3 441.95 799.35 441.7 799.45 441.45 799.5 441.2 799.65 441 799.7 440.75 799.75 440.55 799.8 440.25 799.85 440.05 799.9 439.8 799.95 439.55 800 439.3 800.05 439.1 800.1 438.8 800.1 438.6 800.15 438.35 800.15 438.1 800.2 437.85 800.2 437.65 800.2 437.4 800.2 437.15 800.15 436.9 800.15 436.7 800.15 436.45 800.1 436.25 800.1 435.95 800.05 435.75 800 435.5 799.95 435.3 799.9 435.05 799.85 434.85 799.8 434.6 799.7 434.4 799.65 434.15 799.5 433.95 799.45 433.7 799.35 433.45 799.25 433.25 799.15 433 799.05 432.8 798.95 432.55 798.85 432.4 798.75 432.15 798.6 432 798.5 431.75 798.35 431.55 798.2 431.4 798.1 431.15 797.95 431 797.8 430.8 797.7 430.6 797.55 430.4 797.4 430.2 797.2 430.05 797.05 429.85 796.9 429.65 796.75 429.5 796.6 429.3 796.45 429.15 796.3 428.95 796.05 428.75 795.9 428.55 795.75 428.35 795.6 428.15 795.4 428 795.25 427.8 795 427.65 794.85 427.45 794.65 427.25 794.5 427.15 794.3 426.95 794.15 426.75 793.9 426.65 793.75 426.45 793.55 426.3 793.4 426.15 793.2 426 793 425.8 792.8 425.7 792.6 425.5 792.4 425.35 792.2 425.2 792.05 425.05 791.85 424.9 791.6 424.8 791.4 424.6 791.2 424.45 791 424.3 790.8 424.2 790.55 424.05 790.35 423.85 790.15 423.75 789.95 423.6 789.75 423.45 789.55 423.35 789.25 423.2 789.05 423.05 788.85 422.95 788.65 422.85 788.35 422.7 788.15 422.55 787.95 422.4 787.7 422.35 787.5 422.2 787.2 422.1 787 421.95 786.75 421.9 786.5 421.75 786.25 421.6 785.95 421.5 785.7 421.4 785.45 421.25 785.2 421.15 784.9 421 784.65 420.95 784.4 420.8 784.15 420.65 783.85 420.55 783.6 420.45 783.35 420.35 783.1 420.25 782.85 420.1 782.55 420 782.3 419.95 782.05 419.85 781.8 419.7 781.5 419.6 781.25 419.5 781.05 419.45 780.8 419.35 780.5 419.25 780.25 419.15 780 419.05 779.75 418.95 779.5 418.85 779.2 418.75 778.95 418.65 778.75 418.55 778.5 418.5 778.2 418.35 777.95 418.25 777.7 418.15 777.5 418.05 777.25 417.95 777 417.85 776.75 417.75 776.55 417.6 776.3 417.55 776 417.45 775.8 417.3 775.55 417.2 775.4 417.1 775.2 417.05 775 416.9 774.75 416.8 774.6 416.7 774.4 416.6 774.2 416.5 774.05 416.35 773.8 416.2 773.6 416.1 773.4 415.9 773.2 415.75 773.05 415.65 772.85 415.45 772.6 415.3 772.45 415.15 772.25 414.95 772.1 414.8 771.95 414.6 771.8 414.4 771.65 414.2 771.45 414 771.3 413.8 771.15 413.6 771 413.4 770.85 413.2 770.75 413 770.6 412.75 770.45 412.55 770.35 412.25 770.25 412.05 770.15 411.8 770.1 411.6 770 411.3 769.9 411.1 769.85 410.85 769.75 410.6 769.7 410.35 769.6 410.1 769.55 409.85 769.45 409.65 769.4 409.4 769.3 409.15 769.25 408.9 769.2 408.6 769.15 408.4 769.15 408.1 769.1 407.85 769.05 407.55 769.05 407.35 769 407.05 769 406.8 768.95 406.55 768.95 406.3 768.9 406 768.9 405.75 768.85 405.5 768.85 405.25 768.8 405 768.8 404.7 768.8 404.5 768.75 404.2 768.75 403.95 768.75 403.65 768.75 403.4 768.75 403.15 768.7 402.9 768.7 402.65 768.7 402.4 768.7 402.15 768.7 401.85 768.75 401.65 768.75 401.35 768.75 401.1 768.75 400.85 768.75 400.6 768.8 400.3 768.8 400.1 768.8 399.8 768.85 399.55 768.85 399.3 768.85 399.05 768.9 398.8 768.9 398.55 768.95 398.3 768.95 398 769 397.75 769.05 397.5 769.1 397.25 769.1 396.95 769.15 396.75 769.2 396.45 769.25 396.2 769.3 395.95 769.4 395.7 769.45 395.4 769.5 395.2 769.55 394.95 769.6 394.7 769.65 394.45 769.7 394.15 769.75 393.95 769.8 393.65 769.85 393.45 769.9 393.15 770 392.9 770.05 392.65 770.1 392.4 770.2 392.15 770.25 391.9 770.35 391.65 770.4 391.4 770.55 391.1 770.6 390.9 770.7 390.6 770.75 390.4 770.85 390.1 770.9 389.9 771 389.65 771.05 389.4 771.15 389.15 771.2 388.9 771.3 388.65 771.35 388.4 771.45 388.15 771.5 387.9 771.65 387.65 771.7 387.4 771.8 387.15 771.85 386.9 771.95 386.65 772.05 386.4 772.1 386.15 772.2 385.9 772.25 385.65 772.35 385.4 772.45 385.2 772.5 384.9 772.6 384.7 772.65 384.4 772.8 384.2 772.9 383.9 773 383.7 773.05 383.45 773.15 383.2 773.25 382.95 773.3 382.7 773.4 382.45 773.5 382.25 773.6 381.95 773.65 381.75 773.75 381.5 773.9 381.25 773.95 381 774.05 380.75 774.15 380.5 774.2 380.3 774.3 380 774.4 379.8 774.45 379.5 774.55 379.3 774.6 379.05 774.7 378.8 774.75 378.55 774.85 378.3 774.9 378.05 775 377.8 775.1 377.6 775.15 377.3 775.2 377.1 775.25 376.8 775.35 376.6 775.4 376.3 775.45 376.1 775.5 375.8 775.55 375.6 775.6 375.35 775.65 375.1 775.65 374.85 775.7 374.6 775.75 374.35 775.8 374.1 775.85 373.85 775.9 373.65 775.95 373.35 775.95 373.15 776 372.85 776.05 372.65 776.15 372.35 776.2 372.15 776.25 371.9 776.3 371.65 776.35 371.4 776.4 371.15 776.45 370.9 776.5 370.65 776.55 370.4 776.6 370.15 776.65 369.9 776.7 369.65 776.75 369.4 776.8 369.15 776.85 368.9 776.9 368.65 776.95 368.45 777.05 368.15 777.1 367.95 777.15 367.65 777.25 367.45 777.3 367.2 777.35 366.95 777.45 366.65 777.5 366.45 777.55 366.15 777.6 365.9 777.7 365.65 777.75 365.4 777.8 365.1 777.85 364.9 777.95 364.6 778 364.35 778.05 364.1 778.15 363.85 778.2 363.6 778.35 363.35 778.4 363.1 778.45 362.85 778.55 362.6 778.6 362.35 778.7 362.1 778.75 361.8 778.85 361.6 778.9 361.3 779 361.1 779.05 360.8 779.15 360.55 779.2 360.3 779.3 360.05 779.35 359.8 779.5 359.55 779.6 359.3 779.65 359.05 779.75 358.8 779.8 358.55 779.9 358.3 779.95 358.05 780.05 357.8 780.15 357.55 780.2 357.3 780.3 357.05 780.4 356.8 780.45 356.5 780.6 356.3 780.65 356 780.75 355.8 780.85 355.5 780.9 355.3 781 355 781.1 354.8 781.15 354.5 781.25 354.3 781.35 354 781.4 353.75 781.5 353.5 781.6 353.25 781.7 353 781.8 352.75 781.9 352.55 781.95 352.25 782.05 352.05 782.15 351.75 782.2 351.55 782.3 351.25 782.4 351.05 782.45 350.75 782.55 350.5 782.65 350.25 782.7 350 782.85 349.75 782.95 349.5 783 349.25 783.1 349 783.15 348.7 783.25 348.5 783.35 348.2 783.4 348 783.5 347.7 783.6 347.45 783.65 347.25 783.75 346.95 783.85 346.75 783.95 346.45 784.05 346.25 784.15 345.95 784.2 345.7 784.3 345.45 784.4 345.2 784.45 344.95 784.55 344.7 784.65 344.4 784.7 344.2 784.8 343.9 784.9 343.7 784.95 343.4 785.1 343.2 785.2 342.9 785.25 342.65 785.35 342.4 785.45 342.15 785.55 341.95 785.6 341.65 785.7 341.45 785.8 341.15 785.85 340.9 785.95 340.65 786.05 340.4 786.1 340.15 786.25 339.9 786.35 339.6 786.45 339.4 786.5 339.1 786.6 338.9 786.7 338.6 786.75 338.4 786.85 338.1 786.95 337.9 787.05 337.6 787.1 337.35 787.2 337.1 787.35 336.85 787.45 336.65 787.5 336.35 787.6 336.15 787.7 335.85 787.8 335.65 787.85 335.35 787.95 335.1 788.05 334.85 788.15 334.6 788.25 334.35 788.3 334.1 788.45 333.85 788.55 333.6 788.65 333.35 788.7 333.1 788.8 332.85 788.9 332.65 789 332.35 789.05 332.15 789.15 331.85 789.25 331.65 789.35 331.4 789.4 331.15 789.55 330.9 789.65 330.65 789.7 330.4 789.8 330.2 789.85 329.9 789.95 329.7 790.05 329.4 790.1 329.2 790.15 328.95 790.25 328.7 790.3 328.45 790.4 328.2 790.45 327.95 790.5 327.7 790.55 327.45 790.65 327.2 790.7 326.95 790.75 326.7 790.8 326.45 790.85 326.15 790.9 325.95 790.95 325.65 791 325.45 791.05 325.15 791.05 324.95 791.1 324.65 791.15 324.45 791.2 324.15 791.25 323.95 791.3 323.65 791.35 323.45 791.4 323.15 791.45 322.95 791.5 322.65 791.5 322.45 791.55 322.2 791.6 321.95 791.65 321.7 791.7 321.45 791.7 321.25 791.8 321 791.85 320.75 791.9 320.5 791.9 320.25 791.95 320 792 319.8 792 319.55 792.05 319.3 792.05 319.05 792.1 318.8 792.15 318.55 792.15 318.35 792.2 318.05 792.25 317.85 792.25 317.6 792.3 317.35 792.35 317.1 792.35 316.85 792.4 316.6 792.45 316.35 792.5 316.1 792.5 315.85 792.55 315.6 792.6 315.35 792.65 315.1 792.7 314.85 792.75 314.6 792.75 314.35 792.8 314.1 792.9 313.85 792.95 313.6 793 313.35 793.05 313.1 793.1 312.85 793.15 312.6 793.15 312.4 793.2 312.1 793.25 311.9 793.3 311.6 793.35 311.4 793.4 311.15 793.45 310.9 793.5 310.65 793.55 310.45 793.6 310.2 793.65 309.95 793.65 309.7 793.75 309.7 793.85 309.65 794.1 309.6 794.35 309.55 794.5 309.45 794.7 309.3 794.85 309.2 795.05 309.1 795.25 308.95 795.35 308.8 795.5 308.7 795.65 308.5 795.8 308.3 795.95 308.15 796.15 307.95 796.35 307.75 796.5 307.6 796.65 307.4 796.8 307.25 796.95 307.05 797.1 306.85 797.3 306.65 797.5 306.45 797.65 306.3 797.75 306.1 797.9 305.9 798.05 305.75 798.2 305.5 798.3 305.35 798.5 305.15 798.6 304.95 798.75 304.75 798.85 304.55 799 304.35 799.1 304.15 799.25 303.95 799.35 303.75 799.45 303.55 799.65 303.4 799.75 303.15 799.85 302.95 800 302.75 800.1 302.5 800.2 302.35 800.3 302.1 800.45 301.95 800.55 301.7 800.65 301.5 800.8 301.3 800.9 301.05 801 300.85 801.15 300.65 801.25 300.45 801.35 300.2 801.45 300 801.6 299.7 801.7 299.5 801.85 299.25 801.95 299.05 802.05 298.8 802.15 298.6 802.2 298.35 802.3 298.1 802.35 297.85 802.45 297.6 802.5 297.4 802.55 297.15 802.6 296.95 802.6 296.7 802.65 296.5 802.7 296.25 802.7 296.05 802.7 295.8 802.75 295.6 802.7 295.35 802.7 295.15 802.7 294.9 802.65 294.7 802.55 294.45 802.5 294.25 802.45 294.05 802.35 293.85 802.3 293.7 802.2 293.5 802.15 293.4 802.1 293.3 802.15 293.15 802.15 293 802.15 292.95 802.2 292.85 802 292.85 801.85 292.85
L 801.75 292.8
Q 801.65 292.65 801.5 292.45 801.4 292.35 801.25 292.15 801.1 292 800.95 291.85 800.8 291.75 800.6 291.55 800.45 291.45 800.3 291.35 800.1 291.2 799.95 291.05 799.75 290.95 799.5 290.9 799.3 290.75 799.1 290.65 798.9 290.55 798.7 290.45 798.6 290.4 798.5 290.4 798.5 290.2 798.4 290.05 798.35 289.7 798.3 289.35 798.25 288.95 798.2 288.6 798.15 288.2 798.15 287.85 798.1 287.5 798.05 287.1 798.05 286.75 798 286.4 797.95 286.05 797.95 285.65 797.9 285.3 797.9 284.95 797.85 284.6 797.85 284.2 797.8 283.85 797.8 283.5 797.8 283.15 797.75 282.75 797.75 282.4 797.75 282.05 797.7 281.7 797.7 281.3 797.7 280.95 797.7 280.6 797.7 280.25 797.65 279.85 797.65 279.5 797.65 279.1 797.65 278.75 797.65 278.35 797.65 278 797.65 277.65 797.65 277.3 797.65 276.9 797.65 276.55 797.65 276.2 797.6 275.85 797.6 275.45 797.6 275.1 797.6 274.75 797.6 274.4 797.6 274 797.6 273.65 797.6 273.3 797.6 272.95 797.6 272.55 797.6 272.15 797.6 271.8 797.6 271.45 797.6 271.1 797.6 270.7 797.6 270.35 797.6 270 797.6 269.65 797.6 269.3 797.6 268.95 797.6 268.65 797.6 268.25 797.6 267.95 797.6 267.6 797.6 267.3 797.6 266.95 797.55 266.6 797.55 266.3 797.55 265.9 797.55 265.6 797.5 265.25 797.5 264.9 797.45 264.6 797.45 264.25 797.4 263.9 797.3 263.5 797.25 263.15 797.25 262.8 797.2 262.45 797.15 262.05 797.15 261.7 797.1 261.35 797.05 261 797.05 260.65 797 260.3 797 259.95 796.95 259.55 796.95 259.2 796.9 258.85 796.9 258.5 796.85 258.15 796.85 257.75 796.8 257.4 796.8 257.05 796.75 256.7 796.75 256.3 796.7 255.9 796.7 255.55 796.65 255.25 796.6 254.9 796.55 254.6 796.5 254.25 796.45 253.95 796.4 253.65 796.35 253.3 796.25 252.95 796.15 252.65 796.05 252.35 796 252 795.9 251.7 795.8 251.4 795.7 251.05 795.6 250.75 795.5 250.4 795.4 250.1 795.3 249.75 795.2 249.45 795 249.1 794.9 248.8 794.75 248.5 794.6 248.15 794.5 247.85 794.35 247.55 794.2 247.2 794.1 246.9 793.9 246.55 793.75 246.25 793.6 245.95 793.5 245.6 793.35 245.25 793.2 244.95 793.05 244.6 792.9 244.25 792.7 243.95 792.55 243.6 792.4 243.25 792.3 242.9 792.15 242.6 792 242.25 791.85 241.9 791.7 241.6 791.55 241.25 791.45 240.9 791.3 240.55 791.2 240.25 791.1 239.95 791 239.65 790.9 239.35 790.8 239 790.7 238.75 790.55 238.4 790.5 238.1 790.4 237.8 790.3 237.5 790.25 237.2 790.15 236.9 790.1 236.55 790 236.25 789.95 235.95 789.9 235.6 789.85 235.3 789.8 234.95 789.75 234.55 789.7 234.2 789.65 233.85 789.6 233.5 789.6 233.1 789.55 232.75 789.55 232.4 789.45 232.05 789.45 231.65 789.4 231.3 789.4 230.95 789.35 230.65 789.35 230.25 789.35 229.9 789.35 229.55 789.3 229.2 789.3 228.8 789.3 228.45 789.3 228.1 789.3 227.75 789.25 227.35 789.25 227 789.25 226.65 789.25 226.3 789.25 225.9 789.25 225.55 789.25 225.2 789.25 224.85 789.25 224.45 789.25 224.15 789.25 223.8 789.2 223.45 789.2 223.05 789.2 222.7 789.2 222.35 789.2 222 789.2 221.6 789.2 221.25 789.2 220.9 789.2 220.55 789.35 220.7 789.55 220.85 789.7 221 789.8 221.1 790.05 221.4 790.3 221.6 790.55 221.9 790.85 222.1 791.1 222.4 791.35 222.65 791.6 222.9 791.85 223.15 792.1 223.4 792.35 223.65 792.6 223.95 792.9 224.15 793.1 224.4 793.35 224.7 793.6 224.95 793.85 225.25 794.1 225.5 794.35 225.8 794.6 226.05 794.85 226.35 795.05 226.6 795.35 226.9 795.6 227.2 795.85 227.45 796.05 227.75 796.35 228 796.6 228.25 796.85 228.55 797.05 228.8 797.3 229.1 797.6 229.35 797.85 229.65 798.05 229.95 798.3 230.2 798.6 230.5 798.85 230.75 799.1 231.1 799.3 231.35 799.6 231.65 799.85 231.95 800.1 232.2 800.3 232.5 800.55 232.8 800.85 233.1 801.05 233.4 801.3 233.65 801.55 234 801.75 234.25 802.05 234.5 802.25 234.85 802.5 235.1 802.75 235.45 803 235.7 803.25 236 803.45 236.25 803.65 236.5 803.85 236.8 804.1 237 804.3 237.3 804.55 237.55 804.75 237.8 804.95 238.05 805.2 238.3 805.45 238.55 805.65 238.8 805.9 239 806.1 239.25 806.4 239.5 806.6 239.75 806.85 239.95 807.1 240.2 807.3 240.4 807.6 240.65 807.85 240.85 808.1 241.05 808.35 241.25 808.65 241.5 808.9 241.75 809.15 241.95 809.45 242.2 809.75 242.4 810.05 242.65 810.35 242.9 810.6 243.15 810.95 243.35 811.25 243.6 811.5 243.85 811.75 244.1 812.1 244.3 812.35 244.6 812.6 244.85 812.9 245.1 813.2 245.35 813.45 245.6 813.7 245.85 813.95 246.1 814.2462890625 246.3962890625 814.5 246.65 814.45 246.596875 814.45 246.55 814.65 246.8 814.85 247 815.05 247.25 815.3 247.5 815.55 247.75 815.75 248 816 248.25 816.2 248.5 816.5 248.75 816.7 248.95 816.75 249 816.85 249.1
L 816.85 249.15
Q 816.9 249.2 816.95 249.25 817.05 249.4 817.15 249.45 817.4 249.75 817.7 250 817.9 250.3 818.15 250.55 818.4 250.85 818.65 251.1 818.9 251.4 819.15 251.65 819.35 251.9 819.6 252.2 819.85 252.5 820.1 252.8 820.3 253.05 820.55 253.3 820.75 253.6 821 253.85 821.2 254.15 821.4 254.35 821.65 254.65 821.85 254.9 822.1 255.2 822.3 255.45 822.5 255.7 822.7 256 822.9 256.2 823.2 256.5 823.4 256.75 823.6 257.05 823.8 257.3 824 257.6 824.3 257.85 824.55 258.15 824.75 258.4 825 258.7 825.25 259 825.55 259.25 825.75 259.55 826 259.8 826.25 260.05 826.55 260.4 826.75 260.65 827 260.95 827.25 261.2 827.45 261.5 827.75 261.8 828 262.05 828.2 262.35 828.45 262.6 828.7 262.9 828.95 263.2 829.15 263.45 829.35 263.75 829.6 264 829.85 264.3 830.1 264.55 830.3 264.85 830.5 265.15 830.7 265.4 831 265.7 831.2 266 831.4 266.3 831.6 266.55 831.8 266.85 832.05 267.15 832.25 267.4 832.45 267.75 832.65 268 832.85 268.3 833.05 268.6 833.25 268.9 833.45 269.2 833.65 269.5 833.8 269.75 834 270.1 834.2 270.35 834.4 270.65 834.6 270.95 834.8 271.25 834.95 271.55 835.15 271.8 835.3 272.1 835.5 272.4 835.7 272.65 835.85 273 836 273.25 836.2 273.55 836.35 273.85 836.55 274.1 836.7 274.45 836.85 274.7 837 275 837.2 275.3 837.35 275.55 837.5 275.9 837.7 276.2 837.9 276.5 838.05 276.85 838.2 277.15 838.4 277.45 838.55 277.8 838.8 278.1 838.95 278.4 839.1 278.75 839.3 279.05 839.5 279.35 839.65 279.7 839.9 280 840.1 280.3 840.25 280.6 840.4 280.85 840.6 281.15 840.75 281.4 841 281.7 841.15 281.95 841.35 282.2 841.55 282.5 841.7 282.7 841.85 282.95 842 283.15 842.15 283.35 842.3 283.6 842.45 283.8 842.55 284.1 842.65 284.4 842.7 284.65 842.8 284.95 842.9 285.2 842.95 285.5 843 285.75 843.05 286.05 843.1 286.4 843.15 286.75 843.25 287.1 843.3 287.5 843.3 287.85 843.35 288.2 843.4 288.5 843.45 288.9 843.5 289.25 843.5 289.6 843.55 289.95 843.6 290.3 843.65 290.65 843.75 291 843.8 291.35 843.85 291.75 843.95 292.05 844 292.4 844.1 292.8 844.2 293.1 844.35 293.4 844.45 293.75 844.6 294.05 844.7 294.35 844.8 294.7 844.95 295 845.05 295.3 845.2 295.6 845.35 295.9 845.55 296.2 845.7 296.5 845.85 296.8 846 297.1 846.15 297.4 846.3 297.7 846.45 298 846.7 298.25 846.85 298.6 847 298.85 847.2 299.15 847.35 299.45 847.55 299.7 847.75 300.05 847.95 300.3 848.15 300.55 848.3 300.9 848.5 301.15 848.7 301.45 848.9 301.7 849.1 302 849.3 302.3 849.45 302.55 849.4 302.65 849.35 302.8 849.25 303 849.15 303.25 849.05 303.45 848.95 303.7 848.8 303.9 848.65 304.15 848.55 304.35 848.45 304.6 848.3 304.85 848.2 305.1 848.1 305.35 848 305.55 847.85 305.8 847.75 306 847.6 306.25 847.5 306.45 847.35 306.7 847.25 306.9 847.15 307.2 847.05 307.4 846.95 307.65 846.85 307.85 846.75 308.1 846.7 308.3 846.6 308.6 846.45 308.8 846.35 309.05 846.3 309.25 846.2 309.55 846.15 309.75 846.05 310 846 310.2 845.95 310.5 845.85 310.7 845.8 311 845.75 311.2 845.7 311.5 845.65 311.7 845.6 312 845.55 312.25 845.5 312.5 845.45 312.75 845.45 313.05 845.35 313.3 845.3 313.5 845.25 313.8 845.25 314.05 845.2 314.35 845.15 314.55 845.15 314.85 845.1 315.1 845.1 315.4 845.1 315.6 845.05 315.9 845.05 316.15 845.05 316.4 845.05 316.65 845 316.9 845 317.15 845.05 317.4 845.05 317.7 845.05 317.9 845.05 318.2 845.05 318.4 845.1 318.7 845.1 318.95 845.15 319.2 845.15 319.45 845.2 319.7 845.25 319.95 845.3 320.2 845.3 320.45 845.35 320.7 845.45 320.95 845.5 321.2 845.55 321.45 845.65 321.7 845.7 321.95 845.75 322.2 845.85 322.45 845.9 322.65 846 322.95 846.05 323.15 846.15 323.4 846.25 323.65 846.35 323.9 846.45 324.1 846.6 324.4 846.7 324.6 846.8 324.8 846.9 325.05 847 325.25 847.1 325.5 847.2 325.65 847.3 325.9 847.4 326.1 847.5 326.35 847.6 326.55 847.8 326.75 847.9 327 848 327.15 848.15 327.4 848.3 327.55 848.4 327.8 848.55 327.95 848.7 328.2 848.85 328.4 849 328.55 849.15 328.8 849.3 328.95 849.45 329.15 849.65 329.35 849.8 329.55 850 329.75 850.15 329.9 850.35 330.1 850.5 330.3 850.65 330.45 850.85 330.65 851.05 330.85 851.25 331 851.4 331.2 851.6 331.35 851.8 331.5 851.95 331.7 852.2 331.85 852.4 332.05 852.6 332.2 852.8 332.35 853 332.55 853.2 332.7 853.45 332.85 853.65 333.05 853.9 333.2 854.1 333.35 854.3 333.5 854.6 333.65 854.8 333.8 855 333.95 855.25 334.1 855.45 334.25 855.75 334.4 855.95 334.55 856.2 334.7 856.4 334.8 856.7 335 856.9 335.15 857.15 335.25 857.35 335.4 857.6 335.55 857.9 335.7 858.1 335.8 858.35 335.95 858.6 336.15 858.8 336.25 859.1 336.4 859.35 336.55 859.6 336.65 859.8 336.8 860.1 336.95 860.35 337.1 860.6 337.15 860.8 337.3 861.05 337.45 861.35 337.6 861.6 337.7 861.85 337.85 862.1 338 862.4 338.1 862.65 338.2 862.9 338.35 863.15 338.5 863.45 338.6 863.7 338.75 863.95 338.85 864.2 339 864.5 339.1 864.75 339.25 865 339.35 865.25 339.5 865.5 339.6 865.8 339.75 866.05 339.85 866.3 340 866.55 340.05 866.85 340.2 867.15 340.35 867.4 340.45 867.65 340.55 867.95 340.65 868.2 340.8 868.45 340.95 868.7 341 869 341.15 869.25 341.25 869.55 341.4 869.75 341.45 870.05 341.55 870.3 341.65 870.5 341.8 870.75 341.9 871 341.95 871.25 342.05 871.5 342.15 871.75 342.3 872 342.4 872.2 342.45 872.5 342.55 872.75 342.65 873 342.7 873.25 342.8 873.55 342.9 873.75 342.95 874 343 874.25 343.1 874.55 343.2 874.85 343.25 875.1 343.3 875.35 343.4 875.7 343.4 875.95 343.45 876.25 343.5 876.5 343.55 876.8 343.6 877.1 343.65 877.35 343.7 877.65 343.7 878 343.75 878.25 343.8 878.5 343.8 878.8 343.85 879.1 343.85 879.4 343.85 879.7 343.9 879.95 343.9 880.3 343.95 880.6 344 880.85 344 881.15 344.05 881.5 344.05 881.75 344.05 882.05 344.1 882.4 344.1 882.65 344.15 882.95 344.15 883.2 344.15 883.55 344.2 883.85 344.2 884.1 344.2 884.4 344.2 884.75 344.25 885 344.25 885.3 344.25 885.6 344.25 885.9 344.25 886.2 344.3 886.5 344.3 886.75 344.3 887.1 344.3 887.4 344.3 887.65 344.3 888 344.3 888.3 344.3 888.55 344.35 888.85 344.35 889.2 344.35 889.45 344.35 889.75 344.35 890.05 344.35 890.35 344.35 890.65 344.35 890.95 344.35 891.2 344.35 891.55 344.35 891.85 344.35 892.1 344.35 892.45 344.35 892.7 344.35 892.95 344.35 893.2 344.35 893.45 344.35 893.8 344.35 894.05 344.35 894.3 344.3 894.55 344.3 894.85 344.3 895.15 344.25 895.45 344.25 895.8 344.2 896.05 344.2 896.35 344.15 896.65 344.1 897 344.05 897.25 344 897.55 343.95 897.85 343.9 898.1 343.85 898.35 343.85 898.55 343.8 898.8 343.8 899 343.75 899.3 343.7 899.55 343.6 899.75 343.55 899.95 343.5 900.25 343.45 900.5 343.4 900.8 343.3 901.05 343.2 901.3 343.1 901.65 343 901.9 342.95 902.15 342.9 902.5 342.8 902.75 342.65 903 342.55 903.25 342.45 903.6 342.4 903.85 342.3 904.1 342.15 904.35 342.05 904.6 341.95 904.95 341.85 905.2 341.75 905.4 341.6 905.65 341.5 905.95 341.4 906.15 341.3 906.4 341.15 906.65 341.05 906.85 340.95 907.15 340.85 907.35 340.7 907.6 340.55 907.8 340.5 908.1 340.35 908.3 340.2 908.55 340.05 908.75 339.95 908.95 339.8 909.25 339.65 909.45 339.55 909.7 339.4 909.9 339.25 910.15 339.1 910.4 339 910.65 338.85 910.85 338.7 911.1 338.55 911.3 338.45 911.55 338.3 911.8 338.15 912 338.05 912.25 337.9 912.45 337.75 912.75 337.6 912.95 337.45 913.15 337.3 913.4 337.15 913.6 337 913.85 336.85 914.05 336.7 914.3 336.55 914.5 336.4 914.7 336.25 914.95 336.1 915.15 335.95 915.35 335.75 915.55 335.65 915.75 335.45 916 335.25 916.2 335.15 916.4 334.95 916.6 334.75 916.8 334.65 917.05 334.45 917.25 334.25 917.4 334.1 917.6 333.95 917.8 333.75 917.95 333.6 918.2 333.45 918.35 333.25 918.5 333.1 918.7 332.9 918.85 332.75 919 332.55 919.2 332.35 919.4 332.25 919.55 332.05 919.7 331.85 919.9 331.7 920.05 331.45 920.2 331.3 920.4 331.1 920.55 330.9 920.7 330.75 920.85 330.55 921 330.35 921.15 330.15 921.25 329.95 921.4 329.8 921.6 329.55 921.75 329.4 921.85 329.2 922 328.95 922.1 328.8 922.25 328.55 922.35 328.4 922.5 328.15 922.65 327.95 922.8 327.75 922.9 327.55 923 327.35 923.1 327.1 923.25 326.95 923.35 326.7 923.45 326.5 923.55 326.25 923.65 326.05 923.85 325.8 923.95 325.55 924.05 325.35 924.15 325.1 924.25 324.9 924.35 324.65 924.45 324.45 924.55 324.2 924.65 324 924.75 323.7 924.9 323.5 925 323.25 925.1 323.05 925.2 322.8 925.25 322.6 925.35 322.35 925.45 322.15 925.55 321.9 925.6 321.7 925.7 321.45 925.8 321.25 925.85 321 926 320.75 926.1 320.55 926.15 320.3 926.25 320.1 926.3 319.85 926.4 319.65 926.45 319.4 926.55 319.2 926.6 318.95 926.7 318.75 926.75 318.5 926.8 318.3 926.85 318 926.9 317.8 927 317.5 927.1 317.3 927.15 317 927.2 316.75 927.25 316.5 927.3 316.25 927.35 315.95 927.4 315.75 927.45 315.45 927.5 315.2 927.55 314.95 927.6 314.7 927.65 314.45 927.7 314.2 927.75 313.95 927.8 313.65 927.8 313.45 927.85 313.15 927.9 312.9 927.9 312.65 927.95 312.4 928 312.1 928 311.85 928.05 311.6 928.05 311.35 928.1 311.1 928.1 310.85 928.1 310.6 928.15 310.3 928.15 310.05 928.15 309.8 928.25 309.55 928.25 309.3 928.25 309.1 928.25 308.85 928.25 308.65 928.25 308.4 928.25 308.2 928.25 307.95 928.25 307.75 928.25 307.5 928.15 307.25 928.15 307.05 928.1 306.8 928.1 306.55 928.05 306.3 928 306.1 927.95 305.8 927.9 305.6 927.85 305.35 927.85 305.1 927.8 304.85 927.7 304.65 927.65 304.4 927.6 304.2 927.55 303.95 927.45 303.75 927.4 303.5 927.3 303.3 927.25 303.05 927.15 302.85 927 302.6 926.9 302.4 926.8 302.15 926.7 301.95 926.6 301.7 926.5 301.5 926.4 301.3 926.3 301.05 926.2 300.85 926.1 300.6 926 300.45 925.85 300.2 925.75 300 925.6 299.8 925.5 299.55 925.4 299.4 925.25 299.15 925.15 299 925 298.75 924.9 298.6 924.7 298.35 924.55 298.15 924.45 298 924.3 297.8 924.15 297.6 924.05 297.4 923.9 297.2 923.75 297 923.55 296.8 923.4 296.65 923.25 296.4 923.1 296.2 922.95 296 922.8 295.8 922.65 295.6 922.45 295.4 922.25 295.2 922.1 295 921.95 294.75 921.8 294.6 921.65 294.35 921.4 294.2 921.25 293.95 921.1 293.75 920.95 293.6 920.75 293.35 920.6 293.2 920.45 293 920.2 292.8 920.05 292.6 919.9 292.4 919.7 292.25 919.55 292.05 919.4 291.85 919.15 291.65 919 291.45 918.85 291.3 918.65 291.1 918.5 290.9 918.3 290.7 918.15 290.5 917.9 290.35 917.75 290.15 917.55 289.95 917.4 289.8 917.2 289.6 917.05 289.45 916.8 289.25 916.65 289.05 916.45 288.85 916.25 288.65 916.1 288.45 915.85 288.35 915.7 288.15 915.5 288 915.3 287.8 915.1 287.6 914.95 287.45 914.7 287.25 914.5 287.05 914.3 286.9 914.1 286.75 913.95 286.55 913.75 286.4 913.5 286.2 913.3 286.05 913.1 285.9 912.9 285.7 912.7 285.6 912.45 285.4 912.25 285.2 912.05 285.1 911.85 284.9 911.65 284.7 911.45 284.6 911.2 284.4 911 284.2 910.8 284.1 910.6 283.9 910.4 283.75 910.15 283.6 909.95 283.4 909.75 283.25 909.55 283.1 909.35 282.95 909.1 282.75 908.9 282.65 908.7 282.45 908.5 282.3 908.25 282.15 908 282 907.8 281.85 907.6 281.7 907.4 281.55 907.2 281.35 906.9 281.25 906.7 281.1 906.5 280.9 906.3 280.75 906.05 280.6 905.85 280.45 905.55 280.3 905.35 280.15 905.15 279.95 904.9 279.8 904.65 279.7 904.4 279.5 904.2 279.35 903.95 279.2 903.75 279.05 903.5 278.85 903.25 278.75 903.05 278.6 902.8 278.4 902.6 278.3 902.3 278.1 902.1 277.95 901.9 277.85 901.7 277.7 901.5 277.55 901.2 277.4 901 277.25 900.8 277.1 900.6 276.95 900.4 276.85 900.15 276.7 899.95 276.55 899.75 276.45 899.55 276.25 899.35 276.1 899.15 275.95 898.9 275.85 898.7 275.65 898.5 275.5 898.3 275.4 898.1 275.2 897.85 275 897.65 274.9 897.45 274.7 897.25 274.55 897.05 274.4 896.8 274.2 896.6 274.05 896.4 273.9 896.2 273.7 896 273.55 895.8 273.4 895.55 273.2 895.35 273.05 895.15 272.9 894.95 272.7 894.75 272.55 894.5 272.4 894.35 272.2 894.15 272.05 893.95 271.85 893.75 271.65 893.55 271.55 893.3 271.35 893.15 271.15 892.95 271 892.75 270.8 892.55 270.65 892.35 270.45 892.15 270.25 891.95 270.1 891.8 269.9 891.6 269.7 891.4 269.55 891.3 269.35 891.1 269.2 890.95 268.95 890.8 268.75 890.65 268.6 890.5 268.4 890.4 268.2 890.25 268 890.05 267.8 889.95 267.6 889.8 267.4 889.7 267.2 889.6 267 889.45 266.8 889.35 266.6 889.25 266.35 889.1 266.2 888.95 265.95 888.85 265.8 888.75 265.55 888.6 265.35 888.5 265.15 888.4 264.9 888.3 264.75 888.2 264.45 888.1 264.25 888 264 887.8 263.8 887.7 263.55 887.6 263.35 887.5 263.1 887.4 262.9 887.25 262.6 887.15 262.4 887.05 262.15 886.95 261.95 886.85 261.7 886.65 261.5 886.55 261.3 886.5 261.1 886.45 261.05 886.45 261 886.4 260.9 886.3 260.75
L 886.3 260.7
Q 886.2 260.5 886.1 260.25 885.95 260 885.85 259.75 885.75 259.55 885.6 259.3 885.45 259.05 885.35 258.8 885.25 258.6 885.1 258.3 885 258.1 884.9 257.85 884.8 257.65 884.65 257.35 884.5 257.15 884.4 256.9 884.25 256.7 884.15 256.45 884.05 256.2 883.95 256 883.8 255.75 883.7 255.55 883.6 255.3 883.4 255.1 883.3 254.85 883.15 254.65 883.05 254.4 882.9 254.2 882.8 253.95 882.65 253.75 882.5 253.55 882.4 253.3 882.2 253.1 882.05 252.85 881.9 252.7 881.75 252.45 881.6 252.25 881.45 252 881.3 251.8 881.05 251.6 880.9 251.4 880.75 251.15 880.6 250.9 880.45 250.75 880.25 250.5 880.05 250.3 879.9 250.1 879.7 249.9 879.55 249.7 879.4 249.45 879.2 249.3 879.05 249.05 878.8 248.85 878.65 248.65 878.5 248.45 878.3 248.25 878.15 248 878 247.85 877.75 247.6 877.6 247.45 877.4 247.25 877.25 247.05 877.05 246.85 876.9 246.6 876.65 246.45 876.5 246.2 876.3 246.05 876.15 245.8 875.95 245.6 875.8 245.45 875.55 245.2 875.4 245.05 875.2 244.8 875.05 244.65 874.85 244.45 874.7 244.2 874.45 244.05 874.3 243.85 874.1 243.65 873.9 243.45 873.75 243.25 873.55 243.05 873.3 242.85 873.15 242.7 872.95 242.45 872.8 242.25 872.6 242.1 872.4 241.9 872.2 241.7 872 241.5 871.8 241.3 871.65 241.15 871.45 240.95 871.25 240.8 871.05 240.6 870.85 240.4 870.65 240.25 870.5 240.05 870.3 239.85 870.1 239.7 869.85 239.5 869.7 239.35 869.5 239.15 869.3 238.95 869.1 238.8 868.85 238.6 868.7 238.4 868.5 238.25 868.3 238.05 868.1 237.9 867.9 237.7 867.65 237.5 867.45 237.35 867.3 237.15 867.1 237 866.9 236.85 866.7 236.65 866.45 236.45 866.25 236.3 866.05 236.15 865.85 235.95 865.65 235.8 865.4 235.6 865.2 235.5 865 235.3 864.85 235.15 864.65 235 864.4 234.8 864.2 234.65 864 234.5 863.8 234.35 863.6 234.15 863.4 234.05 863.15 233.85 862.95 233.65 862.8 233.55 862.6 233.35 862.4 233.2 862.15 233.05 861.95 232.85 861.75 232.7 861.55 232.55 861.35 232.35 861.2 232.2 860.95 232.05 860.75 231.85 860.55 231.7 860.4 231.55 860.2 231.35 860 231.15 859.8 231 859.6 230.85 859.4 230.65 859.25 230.5 859.05 230.3 858.9 230.15 858.65 229.95 858.5 229.75 858.35 229.6 858.2 229.4 858.05 229.2 857.95 229 857.8 228.75 857.6 228.6 857.5 228.35 857.4 228.2 857.25 227.95 857.15 227.8 857.05 227.55 856.95 227.35 856.8 227.15 856.7 226.9 856.55 226.7 856.45 226.45 856.35 226.25 856.25 226 856.15 225.8 856.05 225.55 855.95 225.35 855.85 225.1 855.75 224.9 855.65 224.65 855.45 224.4 855.35 224.2 855.25 223.95 855.15 223.75 855.05 223.5 854.95 223.3 854.85 223.05 854.7 222.85 854.6 222.6 854.5 222.4 854.3 222.15 854.2 221.95 854.05 221.7 853.95 221.5 853.8 221.3 853.65 221.05 853.5 220.85 853.4 220.65 853.2 220.45 853.05 220.2 852.9 220.05 852.75 219.8 852.6 219.6 852.45 219.4 852.3 219.2 852.1 219.05 851.9 218.8 851.75 218.65 851.6 218.45 851.45 218.2 851.25 218.05 851.1 217.85 850.9 217.65 850.7 217.45 850.55 217.25 850.35 217.1 850.2 216.9 850 216.7 849.75 216.55 849.6 216.35 849.4 216.2 849.25 216 849.05 215.85 848.9 215.7 848.65 215.5 848.5 215.3 848.3 215.2 848.15 215 847.95 214.8 847.75 214.7 847.55 214.5 847.35 214.3 847.2 214.2 847 214 846.8 213.8 846.65 213.7 846.4 213.5 846.2 213.35 846 213.2 845.85 213 845.65 212.85 845.45 212.7 845.2 212.5 845 212.35 844.8 212.25 844.6 212.05 844.4 211.9 844.15 211.75 843.9 211.6 843.7 211.4 843.45 211.25 843.25 211.1 843 210.9 842.75 210.75 842.55 210.6 842.35 210.45 842.1 210.25 841.85 210.1 841.6 209.95 841.4 209.8 841.2 209.6 840.9 209.45 840.7 209.3 840.45 209.1 840.25 209 840 208.8 839.75 208.6 839.5 208.5 839.3 208.3 839.1 208.15 838.85 208 838.6 207.85 838.35 207.65 838.15 207.55 837.9 207.35 837.7 207.2 837.4 207.05 837.2 206.9 836.95 206.7 836.75 206.6 836.5 206.4 836.25 206.25 836 206.1 835.8 205.9 835.55 205.75 835.3 205.6 835.1 205.45 834.85 205.25 834.65 205.15 834.45 204.95 834.2 204.8 833.95 204.65 833.75 204.5 833.55 204.3 833.3 204.2 833.05 204 832.85 203.85 832.65 203.7 832.4 203.55 832.2 203.4 831.95 203.2 831.75 203.1 831.5 202.9 831.3 202.75 831.1 202.6 830.8 202.4 830.6 202.25 830.4 202.1 830.15 201.9 829.95 201.75 829.7 201.6 829.5 201.4 829.3 201.25 829.1 201.05 828.85 200.85 828.6 200.7 828.4 200.55 828.2 200.35 828 200.2 827.8 200 827.6 199.85 827.35 199.65 827.15 199.45 826.95 199.3 826.7 199.1 826.5 198.9 826.25 198.7 826.05 198.5 825.85 198.35 825.65 198.15 825.45 197.95 825.2 197.8 825 197.6 824.8 197.45 824.6 197.25 824.35 197.05 824.1 196.9 823.9 196.7 823.7 196.45 823.5 196.3 823.3 196.1 823.1 195.95 822.85 195.75 822.65 195.55 822.45 195.4 822.25 195.2 822.05 195 821.75 194.85 821.55 194.65 821.35 194.45 821.15 194.25 820.95 194.05 820.7 193.9 820.5 193.7 820.3 193.55 820.1 193.35 819.9 193.15 819.65 193 819.45 192.8 819.2 192.6 819 192.45 818.8 192.3 818.55 192.15 818.35 191.95 818.15 191.75 817.95 191.6 817.7 191.4 817.5 191.2 817.25 191.05 817.05 190.85 816.85 190.7 816.6 190.55 816.4 190.35 816.15 190.2 815.95 190 815.75 189.8 Z"/>
</g>
</defs>

<g transform="matrix( 1, 0, 0, 1, -527.25,-65.35) ">
<g transform="matrix( 1, 0, 0, 1, 0,0) ">
<use xlink:href="#Symbol_1_2_Layer0_0_FILL"/>
</g>
</g>
</svg>
